<?xml version="1.0" encoding="utf-8"?>
<svg xmlns="http://www.w3.org/2000/svg" xmlns:xlink="http://www.w3.org/1999/xlink" width="600" height="400" viewBox="0 0 2400 1600">
<defs>
  <clipPath id="clip780">
    <rect x="0" y="0" width="2400" height="1600"/>
  </clipPath>
</defs>
<path clip-path="url(#clip780)" d="
M0 1600 L2400 1600 L2400 0 L0 0  Z
  " fill="#ffffff" fill-rule="evenodd" fill-opacity="1"/>
<defs>
  <clipPath id="clip781">
    <rect x="480" y="0" width="1681" height="1600"/>
  </clipPath>
</defs>
<path clip-path="url(#clip780)" d="
M139.191 1423.18 L2352.76 1423.18 L2352.76 47.2441 L139.191 47.2441  Z
  " fill="#ffffff" fill-rule="evenodd" fill-opacity="1"/>
<defs>
  <clipPath id="clip782">
    <rect x="139" y="47" width="2215" height="1377"/>
  </clipPath>
</defs>
<polyline clip-path="url(#clip782)" style="stroke:#000000; stroke-width:2; stroke-opacity:0.1; fill:none" points="
  139.191,1423.18 139.191,47.2441 
  "/>
<polyline clip-path="url(#clip782)" style="stroke:#000000; stroke-width:2; stroke-opacity:0.1; fill:none" points="
  877.046,1423.18 877.046,47.2441 
  "/>
<polyline clip-path="url(#clip782)" style="stroke:#000000; stroke-width:2; stroke-opacity:0.1; fill:none" points="
  1614.9,1423.18 1614.9,47.2441 
  "/>
<polyline clip-path="url(#clip782)" style="stroke:#000000; stroke-width:2; stroke-opacity:0.1; fill:none" points="
  2352.76,1423.18 2352.76,47.2441 
  "/>
<polyline clip-path="url(#clip782)" style="stroke:#000000; stroke-width:2; stroke-opacity:0.1; fill:none" points="
  139.191,1385.93 2352.76,1385.93 
  "/>
<polyline clip-path="url(#clip782)" style="stroke:#000000; stroke-width:2; stroke-opacity:0.1; fill:none" points="
  139.191,1135.98 2352.76,1135.98 
  "/>
<polyline clip-path="url(#clip782)" style="stroke:#000000; stroke-width:2; stroke-opacity:0.1; fill:none" points="
  139.191,886.04 2352.76,886.04 
  "/>
<polyline clip-path="url(#clip782)" style="stroke:#000000; stroke-width:2; stroke-opacity:0.1; fill:none" points="
  139.191,636.096 2352.76,636.096 
  "/>
<polyline clip-path="url(#clip782)" style="stroke:#000000; stroke-width:2; stroke-opacity:0.1; fill:none" points="
  139.191,386.152 2352.76,386.152 
  "/>
<polyline clip-path="url(#clip782)" style="stroke:#000000; stroke-width:2; stroke-opacity:0.1; fill:none" points="
  139.191,136.208 2352.76,136.208 
  "/>
<polyline clip-path="url(#clip780)" style="stroke:#000000; stroke-width:4; stroke-opacity:1; fill:none" points="
  139.191,1423.18 2352.76,1423.18 
  "/>
<polyline clip-path="url(#clip780)" style="stroke:#000000; stroke-width:4; stroke-opacity:1; fill:none" points="
  139.191,1423.18 139.191,47.2441 
  "/>
<polyline clip-path="url(#clip780)" style="stroke:#000000; stroke-width:4; stroke-opacity:1; fill:none" points="
  139.191,1423.18 139.191,1406.67 
  "/>
<polyline clip-path="url(#clip780)" style="stroke:#000000; stroke-width:4; stroke-opacity:1; fill:none" points="
  877.046,1423.18 877.046,1406.67 
  "/>
<polyline clip-path="url(#clip780)" style="stroke:#000000; stroke-width:4; stroke-opacity:1; fill:none" points="
  1614.9,1423.18 1614.9,1406.67 
  "/>
<polyline clip-path="url(#clip780)" style="stroke:#000000; stroke-width:4; stroke-opacity:1; fill:none" points="
  2352.76,1423.18 2352.76,1406.67 
  "/>
<polyline clip-path="url(#clip780)" style="stroke:#000000; stroke-width:4; stroke-opacity:1; fill:none" points="
  139.191,1385.93 165.754,1385.93 
  "/>
<polyline clip-path="url(#clip780)" style="stroke:#000000; stroke-width:4; stroke-opacity:1; fill:none" points="
  139.191,1135.98 165.754,1135.98 
  "/>
<polyline clip-path="url(#clip780)" style="stroke:#000000; stroke-width:4; stroke-opacity:1; fill:none" points="
  139.191,886.04 165.754,886.04 
  "/>
<polyline clip-path="url(#clip780)" style="stroke:#000000; stroke-width:4; stroke-opacity:1; fill:none" points="
  139.191,636.096 165.754,636.096 
  "/>
<polyline clip-path="url(#clip780)" style="stroke:#000000; stroke-width:4; stroke-opacity:1; fill:none" points="
  139.191,386.152 165.754,386.152 
  "/>
<polyline clip-path="url(#clip780)" style="stroke:#000000; stroke-width:4; stroke-opacity:1; fill:none" points="
  139.191,136.208 165.754,136.208 
  "/>
<path clip-path="url(#clip780)" d="M 0 0 M139.191 1445.17 Q135.58 1445.17 133.751 1448.74 Q131.946 1452.28 131.946 1459.41 Q131.946 1466.51 133.751 1470.08 Q135.58 1473.62 139.191 1473.62 Q142.825 1473.62 144.631 1470.08 Q146.459 1466.51 146.459 1459.41 Q146.459 1452.28 144.631 1448.74 Q142.825 1445.17 139.191 1445.17 M139.191 1441.47 Q145.001 1441.47 148.057 1446.07 Q151.135 1450.66 151.135 1459.41 Q151.135 1468.13 148.057 1472.74 Q145.001 1477.32 139.191 1477.32 Q133.381 1477.32 130.302 1472.74 Q127.247 1468.13 127.247 1459.41 Q127.247 1450.66 130.302 1446.07 Q133.381 1441.47 139.191 1441.47 Z" fill="#000000" fill-rule="evenodd" fill-opacity="1" /><path clip-path="url(#clip780)" d="M 0 0 M867.428 1472.72 L875.067 1472.72 L875.067 1446.35 L866.757 1448.02 L866.757 1443.76 L875.02 1442.09 L879.696 1442.09 L879.696 1472.72 L887.335 1472.72 L887.335 1476.65 L867.428 1476.65 L867.428 1472.72 Z" fill="#000000" fill-rule="evenodd" fill-opacity="1" /><path clip-path="url(#clip780)" d="M 0 0 M1609.55 1472.72 L1625.87 1472.72 L1625.87 1476.65 L1603.93 1476.65 L1603.93 1472.72 Q1606.59 1469.96 1611.17 1465.33 Q1615.78 1460.68 1616.96 1459.34 Q1619.21 1456.81 1620.09 1455.08 Q1620.99 1453.32 1620.99 1451.63 Q1620.99 1448.87 1619.04 1447.14 Q1617.12 1445.4 1614.02 1445.4 Q1611.82 1445.4 1609.37 1446.17 Q1606.94 1446.93 1604.16 1448.48 L1604.16 1443.76 Q1606.98 1442.62 1609.44 1442.05 Q1611.89 1441.47 1613.93 1441.47 Q1619.3 1441.47 1622.49 1444.15 Q1625.69 1446.84 1625.69 1451.33 Q1625.69 1453.46 1624.88 1455.38 Q1624.09 1457.28 1621.98 1459.87 Q1621.41 1460.54 1618.3 1463.76 Q1615.2 1466.95 1609.55 1472.72 Z" fill="#000000" fill-rule="evenodd" fill-opacity="1" /><path clip-path="url(#clip780)" d="M 0 0 M2357 1458.02 Q2360.36 1458.74 2362.24 1461 Q2364.13 1463.27 2364.13 1466.61 Q2364.13 1471.72 2360.61 1474.52 Q2357.1 1477.32 2350.61 1477.32 Q2348.44 1477.32 2346.12 1476.88 Q2343.83 1476.47 2341.38 1475.61 L2341.38 1471.1 Q2343.32 1472.23 2345.64 1472.81 Q2347.95 1473.39 2350.48 1473.39 Q2354.87 1473.39 2357.17 1471.65 Q2359.48 1469.92 2359.48 1466.61 Q2359.48 1463.55 2357.33 1461.84 Q2355.2 1460.1 2351.38 1460.1 L2347.35 1460.1 L2347.35 1456.26 L2351.56 1456.26 Q2355.01 1456.26 2356.84 1454.89 Q2358.67 1453.5 2358.67 1450.91 Q2358.67 1448.25 2356.77 1446.84 Q2354.9 1445.4 2351.38 1445.4 Q2349.46 1445.4 2347.26 1445.82 Q2345.06 1446.24 2342.42 1447.11 L2342.42 1442.95 Q2345.08 1442.21 2347.4 1441.84 Q2349.74 1441.47 2351.8 1441.47 Q2357.12 1441.47 2360.22 1443.9 Q2363.32 1446.3 2363.32 1450.43 Q2363.32 1453.3 2361.68 1455.29 Q2360.04 1457.25 2357 1458.02 Z" fill="#000000" fill-rule="evenodd" fill-opacity="1" /><path clip-path="url(#clip780)" d="M 0 0 M103.247 1371.73 Q99.6354 1371.73 97.8068 1375.29 Q96.0012 1378.83 96.0012 1385.96 Q96.0012 1393.07 97.8068 1396.63 Q99.6354 1400.18 103.247 1400.18 Q106.881 1400.18 108.686 1396.63 Q110.515 1393.07 110.515 1385.96 Q110.515 1378.83 108.686 1375.29 Q106.881 1371.73 103.247 1371.73 M103.247 1368.02 Q109.057 1368.02 112.112 1372.63 Q115.191 1377.21 115.191 1385.96 Q115.191 1394.69 112.112 1399.3 Q109.057 1403.88 103.247 1403.88 Q97.4364 1403.88 94.3577 1399.3 Q91.3022 1394.69 91.3022 1385.96 Q91.3022 1377.21 94.3577 1372.63 Q97.4364 1368.02 103.247 1368.02 Z" fill="#000000" fill-rule="evenodd" fill-opacity="1" /><path clip-path="url(#clip780)" d="M 0 0 M68.2699 1149.33 L75.9087 1149.33 L75.9087 1122.96 L67.5986 1124.63 L67.5986 1120.37 L75.8624 1118.7 L80.5383 1118.7 L80.5383 1149.33 L88.1772 1149.33 L88.1772 1153.26 L68.2699 1153.26 L68.2699 1149.33 Z" fill="#000000" fill-rule="evenodd" fill-opacity="1" /><path clip-path="url(#clip780)" d="M 0 0 M103.247 1121.78 Q99.6354 1121.78 97.8068 1125.35 Q96.0012 1128.89 96.0012 1136.02 Q96.0012 1143.13 97.8068 1146.69 Q99.6354 1150.23 103.247 1150.23 Q106.881 1150.23 108.686 1146.69 Q110.515 1143.13 110.515 1136.02 Q110.515 1128.89 108.686 1125.35 Q106.881 1121.78 103.247 1121.78 M103.247 1118.08 Q109.057 1118.08 112.112 1122.69 Q115.191 1127.27 115.191 1136.02 Q115.191 1144.75 112.112 1149.35 Q109.057 1153.94 103.247 1153.94 Q97.4364 1153.94 94.3577 1149.35 Q91.3022 1144.75 91.3022 1136.02 Q91.3022 1127.27 94.3577 1122.69 Q97.4364 1118.08 103.247 1118.08 Z" fill="#000000" fill-rule="evenodd" fill-opacity="1" /><path clip-path="url(#clip780)" d="M 0 0 M71.8578 899.385 L88.1772 899.385 L88.1772 903.32 L66.2328 903.32 L66.2328 899.385 Q68.8949 896.63 73.4782 892 Q78.0846 887.348 79.2652 886.005 Q81.5105 883.482 82.3902 881.746 Q83.2929 879.987 83.2929 878.297 Q83.2929 875.542 81.3485 873.806 Q79.4272 872.07 76.3254 872.07 Q74.1263 872.07 71.6726 872.834 Q69.2421 873.598 66.4643 875.149 L66.4643 870.427 Q69.2884 869.292 71.7421 868.714 Q74.1958 868.135 76.2328 868.135 Q81.6031 868.135 84.7976 870.82 Q87.992 873.505 87.992 877.996 Q87.992 880.126 87.1818 882.047 Q86.3948 883.945 84.2883 886.538 Q83.7096 887.209 80.6078 890.426 Q77.5059 893.621 71.8578 899.385 Z" fill="#000000" fill-rule="evenodd" fill-opacity="1" /><path clip-path="url(#clip780)" d="M 0 0 M103.247 871.839 Q99.6354 871.839 97.8068 875.403 Q96.0012 878.945 96.0012 886.075 Q96.0012 893.181 97.8068 896.746 Q99.6354 900.287 103.247 900.287 Q106.881 900.287 108.686 896.746 Q110.515 893.181 110.515 886.075 Q110.515 878.945 108.686 875.403 Q106.881 871.839 103.247 871.839 M103.247 868.135 Q109.057 868.135 112.112 872.741 Q115.191 877.325 115.191 886.075 Q115.191 894.801 112.112 899.408 Q109.057 903.991 103.247 903.991 Q97.4364 903.991 94.3577 899.408 Q91.3022 894.801 91.3022 886.075 Q91.3022 877.325 94.3577 872.741 Q97.4364 868.135 103.247 868.135 Z" fill="#000000" fill-rule="evenodd" fill-opacity="1" /><path clip-path="url(#clip780)" d="M 0 0 M81.0476 634.742 Q84.404 635.459 86.279 637.728 Q88.1772 639.996 88.1772 643.33 Q88.1772 648.445 84.6587 651.246 Q81.1402 654.047 74.6587 654.047 Q72.4828 654.047 70.168 653.607 Q67.8764 653.191 65.4227 652.334 L65.4227 647.82 Q67.3671 648.954 69.6819 649.533 Q71.9967 650.112 74.5198 650.112 Q78.918 650.112 81.2096 648.376 Q83.5244 646.64 83.5244 643.33 Q83.5244 640.274 81.3717 638.561 Q79.242 636.825 75.4226 636.825 L71.3949 636.825 L71.3949 632.982 L75.6078 632.982 Q79.0569 632.982 80.8855 631.617 Q82.7142 630.228 82.7142 627.635 Q82.7142 624.973 80.8161 623.561 Q78.9411 622.126 75.4226 622.126 Q73.5013 622.126 71.3023 622.543 Q69.1032 622.959 66.4643 623.839 L66.4643 619.672 Q69.1264 618.932 71.4412 618.561 Q73.7791 618.191 75.8393 618.191 Q81.1633 618.191 84.2652 620.621 Q87.367 623.029 87.367 627.149 Q87.367 630.019 85.7235 632.01 Q84.08 633.978 81.0476 634.742 Z" fill="#000000" fill-rule="evenodd" fill-opacity="1" /><path clip-path="url(#clip780)" d="M 0 0 M103.247 621.894 Q99.6354 621.894 97.8068 625.459 Q96.0012 629.001 96.0012 636.13 Q96.0012 643.237 97.8068 646.802 Q99.6354 650.343 103.247 650.343 Q106.881 650.343 108.686 646.802 Q110.515 643.237 110.515 636.13 Q110.515 629.001 108.686 625.459 Q106.881 621.894 103.247 621.894 M103.247 618.191 Q109.057 618.191 112.112 622.797 Q115.191 627.381 115.191 636.13 Q115.191 644.857 112.112 649.464 Q109.057 654.047 103.247 654.047 Q97.4364 654.047 94.3577 649.464 Q91.3022 644.857 91.3022 636.13 Q91.3022 627.381 94.3577 622.797 Q97.4364 618.191 103.247 618.191 Z" fill="#000000" fill-rule="evenodd" fill-opacity="1" /><path clip-path="url(#clip780)" d="M 0 0 M78.5939 372.946 L66.7884 391.395 L78.5939 391.395 L78.5939 372.946 M77.367 368.872 L83.2466 368.872 L83.2466 391.395 L88.1772 391.395 L88.1772 395.284 L83.2466 395.284 L83.2466 403.432 L78.5939 403.432 L78.5939 395.284 L62.9921 395.284 L62.9921 390.77 L77.367 368.872 Z" fill="#000000" fill-rule="evenodd" fill-opacity="1" /><path clip-path="url(#clip780)" d="M 0 0 M103.247 371.95 Q99.6354 371.95 97.8068 375.515 Q96.0012 379.057 96.0012 386.186 Q96.0012 393.293 97.8068 396.858 Q99.6354 400.399 103.247 400.399 Q106.881 400.399 108.686 396.858 Q110.515 393.293 110.515 386.186 Q110.515 379.057 108.686 375.515 Q106.881 371.95 103.247 371.95 M103.247 368.247 Q109.057 368.247 112.112 372.853 Q115.191 377.436 115.191 386.186 Q115.191 394.913 112.112 399.52 Q109.057 404.103 103.247 404.103 Q97.4364 404.103 94.3577 399.52 Q91.3022 394.913 91.3022 386.186 Q91.3022 377.436 94.3577 372.853 Q97.4364 368.247 103.247 368.247 Z" fill="#000000" fill-rule="evenodd" fill-opacity="1" /><path clip-path="url(#clip780)" d="M 0 0 M67.2745 118.928 L85.6309 118.928 L85.6309 122.863 L71.5569 122.863 L71.5569 131.335 Q72.5754 130.988 73.5939 130.826 Q74.6124 130.64 75.6309 130.64 Q81.418 130.64 84.7976 133.812 Q88.1772 136.983 88.1772 142.4 Q88.1772 147.978 84.705 151.08 Q81.2328 154.159 74.9134 154.159 Q72.7374 154.159 70.4689 153.789 Q68.2236 153.418 65.8162 152.677 L65.8162 147.978 Q67.8995 149.113 70.1217 149.668 Q72.3439 150.224 74.8208 150.224 Q78.8254 150.224 81.1633 148.117 Q83.5013 146.011 83.5013 142.4 Q83.5013 138.789 81.1633 136.682 Q78.8254 134.576 74.8208 134.576 Q72.9458 134.576 71.0708 134.992 Q69.2189 135.409 67.2745 136.289 L67.2745 118.928 Z" fill="#000000" fill-rule="evenodd" fill-opacity="1" /><path clip-path="url(#clip780)" d="M 0 0 M103.247 122.006 Q99.6354 122.006 97.8068 125.571 Q96.0012 129.113 96.0012 136.242 Q96.0012 143.349 97.8068 146.914 Q99.6354 150.455 103.247 150.455 Q106.881 150.455 108.686 146.914 Q110.515 143.349 110.515 136.242 Q110.515 129.113 108.686 125.571 Q106.881 122.006 103.247 122.006 M103.247 118.303 Q109.057 118.303 112.112 122.909 Q115.191 127.492 115.191 136.242 Q115.191 144.969 112.112 149.576 Q109.057 154.159 103.247 154.159 Q97.4364 154.159 94.3577 149.576 Q91.3022 144.969 91.3022 136.242 Q91.3022 127.492 94.3577 122.909 Q97.4364 118.303 103.247 118.303 Z" fill="#000000" fill-rule="evenodd" fill-opacity="1" /><path clip-path="url(#clip780)" d="M 0 0 M1245.03 1510.27 L1245.03 1520.4 L1257.1 1520.4 L1257.1 1524.95 L1245.03 1524.95 L1245.03 1544.3 Q1245.03 1548.66 1246.21 1549.9 Q1247.42 1551.14 1251.08 1551.14 L1257.1 1551.14 L1257.1 1556.04 L1251.08 1556.04 Q1244.3 1556.04 1241.72 1553.53 Q1239.15 1550.98 1239.15 1544.3 L1239.15 1524.95 L1234.85 1524.95 L1234.85 1520.4 L1239.15 1520.4 L1239.15 1510.27 L1245.03 1510.27 Z" fill="#000000" fill-rule="evenodd" fill-opacity="1" /><polyline clip-path="url(#clip782)" style="stroke:#009af9; stroke-width:20; stroke-opacity:1; fill:none" points="
  139.191,1374.87 212.976,1377.38 286.762,1378.94 360.547,1379.94 434.333,1380.58 508.118,1380.97 581.904,1381.18 655.689,1381.27 729.475,1381.24 803.26,1381.13 
  877.046,1380.94 950.831,1380.66 1024.62,1380.31 1098.4,1379.88 1172.19,1379.35 1245.97,1378.73 1319.76,1378.01 1393.54,1377.18 1467.33,1376.21 1541.12,1375.1 
  1614.9,1373.82 1688.69,1372.37 1762.47,1370.7 1836.26,1368.81 1910.04,1366.64 1983.83,1364.18 2057.61,1361.38 2131.4,1358.19 2205.18,1354.57 2278.97,1350.45 
  2352.76,1345.78 
  "/>
<polyline clip-path="url(#clip782)" style="stroke:#e26f46; stroke-width:20; stroke-opacity:1; fill:none" points="
  139.191,1270.25 212.976,1286.26 286.762,1300.6 360.547,1313.17 434.333,1324.05 508.118,1333.38 581.904,1341.35 655.689,1348.13 729.475,1353.88 803.26,1358.75 
  877.046,1362.87 950.831,1366.35 1024.62,1369.29 1098.4,1371.77 1172.19,1373.86 1245.97,1375.62 1319.76,1377.11 1393.54,1378.36 1467.33,1379.42 1541.12,1380.31 
  1614.9,1381.06 1688.69,1381.69 1762.47,1382.22 1836.26,1382.67 1910.04,1383.04 1983.83,1383.36 2057.61,1383.61 2131.4,1383.83 2205.18,1384 2278.97,1384.14 
  2352.76,1384.24 
  "/>
<polyline clip-path="url(#clip782)" style="stroke:#3da44d; stroke-width:8; stroke-opacity:1; fill:none" points="
  139.191,1374.87 212.976,1371.52 286.762,1367.62 360.547,1363.07 434.333,1357.79 508.118,1351.68 581.904,1344.63 655.689,1336.52 729.475,1327.22 803.26,1316.58 
  877.046,1304.44 950.831,1290.62 1024.62,1274.9 1098.4,1257.03 1172.19,1236.71 1245.97,1213.61 1319.76,1187.36 1393.54,1157.51 1467.33,1123.58 1541.12,1085.01 
  1614.9,1041.16 1688.69,991.301 1762.47,934.593 1836.26,870.082 1910.04,796.671 1983.83,713.119 2057.61,618.012 2131.4,509.736 2205.18,386.444 2278.97,246.049 
  2352.76,86.1857 
  "/>
<polyline clip-path="url(#clip782)" style="stroke:#c271d2; stroke-width:8; stroke-opacity:1; fill:none" points="
  139.191,1270.25 212.976,1286.64 286.762,1300.37 360.547,1311.89 434.333,1321.59 508.118,1329.8 581.904,1336.81 655.689,1342.88 729.475,1348.24 803.26,1353.04 
  877.046,1357.38 950.831,1361.31 1024.62,1364.81 1098.4,1367.89 1172.19,1370.56 1245.97,1372.84 1319.76,1374.75 1393.54,1376.33 1467.33,1377.62 1541.12,1378.64 
  1614.9,1379.44 1688.69,1380.04 1762.47,1380.48 1836.26,1380.77 1910.04,1380.95 1983.83,1381.04 2057.61,1381.08 2131.4,1381.08 2205.18,1381.07 2278.97,1381.05 
  2352.76,1381.03 
  "/>
<path clip-path="url(#clip780)" d="
M1938.95 395.509 L2278.97 395.509 L2278.97 93.1086 L1938.95 93.1086  Z
  " fill="#ffffff" fill-rule="evenodd" fill-opacity="1"/>
<polyline clip-path="url(#clip780)" style="stroke:#000000; stroke-width:4; stroke-opacity:1; fill:none" points="
  1938.95,395.509 2278.97,395.509 2278.97,93.1086 1938.95,93.1086 1938.95,395.509 
  "/>
<polyline clip-path="url(#clip780)" style="stroke:#009af9; stroke-width:4; stroke-opacity:1; fill:none" points="
  1963.54,153.589 2111.11,153.589 
  "/>
<path clip-path="url(#clip780)" d="M 0 0 M2135.71 160.637 L2135.71 144.943 L2139.97 144.943 L2139.97 160.475 Q2139.97 164.156 2141.4 166.008 Q2142.84 167.836 2145.71 167.836 Q2149.16 167.836 2151.15 165.637 Q2153.16 163.438 2153.16 159.642 L2153.16 144.943 L2157.42 144.943 L2157.42 170.869 L2153.16 170.869 L2153.16 166.887 Q2151.61 169.248 2149.55 170.406 Q2147.51 171.54 2144.8 171.54 Q2140.34 171.54 2138.02 168.762 Q2135.71 165.984 2135.71 160.637 M2146.42 144.318 L2146.42 144.318 Z" fill="#000000" fill-rule="evenodd" fill-opacity="1" /><path clip-path="url(#clip780)" d="M 0 0 M2163.3 166.933 L2170.94 166.933 L2170.94 140.568 L2162.63 142.235 L2162.63 137.975 L2170.89 136.309 L2175.57 136.309 L2175.57 166.933 L2183.21 166.933 L2183.21 170.869 L2163.3 170.869 L2163.3 166.933 Z" fill="#000000" fill-rule="evenodd" fill-opacity="1" /><path clip-path="url(#clip780)" d="M 0 0 M2197.91 134.897 Q2194.8 140.221 2193.3 145.429 Q2191.79 150.637 2191.79 155.984 Q2191.79 161.332 2193.3 166.586 Q2194.83 171.818 2197.91 177.119 L2194.2 177.119 Q2190.73 171.679 2188.99 166.424 Q2187.28 161.17 2187.28 155.984 Q2187.28 150.822 2188.99 145.591 Q2190.71 140.36 2194.2 134.897 L2197.91 134.897 Z" fill="#000000" fill-rule="evenodd" fill-opacity="1" /><path clip-path="url(#clip780)" d="M 0 0 M2206.59 137.582 L2206.59 144.943 L2215.36 144.943 L2215.36 148.253 L2206.59 148.253 L2206.59 162.327 Q2206.59 165.498 2207.44 166.401 Q2208.32 167.304 2210.98 167.304 L2215.36 167.304 L2215.36 170.869 L2210.98 170.869 Q2206.05 170.869 2204.18 169.04 Q2202.3 167.188 2202.3 162.327 L2202.3 148.253 L2199.18 148.253 L2199.18 144.943 L2202.3 144.943 L2202.3 137.582 L2206.59 137.582 Z" fill="#000000" fill-rule="evenodd" fill-opacity="1" /><path clip-path="url(#clip780)" d="M 0 0 M2219.16 134.897 L2222.86 134.897 Q2226.33 140.36 2228.04 145.591 Q2229.78 150.822 2229.78 155.984 Q2229.78 161.17 2228.04 166.424 Q2226.33 171.679 2222.86 177.119 L2219.16 177.119 Q2222.23 171.818 2223.74 166.586 Q2225.27 161.332 2225.27 155.984 Q2225.27 150.637 2223.74 145.429 Q2222.23 140.221 2219.16 134.897 Z" fill="#000000" fill-rule="evenodd" fill-opacity="1" /><polyline clip-path="url(#clip780)" style="stroke:#e26f46; stroke-width:4; stroke-opacity:1; fill:none" points="
  1963.54,214.069 2111.11,214.069 
  "/>
<path clip-path="url(#clip780)" d="M 0 0 M2135.71 221.117 L2135.71 205.423 L2139.97 205.423 L2139.97 220.955 Q2139.97 224.636 2141.4 226.488 Q2142.84 228.316 2145.71 228.316 Q2149.16 228.316 2151.15 226.117 Q2153.16 223.918 2153.16 220.122 L2153.16 205.423 L2157.42 205.423 L2157.42 231.349 L2153.16 231.349 L2153.16 227.367 Q2151.61 229.728 2149.55 230.886 Q2147.51 232.02 2144.8 232.02 Q2140.34 232.02 2138.02 229.242 Q2135.71 226.464 2135.71 221.117 M2146.42 204.798 L2146.42 204.798 Z" fill="#000000" fill-rule="evenodd" fill-opacity="1" /><path clip-path="url(#clip780)" d="M 0 0 M2166.52 227.413 L2182.84 227.413 L2182.84 231.349 L2160.89 231.349 L2160.89 227.413 Q2163.55 224.659 2168.14 220.029 Q2172.74 215.376 2173.92 214.034 Q2176.17 211.511 2177.05 209.775 Q2177.95 208.015 2177.95 206.326 Q2177.95 203.571 2176.01 201.835 Q2174.09 200.099 2170.98 200.099 Q2168.79 200.099 2166.33 200.863 Q2163.9 201.627 2161.12 203.177 L2161.12 198.455 Q2163.95 197.321 2166.4 196.742 Q2168.85 196.164 2170.89 196.164 Q2176.26 196.164 2179.46 198.849 Q2182.65 201.534 2182.65 206.025 Q2182.65 208.154 2181.84 210.076 Q2181.05 211.974 2178.95 214.566 Q2178.37 215.238 2175.27 218.455 Q2172.16 221.65 2166.52 227.413 Z" fill="#000000" fill-rule="evenodd" fill-opacity="1" /><path clip-path="url(#clip780)" d="M 0 0 M2197.53 195.377 Q2194.43 200.701 2192.93 205.909 Q2191.42 211.117 2191.42 216.464 Q2191.42 221.812 2192.93 227.066 Q2194.46 232.298 2197.53 237.599 L2193.83 237.599 Q2190.36 232.159 2188.62 226.904 Q2186.91 221.65 2186.91 216.464 Q2186.91 211.302 2188.62 206.071 Q2190.34 200.84 2193.83 195.377 L2197.53 195.377 Z" fill="#000000" fill-rule="evenodd" fill-opacity="1" /><path clip-path="url(#clip780)" d="M 0 0 M2206.22 198.062 L2206.22 205.423 L2214.99 205.423 L2214.99 208.733 L2206.22 208.733 L2206.22 222.807 Q2206.22 225.978 2207.07 226.881 Q2207.95 227.784 2210.61 227.784 L2214.99 227.784 L2214.99 231.349 L2210.61 231.349 Q2205.68 231.349 2203.81 229.52 Q2201.93 227.668 2201.93 222.807 L2201.93 208.733 L2198.81 208.733 L2198.81 205.423 L2201.93 205.423 L2201.93 198.062 L2206.22 198.062 Z" fill="#000000" fill-rule="evenodd" fill-opacity="1" /><path clip-path="url(#clip780)" d="M 0 0 M2218.78 195.377 L2222.49 195.377 Q2225.96 200.84 2227.67 206.071 Q2229.41 211.302 2229.41 216.464 Q2229.41 221.65 2227.67 226.904 Q2225.96 232.159 2222.49 237.599 L2218.78 237.599 Q2221.86 232.298 2223.37 227.066 Q2224.9 221.812 2224.9 216.464 Q2224.9 211.117 2223.37 205.909 Q2221.86 200.701 2218.78 195.377 Z" fill="#000000" fill-rule="evenodd" fill-opacity="1" /><polyline clip-path="url(#clip780)" style="stroke:#3da44d; stroke-width:4; stroke-opacity:1; fill:none" points="
  1963.54,274.549 2111.11,274.549 
  "/>
<path clip-path="url(#clip780)" d="M 0 0 M2135.71 281.597 L2135.71 265.903 L2139.97 265.903 L2139.97 281.435 Q2139.97 285.116 2141.4 286.968 Q2142.84 288.796 2145.71 288.796 Q2149.16 288.796 2151.15 286.597 Q2153.16 284.398 2153.16 280.602 L2153.16 265.903 L2157.42 265.903 L2157.42 291.829 L2153.16 291.829 L2153.16 287.847 Q2151.61 290.208 2149.55 291.366 Q2147.51 292.5 2144.8 292.5 Q2140.34 292.5 2138.02 289.722 Q2135.71 286.944 2135.71 281.597 M2146.42 265.278 L2146.42 265.278 Z" fill="#000000" fill-rule="evenodd" fill-opacity="1" /><path clip-path="url(#clip780)" d="M 0 0 M2163.3 287.893 L2170.94 287.893 L2170.94 261.528 L2162.63 263.195 L2162.63 258.935 L2170.89 257.269 L2175.57 257.269 L2175.57 287.893 L2183.21 287.893 L2183.21 291.829 L2163.3 291.829 L2163.3 287.893 Z" fill="#000000" fill-rule="evenodd" fill-opacity="1" /><path clip-path="url(#clip780)" d="M 0 0 M2197.91 255.857 Q2194.8 261.181 2193.3 266.389 Q2191.79 271.597 2191.79 276.944 Q2191.79 282.292 2193.3 287.546 Q2194.83 292.778 2197.91 298.079 L2194.2 298.079 Q2190.73 292.639 2188.99 287.384 Q2187.28 282.13 2187.28 276.944 Q2187.28 271.782 2188.99 266.551 Q2190.71 261.32 2194.2 255.857 L2197.91 255.857 Z" fill="#000000" fill-rule="evenodd" fill-opacity="1" /><path clip-path="url(#clip780)" d="M 0 0 M2206.59 258.542 L2206.59 265.903 L2215.36 265.903 L2215.36 269.213 L2206.59 269.213 L2206.59 283.287 Q2206.59 286.458 2207.44 287.361 Q2208.32 288.264 2210.98 288.264 L2215.36 288.264 L2215.36 291.829 L2210.98 291.829 Q2206.05 291.829 2204.18 290 Q2202.3 288.148 2202.3 283.287 L2202.3 269.213 L2199.18 269.213 L2199.18 265.903 L2202.3 265.903 L2202.3 258.542 L2206.59 258.542 Z" fill="#000000" fill-rule="evenodd" fill-opacity="1" /><path clip-path="url(#clip780)" d="M 0 0 M2219.16 255.857 L2222.86 255.857 Q2226.33 261.32 2228.04 266.551 Q2229.78 271.782 2229.78 276.944 Q2229.78 282.13 2228.04 287.384 Q2226.33 292.639 2222.86 298.079 L2219.16 298.079 Q2222.23 292.778 2223.74 287.546 Q2225.27 282.292 2225.27 276.944 Q2225.27 271.597 2223.74 266.389 Q2222.23 261.181 2219.16 255.857 Z" fill="#000000" fill-rule="evenodd" fill-opacity="1" /><polyline clip-path="url(#clip780)" style="stroke:#c271d2; stroke-width:4; stroke-opacity:1; fill:none" points="
  1963.54,335.029 2111.11,335.029 
  "/>
<path clip-path="url(#clip780)" d="M 0 0 M2135.71 342.077 L2135.71 326.383 L2139.97 326.383 L2139.97 341.915 Q2139.97 345.596 2141.4 347.448 Q2142.84 349.276 2145.71 349.276 Q2149.16 349.276 2151.15 347.077 Q2153.16 344.878 2153.16 341.082 L2153.16 326.383 L2157.42 326.383 L2157.42 352.309 L2153.16 352.309 L2153.16 348.327 Q2151.61 350.688 2149.55 351.846 Q2147.51 352.98 2144.8 352.98 Q2140.34 352.98 2138.02 350.202 Q2135.71 347.424 2135.71 342.077 M2146.42 325.758 L2146.42 325.758 Z" fill="#000000" fill-rule="evenodd" fill-opacity="1" /><path clip-path="url(#clip780)" d="M 0 0 M2166.52 348.373 L2182.84 348.373 L2182.84 352.309 L2160.89 352.309 L2160.89 348.373 Q2163.55 345.619 2168.14 340.989 Q2172.74 336.336 2173.92 334.994 Q2176.17 332.471 2177.05 330.735 Q2177.95 328.975 2177.95 327.286 Q2177.95 324.531 2176.01 322.795 Q2174.09 321.059 2170.98 321.059 Q2168.79 321.059 2166.33 321.823 Q2163.9 322.587 2161.12 324.137 L2161.12 319.415 Q2163.95 318.281 2166.4 317.702 Q2168.85 317.124 2170.89 317.124 Q2176.26 317.124 2179.46 319.809 Q2182.65 322.494 2182.65 326.985 Q2182.65 329.114 2181.84 331.036 Q2181.05 332.934 2178.95 335.526 Q2178.37 336.198 2175.27 339.415 Q2172.16 342.61 2166.52 348.373 Z" fill="#000000" fill-rule="evenodd" fill-opacity="1" /><path clip-path="url(#clip780)" d="M 0 0 M2197.53 316.337 Q2194.43 321.661 2192.93 326.869 Q2191.42 332.077 2191.42 337.424 Q2191.42 342.772 2192.93 348.026 Q2194.46 353.258 2197.53 358.559 L2193.83 358.559 Q2190.36 353.119 2188.62 347.864 Q2186.91 342.61 2186.91 337.424 Q2186.91 332.262 2188.62 327.031 Q2190.34 321.8 2193.83 316.337 L2197.53 316.337 Z" fill="#000000" fill-rule="evenodd" fill-opacity="1" /><path clip-path="url(#clip780)" d="M 0 0 M2206.22 319.022 L2206.22 326.383 L2214.99 326.383 L2214.99 329.693 L2206.22 329.693 L2206.22 343.767 Q2206.22 346.938 2207.07 347.841 Q2207.95 348.744 2210.61 348.744 L2214.99 348.744 L2214.99 352.309 L2210.61 352.309 Q2205.68 352.309 2203.81 350.48 Q2201.93 348.628 2201.93 343.767 L2201.93 329.693 L2198.81 329.693 L2198.81 326.383 L2201.93 326.383 L2201.93 319.022 L2206.22 319.022 Z" fill="#000000" fill-rule="evenodd" fill-opacity="1" /><path clip-path="url(#clip780)" d="M 0 0 M2218.78 316.337 L2222.49 316.337 Q2225.96 321.8 2227.67 327.031 Q2229.41 332.262 2229.41 337.424 Q2229.41 342.61 2227.67 347.864 Q2225.96 353.119 2222.49 358.559 L2218.78 358.559 Q2221.86 353.258 2223.37 348.026 Q2224.9 342.772 2224.9 337.424 Q2224.9 332.077 2223.37 326.869 Q2221.86 321.661 2218.78 316.337 Z" fill="#000000" fill-rule="evenodd" fill-opacity="1" /></svg>
