<?xml version="1.0" encoding="utf-8"?>
<svg xmlns="http://www.w3.org/2000/svg" xmlns:xlink="http://www.w3.org/1999/xlink" width="600" height="400" viewBox="0 0 2400 1600">
<defs>
  <clipPath id="clip870">
    <rect x="0" y="0" width="2400" height="1600"/>
  </clipPath>
</defs>
<path clip-path="url(#clip870)" d="
M0 1600 L2400 1600 L2400 0 L0 0  Z
  " fill="#ffffff" fill-rule="evenodd" fill-opacity="1"/>
<defs>
  <clipPath id="clip871">
    <rect x="480" y="0" width="1681" height="1600"/>
  </clipPath>
</defs>
<path clip-path="url(#clip870)" d="
M112.177 1486.45 L2352.76 1486.45 L2352.76 47.2441 L112.177 47.2441  Z
  " fill="#ffffff" fill-rule="evenodd" fill-opacity="1"/>
<defs>
  <clipPath id="clip872">
    <rect x="112" y="47" width="2242" height="1440"/>
  </clipPath>
</defs>
<polyline clip-path="url(#clip872)" style="stroke:#000000; stroke-width:2; stroke-opacity:0.1; fill:none" points="
  420.457,1486.45 420.457,47.2441 
  "/>
<polyline clip-path="url(#clip872)" style="stroke:#000000; stroke-width:2; stroke-opacity:0.1; fill:none" points="
  823.546,1486.45 823.546,47.2441 
  "/>
<polyline clip-path="url(#clip872)" style="stroke:#000000; stroke-width:2; stroke-opacity:0.1; fill:none" points="
  1226.64,1486.45 1226.64,47.2441 
  "/>
<polyline clip-path="url(#clip872)" style="stroke:#000000; stroke-width:2; stroke-opacity:0.1; fill:none" points="
  1629.72,1486.45 1629.72,47.2441 
  "/>
<polyline clip-path="url(#clip872)" style="stroke:#000000; stroke-width:2; stroke-opacity:0.1; fill:none" points="
  2032.81,1486.45 2032.81,47.2441 
  "/>
<polyline clip-path="url(#clip872)" style="stroke:#000000; stroke-width:2; stroke-opacity:0.1; fill:none" points="
  112.177,1204.09 2352.76,1204.09 
  "/>
<polyline clip-path="url(#clip872)" style="stroke:#000000; stroke-width:2; stroke-opacity:0.1; fill:none" points="
  112.177,828.202 2352.76,828.202 
  "/>
<polyline clip-path="url(#clip872)" style="stroke:#000000; stroke-width:2; stroke-opacity:0.1; fill:none" points="
  112.177,452.311 2352.76,452.311 
  "/>
<polyline clip-path="url(#clip872)" style="stroke:#000000; stroke-width:2; stroke-opacity:0.1; fill:none" points="
  112.177,76.4192 2352.76,76.4192 
  "/>
<polyline clip-path="url(#clip870)" style="stroke:#000000; stroke-width:4; stroke-opacity:1; fill:none" points="
  112.177,1486.45 2352.76,1486.45 
  "/>
<polyline clip-path="url(#clip870)" style="stroke:#000000; stroke-width:4; stroke-opacity:1; fill:none" points="
  112.177,1486.45 112.177,47.2441 
  "/>
<polyline clip-path="url(#clip870)" style="stroke:#000000; stroke-width:4; stroke-opacity:1; fill:none" points="
  420.457,1486.45 420.457,1469.18 
  "/>
<polyline clip-path="url(#clip870)" style="stroke:#000000; stroke-width:4; stroke-opacity:1; fill:none" points="
  823.546,1486.45 823.546,1469.18 
  "/>
<polyline clip-path="url(#clip870)" style="stroke:#000000; stroke-width:4; stroke-opacity:1; fill:none" points="
  1226.64,1486.45 1226.64,1469.18 
  "/>
<polyline clip-path="url(#clip870)" style="stroke:#000000; stroke-width:4; stroke-opacity:1; fill:none" points="
  1629.72,1486.45 1629.72,1469.18 
  "/>
<polyline clip-path="url(#clip870)" style="stroke:#000000; stroke-width:4; stroke-opacity:1; fill:none" points="
  2032.81,1486.45 2032.81,1469.18 
  "/>
<polyline clip-path="url(#clip870)" style="stroke:#000000; stroke-width:4; stroke-opacity:1; fill:none" points="
  112.177,1204.09 139.064,1204.09 
  "/>
<polyline clip-path="url(#clip870)" style="stroke:#000000; stroke-width:4; stroke-opacity:1; fill:none" points="
  112.177,828.202 139.064,828.202 
  "/>
<polyline clip-path="url(#clip870)" style="stroke:#000000; stroke-width:4; stroke-opacity:1; fill:none" points="
  112.177,452.311 139.064,452.311 
  "/>
<polyline clip-path="url(#clip870)" style="stroke:#000000; stroke-width:4; stroke-opacity:1; fill:none" points="
  112.177,76.4192 139.064,76.4192 
  "/>
<path clip-path="url(#clip870)" d="M 0 0 M402.772 1508.44 Q399.161 1508.44 397.332 1512 Q395.527 1515.55 395.527 1522.67 Q395.527 1529.78 397.332 1533.35 Q399.161 1536.89 402.772 1536.89 Q406.406 1536.89 408.212 1533.35 Q410.041 1529.78 410.041 1522.67 Q410.041 1515.55 408.212 1512 Q406.406 1508.44 402.772 1508.44 M402.772 1504.73 Q408.582 1504.73 411.638 1509.34 Q414.717 1513.92 414.717 1522.67 Q414.717 1531.4 411.638 1536.01 Q408.582 1540.59 402.772 1540.59 Q396.962 1540.59 393.883 1536.01 Q390.828 1531.4 390.828 1522.67 Q390.828 1513.92 393.883 1509.34 Q396.962 1504.73 402.772 1504.73 Z" fill="#000000" fill-rule="evenodd" fill-opacity="1" /><path clip-path="url(#clip870)" d="M 0 0 M419.786 1534.04 L424.67 1534.04 L424.67 1539.92 L419.786 1539.92 L419.786 1534.04 Z" fill="#000000" fill-rule="evenodd" fill-opacity="1" /><path clip-path="url(#clip870)" d="M 0 0 M433.767 1535.98 L450.087 1535.98 L450.087 1539.92 L428.142 1539.92 L428.142 1535.98 Q430.804 1533.23 435.388 1528.6 Q439.994 1523.95 441.175 1522.61 Q443.42 1520.08 444.3 1518.35 Q445.202 1516.59 445.202 1514.9 Q445.202 1512.14 443.258 1510.41 Q441.337 1508.67 438.235 1508.67 Q436.036 1508.67 433.582 1509.43 Q431.152 1510.2 428.374 1511.75 L428.374 1507.03 Q431.198 1505.89 433.652 1505.31 Q436.105 1504.73 438.142 1504.73 Q443.513 1504.73 446.707 1507.42 Q449.902 1510.11 449.902 1514.6 Q449.902 1516.73 449.091 1518.65 Q448.304 1520.54 446.198 1523.14 Q445.619 1523.81 442.517 1527.03 Q439.415 1530.22 433.767 1535.98 Z" fill="#000000" fill-rule="evenodd" fill-opacity="1" /><path clip-path="url(#clip870)" d="M 0 0 M804.82 1508.44 Q801.208 1508.44 799.38 1512 Q797.574 1515.55 797.574 1522.67 Q797.574 1529.78 799.38 1533.35 Q801.208 1536.89 804.82 1536.89 Q808.454 1536.89 810.259 1533.35 Q812.088 1529.78 812.088 1522.67 Q812.088 1515.55 810.259 1512 Q808.454 1508.44 804.82 1508.44 M804.82 1504.73 Q810.63 1504.73 813.685 1509.34 Q816.764 1513.92 816.764 1522.67 Q816.764 1531.4 813.685 1536.01 Q810.63 1540.59 804.82 1540.59 Q799.009 1540.59 795.931 1536.01 Q792.875 1531.4 792.875 1522.67 Q792.875 1513.92 795.931 1509.34 Q799.009 1504.73 804.82 1504.73 Z" fill="#000000" fill-rule="evenodd" fill-opacity="1" /><path clip-path="url(#clip870)" d="M 0 0 M821.833 1534.04 L826.718 1534.04 L826.718 1539.92 L821.833 1539.92 L821.833 1534.04 Z" fill="#000000" fill-rule="evenodd" fill-opacity="1" /><path clip-path="url(#clip870)" d="M 0 0 M844.634 1509.43 L832.829 1527.88 L844.634 1527.88 L844.634 1509.43 M843.407 1505.36 L849.287 1505.36 L849.287 1527.88 L854.217 1527.88 L854.217 1531.77 L849.287 1531.77 L849.287 1539.92 L844.634 1539.92 L844.634 1531.77 L829.032 1531.77 L829.032 1527.26 L843.407 1505.36 Z" fill="#000000" fill-rule="evenodd" fill-opacity="1" /><path clip-path="url(#clip870)" d="M 0 0 M1208.07 1508.44 Q1204.46 1508.44 1202.63 1512 Q1200.83 1515.55 1200.83 1522.67 Q1200.83 1529.78 1202.63 1533.35 Q1204.46 1536.89 1208.07 1536.89 Q1211.7 1536.89 1213.51 1533.35 Q1215.34 1529.78 1215.34 1522.67 Q1215.34 1515.55 1213.51 1512 Q1211.7 1508.44 1208.07 1508.44 M1208.07 1504.73 Q1213.88 1504.73 1216.94 1509.34 Q1220.02 1513.92 1220.02 1522.67 Q1220.02 1531.4 1216.94 1536.01 Q1213.88 1540.59 1208.07 1540.59 Q1202.26 1540.59 1199.18 1536.01 Q1196.13 1531.4 1196.13 1522.67 Q1196.13 1513.92 1199.18 1509.34 Q1202.26 1504.73 1208.07 1504.73 Z" fill="#000000" fill-rule="evenodd" fill-opacity="1" /><path clip-path="url(#clip870)" d="M 0 0 M1225.08 1534.04 L1229.97 1534.04 L1229.97 1539.92 L1225.08 1539.92 L1225.08 1534.04 Z" fill="#000000" fill-rule="evenodd" fill-opacity="1" /><path clip-path="url(#clip870)" d="M 0 0 M1245.62 1520.78 Q1242.47 1520.78 1240.62 1522.93 Q1238.79 1525.08 1238.79 1528.83 Q1238.79 1532.56 1240.62 1534.73 Q1242.47 1536.89 1245.62 1536.89 Q1248.76 1536.89 1250.59 1534.73 Q1252.45 1532.56 1252.45 1528.83 Q1252.45 1525.08 1250.59 1522.93 Q1248.76 1520.78 1245.62 1520.78 M1254.9 1506.12 L1254.9 1510.38 Q1253.14 1509.55 1251.33 1509.11 Q1249.55 1508.67 1247.79 1508.67 Q1243.16 1508.67 1240.71 1511.8 Q1238.28 1514.92 1237.93 1521.24 Q1239.3 1519.23 1241.36 1518.16 Q1243.42 1517.07 1245.89 1517.07 Q1251.1 1517.07 1254.11 1520.24 Q1257.14 1523.39 1257.14 1528.83 Q1257.14 1534.16 1254 1537.37 Q1250.85 1540.59 1245.62 1540.59 Q1239.62 1540.59 1236.45 1536.01 Q1233.28 1531.4 1233.28 1522.67 Q1233.28 1514.48 1237.17 1509.62 Q1241.06 1504.73 1247.61 1504.73 Q1249.37 1504.73 1251.15 1505.08 Q1252.95 1505.43 1254.9 1506.12 Z" fill="#000000" fill-rule="evenodd" fill-opacity="1" /><path clip-path="url(#clip870)" d="M 0 0 M1611.29 1508.44 Q1607.68 1508.44 1605.85 1512 Q1604.04 1515.55 1604.04 1522.67 Q1604.04 1529.78 1605.85 1533.35 Q1607.68 1536.89 1611.29 1536.89 Q1614.92 1536.89 1616.73 1533.35 Q1618.56 1529.78 1618.56 1522.67 Q1618.56 1515.55 1616.73 1512 Q1614.92 1508.44 1611.29 1508.44 M1611.29 1504.73 Q1617.1 1504.73 1620.15 1509.34 Q1623.23 1513.92 1623.23 1522.67 Q1623.23 1531.4 1620.15 1536.01 Q1617.1 1540.59 1611.29 1540.59 Q1605.48 1540.59 1602.4 1536.01 Q1599.34 1531.4 1599.34 1522.67 Q1599.34 1513.92 1602.4 1509.34 Q1605.48 1504.73 1611.29 1504.73 Z" fill="#000000" fill-rule="evenodd" fill-opacity="1" /><path clip-path="url(#clip870)" d="M 0 0 M1628.3 1534.04 L1633.19 1534.04 L1633.19 1539.92 L1628.3 1539.92 L1628.3 1534.04 Z" fill="#000000" fill-rule="evenodd" fill-opacity="1" /><path clip-path="url(#clip870)" d="M 0 0 M1648.25 1523.51 Q1644.92 1523.51 1643 1525.29 Q1641.1 1527.07 1641.1 1530.2 Q1641.1 1533.32 1643 1535.11 Q1644.92 1536.89 1648.25 1536.89 Q1651.59 1536.89 1653.51 1535.11 Q1655.43 1533.3 1655.43 1530.2 Q1655.43 1527.07 1653.51 1525.29 Q1651.61 1523.51 1648.25 1523.51 M1643.58 1521.52 Q1640.57 1520.78 1638.88 1518.72 Q1637.21 1516.66 1637.21 1513.69 Q1637.21 1509.55 1640.15 1507.14 Q1643.12 1504.73 1648.25 1504.73 Q1653.42 1504.73 1656.36 1507.14 Q1659.3 1509.55 1659.3 1513.69 Q1659.3 1516.66 1657.61 1518.72 Q1655.94 1520.78 1652.95 1521.52 Q1656.33 1522.3 1658.21 1524.6 Q1660.11 1526.89 1660.11 1530.2 Q1660.11 1535.22 1657.03 1537.91 Q1653.97 1540.59 1648.25 1540.59 Q1642.54 1540.59 1639.46 1537.91 Q1636.4 1535.22 1636.4 1530.2 Q1636.4 1526.89 1638.3 1524.6 Q1640.2 1522.3 1643.58 1521.52 M1641.87 1514.13 Q1641.87 1516.82 1643.53 1518.32 Q1645.22 1519.83 1648.25 1519.83 Q1651.26 1519.83 1652.95 1518.32 Q1654.67 1516.82 1654.67 1514.13 Q1654.67 1511.45 1652.95 1509.94 Q1651.26 1508.44 1648.25 1508.44 Q1645.22 1508.44 1643.53 1509.94 Q1641.87 1511.45 1641.87 1514.13 Z" fill="#000000" fill-rule="evenodd" fill-opacity="1" /><path clip-path="url(#clip870)" d="M 0 0 M2004.71 1535.98 L2012.35 1535.98 L2012.35 1509.62 L2004.04 1511.29 L2004.04 1507.03 L2012.3 1505.36 L2016.98 1505.36 L2016.98 1535.98 L2024.62 1535.98 L2024.62 1539.92 L2004.71 1539.92 L2004.71 1535.98 Z" fill="#000000" fill-rule="evenodd" fill-opacity="1" /><path clip-path="url(#clip870)" d="M 0 0 M2029.69 1534.04 L2034.57 1534.04 L2034.57 1539.92 L2029.69 1539.92 L2029.69 1534.04 Z" fill="#000000" fill-rule="evenodd" fill-opacity="1" /><path clip-path="url(#clip870)" d="M 0 0 M2049.64 1508.44 Q2046.03 1508.44 2044.2 1512 Q2042.4 1515.55 2042.4 1522.67 Q2042.4 1529.78 2044.2 1533.35 Q2046.03 1536.89 2049.64 1536.89 Q2053.28 1536.89 2055.08 1533.35 Q2056.91 1529.78 2056.91 1522.67 Q2056.91 1515.55 2055.08 1512 Q2053.28 1508.44 2049.64 1508.44 M2049.64 1504.73 Q2055.45 1504.73 2058.51 1509.34 Q2061.59 1513.92 2061.59 1522.67 Q2061.59 1531.4 2058.51 1536.01 Q2055.45 1540.59 2049.64 1540.59 Q2043.83 1540.59 2040.75 1536.01 Q2037.7 1531.4 2037.7 1522.67 Q2037.7 1513.92 2040.75 1509.34 Q2043.83 1504.73 2049.64 1504.73 Z" fill="#000000" fill-rule="evenodd" fill-opacity="1" /><path clip-path="url(#clip870)" d="M 0 0 M68.2699 1217.44 L75.9087 1217.44 L75.9087 1191.07 L67.5986 1192.74 L67.5986 1188.48 L75.8624 1186.81 L80.5383 1186.81 L80.5383 1217.44 L88.1772 1217.44 L88.1772 1221.37 L68.2699 1221.37 L68.2699 1217.44 Z" fill="#000000" fill-rule="evenodd" fill-opacity="1" /><path clip-path="url(#clip870)" d="M 0 0 M71.8578 841.547 L88.1772 841.547 L88.1772 845.482 L66.2328 845.482 L66.2328 841.547 Q68.8949 838.792 73.4782 834.162 Q78.0846 829.51 79.2652 828.167 Q81.5105 825.644 82.3902 823.908 Q83.2929 822.149 83.2929 820.459 Q83.2929 817.704 81.3485 815.968 Q79.4272 814.232 76.3254 814.232 Q74.1263 814.232 71.6726 814.996 Q69.2421 815.76 66.4643 817.311 L66.4643 812.589 Q69.2884 811.454 71.7421 810.876 Q74.1958 810.297 76.2328 810.297 Q81.6031 810.297 84.7976 812.982 Q87.992 815.667 87.992 820.158 Q87.992 822.288 87.1818 824.209 Q86.3948 826.107 84.2883 828.7 Q83.7096 829.371 80.6078 832.588 Q77.5059 835.783 71.8578 841.547 Z" fill="#000000" fill-rule="evenodd" fill-opacity="1" /><path clip-path="url(#clip870)" d="M 0 0 M81.0476 450.956 Q84.404 451.674 86.279 453.942 Q88.1772 456.211 88.1772 459.544 Q88.1772 464.66 84.6587 467.461 Q81.1402 470.262 74.6587 470.262 Q72.4828 470.262 70.168 469.822 Q67.8764 469.405 65.4227 468.549 L65.4227 464.035 Q67.3671 465.169 69.6819 465.748 Q71.9967 466.327 74.5198 466.327 Q78.918 466.327 81.2096 464.591 Q83.5244 462.854 83.5244 459.544 Q83.5244 456.489 81.3717 454.776 Q79.242 453.04 75.4226 453.04 L71.3949 453.04 L71.3949 449.197 L75.6078 449.197 Q79.0569 449.197 80.8855 447.831 Q82.7142 446.442 82.7142 443.85 Q82.7142 441.188 80.8161 439.776 Q78.9411 438.341 75.4226 438.341 Q73.5013 438.341 71.3023 438.757 Q69.1032 439.174 66.4643 440.054 L66.4643 435.887 Q69.1264 435.146 71.4412 434.776 Q73.7791 434.406 75.8393 434.406 Q81.1633 434.406 84.2652 436.836 Q87.367 439.243 87.367 443.364 Q87.367 446.234 85.7235 448.225 Q84.08 450.192 81.0476 450.956 Z" fill="#000000" fill-rule="evenodd" fill-opacity="1" /><path clip-path="url(#clip870)" d="M 0 0 M78.5939 63.2132 L66.7884 81.6622 L78.5939 81.6622 L78.5939 63.2132 M77.367 59.1392 L83.2466 59.1392 L83.2466 81.6622 L88.1772 81.6622 L88.1772 85.5511 L83.2466 85.5511 L83.2466 93.6992 L78.5939 93.6992 L78.5939 85.5511 L62.9921 85.5511 L62.9921 81.0372 L77.367 59.1392 Z" fill="#000000" fill-rule="evenodd" fill-opacity="1" /><polyline clip-path="url(#clip872)" style="stroke:#009af9; stroke-width:12; stroke-opacity:1; fill:none" points="
  2032.81,1204.09 2035.49,1202.08 2038.14,1200.05 2040.76,1198.01 2043.36,1195.95 2045.93,1193.88 2048.48,1191.79 2051,1189.69 2053.49,1187.57 2055.95,1185.44 
  2058.38,1183.29 2060.79,1181.13 2063.17,1178.95 2065.52,1176.75 2067.84,1174.54 2070.13,1172.31 2072.39,1170.07 2074.62,1167.81 2076.81,1165.53 2078.98,1163.24 
  2081.12,1160.94 2083.22,1158.61 2085.3,1156.27 2087.34,1153.91 2089.34,1151.54 2091.32,1149.15 2093.26,1146.74 2095.16,1144.32 2097.04,1141.88 2098.87,1139.42 
  2100.68,1136.95 2102.45,1134.46 2104.18,1131.95 2105.88,1129.42 2107.54,1126.88 2109.16,1124.32 2110.75,1121.74 2112.3,1119.15 2113.81,1116.53 2115.28,1113.9 
  2116.72,1111.26 2118.12,1108.59 2119.48,1105.91 2120.8,1103.21 2122.08,1100.49 2123.31,1097.75 2124.51,1094.99 2125.67,1092.22 2126.79,1089.43 2127.87,1086.62 
  2128.9,1083.79 2129.89,1080.95 2130.84,1078.08 2131.75,1075.2 2132.62,1072.3 2133.44,1069.38 2134.21,1066.45 2134.95,1063.49 2135.64,1060.52 2136.28,1057.52 
  2136.88,1054.51 2137.44,1051.48 2137.94,1048.44 2138.41,1045.37 2138.82,1042.28 2139.19,1039.18 2139.52,1036.06 2139.79,1032.91 2140.02,1029.75 2140.2,1026.58 
  2140.34,1023.38 2140.42,1020.16 2140.46,1016.93 2140.44,1013.67 2140.38,1010.4 2140.27,1007.11 2140.11,1003.8 2139.9,1000.47 2139.64,997.123 2139.33,993.757 
  2138.96,990.373 2138.55,986.969 2138.09,983.547 2137.57,980.107 2137,976.648 2136.38,973.171 2135.71,969.675 2134.98,966.16 2134.21,962.627 2133.38,959.076 
  2132.49,955.507 2131.55,951.919 2130.56,948.313 2129.52,944.689 2128.42,941.047 2127.27,937.387 2126.06,933.709 2124.8,930.013 2123.49,926.299 2122.12,922.568 
  2120.69,918.819 2119.21,915.052 2117.68,911.268 2116.09,907.467 2114.44,903.648 2112.74,899.812 2110.98,895.959 2109.17,892.089 2107.3,888.203 2105.37,884.299 
  2103.39,880.379 2101.35,876.443 2099.26,872.49 2097.11,868.521 2094.9,864.536 2092.64,860.535 2090.32,856.518 2087.94,852.486 2085.51,848.438 2083.02,844.374 
  2080.47,840.296 2077.87,836.202 2075.21,832.094 2072.49,827.971 2069.72,823.833 2066.89,819.682 2064.01,815.516 2061.06,811.336 2058.07,807.142 2055.01,802.935 
  2051.9,798.714 2048.73,794.481 2045.51,790.234 2042.23,785.975 2038.89,781.703 2035.5,777.419 2032.06,773.123 2028.56,768.815 2025,764.496 2021.38,760.165 
  2017.72,755.823 2013.99,751.471 2010.22,747.107 2006.39,742.734 2002.5,738.35 1998.56,733.957 1994.56,729.554 1990.52,725.141 1986.42,720.72 1982.26,716.29 
  1978.05,711.852 1973.79,707.405 1969.48,702.951 1965.12,698.489 1960.7,694.02 1956.23,689.543 1951.71,685.061 1947.14,680.571 1942.52,676.076 1937.85,671.575 
  1933.13,667.069 1928.36,662.558 1923.54,658.042 1918.67,653.521 1913.76,648.997 1908.79,644.468 1903.78,639.936 1898.72,635.402 1893.61,630.864 1888.46,626.324 
  1883.26,621.782 1878.02,617.239 1872.73,612.694 1867.39,608.148 1862.02,603.601 1856.59,599.055 1851.13,594.508 1845.62,589.962 1840.07,585.417 1834.48,580.873 
  1828.84,576.33 1823.17,571.79 1817.46,567.252 1811.7,562.717 1805.91,558.185 1800.08,553.656 1794.21,549.131 1788.3,544.61 1782.36,540.094 1776.38,535.584 
  1770.36,531.078 1764.31,526.578 1758.22,522.085 1752.1,517.598 1745.95,513.118 1739.76,508.645 1733.54,504.181 1727.29,499.724 1721.01,495.276 1714.7,490.836 
  1708.36,486.406 1701.99,481.986 1695.59,477.576 1689.16,473.176 1682.7,468.787 1676.22,464.41 1669.71,460.044 1663.18,455.69 1656.62,451.348 1650.04,447.019 
  1643.44,442.704 1636.81,438.402 1630.16,434.113 1623.49,429.84 1616.79,425.58 1610.08,421.336 1603.35,417.108 1596.6,412.895 1589.83,408.698 1583.04,404.518 
  1576.24,400.355 1569.42,396.209 1562.58,392.081 1555.73,387.971 1548.87,383.879 1541.99,379.805 1535.1,375.751 1528.2,371.716 1521.28,367.701 1514.36,363.706 
  1507.42,359.732 1500.47,355.778 1493.52,351.845 1486.56,347.934 1479.59,344.044 1472.61,340.177 1465.63,336.331 1458.64,332.509 1451.64,328.709 1444.64,324.933 
  1437.64,321.18 1430.64,317.452 1423.63,313.747 1416.62,310.067 1409.61,306.412 1402.59,302.781 1395.58,299.176 1388.57,295.597 1381.56,292.043 1374.55,288.516 
  1367.54,285.015 1360.54,281.54 1353.54,278.093 1346.55,274.672 1339.55,271.279 1332.57,267.913 1325.59,264.576 1318.61,261.266 1311.65,257.985 1304.69,254.732 
  1297.74,251.507 1290.79,248.312 1283.86,245.146 1276.94,242.009 1270.02,238.901 1263.12,235.823 1256.23,232.775 1249.34,229.757 1242.48,226.769 1235.62,223.812 
  1228.78,220.885 1221.95,217.988 1215.13,215.123 1208.33,212.288 1201.54,209.484 1194.77,206.712 1188.02,203.971 1181.28,201.261 1174.56,198.584 1167.85,195.937 
  1161.17,193.323 1154.5,190.74 1147.85,188.19 1141.21,185.671 1134.6,183.185 1128.01,180.731 1121.43,178.309 1114.88,175.92 1108.34,173.563 1101.83,171.238 
  1095.34,168.947 1088.87,166.688 1082.42,164.461 1076,162.267 1069.59,160.106 1063.21,157.978 1056.86,155.883 1050.52,153.82 1044.21,151.791 1037.93,149.794 
  1031.66,147.83 1025.43,145.899 1019.21,144.001 1013.03,142.136 1006.86,140.304 1000.73,138.504 994.615,136.738 988.53,135.004 982.47,133.303 976.437,131.634 
  970.431,129.999 964.451,128.396 958.499,126.826 952.573,125.288 946.675,123.783 940.804,122.311 934.96,120.871 929.145,119.463 923.357,118.088 917.598,116.745 
  911.866,115.434 906.163,114.155 900.488,112.908 894.842,111.693 889.225,110.51 883.636,109.359 878.077,108.239 872.546,107.151 867.044,106.095 861.572,105.07 
  856.129,104.076 850.715,103.113 845.33,102.181 839.975,101.281 834.649,100.411 829.353,99.5716 824.087,98.763 818.85,97.9848 813.643,97.237 808.465,96.5194 
  803.318,95.8318 798.2,95.1742 793.112,94.5464 788.053,93.9483 783.025,93.3797 778.026,92.8405 773.057,92.3305 768.118,91.8496 763.209,91.3977 758.33,90.9745 
  753.48,90.58 748.66,90.214 743.87,89.8763 739.11,89.5669 734.379,89.2854 729.678,89.0318 725.006,88.8059 720.365,88.6076 715.752,88.4366 711.169,88.2928 
  706.616,88.1761 702.092,88.0863 697.597,88.0231 693.132,87.9865 688.696,87.9763 684.289,87.9922 679.91,88.0342 675.561,88.102 671.241,88.1955 666.95,88.3145 
  662.688,88.4588 658.454,88.6283 654.249,88.8227 650.072,89.0419 645.924,89.2857 641.804,89.5539 637.712,89.8463 633.648,90.1629 629.613,90.5033 625.605,90.8674 
  621.625,91.255 617.674,91.666 613.749,92.1001 609.852,92.5572 605.983,93.037 602.141,93.5395 598.326,94.0644 594.538,94.6115 590.777,95.1807 587.043,95.7717 
  583.336,96.3844 579.655,97.0186 576.001,97.6741 572.373,98.3508 568.772,99.0484 565.196,99.7667 561.647,100.506 558.123,101.265 554.626,102.045 551.153,102.844 
  547.707,103.664 544.285,104.503 540.889,105.361 537.518,106.239 534.172,107.136 530.851,108.052 527.554,108.987 524.282,109.94 521.035,110.911 517.812,111.901 
  514.612,112.909 511.437,113.935 508.286,114.978 505.159,116.039 502.055,117.118 498.974,118.213 495.917,119.325 492.883,120.455 489.872,121.6 486.884,122.763 
  483.919,123.941 480.977,125.136 478.057,126.347 475.159,127.573 472.283,128.815 469.43,130.072 466.599,131.345 463.789,132.633 461.001,133.935 458.234,135.253 
  455.489,136.585 452.765,137.931 450.062,139.292 447.38,140.667 444.719,142.056 442.079,143.458 439.459,144.874 436.86,146.304 434.28,147.747 431.721,149.203 
  429.182,150.672 426.663,152.154 424.163,153.648 421.683,155.156 419.223,156.675 416.781,158.207 414.359,159.75 411.956,161.306 409.572,162.873 407.207,164.452 
  404.86,166.043 402.532,167.645 400.222,169.258 397.93,170.882 395.656,172.517 393.401,174.162 391.163,175.818 388.943,177.485 386.74,179.162 384.555,180.849 
  382.387,182.547 380.236,184.254 378.103,185.971 375.986,187.697 373.886,189.433 371.803,191.179 369.736,192.933 367.686,194.697 365.652,196.47 363.635,198.252 
  361.633,200.042 359.647,201.841 357.677,203.648 355.723,205.464 353.784,207.288 351.861,209.12 349.953,210.96 348.06,212.808 346.183,214.663 344.32,216.526 
  342.472,218.397 340.639,220.275 338.821,222.16 337.017,224.053 335.227,225.952 333.452,227.858 331.691,229.771 329.944,231.691 328.211,233.618 326.492,235.55 
  324.786,237.49 323.095,239.435 321.416,241.387 319.751,243.344 318.1,245.308 316.461,247.277 314.836,249.252 313.224,251.233 311.624,253.219 310.037,255.211 
  308.463,257.207 306.902,259.21 305.353,261.217 303.816,263.229 302.292,265.246 300.78,267.268 299.28,269.295 297.792,271.326 296.316,273.362 294.851,275.402 
  293.398,277.447 291.957,279.496 290.528,281.549 289.109,283.606 287.702,285.668 286.307,287.733 284.922,289.802 283.549,291.874 282.186,293.951 280.834,296.031 
  279.493,298.114 278.163,300.201 276.843,302.291 275.534,304.385 274.236,306.481 272.947,308.581 271.669,310.683 270.401,312.789 269.143,314.897 267.895,317.009 
  266.657,319.122 265.429,321.239 264.211,323.358 263.002,325.48 261.803,327.604 260.613,329.73 259.433,331.858 258.263,333.989 257.101,336.122 255.949,338.257 
  254.806,340.394 253.672,342.533 252.547,344.673 251.43,346.816 250.323,348.96 249.225,351.106 248.135,353.253 247.054,355.402 245.981,357.552 244.917,359.704 
  243.861,361.857 242.813,364.012 241.774,366.167 240.743,368.324 239.721,370.482 238.706,372.641 237.699,374.801 236.7,376.962 235.709,379.123 234.726,381.286 
  233.751,383.449 232.783,385.613 231.823,387.778 230.871,389.943 229.926,392.109 228.988,394.275 228.058,396.442 227.135,398.609 226.22,400.776 225.311,402.944 
  224.41,405.112 223.516,407.28 222.628,409.448 221.748,411.617 220.875,413.785 220.008,415.953 219.149,418.122 218.296,420.29 217.45,422.458 216.61,424.626 
  215.777,426.794 214.95,428.961 214.13,431.128 213.317,433.295 212.509,435.461 211.709,437.627 210.914,439.793 210.125,441.957 209.343,444.122 208.567,446.285 
  207.797,448.448 207.033,450.611 206.274,452.772 205.522,454.933 204.776,457.093 204.035,459.253 203.3,461.411 202.571,463.568 201.848,465.725 201.13,467.88 
  200.418,470.035 199.711,472.188 199.01,474.341 198.315,476.492 197.624,478.642 196.94,480.791 196.26,482.938 195.586,485.085 194.917,487.23 194.253,489.374 
  193.594,491.516 192.941,493.657 192.292,495.797 191.649,497.935 191.011,500.072 190.377,502.207 189.749,504.341 189.125,506.473 188.506,508.604 187.892,510.733 
  187.283,512.86 186.679,514.986 186.079,517.11 185.484,519.232 184.893,521.352 184.307,523.471 183.726,525.588 183.149,527.703 182.577,529.817 182.009,531.928 
  181.445,534.037 180.886,536.145 180.331,538.251 179.781,540.354 179.235,542.456 178.693,544.556 178.155,546.653 177.621,548.749 177.092,550.842 176.567,552.934 
  176.045,555.023 175.528,557.11 175.015,559.195 174.506,561.278 174,563.359 173.499,565.437 173.002,567.513 172.508,569.587 172.018,571.659 171.533,573.728 
  171.05,575.795 170.572,577.86 170.097,579.922 169.627,581.982 169.159,584.039 168.696,586.095 168.236,588.147 167.779,590.197 167.326,592.245 166.877,594.291 
  166.431,596.333 165.989,598.374 165.55,600.412 165.115,602.447 164.683,604.48 164.254,606.51 163.829,608.538 163.407,610.563 162.988,612.585 162.573,614.605 
  162.161,616.622 161.752,618.636 161.346,620.648 160.943,622.657 160.544,624.664 160.148,626.668 159.755,628.669 159.365,630.667 158.978,632.663 158.594,634.656 
  158.213,636.646 157.836,638.633 157.461,640.618 157.089,642.599 156.72,644.578 156.354,646.554 155.991,648.528 155.631,650.498 155.274,652.466 154.919,654.43 
  154.567,656.392 154.219,658.351 153.872,660.308 153.529,662.261 153.189,664.211 152.851,666.158 152.516,668.103 152.183,670.045 151.853,671.983 151.526,673.919 
  151.202,675.852 150.88,677.781 150.561,679.708 150.244,681.632 149.93,683.553 149.618,685.47 149.309,687.385 149.003,689.297 148.699,691.206 148.397,693.112 
  148.098,695.014 147.801,696.914 147.507,698.811 147.215,700.704 146.926,702.595 146.638,704.482 146.354,706.367 146.071,708.248 145.791,710.126 145.514,712.001 
  145.238,713.873 144.965,715.742 144.694,717.608 144.426,719.471 144.159,721.331 143.895,723.187 143.633,725.041 143.373,726.891 143.116,728.738 142.86,730.582 
  142.607,732.423 142.356,734.261 142.107,736.095 141.86,737.927 141.616,739.755 141.373,741.58 141.132,743.402 140.894,745.221 140.657,747.037 140.423,748.849 
  140.191,750.658 139.96,752.465 139.732,754.268 139.505,756.067 139.281,757.864 139.059,759.657 138.838,761.447 138.619,763.234 138.403,765.018 138.188,766.799 
  137.975,768.576 137.764,770.35 137.555,772.121 137.348,773.889 137.143,775.654 136.939,777.415 136.738,779.173 136.538,780.928 136.34,782.68 136.144,784.428 
  135.949,786.173 135.757,787.915 135.566,789.654 135.377,791.39 135.189,793.122 135.004,794.851 134.82,796.577 134.638,798.3 134.457,800.02 134.279,801.736 
  134.101,803.449 133.926,805.159 133.752,806.865 133.58,808.569 133.41,810.269 133.241,811.966 133.074,813.659 132.909,815.35 132.745,817.037 132.583,818.721 
  132.422,820.401 132.263,822.079 132.106,823.753 131.95,825.424 131.796,827.092 131.643,828.757 131.492,830.418 131.342,832.076 131.194,833.731 131.047,835.383 
  130.902,837.031 130.759,838.676 130.617,840.318 130.476,841.957 130.337,843.593 130.199,845.225 130.063,846.854 129.929,848.48 129.796,850.103 129.664,851.722 
  129.533,853.338 129.405,854.951 129.277,856.561 129.151,858.168 129.027,859.771 128.903,861.371 128.782,862.968 128.661,864.562 128.542,866.153 128.424,867.74 
  128.308,869.324 128.193,870.905 128.08,872.483 127.968,874.058 127.857,875.629 127.747,877.197 127.639,878.762 127.532,880.324 127.427,881.883 127.322,883.438 
  127.22,884.99 127.118,886.539 127.018,888.085 126.919,889.628 126.821,891.168 126.725,892.704 126.629,894.237 126.536,895.767 126.443,897.294 126.352,898.818 
  126.261,900.339 126.173,901.856 126.085,903.37 125.999,904.882 125.913,906.39 125.829,907.894 125.747,909.396 125.665,910.895 125.585,912.39 125.506,913.883 
  125.428,915.372 125.351,916.858 125.276,918.341 125.202,919.821 125.128,921.297 125.056,922.771 124.986,924.241 124.916,925.709 124.848,927.173 124.78,928.634 
  124.714,930.092 124.649,931.547 124.585,932.999 124.523,934.448 124.461,935.894 124.401,937.336 124.341,938.776 124.283,940.212 124.226,941.646 124.17,943.076 
  124.116,944.503 124.062,945.927 124.009,947.349 123.958,948.767 123.907,950.182 123.858,951.594 123.81,953.003 123.763,954.409 123.716,955.811 123.671,957.211 
  123.628,958.608 123.585,960.002 123.543,961.393 123.502,962.78 123.463,964.165 123.424,965.547 123.386,966.925 123.35,968.301 123.314,969.674 123.28,971.044 
  123.247,972.41 123.214,973.774 123.183,975.135 123.153,976.493 123.123,977.847 123.095,979.199 123.068,980.548 123.042,981.894 123.017,983.237 122.992,984.577 
  122.969,985.914 122.947,987.248 122.926,988.579 122.906,989.907 122.887,991.232 122.868,992.555 122.851,993.874 122.835,995.19 122.82,996.504 122.806,997.815 
  122.793,999.122 122.78,1000.43 122.769,1001.73 122.759,1003.03 122.749,1004.32 122.741,1005.62 122.734,1006.91 122.727,1008.19 122.722,1009.48 122.717,1010.76 
  122.714,1012.04 122.711,1013.32 122.709,1014.59 122.709,1015.86 122.709,1017.13 122.71,1018.39 122.712,1019.65 122.715,1020.91 122.719,1022.17 122.724,1023.42 
  122.73,1024.67 122.737,1025.92 122.745,1027.16 122.754,1028.41 122.763,1029.64 122.774,1030.88 122.785,1032.11 122.798,1033.34 122.811,1034.57 122.825,1035.8 
  122.84,1037.02 122.857,1038.24 122.874,1039.46 122.891,1040.67 122.91,1041.88 122.93,1043.09 122.951,1044.3 122.972,1045.5 122.995,1046.7 123.018,1047.9 
  123.042,1049.09 123.067,1050.28 123.093,1051.47 123.12,1052.66 123.148,1053.84 123.177,1055.02 123.207,1056.2 123.237,1057.38 123.269,1058.55 123.301,1059.72 
  123.334,1060.89 123.368,1062.05 123.403,1063.22 123.439,1064.37 123.476,1065.53 123.513,1066.69 123.552,1067.84 123.591,1068.99 123.632,1070.13 123.673,1071.28 
  123.715,1072.42 123.758,1073.56 123.801,1074.69 123.846,1075.82 123.892,1076.95 123.938,1078.08 123.985,1079.21 124.033,1080.33 124.082,1081.45 124.132,1082.57 
  124.183,1083.68 124.235,1084.79 124.287,1085.9 124.341,1087.01 124.395,1088.11 124.45,1089.22 124.506,1090.31 124.563,1091.41 124.62,1092.51 124.679,1093.6 
  124.738,1094.69 124.799,1095.77 124.86,1096.86 124.922,1097.94 124.984,1099.02 125.048,1100.09 125.113,1101.17 125.178,1102.24 125.244,1103.3 125.312,1104.37 
  125.38,1105.43 125.449,1106.5 125.518,1107.55 125.589,1108.61 125.66,1109.66 125.733,1110.71 125.806,1111.76 125.88,1112.81 125.955,1113.85 126.03,1114.89 
  126.107,1115.93 126.184,1116.97 126.263,1118 126.342,1119.03 126.422,1120.06 126.502,1121.09 126.584,1122.11 126.667,1123.13 126.75,1124.15 126.834,1125.17 
  126.92,1126.19 127.006,1127.2 127.092,1128.21 127.18,1129.21 127.269,1130.22 127.358,1131.22 127.448,1132.22 127.539,1133.22 127.631,1134.21 127.724,1135.21 
  127.818,1136.2 127.912,1137.18 128.008,1138.17 128.104,1139.15 128.201,1140.13 128.299,1141.11 128.398,1142.09 128.497,1143.06 128.598,1144.03 128.699,1145 
  128.801,1145.97 128.904,1146.93 129.008,1147.9 129.113,1148.86 129.219,1149.81 129.325,1150.77 129.433,1151.72 129.541,1152.67 129.65,1153.62 129.76,1154.57 
  129.871,1155.51 129.983,1156.45 130.095,1157.39 130.209,1158.33 130.323,1159.26 130.438,1160.2 130.554,1161.13 130.671,1162.05 130.789,1162.98 130.907,1163.9 
  131.027,1164.82 131.147,1165.74 131.268,1166.66 131.39,1167.57 131.513,1168.49 131.637,1169.4 131.762,1170.3 131.887,1171.21 132.014,1172.11 132.141,1173.01 
  132.269,1173.91 132.398,1174.81 132.528,1175.7 132.659,1176.6 132.791,1177.49 132.924,1178.37 133.057,1179.26 133.191,1180.14 133.327,1181.03 133.463,1181.91 
  133.6,1182.78 133.738,1183.66 133.876,1184.53 134.016,1185.4 134.157,1186.27 134.298,1187.14 134.44,1188 134.584,1188.86 134.728,1189.72 134.873,1190.58 
  135.019,1191.44 135.165,1192.29 135.313,1193.14 135.462,1193.99 135.611,1194.84 135.761,1195.69 135.913,1196.53 136.065,1197.37 136.218,1198.21 136.372,1199.05 
  136.527,1199.88 136.683,1200.72 136.839,1201.55 136.997,1202.38 137.156,1203.2 137.315,1204.03 137.476,1204.85 137.637,1205.67 137.799,1206.49 137.962,1207.31 
  138.126,1208.12 138.291,1208.93 138.457,1209.74 138.624,1210.55 138.792,1211.36 138.96,1212.16 139.13,1212.97 139.3,1213.77 139.472,1214.56 139.644,1215.36 
  139.818,1216.16 139.992,1216.95 140.167,1217.74 140.343,1218.53 140.52,1219.31 140.698,1220.1 140.877,1220.88 141.057,1221.66 141.238,1222.44 141.42,1223.22 
  141.603,1223.99 141.786,1224.77 141.971,1225.54 142.156,1226.31 142.343,1227.07 142.531,1227.84 142.719,1228.6 142.909,1229.36 143.099,1230.12 143.29,1230.88 
  143.483,1231.64 143.676,1232.39 143.87,1233.14 144.066,1233.89 144.262,1234.64 144.459,1235.39 144.657,1236.13 144.857,1236.87 145.057,1237.61 145.258,1238.35 
  145.46,1239.09 145.663,1239.82 145.867,1240.56 146.072,1241.29 146.279,1242.02 146.486,1242.75 146.694,1243.47 146.903,1244.2 147.113,1244.92 147.324,1245.64 
  147.536,1246.36 147.749,1247.07 147.964,1247.79 148.179,1248.5 148.395,1249.21 148.612,1249.92 148.83,1250.63 149.05,1251.33 149.27,1252.04 149.491,1252.74 
  149.714,1253.44 149.937,1254.14 150.161,1254.84 150.387,1255.53 150.613,1256.22 150.841,1256.92 151.069,1257.61 151.299,1258.29 151.53,1258.98 151.761,1259.66 
  151.994,1260.35 152.228,1261.03 152.463,1261.71 152.699,1262.38 152.936,1263.06 153.174,1263.73 153.413,1264.41 153.653,1265.08 153.894,1265.74 154.137,1266.41 
  154.38,1267.08 154.625,1267.74 154.87,1268.4 155.117,1269.06 155.365,1269.72 155.614,1270.38 155.864,1271.03 156.115,1271.69 156.367,1272.34 156.62,1272.99 
  156.874,1273.64 157.13,1274.28 157.386,1274.93 157.644,1275.57 157.903,1276.21 158.163,1276.85 158.424,1277.49 158.686,1278.13 158.949,1278.76 159.214,1279.4 
  159.479,1280.03 159.746,1280.66 160.014,1281.29 160.283,1281.91 160.553,1282.54 160.824,1283.16 161.096,1283.78 161.37,1284.4 161.645,1285.02 161.92,1285.64 
  162.197,1286.25 162.476,1286.87 162.755,1287.48 163.035,1288.09 163.317,1288.7 163.6,1289.31 163.884,1289.91 164.169,1290.52 164.456,1291.12 164.743,1291.72 
  165.032,1292.32 165.322,1292.92 165.613,1293.51 165.906,1294.11 166.199,1294.7 166.494,1295.29 166.79,1295.88 167.087,1296.47 167.386,1297.06 167.685,1297.64 
  167.986,1298.23 168.288,1298.81 168.592,1299.39 168.896,1299.97 169.202,1300.55 169.509,1301.12 169.817,1301.7 170.127,1302.27 170.438,1302.84 170.75,1303.41 
  171.063,1303.98 171.377,1304.55 171.693,1305.11 172.01,1305.68 172.329,1306.24 172.648,1306.8 172.969,1307.36 173.291,1307.92 173.615,1308.48 173.94,1309.03 
  174.266,1309.58 174.593,1310.14 174.922,1310.69 175.252,1311.24 175.583,1311.78 175.916,1312.33 176.249,1312.88 176.585,1313.42 176.921,1313.96 177.259,1314.5 
  177.598,1315.04 177.939,1315.58 178.281,1316.11 178.624,1316.65 178.968,1317.18 179.314,1317.71 179.661,1318.24 180.01,1318.77 180.36,1319.3 180.711,1319.82 
  181.064,1320.35 181.418,1320.87 181.773,1321.39 182.13,1321.91 182.488,1322.43 182.848,1322.95 183.209,1323.47 183.571,1323.98 183.935,1324.49 184.3,1325.01 
  184.667,1325.52 185.035,1326.03 185.404,1326.53 185.775,1327.04 186.147,1327.54 186.521,1328.05 186.896,1328.55 187.273,1329.05 187.65,1329.55 188.03,1330.05 
  188.411,1330.54 188.793,1331.04 189.177,1331.53 189.562,1332.03 189.949,1332.52 190.337,1333.01 190.727,1333.5 191.118,1333.98 191.51,1334.47 191.905,1334.95 
  192.3,1335.44 192.697,1335.92 193.096,1336.4 193.496,1336.88 193.898,1337.36 194.301,1337.83 194.705,1338.31 195.112,1338.78 195.519,1339.25 195.928,1339.72 
  196.339,1340.19 196.752,1340.66 197.165,1341.13 197.581,1341.6 197.998,1342.06 198.416,1342.52 198.836,1342.99 199.258,1343.45 199.681,1343.91 200.106,1344.36 
  200.532,1344.82 200.96,1345.28 201.39,1345.73 201.821,1346.18 202.254,1346.64 202.688,1347.09 203.124,1347.54 203.562,1347.98 204.001,1348.43 204.442,1348.88 
  204.885,1349.32 205.329,1349.76 205.775,1350.2 206.222,1350.65 206.671,1351.08 207.122,1351.52 207.574,1351.96 208.029,1352.39 208.484,1352.83 208.942,1353.26 
  209.401,1353.69 209.862,1354.12 210.324,1354.55 210.788,1354.98 211.254,1355.41 211.722,1355.83 212.191,1356.26 212.662,1356.68 213.135,1357.1 213.61,1357.52 
  214.086,1357.94 214.564,1358.36 215.044,1358.78 215.525,1359.19 216.008,1359.61 216.493,1360.02 216.98,1360.43 217.469,1360.84 217.959,1361.25 218.451,1361.66 
  218.945,1362.07 219.441,1362.48 219.938,1362.88 220.438,1363.29 220.939,1363.69 221.442,1364.09 221.947,1364.49 222.453,1364.89 222.962,1365.29 223.472,1365.68 
  223.984,1366.08 224.498,1366.47 225.014,1366.87 225.532,1367.26 226.051,1367.65 226.573,1368.04 227.096,1368.43 227.621,1368.82 228.148,1369.2 228.677,1369.59 
  229.208,1369.97 229.741,1370.36 230.276,1370.74 230.813,1371.12 231.351,1371.5 231.892,1371.88 232.434,1372.25 232.979,1372.63 233.525,1373.01 234.073,1373.38 
  234.624,1373.75 235.176,1374.12 235.73,1374.49 236.287,1374.86 236.845,1375.23 237.405,1375.6 237.967,1375.96 238.532,1376.33 239.098,1376.69 239.666,1377.06 
  240.237,1377.42 240.809,1377.78 241.383,1378.14 241.96,1378.5 242.538,1378.85 243.119,1379.21 243.702,1379.56 244.286,1379.92 244.873,1380.27 245.462,1380.62 
  246.053,1380.97 246.646,1381.32 247.241,1381.67 247.839,1382.02 248.438,1382.37 249.04,1382.71 249.643,1383.06 250.249,1383.4 250.857,1383.74 251.467,1384.08 
  252.079,1384.42 252.694,1384.76 253.311,1385.1 253.929,1385.43 254.55,1385.77 255.174,1386.11 255.799,1386.44 256.427,1386.77 257.056,1387.1 257.689,1387.43 
  258.323,1387.76 258.959,1388.09 259.598,1388.42 260.239,1388.74 260.882,1389.07 261.528,1389.39 262.176,1389.72 262.826,1390.04 263.478,1390.36 264.133,1390.68 
  264.79,1391 265.449,1391.32 266.111,1391.63 266.775,1391.95 267.441,1392.26 268.11,1392.58 268.781,1392.89 269.454,1393.2 270.13,1393.51 270.808,1393.82 
  271.488,1394.13 272.171,1394.44 272.856,1394.75 273.544,1395.05 274.234,1395.36 274.926,1395.66 275.621,1395.96 276.318,1396.26 277.018,1396.57 277.72,1396.87 
  278.425,1397.16 279.132,1397.46 279.841,1397.76 280.553,1398.05 281.268,1398.35 281.985,1398.64 282.704,1398.93 283.426,1399.23 284.151,1399.52 284.878,1399.81 
  285.607,1400.1 286.339,1400.38 287.074,1400.67 287.811,1400.96 288.551,1401.24 289.293,1401.52 290.038,1401.81 290.786,1402.09 291.536,1402.37 292.289,1402.65 
  293.044,1402.93 293.802,1403.21 294.562,1403.48 295.326,1403.76 296.091,1404.04 296.86,1404.31 297.631,1404.58 298.405,1404.85 299.182,1405.13 299.961,1405.4 
  300.743,1405.67 301.527,1405.93 302.315,1406.2 303.105,1406.47 303.898,1406.73 304.693,1407 305.491,1407.26 306.292,1407.52 307.096,1407.79 307.903,1408.05 
  308.712,1408.31 309.524,1408.57 310.339,1408.82 311.157,1409.08 311.978,1409.34 312.801,1409.59 313.627,1409.85 314.456,1410.1 315.288,1410.35 316.123,1410.6 
  316.961,1410.85 317.801,1411.1 318.645,1411.35 319.491,1411.6 320.34,1411.85 321.193,1412.09 322.048,1412.34 322.906,1412.58 323.767,1412.82 324.631,1413.06 
  325.498,1413.31 326.367,1413.55 327.24,1413.79 328.116,1414.02 328.995,1414.26 329.877,1414.5 330.762,1414.73 331.65,1414.97 332.541,1415.2 333.435,1415.43 
  334.332,1415.67 335.232,1415.9 336.135,1416.13 337.042,1416.36 337.951,1416.59 338.863,1416.81 339.779,1417.04 340.698,1417.27 341.62,1417.49 342.545,1417.71 
  343.473,1417.94 344.404,1418.16 345.339,1418.38 346.277,1418.6 347.217,1418.82 348.162,1419.04 349.109,1419.25 350.059,1419.47 351.013,1419.69 351.97,1419.9 
  352.931,1420.12 353.894,1420.33 354.861,1420.54 355.831,1420.75 356.805,1420.96 357.781,1421.17 358.761,1421.38 359.745,1421.59 360.731,1421.79 361.721,1422 
  362.715,1422.21 363.712,1422.41 364.712,1422.61 365.715,1422.81 366.722,1423.02 367.733,1423.22 368.746,1423.42 369.764,1423.62 370.784,1423.81 371.808,1424.01 
  372.836,1424.21 373.867,1424.4 374.902,1424.6 375.94,1424.79 376.981,1424.98 378.026,1425.17 379.075,1425.36 380.127,1425.55 381.183,1425.74 382.242,1425.93 
  383.305,1426.12 384.371,1426.31 385.441,1426.49 386.515,1426.68 387.592,1426.86 388.673,1427.04 389.757,1427.22 390.845,1427.41 391.937,1427.59 393.032,1427.77 
  394.131,1427.94 395.234,1428.12 396.341,1428.3 397.451,1428.47 398.565,1428.65 399.683,1428.82 400.804,1429 401.929,1429.17 403.058,1429.34 404.191,1429.51 
  405.328,1429.68 406.468,1429.85 407.612,1430.02 408.76,1430.19 409.912,1430.35 411.068,1430.52 412.227,1430.68 413.391,1430.85 414.558,1431.01 415.729,1431.17 
  416.905,1431.33 418.084,1431.49 419.267,1431.65 420.454,1431.81 421.644,1431.97 422.839,1432.12 424.038,1432.28 425.241,1432.44 426.448,1432.59 427.659,1432.74 
  428.874,1432.9 430.093,1433.05 431.316,1433.2 432.543,1433.35 433.774,1433.5 435.009,1433.64 436.249,1433.79 437.492,1433.94 438.74,1434.08 439.992,1434.23 
  441.247,1434.37 442.508,1434.51 443.772,1434.66 445.04,1434.8 446.313,1434.94 447.59,1435.08 448.871,1435.22 450.156,1435.35 451.446,1435.49 452.739,1435.63 
  454.038,1435.76 455.34,1435.9 456.647,1436.03 457.958,1436.16 459.273,1436.29 460.593,1436.42 461.917,1436.55 463.245,1436.68 464.578,1436.81 465.915,1436.94 
  467.257,1437.06 468.603,1437.19 469.953,1437.32 471.308,1437.44 472.667,1437.56 474.031,1437.68 475.399,1437.8 476.772,1437.93 478.149,1438.04 479.531,1438.16 
  480.917,1438.28 482.308,1438.4 483.703,1438.51 485.103,1438.63 486.508,1438.74 487.917,1438.86 489.331,1438.97 490.749,1439.08 492.172,1439.19 493.6,1439.3 
  495.032,1439.41 496.469,1439.52 497.911,1439.62 499.357,1439.73 500.808,1439.83 502.264,1439.94 503.725,1440.04 505.19,1440.15 506.66,1440.25 508.135,1440.35 
  509.615,1440.45 511.1,1440.55 512.589,1440.64 514.083,1440.74 515.582,1440.84 517.086,1440.93 518.595,1441.03 520.108,1441.12 521.627,1441.21 523.15,1441.31 
  524.679,1441.4 526.212,1441.49 527.75,1441.58 529.294,1441.67 530.842,1441.75 532.395,1441.84 533.954,1441.92 535.517,1442.01 537.085,1442.09 538.659,1442.18 
  540.237,1442.26 541.821,1442.34 543.409,1442.42 545.003,1442.5 546.602,1442.58 548.206,1442.65 549.815,1442.73 551.43,1442.81 553.049,1442.88 554.674,1442.95 
  556.304,1443.03 557.939,1443.1 559.579,1443.17 561.225,1443.24 562.876,1443.31 564.532,1443.38 566.193,1443.44 567.86,1443.51 569.532,1443.57 571.21,1443.64 
  572.892,1443.7 574.581,1443.76 576.274,1443.83 577.973,1443.89 579.677,1443.95 581.387,1444.01 583.102,1444.06 584.823,1444.12 586.549,1444.18 588.28,1444.23 
  590.017,1444.28 591.76,1444.34 593.508,1444.39 595.262,1444.44 597.021,1444.49 598.785,1444.54 600.556,1444.59 602.332,1444.63 604.113,1444.68 605.9,1444.73 
  607.693,1444.77 609.491,1444.81 611.295,1444.86 613.105,1444.9 614.92,1444.94 616.741,1444.98 618.568,1445.01 620.4,1445.05 622.239,1445.09 624.083,1445.12 
  625.932,1445.16 627.788,1445.19 629.649,1445.22 631.516,1445.26 633.389,1445.29 635.268,1445.32 637.153,1445.34 639.044,1445.37 640.94,1445.4 642.842,1445.42 
  644.751,1445.45 646.665,1445.47 648.585,1445.49 650.511,1445.51 652.443,1445.53 654.381,1445.55 656.325,1445.57 658.275,1445.59 660.232,1445.6 662.194,1445.62 
  664.162,1445.63 666.136,1445.65 668.116,1445.66 670.103,1445.67 672.095,1445.68 674.094,1445.69 676.099,1445.69 678.11,1445.7 680.127,1445.71 682.15,1445.71 
  684.18,1445.71 686.216,1445.71 688.257,1445.72 690.306,1445.72 692.36,1445.71 694.421,1445.71 696.488,1445.71 698.561,1445.7 700.641,1445.7 702.726,1445.69 
  704.819,1445.68 706.917,1445.68 709.022,1445.67 711.133,1445.65 713.251,1445.64 715.375,1445.63 717.506,1445.61 719.643,1445.6 721.786,1445.58 723.936,1445.56 
  726.092,1445.54 728.255,1445.52 730.424,1445.5 732.6,1445.48 734.782,1445.46 736.971,1445.43 739.166,1445.41 741.368,1445.38 743.577,1445.35 745.792,1445.32 
  748.014,1445.29 750.242,1445.26 752.477,1445.22 754.718,1445.19 756.967,1445.15 759.221,1445.12 761.483,1445.08 763.751,1445.04 766.026,1445 768.308,1444.96 
  770.596,1444.91 772.891,1444.87 775.193,1444.82 777.502,1444.78 779.817,1444.73 782.14,1444.68 784.469,1444.63 786.804,1444.58 789.147,1444.52 791.497,1444.47 
  793.853,1444.41 796.216,1444.36 798.586,1444.3 800.963,1444.24 803.347,1444.18 805.738,1444.12 808.135,1444.05 810.54,1443.99 812.952,1443.92 815.37,1443.85 
  817.796,1443.79 820.228,1443.72 822.667,1443.64 825.114,1443.57 827.567,1443.5 830.028,1443.42 832.495,1443.34 834.97,1443.27 837.451,1443.19 839.94,1443.1 
  842.436,1443.02 844.939,1442.94 847.448,1442.85 849.965,1442.76 852.49,1442.68 855.021,1442.59 857.559,1442.5 860.105,1442.4 862.657,1442.31 865.217,1442.21 
  867.784,1442.12 870.358,1442.02 872.94,1441.92 875.528,1441.82 878.124,1441.71 880.727,1441.61 883.337,1441.5 885.955,1441.4 888.579,1441.29 891.211,1441.18 
  893.85,1441.06 896.497,1440.95 899.151,1440.83 901.812,1440.72 904.48,1440.6 907.156,1440.48 909.839,1440.36 912.529,1440.24 915.226,1440.11 917.931,1439.98 
  920.643,1439.86 923.363,1439.73 926.09,1439.6 928.824,1439.46 931.566,1439.33 934.315,1439.19 937.071,1439.05 939.835,1438.91 942.606,1438.77 945.384,1438.63 
  948.17,1438.49 950.963,1438.34 953.764,1438.19 956.572,1438.04 959.388,1437.89 962.211,1437.74 965.041,1437.58 967.879,1437.42 970.724,1437.27 973.577,1437.11 
  976.437,1436.94 979.304,1436.78 982.179,1436.61 985.062,1436.45 987.951,1436.28 990.849,1436.1 993.754,1435.93 996.666,1435.76 999.585,1435.58 1002.51,1435.4 
  1005.45,1435.22 1008.39,1435.04 1011.34,1434.85 1014.3,1434.67 1017.26,1434.48 1020.23,1434.29 1023.21,1434.09 1026.2,1433.9 1029.19,1433.7 1032.19,1433.5 
  1035.2,1433.3 1038.22,1433.1 1041.24,1432.9 1044.28,1432.69 1047.32,1432.48 1050.36,1432.27 1053.42,1432.06 1056.48,1431.84 1059.55,1431.63 1062.62,1431.41 
  1065.71,1431.18 1068.8,1430.96 1071.9,1430.74 1075,1430.51 1078.12,1430.28 1081.24,1430.05 1084.37,1429.81 1087.5,1429.57 1090.64,1429.34 1093.8,1429.09 
  1096.95,1428.85 1100.12,1428.6 1103.29,1428.36 1106.47,1428.11 1109.66,1427.85 1112.85,1427.6 1116.06,1427.34 1119.27,1427.08 1122.48,1426.82 1125.71,1426.55 
  1128.94,1426.29 1132.18,1426.02 1135.42,1425.74 1138.68,1425.47 1141.94,1425.19 1145.2,1424.91 1148.48,1424.63 1151.76,1424.35 1155.05,1424.06 1158.35,1423.77 
  1161.65,1423.48 1164.96,1423.18 1168.28,1422.89 1171.61,1422.59 1174.94,1422.28 1178.28,1421.98 1181.63,1421.67 1184.98,1421.36 1188.34,1421.04 1191.71,1420.73 
  1195.08,1420.41 1198.47,1420.09 1201.85,1419.76 1205.25,1419.43 1208.65,1419.1 1212.06,1418.77 1215.48,1418.43 1218.9,1418.1 1222.33,1417.75 1225.77,1417.41 
  1229.22,1417.06 1232.67,1416.71 1236.12,1416.36 1239.59,1416 1243.06,1415.64 1246.54,1415.28 1250.02,1414.91 1253.51,1414.54 1257.01,1414.17 1260.52,1413.79 
  1264.03,1413.42 1267.55,1413.03 1271.07,1412.65 1274.6,1412.26 1278.14,1411.87 1281.68,1411.47 1285.23,1411.08 1288.79,1410.67 1292.35,1410.27 1295.92,1409.86 
  1299.49,1409.45 1303.08,1409.04 1306.66,1408.62 1310.26,1408.2 1313.86,1407.77 1317.46,1407.34 1321.08,1406.91 1324.69,1406.47 1328.32,1406.03 1331.95,1405.59 
  1335.58,1405.14 1339.22,1404.69 1342.87,1404.24 1346.53,1403.78 1350.18,1403.32 1353.85,1402.85 1357.52,1402.38 1361.2,1401.91 1364.88,1401.43 1368.56,1400.95 
  1372.26,1400.47 1375.95,1399.98 1379.66,1399.49 1383.36,1398.99 1387.08,1398.49 1390.8,1397.98 1394.52,1397.47 1398.25,1396.96 1401.98,1396.44 1405.72,1395.92 
  1409.47,1395.4 1413.22,1394.87 1416.97,1394.33 1420.73,1393.79 1424.49,1393.25 1428.26,1392.7 1432.03,1392.15 1435.81,1391.59 1439.59,1391.03 1443.38,1390.47 
  1447.17,1389.9 1450.96,1389.32 1454.76,1388.75 1458.56,1388.16 1462.37,1387.57 1466.18,1386.98 1469.99,1386.38 1473.81,1385.78 1477.63,1385.17 1481.46,1384.56 
  1485.29,1383.94 1489.12,1383.32 1492.96,1382.69 1496.8,1382.06 1500.64,1381.42 1504.49,1380.78 1508.34,1380.13 1512.19,1379.48 1516.04,1378.82 1519.9,1378.16 
  1523.76,1377.49 1527.63,1376.82 1531.49,1376.14 1535.36,1375.46 1539.23,1374.77 1543.11,1374.07 1546.98,1373.37 1550.86,1372.66 1554.74,1371.95 1558.63,1371.23 
  1562.51,1370.51 1566.4,1369.78 1570.29,1369.05 1574.17,1368.3 1578.07,1367.56 1581.96,1366.81 1585.85,1366.05 1589.75,1365.28 1593.64,1364.51 1597.54,1363.73 
  1601.44,1362.95 1605.34,1362.16 1609.24,1361.37 1613.14,1360.57 1617.04,1359.76 1620.94,1358.94 1624.84,1358.12 1628.74,1357.29 1632.64,1356.46 1636.54,1355.62 
  1640.44,1354.77 1644.34,1353.92 1648.24,1353.06 1652.14,1352.19 1656.04,1351.32 1659.93,1350.43 1663.83,1349.55 1667.72,1348.65 1671.62,1347.75 1675.51,1346.84 
  1679.4,1345.92 1683.29,1345 1687.17,1344.07 1691.06,1343.13 1694.94,1342.18 1698.82,1341.23 1702.7,1340.27 1706.57,1339.3 1710.45,1338.32 1714.32,1337.34 
  1718.18,1336.35 1722.04,1335.35 1725.9,1334.34 1729.76,1333.33 1733.61,1332.3 1737.46,1331.27 1741.3,1330.23 1745.15,1329.19 1748.98,1328.13 1752.81,1327.07 
  1756.64,1326 1760.46,1324.91 1764.28,1323.83 1768.09,1322.73 1771.89,1321.62 1775.7,1320.51 1779.49,1319.38 1783.28,1318.25 1787.06,1317.11 1790.84,1315.96 
  1794.61,1314.8 1798.37,1313.63 1802.13,1312.45 1805.88,1311.27 1809.62,1310.07 1813.35,1308.86 1817.08,1307.65 1820.8,1306.43 1824.51,1305.19 1828.21,1303.95 
  1831.9,1302.69 1835.59,1301.43 1839.27,1300.16 1842.93,1298.88 1846.59,1297.58 1850.24,1296.28 1853.88,1294.97 1857.51,1293.64 1861.12,1292.31 1864.73,1290.97 
  1868.33,1289.61 1871.92,1288.25 1875.49,1286.87 1879.06,1285.49 1882.61,1284.09 1886.15,1282.68 1889.68,1281.26 1893.19,1279.84 1896.7,1278.4 1900.19,1276.94 
  1903.67,1275.48 1907.13,1274.01 1910.58,1272.52 1914.02,1271.03 1917.44,1269.52 1920.85,1268 1924.25,1266.47 1927.63,1264.92 1930.99,1263.37 1934.34,1261.8 
  1937.67,1260.22 1940.99,1258.63 1944.29,1257.03 1947.58,1255.41 1950.85,1253.78 1954.1,1252.14 1957.33,1250.49 1960.55,1248.82 1963.75,1247.15 1966.93,1245.46 
  1970.1,1243.75 1973.24,1242.04 1976.37,1240.31 1979.47,1238.56 1982.56,1236.81 1985.63,1235.04 1988.67,1233.26 1991.7,1231.46 1994.71,1229.65 1997.69,1227.83 
  2000.66,1225.99 2003.6,1224.14 2006.52,1222.28 2009.42,1220.4 2012.29,1218.51 2015.15,1216.6 2017.98,1214.68 2020.78,1212.75 2023.57,1210.8 2026.33,1208.84 
  2029.06,1206.86 2031.77,1204.87 2034.46,1202.86 2037.12,1200.84 2039.75,1198.8 2042.36,1196.75 2044.94,1194.68 2047.5,1192.6 2050.02,1190.51 2052.53,1188.39 
  2055,1186.27 2057.44,1184.12 2059.86,1181.96 2062.25,1179.79 2064.61,1177.6 2066.94,1175.4 2069.24,1173.17 2071.51,1170.94 2073.76,1168.68 2075.97,1166.42 
  2078.15,1164.13 2080.29,1161.83 2082.41,1159.51 2084.5,1157.18 2086.55,1154.83 2088.57,1152.46 2090.56,1150.08 2092.51,1147.68 2094.43,1145.26 2096.31,1142.82 
  2098.17,1140.37 2099.98,1137.91 2101.77,1135.42 2103.51,1132.92 2105.22,1130.4 2106.9,1127.86 2108.54,1125.31 2110.14,1122.74 2111.7,1120.15 2113.23,1117.54 
  2114.72,1114.92 2116.17,1112.28 2117.58,1109.62 2118.95,1106.95 2120.29,1104.25 2121.58,1101.54 2122.84,1098.81 2124.05,1096.06 2125.23,1093.3 2126.36,1090.51 
  2127.45,1087.71 2128.5,1084.89 2129.51,1082.05 2130.48,1079.19 2131.4,1076.32 2132.28,1073.43 2133.12,1070.51 2133.92,1067.58 2134.67,1064.64 2135.37,1061.67 
  2136.04,1058.68 2136.65,1055.68 2137.22,1052.66 2137.75,1049.62 2138.23,1046.56 2138.67,1043.48 2139.05,1040.38 2139.4,1037.27 2139.69,1034.13 2139.94,1030.98 
  2140.14,1027.81 2140.29,1024.62 2140.39,1021.41 2140.45,1018.18 2140.45,1014.93 2140.41,1011.67 2140.32,1008.38 2140.18,1005.08 2139.98,1001.76 2139.74,998.419 
  2139.45,995.06 2139.11,991.683 2138.71,988.287 2138.27,984.872 2137.77,981.439 2137.22,977.987 2136.62,974.517 2135.97,971.028 2135.27,967.521 2134.51,963.995 
  2133.7,960.451 2132.84,956.889 2131.92,953.308 2130.95,949.709 2129.93,946.092 2128.85,942.457 2127.72,938.804 2126.53,935.133 2125.29,931.444 2124,927.737 
  2122.65,924.012 2121.25,920.27 2119.79,916.51 2118.27,912.733 2116.7,908.938 2115.08,905.126 2113.4,901.297 2111.66,897.45 2109.87,893.587 2108.02,889.707 
  2106.12,885.81 2104.16,881.896 2102.14,877.966 2100.07,874.02 2097.94,870.057 2095.76,866.078 2093.52,862.083 2091.22,858.072 2088.86,854.046 2086.45,850.004 
  2083.98,845.947 2081.46,841.874 2078.88,837.786 2076.24,833.684 2073.55,829.566 2070.8,825.434 2067.99,821.288 2065.13,817.127 2062.21,812.953 2059.23,808.765 
  2056.2,804.563 2053.11,800.347 2049.96,796.119 2046.76,791.877 2043.5,787.623 2040.19,783.356 2036.82,779.077 2033.39,774.785 2029.91,770.482 2026.38,766.167 
  2022.79,761.841 2019.14,757.503 2015.44,753.154 2011.68,748.795 2007.87,744.426 2004.01,740.046 2000.09,735.656 1996.11,731.257 1992.09,726.848 1988,722.43 
  1983.87,718.004 1979.68,713.568 1975.44,709.125 1971.15,704.674 1966.81,700.215 1962.41,695.748 1957.96,691.275 1953.46,686.794 1948.91,682.308 1944.31,677.815 
  1939.66,673.316 1934.96,668.812 1930.21,664.302 1925.41,659.788 1920.56,655.269 1915.66,650.746 1910.71,646.219 1905.72,641.689 1900.68,637.155 1895.59,632.619 
  1890.46,628.08 1885.27,623.539 1880.05,618.996 1874.78,614.451 1869.46,609.906 1864.1,605.359 1858.69,600.813 1853.24,596.266 1847.75,591.72 1842.22,587.174 
  1836.64,582.63 1831.03,578.087 1825.37,573.545 1819.67,569.006 1813.93,564.47 1808.15,559.937 1802.34,555.406 1796.48,550.88 1790.59,546.358 1784.66,541.84 
  1778.69,537.327 1772.69,532.82 1766.65,528.318 1760.58,523.822 1754.47,519.332 1748.33,514.85 1742.16,510.374 1735.95,505.906 1729.71,501.446 1723.44,496.995 
  1717.14,492.552 1710.81,488.118 1704.45,483.694 1698.06,479.28 1691.65,474.876 1685.2,470.483 1678.73,466.101 1672.23,461.731 1665.71,457.372 1659.16,453.026 
  1652.59,448.692 1645.99,444.371 1639.37,440.064 1632.73,435.77 1626.07,431.491 1619.38,427.226 1612.68,422.976 1605.95,418.741 1599.21,414.522 1592.45,410.32 
  1585.67,406.133 1578.87,401.963 1572.05,397.811 1565.23,393.676 1558.38,389.558 1551.52,385.459 1544.65,381.379 1537.76,377.317 1530.86,373.275 1523.95,369.252 
  1517.03,365.249 1510.1,361.267 1503.16,357.305 1496.21,353.364 1489.25,349.444 1482.28,345.546 1475.31,341.67 1468.33,337.816 1461.34,333.985 1454.35,330.176 
  1447.35,326.391 1440.35,322.629 1433.34,318.891 1426.34,315.177 1419.33,311.488 1412.32,307.823 1405.3,304.183 1398.29,300.568 1391.28,296.978 1384.27,293.415 
  1377.26,289.877 1370.25,286.366 1363.25,282.881 1356.25,279.423 1349.25,275.992 1342.26,272.588 1335.27,269.212 1328.29,265.864 1321.31,262.543 1314.34,259.251 
  1307.38,255.987 1300.42,252.751 1293.48,249.545 1286.54,246.367 1279.61,243.219 1272.69,240.1 1265.78,237.01 1258.89,233.951 1252,230.921 1245.13,227.922 
  1238.27,224.952 1231.42,222.013 1224.59,219.105 1217.76,216.228 1210.96,213.381 1204.17,210.566 1197.39,207.781 1190.63,205.028 1183.88,202.306 1177.15,199.616 
  1170.44,196.957 1163.75,194.331 1157.07,191.736 1150.41,189.173 1143.77,186.642 1137.15,184.143 1130.55,181.677 1123.97,179.242 1117.41,176.84 1110.87,174.471 
  1104.35,172.134 1097.85,169.83 1091.37,167.558 1084.91,165.319 1078.48,163.113 1072.07,160.939 1065.68,158.798 1059.31,156.69 1052.97,154.615 1046.65,152.573 
  1040.35,150.563 1034.08,148.587 1027.83,146.643 1021.61,144.732 1015.41,142.854 1009.24,141.009 1003.1,139.197 996.974,137.418 990.879,135.671 984.809,133.957 
  978.766,132.277 972.749,130.628 966.759,129.013 960.796,127.43 954.86,125.88 948.951,124.362 943.07,122.877 937.216,121.425 931.389,120.005 925.591,118.617 
  919.82,117.261 914.078,115.938 908.364,114.647 902.678,113.387 897.021,112.16 891.393,110.965 885.793,109.801 880.222,108.67 874.68,107.569 869.167,106.501 
  863.684,105.463 858.229,104.457 852.804,103.483 847.408,102.539 842.041,101.626 836.704,100.745 831.397,99.8935 826.119,99.0731 820.871,98.2832 815.652,97.5236 
  810.463,96.7943 805.304,96.0952 800.175,95.426 795.075,94.7867 790.005,94.1771 784.965,93.5971 779.955,93.0465 774.975,92.5253 770.024,92.0332 765.103,91.57 
  760.212,91.1358 755.351,90.7302 750.52,90.3533 745.718,90.0047 740.946,89.6843 736.204,89.392 731.492,89.1277 726.809,88.8911 722.155,88.6821 717.532,88.5006 
  712.937,88.3463 708.373,88.2192 703.837,88.1189 699.331,88.0455 694.855,87.9987 690.407,87.9783 685.989,87.9841 681.599,88.016 677.239,88.0739 672.908,88.1575 
  668.605,88.2666 664.332,88.4012 660.087,88.5609 655.871,88.7457 651.683,88.9553 647.524,89.1896 643.393,89.4484 639.29,89.7315 635.216,90.0388 631.17,90.37 
  627.151,90.7249 623.161,91.1035 619.198,91.5055 615.263,91.9306 611.355,92.3789 607.475,92.8499 603.623,93.3437 599.797,93.8599 595.999,94.3985 592.228,94.9591 
  588.484,95.5417 584.766,96.1461 581.075,96.772 577.411,97.4193 573.773,98.0878 570.161,98.7773 566.575,99.4876 563.016,100.219 559.482,100.97 555.975,101.742 
  552.493,102.534 549.036,103.345 545.605,104.177 542.199,105.028 538.818,105.898 535.463,106.788 532.132,107.697 528.826,108.624 525.544,109.57 522.287,110.535 
  519.055,111.518 515.846,112.518 512.662,113.537 509.501,114.574 506.365,115.628 503.252,116.7 500.162,117.789 497.096,118.894 494.053,120.017 491.034,121.157 
  488.037,122.312 485.063,123.485 482.112,124.673 479.183,125.878 476.276,127.098 473.392,128.334 470.53,129.585 467.691,130.852 464.872,132.134 462.076,133.431 
  459.301,134.743 456.548,136.069 453.816,137.41 451.105,138.765 448.415,140.135 445.746,141.518 443.097,142.915 440.469,144.326 437.862,145.751 435.275,147.188 
  432.708,148.639 430.161,150.104 427.634,151.58 425.127,153.07 422.64,154.572 420.172,156.087 417.723,157.614 415.293,159.153 412.883,160.704 410.491,162.267 
  408.119,163.842 405.765,165.428 403.429,167.025 401.112,168.634 398.814,170.253 396.533,171.884 394.27,173.526 392.026,175.178 389.799,176.841 387.589,178.514 
  385.397,180.197 383.223,181.89 381.066,183.594 378.926,185.307 376.802,187.03 374.696,188.762 372.606,190.504 370.533,192.255 368.477,194.015 366.437,195.784 
  364.413,197.563 362.405,199.35 360.413,201.145 358.437,202.949 356.476,204.762 354.532,206.583 352.603,208.411 350.689,210.248 348.79,212.093 346.907,213.946 
  345.038,215.806 343.185,217.674 341.346,219.549 339.522,221.431 337.712,223.321 335.917,225.218 334.137,227.121 332.37,229.032 330.618,230.949 328.879,232.873 
  327.155,234.803 325.444,236.74 323.747,238.683 322.063,240.632 320.393,242.587 318.737,244.549 317.093,246.516 315.463,248.489 313.845,250.467 312.241,252.451 
  310.649,254.441 309.07,256.436 307.504,258.436 305.95,260.441 304.409,262.451 302.88,264.467 301.363,266.487 299.858,268.512 298.366,270.541 296.885,272.575 
  295.416,274.614 293.959,276.657 292.513,278.704 291.079,280.756 289.656,282.811 288.245,284.871 286.845,286.935 285.456,289.002 284.078,291.074 282.712,293.148 
  281.356,295.227 280.01,297.309 278.676,299.395 277.352,301.484 276.039,303.576 274.736,305.671 273.444,307.769 272.162,309.871 270.89,311.975 269.628,314.083 
  268.376,316.193 267.135,318.306 265.903,320.421 264.681,322.539 263.468,324.66 262.265,326.783 261.072,328.908 259.888,331.036 258.714,333.166 257.549,335.298 
  256.393,337.432 255.247,339.568 254.109,341.706 252.98,343.846 251.861,345.988 250.75,348.132 249.648,350.277 248.555,352.424 247.471,354.572 246.395,356.722 
  245.327,358.873 244.268,361.026 243.217,363.18 242.175,365.335 241.141,367.491 240.115,369.648 239.097,371.807 238.087,373.967 237.086,376.127 236.092,378.288 
  235.105,380.451 234.127,382.614 233.156,384.777 232.194,386.942 231.238,389.107 230.29,391.272 229.35,393.438 228.417,395.605 227.491,397.772 226.573,399.939 
  225.662,402.107 224.757,404.275 223.861,406.443 222.971,408.611 222.088,410.779 221.212,412.947 220.343,415.116 219.48,417.284 218.625,419.453 217.776,421.621 
  216.934,423.789 216.098,425.956 215.269,428.124 214.447,430.291 213.631,432.458 212.821,434.625 212.017,436.791 211.22,438.956 210.429,441.121 209.645,443.286 
  208.866,445.45 208.094,447.613 207.327,449.776 206.567,451.938 205.812,454.099 205.064,456.259 204.321,458.419 203.584,460.577 202.853,462.735 202.127,464.892 
  201.407,467.048 200.693,469.203 199.984,471.357 199.281,473.509 198.583,475.661 197.891,477.812 197.204,479.961 196.522,482.109 195.846,484.256 195.175,486.402 
  194.509,488.546 193.848,490.689 193.193,492.83 192.543,494.971 191.897,497.109 191.257,499.247 190.622,501.383 189.991,503.517 189.366,505.65 188.745,507.781 
  188.129,509.91 187.518,512.038 186.912,514.165 186.31,516.289 185.713,518.412 185.121,520.534 184.533,522.653 183.95,524.771 183.372,526.886 182.798,529 
  182.228,531.113 181.663,533.223 181.102,535.331 180.545,537.438 179.993,539.542 179.445,541.644 178.902,543.745 178.362,545.843 177.827,547.94 177.296,550.034 
  176.769,552.126 176.246,554.216 175.728,556.304 175.213,558.39 174.702,560.474 174.195,562.555 173.693,564.634 173.194,566.711 172.699,568.786 172.207,570.859 
  171.72,572.929 171.236,574.997 170.757,577.062 170.281,579.126 169.808,581.186 169.34,583.245 168.875,585.301 168.413,587.355 167.955,589.406 167.501,591.455 
  167.05,593.501 166.603,595.545 166.16,597.586 165.719,599.625 165.283,601.661 164.849,603.695 164.419,605.726 163.993,607.755 163.569,609.781 163.15,611.804 
  162.733,613.825 162.32,615.843 161.909,617.858 161.502,619.871 161.099,621.882 160.698,623.889 160.301,625.894 159.907,627.896 159.515,629.895 159.127,631.892 
  158.742,633.886 158.36,635.877 157.981,637.866 157.605,639.851 157.232,641.834 156.862,643.814 156.495,645.791 156.131,647.766 155.77,649.737 155.411,651.706 
  155.056,653.672 154.703,655.635 154.353,657.595 154.006,659.552 153.662,661.507 153.32,663.458 152.981,665.407 152.645,667.352 152.311,669.295 151.981,671.235 
  151.653,673.171 151.327,675.105 151.004,677.036 150.684,678.964 150.366,680.889 150.051,682.811 149.738,684.73 149.428,686.646 149.121,688.559 148.816,690.469 
  148.513,692.376 148.213,694.28 147.916,696.181 147.62,698.078 147.328,699.973 147.037,701.865 146.749,703.753 146.464,705.639 146.18,707.522 145.899,709.401 
  145.621,711.277 145.345,713.151 145.07,715.021 144.799,716.888 144.529,718.752 144.262,720.613 143.997,722.47 143.734,724.325 143.474,726.177 143.215,728.025 
  142.959,729.87 142.705,731.712 142.453,733.551 142.203,735.387 141.956,737.22 141.71,739.049 141.467,740.876 141.225,742.699 140.986,744.519 140.749,746.336 
  140.514,748.149 140.28,749.96 140.049,751.767 139.82,753.571 139.593,755.372 139.368,757.17 139.144,758.965 138.923,760.756 138.704,762.544 138.486,764.329 
  138.271,766.111 138.057,767.89 137.846,769.665 137.636,771.437 137.428,773.206 137.222,774.972 137.018,776.735 136.815,778.494 136.615,780.25 136.416,782.003 
  136.219,783.753 136.024,785.5 135.831,787.243 135.639,788.983 135.45,790.72 135.262,792.453 135.075,794.184 134.891,795.911 134.708,797.635 134.527,799.356 
  134.348,801.073 134.17,802.787 133.994,804.498 133.82,806.206 133.647,807.911 133.476,809.612 133.307,811.31 133.139,813.005 132.973,814.697 132.808,816.385 
  132.645,818.071 132.484,819.752 132.325,821.431 132.167,823.107 132.01,824.779 131.855,826.448 131.702,828.114 131.55,829.777 131.4,831.436 131.251,833.092 
  131.104,834.745 130.958,836.395 130.814,838.041 130.672,839.684 130.53,841.324 130.391,842.961 130.253,844.595 130.116,846.225 129.981,847.852 129.847,849.476 
  129.715,851.097 129.584,852.714 129.454,854.329 129.326,855.94 129.2,857.547 129.075,859.152 128.951,860.754 128.829,862.352 128.708,863.947 128.588,865.539 
  128.47,867.127 128.353,868.713 128.238,870.295 128.124,871.874 128.011,873.45 127.9,875.022 127.79,876.592 127.681,878.158 127.573,879.721 127.467,881.281 
  127.363,882.838 127.259,884.391 127.157,885.941 127.056,887.488 126.957,889.032 126.859,890.573 126.762,892.111 126.666,893.645 126.572,895.177 126.479,896.705 
  126.387,898.23 126.296,899.752 126.207,901.27 126.119,902.786 126.032,904.298 125.946,905.807 125.862,907.313 125.779,908.816 125.697,910.316 125.616,911.813 
  125.536,913.306 125.458,914.797 125.381,916.284 125.305,917.768 125.23,919.249 125.157,920.727 125.084,922.202 125.013,923.674 124.943,925.142 124.874,926.608 
  124.806,928.07 124.74,929.529 124.674,930.985 124.61,932.439 124.547,933.889 124.485,935.335 124.424,936.779 124.364,938.22 124.306,939.658 124.248,941.092 
  124.192,942.524 124.137,943.952 124.083,945.378 124.03,946.8 123.978,948.219 123.927,949.635 123.877,951.049 123.828,952.459 123.781,953.866 123.734,955.27 
  123.689,956.671 123.645,958.069 123.601,959.464 123.559,960.856 123.518,962.245 123.478,963.63 123.439,965.013 123.401,966.393 123.364,967.77 123.328,969.144 
  123.293,970.515 123.26,971.883 123.227,973.247 123.195,974.609 123.164,975.968 123.135,977.324 123.106,978.677 123.079,980.027 123.052,981.374 123.026,982.718 
  123.002,984.059 122.978,985.397 122.956,986.733 122.934,988.065 122.914,989.394 122.894,990.721 122.876,992.044 122.858,993.365 122.841,994.682 122.826,995.997 
  122.811,997.309 122.798,998.617 122.785,999.923 122.773,1001.23 122.763,1002.53 122.753,1003.82 122.744,1005.12 122.737,1006.41 122.73,1007.7 122.724,1008.98 
  122.719,1010.27 122.715,1011.55 122.712,1012.82 122.71,1014.1 122.709,1015.37 122.709,1016.64 122.71,1017.9 122.712,1019.17 122.714,1020.43 122.718,1021.68 
  122.723,1022.94 122.728,1024.19 122.735,1025.44 122.742,1026.68 122.75,1027.93 122.76,1029.17 122.77,1030.4 122.781,1031.64 122.793,1032.87 122.806,1034.1 
  122.82,1035.32 122.835,1036.55 122.85,1037.77 122.867,1038.99 122.885,1040.2 122.903,1041.41 122.922,1042.62 122.943,1043.83 122.964,1045.03 122.986,1046.24 
  123.009,1047.43 123.033,1048.63 123.058,1049.82 123.083,1051.01 123.11,1052.2 123.138,1053.39 123.166,1054.57 123.195,1055.75 123.225,1056.92 123.256,1058.1 
  123.288,1059.27 123.321,1060.44 123.355,1061.6 123.39,1062.77 123.425,1063.93 123.462,1065.09 123.499,1066.24 123.537,1067.39 123.576,1068.54 123.616,1069.69 
  123.657,1070.83 123.699,1071.98 123.741,1073.12 123.785,1074.25 123.829,1075.39 123.874,1076.52 123.92,1077.65 123.967,1078.77 124.015,1079.9 124.064,1081.02 
  124.113,1082.14 124.163,1083.25 124.215,1084.36 124.267,1085.47 124.32,1086.58 124.374,1087.69 124.429,1088.79 124.484,1089.89 124.541,1090.99 124.598,1092.08 
  124.656,1093.18 124.715,1094.26 124.775,1095.35 124.836,1096.44 124.898,1097.52 124.96,1098.6 125.024,1099.68 125.088,1100.75 125.153,1101.82 125.219,1102.89 
  125.286,1103.96 125.353,1105.02 125.422,1106.09 125.491,1107.15 125.562,1108.2 125.633,1109.26 125.705,1110.31 125.777,1111.36 125.851,1112.41 125.926,1113.45 
  126.001,1114.49 126.077,1115.53 126.154,1116.57 126.232,1117.6 126.311,1118.64 126.391,1119.67 126.471,1120.69 126.553,1121.72 126.635,1122.74 126.718,1123.76 
  126.802,1124.78 126.887,1125.79 126.972,1126.81 127.059,1127.82 127.146,1128.82 127.234,1129.83 127.323,1130.83 127.413,1131.83 127.504,1132.83 127.596,1133.83 
  127.688,1134.82 127.782,1135.81 127.876,1136.8 127.971,1137.79 128.067,1138.77 128.163,1139.75 128.261,1140.73 128.36,1141.71 128.459,1142.69 128.559,1143.66 
  128.66,1144.63 128.762,1145.6 128.865,1146.56 128.968,1147.52 129.073,1148.49 129.178,1149.44 129.284,1150.4 129.391,1151.35 129.499,1152.31 129.608,1153.25 
  129.718,1154.2 129.828,1155.15 129.94,1156.09 130.052,1157.03 130.165,1157.97 130.279,1158.9 130.394,1159.84 130.509,1160.77 130.626,1161.69 130.743,1162.62 
  130.861,1163.55 130.981,1164.47 131.101,1165.39 131.222,1166.31 131.343,1167.22 131.466,1168.13 131.589,1169.04 131.714,1169.95 131.839,1170.86 131.965,1171.76 
  132.092,1172.67 132.22,1173.57 132.349,1174.46 132.478,1175.36 132.609,1176.25 132.74,1177.14 132.872,1178.03 133.005,1178.92 133.14,1179.8 133.274,1180.69 
  133.41,1181.57 133.547,1182.44 133.684,1183.32 133.823,1184.19 133.962,1185.07 134.102,1185.93 134.243,1186.8 134.385,1187.67 134.528,1188.53 134.672,1189.39 
  134.817,1190.25 134.962,1191.11 135.109,1191.96 135.256,1192.81 135.404,1193.66 135.553,1194.51 135.703,1195.36 135.854,1196.2 136.006,1197.05 136.159,1197.89 
  136.313,1198.72 136.467,1199.56 136.623,1200.39 136.779,1201.23 136.936,1202.06 137.094,1202.88 137.254,1203.71 137.414,1204.53 137.575,1205.35 137.736,1206.17 
  137.899,1206.99 138.063,1207.81 138.227,1208.62 138.393,1209.43 138.559,1210.24 138.727,1211.05 138.895,1211.85 139.064,1212.66 139.235,1213.46 139.406,1214.26 
  139.578,1215.05 139.751,1215.85 139.924,1216.64 140.099,1217.43 140.275,1218.22 140.452,1219.01 140.629,1219.8 140.808,1220.58 140.988,1221.36 141.168,1222.14 
  141.35,1222.92 141.532,1223.69 141.715,1224.47 141.9,1225.24 142.085,1226.01 142.271,1226.78 142.458,1227.54 142.646,1228.31 142.835,1229.07 143.025,1229.83 
  143.216,1230.59 143.408,1231.34 143.601,1232.1 143.795,1232.85 143.99,1233.6 144.186,1234.35 144.383,1235.1 144.581,1235.84 144.78,1236.59 144.979,1237.33 
  145.18,1238.07 145.382,1238.8 145.585,1239.54 145.789,1240.27 145.993,1241.01 146.199,1241.74 146.406,1242.46 146.613,1243.19 146.822,1243.92 147.032,1244.64 
  147.243,1245.36 147.454,1246.08 147.667,1246.8 147.881,1247.51 148.096,1248.23 148.312,1248.94 148.528,1249.65 148.746,1250.36 148.965,1251.06 149.185,1251.77 
  149.406,1252.47 149.628,1253.17 149.851,1253.87 150.075,1254.57 150.3,1255.26 150.526,1255.96 150.753,1256.65 150.981,1257.34 151.21,1258.03 151.441,1258.71 
  151.672,1259.4 151.904,1260.08 152.138,1260.76 152.372,1261.44 152.608,1262.12 152.844,1262.8 153.082,1263.47 153.321,1264.15 153.56,1264.82 153.801,1265.49 
  154.043,1266.15 154.286,1266.82 154.53,1267.48 154.775,1268.15 155.022,1268.81 155.269,1269.47 155.517,1270.12 155.767,1270.78 156.018,1271.43 156.269,1272.09 
  156.522,1272.74 156.776,1273.39 157.031,1274.03 157.287,1274.68 157.545,1275.32 157.803,1275.96 158.062,1276.61 158.323,1277.24 158.585,1277.88 158.848,1278.52 
  159.111,1279.15 159.377,1279.78 159.643,1280.41 159.91,1281.04 160.179,1281.67 160.448,1282.3 160.719,1282.92 160.991,1283.54 161.264,1284.16 161.538,1284.78 
  161.814,1285.4 162.09,1286.02 162.368,1286.63 162.647,1287.24 162.927,1287.85 163.208,1288.46 163.491,1289.07 163.774,1289.68 164.059,1290.28 164.345,1290.89 
  164.632,1291.49 164.921,1292.09 165.21,1292.69 165.501,1293.28 165.793,1293.88 166.086,1294.47 166.38,1295.07 166.676,1295.66 166.972,1296.24 167.27,1296.83 
  167.57,1297.42 167.87,1298 168.172,1298.59 168.474,1299.17 168.779,1299.75 169.084,1300.33 169.39,1300.9 169.698,1301.48 170.007,1302.05 170.318,1302.62 
  170.629,1303.19 170.942,1303.76 171.256,1304.33 171.571,1304.9 171.888,1305.46 172.206,1306.02 172.525,1306.59 172.845,1307.15 173.167,1307.7 173.49,1308.26 
  173.814,1308.82 174.14,1309.37 174.467,1309.92 174.795,1310.47 175.124,1311.02 175.455,1311.57 175.787,1312.12 176.12,1312.66 176.455,1313.21 176.791,1313.75 
  177.129,1314.29 177.467,1314.83 177.807,1315.37 178.149,1315.91 178.491,1316.44 178.835,1316.97 179.181,1317.51 179.527,1318.04 179.875,1318.57 180.225,1319.09 
  180.576,1319.62 180.928,1320.15 181.281,1320.67 181.636,1321.19 181.992,1321.71 182.35,1322.23 182.709,1322.75 183.07,1323.27 183.431,1323.78 183.795,1324.3 
  184.159,1324.81 184.525,1325.32 184.893,1325.83 185.261,1326.34 185.632,1326.84 186.003,1327.35 186.377,1327.85 186.751,1328.36 187.127,1328.86 187.505,1329.36 
  187.883,1329.86 188.264,1330.35 188.645,1330.85 189.029,1331.34 189.413,1331.84 189.799,1332.33 190.187,1332.82 190.576,1333.31 190.967,1333.79 191.359,1334.28 
  191.752,1334.77 192.147,1335.25 192.544,1335.73 192.942,1336.21 193.341,1336.69 193.742,1337.17 194.145,1337.65 194.549,1338.12 194.955,1338.6 195.362,1339.07 
  195.77,1339.54 196.181,1340.01 196.592,1340.48 197.006,1340.95 197.42,1341.42 197.837,1341.88 198.255,1342.35 198.674,1342.81 199.095,1343.27 199.518,1343.73 
  199.942,1344.19 200.368,1344.65 200.795,1345.1 201.224,1345.56 201.655,1346.01 202.087,1346.46 202.521,1346.91 202.956,1347.36 203.393,1347.81 203.832,1348.26 
  204.272,1348.7 204.714,1349.15 205.157,1349.59 205.603,1350.03 206.049,1350.48 206.498,1350.91 206.948,1351.35 207.4,1351.79 207.853,1352.23 208.308,1352.66 
  208.765,1353.09 209.224,1353.53 209.684,1353.96 210.146,1354.39 210.609,1354.82 211.074,1355.24 211.541,1355.67 212.01,1356.09 212.48,1356.52 212.952,1356.94 
  213.426,1357.36 213.902,1357.78 214.379,1358.2 214.858,1358.62 215.339,1359.03 215.822,1359.45 216.306,1359.86 216.792,1360.27 217.28,1360.69 217.77,1361.1 
  218.261,1361.51 218.754,1361.91 219.249,1362.32 219.746,1362.73 220.245,1363.13 220.745,1363.53 221.247,1363.94 221.752,1364.34 222.257,1364.74 222.765,1365.13 
  223.275,1365.53 223.786,1365.93 224.299,1366.32 224.815,1366.72 225.332,1367.11 225.85,1367.5 226.371,1367.89 226.894,1368.28 227.418,1368.67 227.945,1369.05 
  228.473,1369.44 229.003,1369.82 229.535,1370.21 230.069,1370.59 230.605,1370.97 231.143,1371.35 231.683,1371.73 232.225,1372.11 232.768,1372.48 233.314,1372.86 
  233.862,1373.23 234.411,1373.61 234.963,1373.98 235.516,1374.35 236.072,1374.72 236.629,1375.09 237.189,1375.46 237.75,1375.82 238.314,1376.19 238.879,1376.55 
  239.447,1376.92 240.016,1377.28 240.588,1377.64 241.161,1378 241.737,1378.36 242.315,1378.72 242.895,1379.07 243.476,1379.43 244.06,1379.78 244.646,1380.14 
  245.234,1380.49 245.825,1380.84 246.417,1381.19 247.011,1381.54 247.608,1381.89 248.206,1382.23 248.807,1382.58 249.41,1382.92 250.015,1383.27 250.622,1383.61 
  251.231,1383.95 251.843,1384.29 252.457,1384.63 253.072,1384.97 253.69,1385.3 254.31,1385.64 254.933,1385.98 255.557,1386.31 256.184,1386.64 256.813,1386.97 
  257.444,1387.31 258.078,1387.64 258.713,1387.96 259.351,1388.29 259.991,1388.62 260.634,1388.94 261.279,1389.27 261.925,1389.59 262.575,1389.91 263.226,1390.24 
  263.88,1390.56 264.536,1390.88 265.194,1391.19 265.855,1391.51 266.518,1391.83 267.184,1392.14 267.851,1392.46 268.521,1392.77 269.194,1393.08 269.869,1393.39 
  270.546,1393.7 271.225,1394.01 271.907,1394.32 272.591,1394.63 273.278,1394.93 273.967,1395.24 274.659,1395.54 275.352,1395.85 276.049,1396.15 276.748,1396.45 
  277.449,1396.75 278.152,1397.05 278.858,1397.35 279.567,1397.64 280.278,1397.94 280.992,1398.23 281.708,1398.53 282.426,1398.82 283.147,1399.11 283.871,1399.4 
  284.597,1399.69 285.325,1399.98 286.056,1400.27 286.79,1400.56 287.526,1400.85 288.265,1401.13 289.007,1401.41 289.75,1401.7 290.497,1401.98 291.246,1402.26 
  291.998,1402.54 292.752,1402.82 293.509,1403.1 294.269,1403.38 295.031,1403.65 295.796,1403.93 296.563,1404.2 297.333,1404.48 298.106,1404.75 298.882,1405.02 
  299.66,1405.29 300.441,1405.56 301.224,1405.83 302.01,1406.1 302.799,1406.36 303.591,1406.63 304.386,1406.9 305.183,1407.16 305.983,1407.42 306.786,1407.68 
  307.591,1407.95 308.399,1408.21 309.21,1408.47 310.024,1408.72 310.841,1408.98 311.661,1409.24 312.483,1409.49 313.308,1409.75 314.136,1410 314.967,1410.25 
  315.801,1410.51 316.637,1410.76 317.477,1411.01 318.319,1411.25 319.164,1411.5 320.012,1411.75 320.863,1412 321.717,1412.24 322.574,1412.49 323.434,1412.73 
  324.297,1412.97 325.163,1413.21 326.031,1413.45 326.903,1413.69 327.778,1413.93 328.656,1414.17 329.536,1414.41 330.42,1414.64 331.307,1414.88 332.197,1415.11 
  333.089,1415.34 333.985,1415.58 334.884,1415.81 335.786,1416.04 336.691,1416.27 337.6,1416.5 338.511,1416.73 339.425,1416.95 340.343,1417.18 341.264,1417.4 
  342.187,1417.63 343.114,1417.85 344.044,1418.07 344.978,1418.29 345.914,1418.51 346.854,1418.73 347.797,1418.95 348.743,1419.17 349.692,1419.39 350.645,1419.6 
  
  "/>
<path clip-path="url(#clip870)" d="
M1890.95 216.178 L2278.07 216.178 L2278.07 95.2176 L1890.95 95.2176  Z
  " fill="#ffffff" fill-rule="evenodd" fill-opacity="1"/>
<polyline clip-path="url(#clip870)" style="stroke:#000000; stroke-width:4; stroke-opacity:1; fill:none" points="
  1890.95,216.178 2278.07,216.178 2278.07,95.2176 1890.95,95.2176 1890.95,216.178 
  "/>
<polyline clip-path="url(#clip870)" style="stroke:#009af9; stroke-width:4; stroke-opacity:1; fill:none" points="
  1915.84,155.698 2065.21,155.698 
  "/>
<path clip-path="url(#clip870)" d="M 0 0 M2100.73 137.006 Q2097.63 142.33 2096.13 147.538 Q2094.62 152.746 2094.62 158.093 Q2094.62 163.441 2096.13 168.695 Q2097.66 173.927 2100.73 179.228 L2097.03 179.228 Q2093.56 173.788 2091.82 168.533 Q2090.11 163.279 2090.11 158.093 Q2090.11 152.931 2091.82 147.7 Q2093.53 142.468 2097.03 137.006 L2100.73 137.006 Z" fill="#000000" fill-rule="evenodd" fill-opacity="1" /><path clip-path="url(#clip870)" d="M 0 0 M2104.76 162.746 L2104.76 147.052 L2109.02 147.052 L2109.02 162.584 Q2109.02 166.265 2110.46 168.116 Q2111.89 169.945 2114.76 169.945 Q2118.21 169.945 2120.2 167.746 Q2122.22 165.547 2122.22 161.751 L2122.22 147.052 L2126.47 147.052 L2126.47 172.978 L2122.22 172.978 L2122.22 168.996 Q2120.66 171.357 2118.6 172.515 Q2116.57 173.649 2113.86 173.649 Q2109.39 173.649 2107.08 170.871 Q2104.76 168.093 2104.76 162.746 M2115.48 146.427 L2115.48 146.427 Z" fill="#000000" fill-rule="evenodd" fill-opacity="1" /><path clip-path="url(#clip870)" d="M 0 0 M2132.35 169.042 L2139.99 169.042 L2139.99 142.677 L2131.68 144.343 L2131.68 140.084 L2139.95 138.418 L2144.62 138.418 L2144.62 169.042 L2152.26 169.042 L2152.26 172.978 L2132.35 172.978 L2132.35 169.042 Z" fill="#000000" fill-rule="evenodd" fill-opacity="1" /><path clip-path="url(#clip870)" d="M 0 0 M2157.82 167.098 L2162.7 167.098 L2162.7 171.079 L2158.9 178.487 L2155.92 178.487 L2157.82 171.079 L2157.82 167.098 Z" fill="#000000" fill-rule="evenodd" fill-opacity="1" /><path clip-path="url(#clip870)" d="M 0 0 M2166.73 162.746 L2166.73 147.052 L2170.99 147.052 L2170.99 162.584 Q2170.99 166.265 2172.42 168.116 Q2173.86 169.945 2176.73 169.945 Q2180.18 169.945 2182.17 167.746 Q2184.18 165.547 2184.18 161.751 L2184.18 147.052 L2188.44 147.052 L2188.44 172.978 L2184.18 172.978 L2184.18 168.996 Q2182.63 171.357 2180.57 172.515 Q2178.53 173.649 2175.83 173.649 Q2171.36 173.649 2169.04 170.871 Q2166.73 168.093 2166.73 162.746 M2177.45 146.427 L2177.45 146.427 Z" fill="#000000" fill-rule="evenodd" fill-opacity="1" /><path clip-path="url(#clip870)" d="M 0 0 M2197.54 169.042 L2213.86 169.042 L2213.86 172.978 L2191.91 172.978 L2191.91 169.042 Q2194.58 166.288 2199.16 161.658 Q2203.77 157.005 2204.95 155.663 Q2207.19 153.14 2208.07 151.404 Q2208.97 149.644 2208.97 147.955 Q2208.97 145.2 2207.03 143.464 Q2205.11 141.728 2202.01 141.728 Q2199.81 141.728 2197.35 142.492 Q2194.92 143.255 2192.15 144.806 L2192.15 140.084 Q2194.97 138.95 2197.42 138.371 Q2199.88 137.793 2201.91 137.793 Q2207.28 137.793 2210.48 140.478 Q2213.67 143.163 2213.67 147.654 Q2213.67 149.783 2212.86 151.705 Q2212.08 153.603 2209.97 156.195 Q2209.39 156.867 2206.29 160.084 Q2203.19 163.279 2197.54 169.042 Z" fill="#000000" fill-rule="evenodd" fill-opacity="1" /><path clip-path="url(#clip870)" d="M 0 0 M2217.65 137.006 L2221.36 137.006 Q2224.83 142.468 2226.54 147.7 Q2228.28 152.931 2228.28 158.093 Q2228.28 163.279 2226.54 168.533 Q2224.83 173.788 2221.36 179.228 L2217.65 179.228 Q2220.73 173.927 2222.24 168.695 Q2223.77 163.441 2223.77 158.093 Q2223.77 152.746 2222.24 147.538 Q2220.73 142.33 2217.65 137.006 Z" fill="#000000" fill-rule="evenodd" fill-opacity="1" /></svg>
