<?xml version="1.0" encoding="utf-8"?>
<svg xmlns="http://www.w3.org/2000/svg" xmlns:xlink="http://www.w3.org/1999/xlink" width="600" height="400" viewBox="0 0 2400 1600">
<defs>
  <clipPath id="clip100">
    <rect x="0" y="0" width="2400" height="1600"/>
  </clipPath>
</defs>
<path clip-path="url(#clip100)" d="
M0 1600 L2400 1600 L2400 0 L0 0  Z
  " fill="#ffffff" fill-rule="evenodd" fill-opacity="1"/>
<defs>
  <clipPath id="clip101">
    <rect x="480" y="0" width="1681" height="1600"/>
  </clipPath>
</defs>
<path clip-path="url(#clip100)" d="
M126.969 1486.45 L2352.76 1486.45 L2352.76 47.2441 L126.969 47.2441  Z
  " fill="#ffffff" fill-rule="evenodd" fill-opacity="1"/>
<defs>
  <clipPath id="clip102">
    <rect x="126" y="47" width="2227" height="1440"/>
  </clipPath>
</defs>
<polyline clip-path="url(#clip102)" style="stroke:#000000; stroke-width:2; stroke-opacity:0.1; fill:none" points="
  469.936,1486.45 469.936,47.2441 
  "/>
<polyline clip-path="url(#clip102)" style="stroke:#000000; stroke-width:2; stroke-opacity:0.1; fill:none" points="
  819.902,1486.45 819.902,47.2441 
  "/>
<polyline clip-path="url(#clip102)" style="stroke:#000000; stroke-width:2; stroke-opacity:0.1; fill:none" points="
  1169.87,1486.45 1169.87,47.2441 
  "/>
<polyline clip-path="url(#clip102)" style="stroke:#000000; stroke-width:2; stroke-opacity:0.1; fill:none" points="
  1519.84,1486.45 1519.84,47.2441 
  "/>
<polyline clip-path="url(#clip102)" style="stroke:#000000; stroke-width:2; stroke-opacity:0.1; fill:none" points="
  1869.8,1486.45 1869.8,47.2441 
  "/>
<polyline clip-path="url(#clip102)" style="stroke:#000000; stroke-width:2; stroke-opacity:0.1; fill:none" points="
  2219.77,1486.45 2219.77,47.2441 
  "/>
<polyline clip-path="url(#clip102)" style="stroke:#000000; stroke-width:2; stroke-opacity:0.1; fill:none" points="
  126.969,1309.08 2352.76,1309.08 
  "/>
<polyline clip-path="url(#clip102)" style="stroke:#000000; stroke-width:2; stroke-opacity:0.1; fill:none" points="
  126.969,1001.07 2352.76,1001.07 
  "/>
<polyline clip-path="url(#clip102)" style="stroke:#000000; stroke-width:2; stroke-opacity:0.1; fill:none" points="
  126.969,693.062 2352.76,693.062 
  "/>
<polyline clip-path="url(#clip102)" style="stroke:#000000; stroke-width:2; stroke-opacity:0.1; fill:none" points="
  126.969,385.055 2352.76,385.055 
  "/>
<polyline clip-path="url(#clip102)" style="stroke:#000000; stroke-width:2; stroke-opacity:0.1; fill:none" points="
  126.969,77.0486 2352.76,77.0486 
  "/>
<polyline clip-path="url(#clip100)" style="stroke:#000000; stroke-width:4; stroke-opacity:1; fill:none" points="
  126.969,1486.45 2352.76,1486.45 
  "/>
<polyline clip-path="url(#clip100)" style="stroke:#000000; stroke-width:4; stroke-opacity:1; fill:none" points="
  126.969,1486.45 126.969,47.2441 
  "/>
<polyline clip-path="url(#clip100)" style="stroke:#000000; stroke-width:4; stroke-opacity:1; fill:none" points="
  469.936,1486.45 469.936,1469.18 
  "/>
<polyline clip-path="url(#clip100)" style="stroke:#000000; stroke-width:4; stroke-opacity:1; fill:none" points="
  819.902,1486.45 819.902,1469.18 
  "/>
<polyline clip-path="url(#clip100)" style="stroke:#000000; stroke-width:4; stroke-opacity:1; fill:none" points="
  1169.87,1486.45 1169.87,1469.18 
  "/>
<polyline clip-path="url(#clip100)" style="stroke:#000000; stroke-width:4; stroke-opacity:1; fill:none" points="
  1519.84,1486.45 1519.84,1469.18 
  "/>
<polyline clip-path="url(#clip100)" style="stroke:#000000; stroke-width:4; stroke-opacity:1; fill:none" points="
  1869.8,1486.45 1869.8,1469.18 
  "/>
<polyline clip-path="url(#clip100)" style="stroke:#000000; stroke-width:4; stroke-opacity:1; fill:none" points="
  2219.77,1486.45 2219.77,1469.18 
  "/>
<polyline clip-path="url(#clip100)" style="stroke:#000000; stroke-width:4; stroke-opacity:1; fill:none" points="
  126.969,1309.08 153.678,1309.08 
  "/>
<polyline clip-path="url(#clip100)" style="stroke:#000000; stroke-width:4; stroke-opacity:1; fill:none" points="
  126.969,1001.07 153.678,1001.07 
  "/>
<polyline clip-path="url(#clip100)" style="stroke:#000000; stroke-width:4; stroke-opacity:1; fill:none" points="
  126.969,693.062 153.678,693.062 
  "/>
<polyline clip-path="url(#clip100)" style="stroke:#000000; stroke-width:4; stroke-opacity:1; fill:none" points="
  126.969,385.055 153.678,385.055 
  "/>
<polyline clip-path="url(#clip100)" style="stroke:#000000; stroke-width:4; stroke-opacity:1; fill:none" points="
  126.969,77.0486 153.678,77.0486 
  "/>
<path clip-path="url(#clip100)" d="M 0 0 M460.214 1505.36 L478.57 1505.36 L478.57 1509.3 L464.496 1509.3 L464.496 1517.77 Q465.515 1517.42 466.533 1517.26 Q467.552 1517.07 468.57 1517.07 Q474.357 1517.07 477.737 1520.24 Q481.116 1523.42 481.116 1528.83 Q481.116 1534.41 477.644 1537.51 Q474.172 1540.59 467.853 1540.59 Q465.677 1540.59 463.408 1540.22 Q461.163 1539.85 458.755 1539.11 L458.755 1534.41 Q460.839 1535.54 463.061 1536.1 Q465.283 1536.66 467.76 1536.66 Q471.765 1536.66 474.103 1534.55 Q476.441 1532.44 476.441 1528.83 Q476.441 1525.22 474.103 1523.11 Q471.765 1521.01 467.76 1521.01 Q465.885 1521.01 464.01 1521.42 Q462.158 1521.84 460.214 1522.72 L460.214 1505.36 Z" fill="#000000" fill-rule="evenodd" fill-opacity="1" /><path clip-path="url(#clip100)" d="M 0 0 M796.778 1535.98 L804.416 1535.98 L804.416 1509.62 L796.106 1511.29 L796.106 1507.03 L804.37 1505.36 L809.046 1505.36 L809.046 1535.98 L816.685 1535.98 L816.685 1539.92 L796.778 1539.92 L796.778 1535.98 Z" fill="#000000" fill-rule="evenodd" fill-opacity="1" /><path clip-path="url(#clip100)" d="M 0 0 M831.754 1508.44 Q828.143 1508.44 826.314 1512 Q824.509 1515.55 824.509 1522.67 Q824.509 1529.78 826.314 1533.35 Q828.143 1536.89 831.754 1536.89 Q835.389 1536.89 837.194 1533.35 Q839.023 1529.78 839.023 1522.67 Q839.023 1515.55 837.194 1512 Q835.389 1508.44 831.754 1508.44 M831.754 1504.73 Q837.564 1504.73 840.62 1509.34 Q843.699 1513.92 843.699 1522.67 Q843.699 1531.4 840.62 1536.01 Q837.564 1540.59 831.754 1540.59 Q825.944 1540.59 822.865 1536.01 Q819.81 1531.4 819.81 1522.67 Q819.81 1513.92 822.865 1509.34 Q825.944 1504.73 831.754 1504.73 Z" fill="#000000" fill-rule="evenodd" fill-opacity="1" /><path clip-path="url(#clip100)" d="M 0 0 M1147.24 1535.98 L1154.88 1535.98 L1154.88 1509.62 L1146.57 1511.29 L1146.57 1507.03 L1154.83 1505.36 L1159.51 1505.36 L1159.51 1535.98 L1167.15 1535.98 L1167.15 1539.92 L1147.24 1539.92 L1147.24 1535.98 Z" fill="#000000" fill-rule="evenodd" fill-opacity="1" /><path clip-path="url(#clip100)" d="M 0 0 M1172.26 1505.36 L1190.62 1505.36 L1190.62 1509.3 L1176.55 1509.3 L1176.55 1517.77 Q1177.57 1517.42 1178.58 1517.26 Q1179.6 1517.07 1180.62 1517.07 Q1186.41 1517.07 1189.79 1520.24 Q1193.17 1523.42 1193.17 1528.83 Q1193.17 1534.41 1189.7 1537.51 Q1186.22 1540.59 1179.9 1540.59 Q1177.73 1540.59 1175.46 1540.22 Q1173.21 1539.85 1170.81 1539.11 L1170.81 1534.41 Q1172.89 1535.54 1175.11 1536.1 Q1177.33 1536.66 1179.81 1536.66 Q1183.82 1536.66 1186.15 1534.55 Q1188.49 1532.44 1188.49 1528.83 Q1188.49 1525.22 1186.15 1523.11 Q1183.82 1521.01 1179.81 1521.01 Q1177.94 1521.01 1176.06 1521.42 Q1174.21 1521.84 1172.26 1522.72 L1172.26 1505.36 Z" fill="#000000" fill-rule="evenodd" fill-opacity="1" /><path clip-path="url(#clip100)" d="M 0 0 M1500.98 1535.98 L1517.3 1535.98 L1517.3 1539.92 L1495.36 1539.92 L1495.36 1535.98 Q1498.02 1533.23 1502.6 1528.6 Q1507.21 1523.95 1508.39 1522.61 Q1510.63 1520.08 1511.51 1518.35 Q1512.42 1516.59 1512.42 1514.9 Q1512.42 1512.14 1510.47 1510.41 Q1508.55 1508.67 1505.45 1508.67 Q1503.25 1508.67 1500.8 1509.43 Q1498.37 1510.2 1495.59 1511.75 L1495.59 1507.03 Q1498.41 1505.89 1500.87 1505.31 Q1503.32 1504.73 1505.36 1504.73 Q1510.73 1504.73 1513.92 1507.42 Q1517.12 1510.11 1517.12 1514.6 Q1517.12 1516.73 1516.31 1518.65 Q1515.52 1520.54 1513.41 1523.14 Q1512.83 1523.81 1509.73 1527.03 Q1506.63 1530.22 1500.98 1535.98 Z" fill="#000000" fill-rule="evenodd" fill-opacity="1" /><path clip-path="url(#clip100)" d="M 0 0 M1532.37 1508.44 Q1528.76 1508.44 1526.93 1512 Q1525.12 1515.55 1525.12 1522.67 Q1525.12 1529.78 1526.93 1533.35 Q1528.76 1536.89 1532.37 1536.89 Q1536 1536.89 1537.81 1533.35 Q1539.64 1529.78 1539.64 1522.67 Q1539.64 1515.55 1537.81 1512 Q1536 1508.44 1532.37 1508.44 M1532.37 1504.73 Q1538.18 1504.73 1541.24 1509.34 Q1544.31 1513.92 1544.31 1522.67 Q1544.31 1531.4 1541.24 1536.01 Q1538.18 1540.59 1532.37 1540.59 Q1526.56 1540.59 1523.48 1536.01 Q1520.43 1531.4 1520.43 1522.67 Q1520.43 1513.92 1523.48 1509.34 Q1526.56 1504.73 1532.37 1504.73 Z" fill="#000000" fill-rule="evenodd" fill-opacity="1" /><path clip-path="url(#clip100)" d="M 0 0 M1851.45 1535.98 L1867.77 1535.98 L1867.77 1539.92 L1845.82 1539.92 L1845.82 1535.98 Q1848.48 1533.23 1853.07 1528.6 Q1857.67 1523.95 1858.85 1522.61 Q1861.1 1520.08 1861.98 1518.35 Q1862.88 1516.59 1862.88 1514.9 Q1862.88 1512.14 1860.94 1510.41 Q1859.02 1508.67 1855.91 1508.67 Q1853.71 1508.67 1851.26 1509.43 Q1848.83 1510.2 1846.05 1511.75 L1846.05 1507.03 Q1848.88 1505.89 1851.33 1505.31 Q1853.78 1504.73 1855.82 1504.73 Q1861.19 1504.73 1864.39 1507.42 Q1867.58 1510.11 1867.58 1514.6 Q1867.58 1516.73 1866.77 1518.65 Q1865.98 1520.54 1863.88 1523.14 Q1863.3 1523.81 1860.2 1527.03 Q1857.09 1530.22 1851.45 1535.98 Z" fill="#000000" fill-rule="evenodd" fill-opacity="1" /><path clip-path="url(#clip100)" d="M 0 0 M1872.88 1505.36 L1891.24 1505.36 L1891.24 1509.3 L1877.16 1509.3 L1877.16 1517.77 Q1878.18 1517.42 1879.2 1517.26 Q1880.22 1517.07 1881.24 1517.07 Q1887.02 1517.07 1890.4 1520.24 Q1893.78 1523.42 1893.78 1528.83 Q1893.78 1534.41 1890.31 1537.51 Q1886.84 1540.59 1880.52 1540.59 Q1878.34 1540.59 1876.08 1540.22 Q1873.83 1539.85 1871.42 1539.11 L1871.42 1534.41 Q1873.51 1535.54 1875.73 1536.1 Q1877.95 1536.66 1880.43 1536.66 Q1884.43 1536.66 1886.77 1534.55 Q1889.11 1532.44 1889.11 1528.83 Q1889.11 1525.22 1886.77 1523.11 Q1884.43 1521.01 1880.43 1521.01 Q1878.55 1521.01 1876.68 1521.42 Q1874.83 1521.84 1872.88 1522.72 L1872.88 1505.36 Z" fill="#000000" fill-rule="evenodd" fill-opacity="1" /><path clip-path="url(#clip100)" d="M 0 0 M2210.51 1521.29 Q2213.87 1522 2215.74 1524.27 Q2217.64 1526.54 2217.64 1529.87 Q2217.64 1534.99 2214.12 1537.79 Q2210.6 1540.59 2204.12 1540.59 Q2201.94 1540.59 2199.63 1540.15 Q2197.34 1539.73 2194.88 1538.88 L2194.88 1534.36 Q2196.83 1535.5 2199.14 1536.08 Q2201.46 1536.66 2203.98 1536.66 Q2208.38 1536.66 2210.67 1534.92 Q2212.99 1533.18 2212.99 1529.87 Q2212.99 1526.82 2210.83 1525.11 Q2208.7 1523.37 2204.88 1523.37 L2200.86 1523.37 L2200.86 1519.53 L2205.07 1519.53 Q2208.52 1519.53 2210.35 1518.16 Q2212.18 1516.77 2212.18 1514.18 Q2212.18 1511.52 2210.28 1510.11 Q2208.4 1508.67 2204.88 1508.67 Q2202.96 1508.67 2200.76 1509.09 Q2198.57 1509.5 2195.93 1510.38 L2195.93 1506.22 Q2198.59 1505.48 2200.9 1505.11 Q2203.24 1504.73 2205.3 1504.73 Q2210.63 1504.73 2213.73 1507.17 Q2216.83 1509.57 2216.83 1513.69 Q2216.83 1516.56 2215.19 1518.55 Q2213.54 1520.52 2210.51 1521.29 Z" fill="#000000" fill-rule="evenodd" fill-opacity="1" /><path clip-path="url(#clip100)" d="M 0 0 M2232.71 1508.44 Q2229.1 1508.44 2227.27 1512 Q2225.46 1515.55 2225.46 1522.67 Q2225.46 1529.78 2227.27 1533.35 Q2229.1 1536.89 2232.71 1536.89 Q2236.34 1536.89 2238.15 1533.35 Q2239.98 1529.78 2239.98 1522.67 Q2239.98 1515.55 2238.15 1512 Q2236.34 1508.44 2232.71 1508.44 M2232.71 1504.73 Q2238.52 1504.73 2241.57 1509.34 Q2244.65 1513.92 2244.65 1522.67 Q2244.65 1531.4 2241.57 1536.01 Q2238.52 1540.59 2232.71 1540.59 Q2226.9 1540.59 2223.82 1536.01 Q2220.76 1531.4 2220.76 1522.67 Q2220.76 1513.92 2223.82 1509.34 Q2226.9 1504.73 2232.71 1504.73 Z" fill="#000000" fill-rule="evenodd" fill-opacity="1" /><path clip-path="url(#clip100)" d="M 0 0 M63.3162 1311.47 L75.793 1311.47 L75.793 1315.27 L63.3162 1315.27 L63.3162 1311.47 Z" fill="#000000" fill-rule="evenodd" fill-opacity="1" /><path clip-path="url(#clip100)" d="M 0 0 M91.441 1307.21 Q88.2929 1307.21 86.4411 1309.36 Q84.6124 1311.52 84.6124 1315.27 Q84.6124 1318.99 86.4411 1321.17 Q88.2929 1323.32 91.441 1323.32 Q94.5892 1323.32 96.4179 1321.17 Q98.2697 1318.99 98.2697 1315.27 Q98.2697 1311.52 96.4179 1309.36 Q94.5892 1307.21 91.441 1307.21 M100.723 1292.56 L100.723 1296.82 Q98.9642 1295.99 97.1586 1295.55 Q95.3762 1295.11 93.617 1295.11 Q88.9874 1295.11 86.5337 1298.23 Q84.1031 1301.36 83.7559 1307.68 Q85.1216 1305.66 87.1818 1304.6 Q89.242 1303.51 91.7188 1303.51 Q96.9271 1303.51 99.9364 1306.68 Q102.969 1309.83 102.969 1315.27 Q102.969 1320.59 99.8206 1323.81 Q96.6725 1327.03 91.441 1327.03 Q85.4457 1327.03 82.2744 1322.44 Q79.1032 1317.84 79.1032 1309.11 Q79.1032 1300.92 82.992 1296.05 Q86.8809 1291.17 93.4318 1291.17 Q95.191 1291.17 96.9734 1291.52 Q98.779 1291.87 100.723 1292.56 Z" fill="#000000" fill-rule="evenodd" fill-opacity="1" /><path clip-path="url(#clip100)" d="M 0 0 M62.9921 1003.46 L75.4689 1003.46 L75.4689 1007.26 L62.9921 1007.26 L62.9921 1003.46 Z" fill="#000000" fill-rule="evenodd" fill-opacity="1" /><path clip-path="url(#clip100)" d="M 0 0 M93.3855 987.863 L81.58 1006.31 L93.3855 1006.31 L93.3855 987.863 M92.1586 983.789 L98.0382 983.789 L98.0382 1006.31 L102.969 1006.31 L102.969 1010.2 L98.0382 1010.2 L98.0382 1018.35 L93.3855 1018.35 L93.3855 1010.2 L77.7837 1010.2 L77.7837 1005.69 L92.1586 983.789 Z" fill="#000000" fill-rule="evenodd" fill-opacity="1" /><path clip-path="url(#clip100)" d="M 0 0 M65.0754 695.458 L77.5522 695.458 L77.5522 699.254 L65.0754 699.254 L65.0754 695.458 Z" fill="#000000" fill-rule="evenodd" fill-opacity="1" /><path clip-path="url(#clip100)" d="M 0 0 M86.6494 706.407 L102.969 706.407 L102.969 710.342 L81.0244 710.342 L81.0244 706.407 Q83.6865 703.652 88.2698 699.023 Q92.8762 694.37 94.0568 693.027 Q96.3021 690.504 97.1818 688.768 Q98.0845 687.009 98.0845 685.319 Q98.0845 682.564 96.1401 680.828 Q94.2188 679.092 91.117 679.092 Q88.9179 679.092 86.4642 679.856 Q84.0337 680.62 81.2559 682.171 L81.2559 677.449 Q84.08 676.315 86.5337 675.736 Q88.9874 675.157 91.0244 675.157 Q96.3947 675.157 99.5892 677.842 Q102.784 680.527 102.784 685.018 Q102.784 687.148 101.973 689.069 Q101.186 690.967 99.0799 693.56 Q98.5012 694.231 95.3994 697.449 Q92.2975 700.643 86.6494 706.407 Z" fill="#000000" fill-rule="evenodd" fill-opacity="1" /><path clip-path="url(#clip100)" d="M 0 0 M91.0244 370.854 Q87.4133 370.854 85.5846 374.419 Q83.7791 377.96 83.7791 385.09 Q83.7791 392.197 85.5846 395.761 Q87.4133 399.303 91.0244 399.303 Q94.6586 399.303 96.4642 395.761 Q98.2929 392.197 98.2929 385.09 Q98.2929 377.96 96.4642 374.419 Q94.6586 370.854 91.0244 370.854 M91.0244 367.15 Q96.8345 367.15 99.8901 371.757 Q102.969 376.34 102.969 385.09 Q102.969 393.817 99.8901 398.423 Q96.8345 403.007 91.0244 403.007 Q85.2142 403.007 82.1355 398.423 Q79.08 393.817 79.08 385.09 Q79.08 376.34 82.1355 371.757 Q85.2142 367.15 91.0244 367.15 Z" fill="#000000" fill-rule="evenodd" fill-opacity="1" /><path clip-path="url(#clip100)" d="M 0 0 M86.6494 90.3934 L102.969 90.3934 L102.969 94.3286 L81.0244 94.3286 L81.0244 90.3934 Q83.6865 87.6388 88.2698 83.0092 Q92.8762 78.3565 94.0568 77.0139 Q96.3021 74.4907 97.1818 72.7546 Q98.0845 70.9954 98.0845 69.3056 Q98.0845 66.551 96.1401 64.8149 Q94.2188 63.0788 91.117 63.0788 Q88.9179 63.0788 86.4642 63.8426 Q84.0337 64.6065 81.2559 66.1574 L81.2559 61.4353 Q84.08 60.301 86.5337 59.7223 Q88.9874 59.1436 91.0244 59.1436 Q96.3947 59.1436 99.5892 61.8288 Q102.784 64.5139 102.784 69.0047 Q102.784 71.1343 101.973 73.0556 Q101.186 74.9537 99.0799 77.5463 Q98.5012 78.2176 95.3994 81.4351 Q92.2975 84.6296 86.6494 90.3934 Z" fill="#000000" fill-rule="evenodd" fill-opacity="1" /><polyline clip-path="url(#clip102)" style="stroke:#009af9; stroke-width:12; stroke-opacity:1; fill:none" points="
  189.963,539.626 259.956,539.626 329.949,481.658 399.943,446.507 469.936,424.111 539.929,409.061 609.923,398.355 679.916,390.264 749.909,383.747 819.902,378.156 
  889.896,373.069 959.889,368.184 1029.88,363.292 1099.88,358.222 1169.87,352.83 1239.86,346.983 1309.86,340.564 1379.85,333.456 1449.84,325.512 1519.84,316.614 
  1589.83,306.597 1659.82,295.294 1729.82,282.536 1799.81,268.102 1869.8,251.787 1939.8,233.278 2009.79,212.372 2079.78,188.67 2149.78,161.844 2219.77,131.505 
  2289.76,97.097 
  "/>
<polyline clip-path="url(#clip102)" style="stroke:#e26f46; stroke-width:12; stroke-opacity:1; fill:none" points="
  189.963,1371.29 259.956,1371.29 329.949,1268.57 399.943,1159.57 469.936,1055.33 539.929,960.316 609.923,876.131 679.916,802.748 749.909,739.417 819.902,685.131 
  889.896,638.828 959.889,599.457 1029.88,566.079 1099.88,537.805 1169.87,513.905 1239.86,493.724 1309.86,476.684 1379.85,462.294 1449.84,450.163 1519.84,439.92 
  1589.83,431.268 1659.82,423.966 1729.82,417.779 1799.81,412.537 1869.8,408.076 1939.8,404.271 2009.79,400.996 2079.78,398.16 2149.78,395.668 2219.77,393.44 
  2289.76,391.398 
  "/>
<polyline clip-path="url(#clip102)" style="stroke:#3da44d; stroke-width:12; stroke-opacity:1; fill:none" points="
  189.963,552.093 259.956,506.478 329.949,468.557 399.943,439.035 469.936,417.353 539.929,402.191 609.923,391.824 679.916,384.599 749.909,379.151 819.902,374.575 
  889.896,370.248 959.889,365.87 1029.88,361.238 1099.88,356.223 1169.87,350.721 1239.86,344.634 1309.86,337.855 1379.85,330.265 1449.84,321.731 1519.84,312.118 
  1589.83,301.264 1659.82,288.999 1729.82,275.146 1799.81,259.529 1869.8,241.949 1939.8,222.235 2009.79,200.258 2079.78,175.892 2149.78,149.063 2219.77,119.752 
  2289.76,87.9763 
  "/>
<polyline clip-path="url(#clip102)" style="stroke:#c271d2; stroke-width:12; stroke-opacity:1; fill:none" points="
  189.963,1445.72 259.956,1320.82 329.949,1206.57 399.943,1101.41 469.936,1005.01 539.929,917.68 609.923,839.698 679.916,771.183 749.909,711.775 819.902,660.892 
  889.896,617.634 959.889,581.067 1029.88,550.315 1099.88,524.412 1169.87,502.63 1239.86,484.344 1309.86,468.953 1379.85,455.946 1449.84,444.99 1519.84,435.762 
  1589.83,427.937 1659.82,421.287 1729.82,415.645 1799.81,410.841 1869.8,406.672 1939.8,402.974 2009.79,399.604 2079.78,396.419 2149.78,393.194 2219.77,389.755 
  2289.76,385.925 
  "/>
<path clip-path="url(#clip100)" d="
M1594.66 1438.47 L2278.56 1438.47 L2278.56 1136.07 L1594.66 1136.07  Z
  " fill="#ffffff" fill-rule="evenodd" fill-opacity="1"/>
<polyline clip-path="url(#clip100)" style="stroke:#000000; stroke-width:4; stroke-opacity:1; fill:none" points="
  1594.66,1438.47 2278.56,1438.47 2278.56,1136.07 1594.66,1136.07 1594.66,1438.47 
  "/>
<polyline clip-path="url(#clip100)" style="stroke:#009af9; stroke-width:4; stroke-opacity:1; fill:none" points="
  1619.39,1196.55 1767.78,1196.55 
  "/>
<path clip-path="url(#clip100)" d="M 0 0 M1792.51 1179.27 L1797.18 1179.27 L1797.18 1213.83 L1792.51 1213.83 L1792.51 1179.27 Z" fill="#000000" fill-rule="evenodd" fill-opacity="1" /><path clip-path="url(#clip100)" d="M 0 0 M1818.71 1191.84 L1818.71 1177.82 L1822.97 1177.82 L1822.97 1213.83 L1818.71 1213.83 L1818.71 1209.95 Q1817.37 1212.26 1815.31 1213.39 Q1813.27 1214.51 1810.4 1214.51 Q1805.7 1214.51 1802.74 1210.76 Q1799.8 1207.01 1799.8 1200.89 Q1799.8 1194.78 1802.74 1191.03 Q1805.7 1187.28 1810.4 1187.28 Q1813.27 1187.28 1815.31 1188.42 Q1817.37 1189.53 1818.71 1191.84 M1804.2 1200.89 Q1804.2 1205.59 1806.12 1208.28 Q1808.06 1210.94 1811.44 1210.94 Q1814.82 1210.94 1816.77 1208.28 Q1818.71 1205.59 1818.71 1200.89 Q1818.71 1196.2 1816.77 1193.53 Q1814.82 1190.85 1811.44 1190.85 Q1808.06 1190.85 1806.12 1193.53 Q1804.2 1196.2 1804.2 1200.89 Z" fill="#000000" fill-rule="evenodd" fill-opacity="1" /><path clip-path="url(#clip100)" d="M 0 0 M1849.61 1199.81 L1849.61 1201.89 L1830.03 1201.89 Q1830.31 1206.29 1832.67 1208.6 Q1835.05 1210.89 1839.29 1210.89 Q1841.74 1210.89 1844.03 1210.29 Q1846.35 1209.69 1848.62 1208.49 L1848.62 1212.51 Q1846.33 1213.49 1843.92 1214 Q1841.51 1214.51 1839.03 1214.51 Q1832.83 1214.51 1829.2 1210.89 Q1825.58 1207.28 1825.58 1201.13 Q1825.58 1194.76 1829.01 1191.03 Q1832.46 1187.28 1838.29 1187.28 Q1843.52 1187.28 1846.56 1190.66 Q1849.61 1194.02 1849.61 1199.81 M1845.35 1198.56 Q1845.31 1195.06 1843.39 1192.98 Q1841.49 1190.89 1838.34 1190.89 Q1834.77 1190.89 1832.62 1192.91 Q1830.49 1194.92 1830.17 1198.58 L1845.35 1198.56 Z" fill="#000000" fill-rule="evenodd" fill-opacity="1" /><path clip-path="url(#clip100)" d="M 0 0 M1865.86 1200.8 Q1860.7 1200.8 1858.71 1201.98 Q1856.72 1203.16 1856.72 1206.01 Q1856.72 1208.28 1858.2 1209.62 Q1859.7 1210.94 1862.27 1210.94 Q1865.82 1210.94 1867.95 1208.44 Q1870.1 1205.92 1870.1 1201.75 L1870.1 1200.8 L1865.86 1200.8 M1874.36 1199.04 L1874.36 1213.83 L1870.1 1213.83 L1870.1 1209.9 Q1868.64 1212.26 1866.46 1213.39 Q1864.29 1214.51 1861.14 1214.51 Q1857.16 1214.51 1854.8 1212.28 Q1852.46 1210.04 1852.46 1206.29 Q1852.46 1201.91 1855.38 1199.69 Q1858.32 1197.47 1864.13 1197.47 L1870.1 1197.47 L1870.1 1197.05 Q1870.1 1194.11 1868.15 1192.52 Q1866.23 1190.89 1862.74 1190.89 Q1860.52 1190.89 1858.41 1191.43 Q1856.3 1191.96 1854.36 1193.02 L1854.36 1189.09 Q1856.7 1188.19 1858.89 1187.75 Q1861.09 1187.28 1863.18 1187.28 Q1868.8 1187.28 1871.58 1190.2 Q1874.36 1193.12 1874.36 1199.04 Z" fill="#000000" fill-rule="evenodd" fill-opacity="1" /><path clip-path="url(#clip100)" d="M 0 0 M1878.83 1177.82 L1883.08 1177.82 L1883.08 1213.83 L1878.83 1213.83 L1878.83 1177.82 Z" fill="#000000" fill-rule="evenodd" fill-opacity="1" /><path clip-path="url(#clip100)" d="M 0 0 M1919.68 1191.84 L1919.68 1177.82 L1923.94 1177.82 L1923.94 1213.83 L1919.68 1213.83 L1919.68 1209.95 Q1918.34 1212.26 1916.28 1213.39 Q1914.24 1214.51 1911.37 1214.51 Q1906.67 1214.51 1903.71 1210.76 Q1900.77 1207.01 1900.77 1200.89 Q1900.77 1194.78 1903.71 1191.03 Q1906.67 1187.28 1911.37 1187.28 Q1914.24 1187.28 1916.28 1188.42 Q1918.34 1189.53 1919.68 1191.84 M1905.17 1200.89 Q1905.17 1205.59 1907.09 1208.28 Q1909.03 1210.94 1912.41 1210.94 Q1915.79 1210.94 1917.74 1208.28 Q1919.68 1205.59 1919.68 1200.89 Q1919.68 1196.2 1917.74 1193.53 Q1915.79 1190.85 1912.41 1190.85 Q1909.03 1190.85 1907.09 1193.53 Q1905.17 1196.2 1905.17 1200.89 Z" fill="#000000" fill-rule="evenodd" fill-opacity="1" /><path clip-path="url(#clip100)" d="M 0 0 M1950.58 1199.81 L1950.58 1201.89 L1931 1201.89 Q1931.28 1206.29 1933.64 1208.6 Q1936.02 1210.89 1940.26 1210.89 Q1942.71 1210.89 1945.01 1210.29 Q1947.32 1209.69 1949.59 1208.49 L1949.59 1212.51 Q1947.3 1213.49 1944.89 1214 Q1942.48 1214.51 1940.01 1214.51 Q1933.8 1214.51 1930.17 1210.89 Q1926.56 1207.28 1926.56 1201.13 Q1926.56 1194.76 1929.98 1191.03 Q1933.43 1187.28 1939.26 1187.28 Q1944.5 1187.28 1947.53 1190.66 Q1950.58 1194.02 1950.58 1199.81 M1946.32 1198.56 Q1946.28 1195.06 1944.36 1192.98 Q1942.46 1190.89 1939.31 1190.89 Q1935.75 1190.89 1933.59 1192.91 Q1931.46 1194.92 1931.14 1198.58 L1946.32 1198.56 Z" fill="#000000" fill-rule="evenodd" fill-opacity="1" /><path clip-path="url(#clip100)" d="M 0 0 M1970.07 1191.89 Q1969.36 1191.47 1968.5 1191.29 Q1967.67 1191.08 1966.65 1191.08 Q1963.04 1191.08 1961.09 1193.44 Q1959.17 1195.78 1959.17 1200.18 L1959.17 1213.83 L1954.89 1213.83 L1954.89 1187.91 L1959.17 1187.91 L1959.17 1191.94 Q1960.51 1189.58 1962.67 1188.44 Q1964.82 1187.28 1967.9 1187.28 Q1968.34 1187.28 1968.87 1187.35 Q1969.4 1187.4 1970.05 1187.52 L1970.07 1191.89 Z" fill="#000000" fill-rule="evenodd" fill-opacity="1" /><path clip-path="url(#clip100)" d="M 0 0 M1974.54 1187.91 L1978.8 1187.91 L1978.8 1213.83 L1974.54 1213.83 L1974.54 1187.91 M1974.54 1177.82 L1978.8 1177.82 L1978.8 1183.21 L1974.54 1183.21 L1974.54 1177.82 Z" fill="#000000" fill-rule="evenodd" fill-opacity="1" /><path clip-path="url(#clip100)" d="M 0 0 M1980.21 1187.91 L1984.73 1187.91 L1992.83 1209.67 L2000.93 1187.91 L2005.44 1187.91 L1995.72 1213.83 L1989.94 1213.83 L1980.21 1187.91 Z" fill="#000000" fill-rule="evenodd" fill-opacity="1" /><path clip-path="url(#clip100)" d="M 0 0 M2021.69 1200.8 Q2016.53 1200.8 2014.54 1201.98 Q2012.55 1203.16 2012.55 1206.01 Q2012.55 1208.28 2014.03 1209.62 Q2015.54 1210.94 2018.11 1210.94 Q2021.65 1210.94 2023.78 1208.44 Q2025.93 1205.92 2025.93 1201.75 L2025.93 1200.8 L2021.69 1200.8 M2030.19 1199.04 L2030.19 1213.83 L2025.93 1213.83 L2025.93 1209.9 Q2024.47 1212.26 2022.3 1213.39 Q2020.12 1214.51 2016.97 1214.51 Q2012.99 1214.51 2010.63 1212.28 Q2008.29 1210.04 2008.29 1206.29 Q2008.29 1201.91 2011.21 1199.69 Q2014.15 1197.47 2019.96 1197.47 L2025.93 1197.47 L2025.93 1197.05 Q2025.93 1194.11 2023.99 1192.52 Q2022.07 1190.89 2018.57 1190.89 Q2016.35 1190.89 2014.24 1191.43 Q2012.13 1191.96 2010.19 1193.02 L2010.19 1189.09 Q2012.53 1188.19 2014.73 1187.75 Q2016.93 1187.28 2019.01 1187.28 Q2024.63 1187.28 2027.41 1190.2 Q2030.19 1193.12 2030.19 1199.04 Z" fill="#000000" fill-rule="evenodd" fill-opacity="1" /><path clip-path="url(#clip100)" d="M 0 0 M2038.87 1180.55 L2038.87 1187.91 L2047.64 1187.91 L2047.64 1191.22 L2038.87 1191.22 L2038.87 1205.29 Q2038.87 1208.46 2039.73 1209.37 Q2040.61 1210.27 2043.27 1210.27 L2047.64 1210.27 L2047.64 1213.83 L2043.27 1213.83 Q2038.34 1213.83 2036.46 1212.01 Q2034.59 1210.15 2034.59 1205.29 L2034.59 1191.22 L2031.46 1191.22 L2031.46 1187.91 L2034.59 1187.91 L2034.59 1180.55 L2038.87 1180.55 Z" fill="#000000" fill-rule="evenodd" fill-opacity="1" /><path clip-path="url(#clip100)" d="M 0 0 M2052.11 1187.91 L2056.37 1187.91 L2056.37 1213.83 L2052.11 1213.83 L2052.11 1187.91 M2052.11 1177.82 L2056.37 1177.82 L2056.37 1183.21 L2052.11 1183.21 L2052.11 1177.82 Z" fill="#000000" fill-rule="evenodd" fill-opacity="1" /><path clip-path="url(#clip100)" d="M 0 0 M2057.78 1187.91 L2062.3 1187.91 L2070.4 1209.67 L2078.5 1187.91 L2083.01 1187.91 L2073.29 1213.83 L2067.5 1213.83 L2057.78 1187.91 Z" fill="#000000" fill-rule="evenodd" fill-opacity="1" /><path clip-path="url(#clip100)" d="M 0 0 M2109.66 1199.81 L2109.66 1201.89 L2090.07 1201.89 Q2090.35 1206.29 2092.71 1208.6 Q2095.1 1210.89 2099.33 1210.89 Q2101.79 1210.89 2104.08 1210.29 Q2106.39 1209.69 2108.66 1208.49 L2108.66 1212.51 Q2106.37 1213.49 2103.96 1214 Q2101.56 1214.51 2099.08 1214.51 Q2092.87 1214.51 2089.24 1210.89 Q2085.63 1207.28 2085.63 1201.13 Q2085.63 1194.76 2089.06 1191.03 Q2092.5 1187.28 2098.34 1187.28 Q2103.57 1187.28 2106.6 1190.66 Q2109.66 1194.02 2109.66 1199.81 M2105.4 1198.56 Q2105.35 1195.06 2103.43 1192.98 Q2101.53 1190.89 2098.38 1190.89 Q2094.82 1190.89 2092.67 1192.91 Q2090.54 1194.92 2090.21 1198.58 L2105.4 1198.56 Z" fill="#000000" fill-rule="evenodd" fill-opacity="1" /><path clip-path="url(#clip100)" d="M 0 0 M2130.61 1209.9 L2138.25 1209.9 L2138.25 1183.53 L2129.93 1185.2 L2129.93 1180.94 L2138.2 1179.27 L2142.87 1179.27 L2142.87 1209.9 L2150.51 1209.9 L2150.51 1213.83 L2130.61 1213.83 L2130.61 1209.9 Z" fill="#000000" fill-rule="evenodd" fill-opacity="1" /><polyline clip-path="url(#clip100)" style="stroke:#e26f46; stroke-width:4; stroke-opacity:1; fill:none" points="
  1619.39,1257.03 1767.78,1257.03 
  "/>
<path clip-path="url(#clip100)" d="M 0 0 M1792.51 1239.75 L1797.18 1239.75 L1797.18 1274.31 L1792.51 1274.31 L1792.51 1239.75 Z" fill="#000000" fill-rule="evenodd" fill-opacity="1" /><path clip-path="url(#clip100)" d="M 0 0 M1818.71 1252.32 L1818.71 1238.3 L1822.97 1238.3 L1822.97 1274.31 L1818.71 1274.31 L1818.71 1270.43 Q1817.37 1272.74 1815.31 1273.87 Q1813.27 1274.99 1810.4 1274.99 Q1805.7 1274.99 1802.74 1271.24 Q1799.8 1267.49 1799.8 1261.37 Q1799.8 1255.26 1802.74 1251.51 Q1805.7 1247.76 1810.4 1247.76 Q1813.27 1247.76 1815.31 1248.9 Q1817.37 1250.01 1818.71 1252.32 M1804.2 1261.37 Q1804.2 1266.07 1806.12 1268.76 Q1808.06 1271.42 1811.44 1271.42 Q1814.82 1271.42 1816.77 1268.76 Q1818.71 1266.07 1818.71 1261.37 Q1818.71 1256.68 1816.77 1254.01 Q1814.82 1251.33 1811.44 1251.33 Q1808.06 1251.33 1806.12 1254.01 Q1804.2 1256.68 1804.2 1261.37 Z" fill="#000000" fill-rule="evenodd" fill-opacity="1" /><path clip-path="url(#clip100)" d="M 0 0 M1849.61 1260.29 L1849.61 1262.37 L1830.03 1262.37 Q1830.31 1266.77 1832.67 1269.08 Q1835.05 1271.37 1839.29 1271.37 Q1841.74 1271.37 1844.03 1270.77 Q1846.35 1270.17 1848.62 1268.97 L1848.62 1272.99 Q1846.33 1273.97 1843.92 1274.48 Q1841.51 1274.99 1839.03 1274.99 Q1832.83 1274.99 1829.2 1271.37 Q1825.58 1267.76 1825.58 1261.61 Q1825.58 1255.24 1829.01 1251.51 Q1832.46 1247.76 1838.29 1247.76 Q1843.52 1247.76 1846.56 1251.14 Q1849.61 1254.5 1849.61 1260.29 M1845.35 1259.04 Q1845.31 1255.54 1843.39 1253.46 Q1841.49 1251.37 1838.34 1251.37 Q1834.77 1251.37 1832.62 1253.39 Q1830.49 1255.4 1830.17 1259.06 L1845.35 1259.04 Z" fill="#000000" fill-rule="evenodd" fill-opacity="1" /><path clip-path="url(#clip100)" d="M 0 0 M1865.86 1261.28 Q1860.7 1261.28 1858.71 1262.46 Q1856.72 1263.64 1856.72 1266.49 Q1856.72 1268.76 1858.2 1270.1 Q1859.7 1271.42 1862.27 1271.42 Q1865.82 1271.42 1867.95 1268.92 Q1870.1 1266.4 1870.1 1262.23 L1870.1 1261.28 L1865.86 1261.28 M1874.36 1259.52 L1874.36 1274.31 L1870.1 1274.31 L1870.1 1270.38 Q1868.64 1272.74 1866.46 1273.87 Q1864.29 1274.99 1861.14 1274.99 Q1857.16 1274.99 1854.8 1272.76 Q1852.46 1270.52 1852.46 1266.77 Q1852.46 1262.39 1855.38 1260.17 Q1858.32 1257.95 1864.13 1257.95 L1870.1 1257.95 L1870.1 1257.53 Q1870.1 1254.59 1868.15 1253 Q1866.23 1251.37 1862.74 1251.37 Q1860.52 1251.37 1858.41 1251.91 Q1856.3 1252.44 1854.36 1253.5 L1854.36 1249.57 Q1856.7 1248.67 1858.89 1248.23 Q1861.09 1247.76 1863.18 1247.76 Q1868.8 1247.76 1871.58 1250.68 Q1874.36 1253.6 1874.36 1259.52 Z" fill="#000000" fill-rule="evenodd" fill-opacity="1" /><path clip-path="url(#clip100)" d="M 0 0 M1878.83 1238.3 L1883.08 1238.3 L1883.08 1274.31 L1878.83 1274.31 L1878.83 1238.3 Z" fill="#000000" fill-rule="evenodd" fill-opacity="1" /><path clip-path="url(#clip100)" d="M 0 0 M1919.68 1252.32 L1919.68 1238.3 L1923.94 1238.3 L1923.94 1274.31 L1919.68 1274.31 L1919.68 1270.43 Q1918.34 1272.74 1916.28 1273.87 Q1914.24 1274.99 1911.37 1274.99 Q1906.67 1274.99 1903.71 1271.24 Q1900.77 1267.49 1900.77 1261.37 Q1900.77 1255.26 1903.71 1251.51 Q1906.67 1247.76 1911.37 1247.76 Q1914.24 1247.76 1916.28 1248.9 Q1918.34 1250.01 1919.68 1252.32 M1905.17 1261.37 Q1905.17 1266.07 1907.09 1268.76 Q1909.03 1271.42 1912.41 1271.42 Q1915.79 1271.42 1917.74 1268.76 Q1919.68 1266.07 1919.68 1261.37 Q1919.68 1256.68 1917.74 1254.01 Q1915.79 1251.33 1912.41 1251.33 Q1909.03 1251.33 1907.09 1254.01 Q1905.17 1256.68 1905.17 1261.37 Z" fill="#000000" fill-rule="evenodd" fill-opacity="1" /><path clip-path="url(#clip100)" d="M 0 0 M1950.58 1260.29 L1950.58 1262.37 L1931 1262.37 Q1931.28 1266.77 1933.64 1269.08 Q1936.02 1271.37 1940.26 1271.37 Q1942.71 1271.37 1945.01 1270.77 Q1947.32 1270.17 1949.59 1268.97 L1949.59 1272.99 Q1947.3 1273.97 1944.89 1274.48 Q1942.48 1274.99 1940.01 1274.99 Q1933.8 1274.99 1930.17 1271.37 Q1926.56 1267.76 1926.56 1261.61 Q1926.56 1255.24 1929.98 1251.51 Q1933.43 1247.76 1939.26 1247.76 Q1944.5 1247.76 1947.53 1251.14 Q1950.58 1254.5 1950.58 1260.29 M1946.32 1259.04 Q1946.28 1255.54 1944.36 1253.46 Q1942.46 1251.37 1939.31 1251.37 Q1935.75 1251.37 1933.59 1253.39 Q1931.46 1255.4 1931.14 1259.06 L1946.32 1259.04 Z" fill="#000000" fill-rule="evenodd" fill-opacity="1" /><path clip-path="url(#clip100)" d="M 0 0 M1970.07 1252.37 Q1969.36 1251.95 1968.5 1251.77 Q1967.67 1251.56 1966.65 1251.56 Q1963.04 1251.56 1961.09 1253.92 Q1959.17 1256.26 1959.17 1260.66 L1959.17 1274.31 L1954.89 1274.31 L1954.89 1248.39 L1959.17 1248.39 L1959.17 1252.42 Q1960.51 1250.06 1962.67 1248.92 Q1964.82 1247.76 1967.9 1247.76 Q1968.34 1247.76 1968.87 1247.83 Q1969.4 1247.88 1970.05 1248 L1970.07 1252.37 Z" fill="#000000" fill-rule="evenodd" fill-opacity="1" /><path clip-path="url(#clip100)" d="M 0 0 M1974.54 1248.39 L1978.8 1248.39 L1978.8 1274.31 L1974.54 1274.31 L1974.54 1248.39 M1974.54 1238.3 L1978.8 1238.3 L1978.8 1243.69 L1974.54 1243.69 L1974.54 1238.3 Z" fill="#000000" fill-rule="evenodd" fill-opacity="1" /><path clip-path="url(#clip100)" d="M 0 0 M1980.21 1248.39 L1984.73 1248.39 L1992.83 1270.15 L2000.93 1248.39 L2005.44 1248.39 L1995.72 1274.31 L1989.94 1274.31 L1980.21 1248.39 Z" fill="#000000" fill-rule="evenodd" fill-opacity="1" /><path clip-path="url(#clip100)" d="M 0 0 M2021.69 1261.28 Q2016.53 1261.28 2014.54 1262.46 Q2012.55 1263.64 2012.55 1266.49 Q2012.55 1268.76 2014.03 1270.1 Q2015.54 1271.42 2018.11 1271.42 Q2021.65 1271.42 2023.78 1268.92 Q2025.93 1266.4 2025.93 1262.23 L2025.93 1261.28 L2021.69 1261.28 M2030.19 1259.52 L2030.19 1274.31 L2025.93 1274.31 L2025.93 1270.38 Q2024.47 1272.74 2022.3 1273.87 Q2020.12 1274.99 2016.97 1274.99 Q2012.99 1274.99 2010.63 1272.76 Q2008.29 1270.52 2008.29 1266.77 Q2008.29 1262.39 2011.21 1260.17 Q2014.15 1257.95 2019.96 1257.95 L2025.93 1257.95 L2025.93 1257.53 Q2025.93 1254.59 2023.99 1253 Q2022.07 1251.37 2018.57 1251.37 Q2016.35 1251.37 2014.24 1251.91 Q2012.13 1252.44 2010.19 1253.5 L2010.19 1249.57 Q2012.53 1248.67 2014.73 1248.23 Q2016.93 1247.76 2019.01 1247.76 Q2024.63 1247.76 2027.41 1250.68 Q2030.19 1253.6 2030.19 1259.52 Z" fill="#000000" fill-rule="evenodd" fill-opacity="1" /><path clip-path="url(#clip100)" d="M 0 0 M2038.87 1241.03 L2038.87 1248.39 L2047.64 1248.39 L2047.64 1251.7 L2038.87 1251.7 L2038.87 1265.77 Q2038.87 1268.94 2039.73 1269.85 Q2040.61 1270.75 2043.27 1270.75 L2047.64 1270.75 L2047.64 1274.31 L2043.27 1274.31 Q2038.34 1274.31 2036.46 1272.49 Q2034.59 1270.63 2034.59 1265.77 L2034.59 1251.7 L2031.46 1251.7 L2031.46 1248.39 L2034.59 1248.39 L2034.59 1241.03 L2038.87 1241.03 Z" fill="#000000" fill-rule="evenodd" fill-opacity="1" /><path clip-path="url(#clip100)" d="M 0 0 M2052.11 1248.39 L2056.37 1248.39 L2056.37 1274.31 L2052.11 1274.31 L2052.11 1248.39 M2052.11 1238.3 L2056.37 1238.3 L2056.37 1243.69 L2052.11 1243.69 L2052.11 1238.3 Z" fill="#000000" fill-rule="evenodd" fill-opacity="1" /><path clip-path="url(#clip100)" d="M 0 0 M2057.78 1248.39 L2062.3 1248.39 L2070.4 1270.15 L2078.5 1248.39 L2083.01 1248.39 L2073.29 1274.31 L2067.5 1274.31 L2057.78 1248.39 Z" fill="#000000" fill-rule="evenodd" fill-opacity="1" /><path clip-path="url(#clip100)" d="M 0 0 M2109.66 1260.29 L2109.66 1262.37 L2090.07 1262.37 Q2090.35 1266.77 2092.71 1269.08 Q2095.1 1271.37 2099.33 1271.37 Q2101.79 1271.37 2104.08 1270.77 Q2106.39 1270.17 2108.66 1268.97 L2108.66 1272.99 Q2106.37 1273.97 2103.96 1274.48 Q2101.56 1274.99 2099.08 1274.99 Q2092.87 1274.99 2089.24 1271.37 Q2085.63 1267.76 2085.63 1261.61 Q2085.63 1255.24 2089.06 1251.51 Q2092.5 1247.76 2098.34 1247.76 Q2103.57 1247.76 2106.6 1251.14 Q2109.66 1254.5 2109.66 1260.29 M2105.4 1259.04 Q2105.35 1255.54 2103.43 1253.46 Q2101.53 1251.37 2098.38 1251.37 Q2094.82 1251.37 2092.67 1253.39 Q2090.54 1255.4 2090.21 1259.06 L2105.4 1259.04 Z" fill="#000000" fill-rule="evenodd" fill-opacity="1" /><path clip-path="url(#clip100)" d="M 0 0 M2133.82 1270.38 L2150.14 1270.38 L2150.14 1274.31 L2128.2 1274.31 L2128.2 1270.38 Q2130.86 1267.62 2135.44 1263 Q2140.05 1258.34 2141.23 1257 Q2143.48 1254.48 2144.36 1252.74 Q2145.26 1250.98 2145.26 1249.29 Q2145.26 1246.54 2143.31 1244.8 Q2141.39 1243.06 2138.29 1243.06 Q2136.09 1243.06 2133.64 1243.83 Q2131.21 1244.59 2128.43 1246.14 L2128.43 1241.42 Q2131.25 1240.29 2133.71 1239.71 Q2136.16 1239.13 2138.2 1239.13 Q2143.57 1239.13 2146.76 1241.81 Q2149.96 1244.5 2149.96 1248.99 Q2149.96 1251.12 2149.15 1253.04 Q2148.36 1254.94 2146.25 1257.53 Q2145.68 1258.2 2142.57 1261.42 Q2139.47 1264.62 2133.82 1270.38 Z" fill="#000000" fill-rule="evenodd" fill-opacity="1" /><polyline clip-path="url(#clip100)" style="stroke:#3da44d; stroke-width:4; stroke-opacity:1; fill:none" points="
  1619.39,1317.51 1767.78,1317.51 
  "/>
<path clip-path="url(#clip100)" d="M 0 0 M1792.51 1300.23 L1797.18 1300.23 L1797.18 1330.86 L1814.01 1330.86 L1814.01 1334.79 L1792.51 1334.79 L1792.51 1300.23 Z" fill="#000000" fill-rule="evenodd" fill-opacity="1" /><path clip-path="url(#clip100)" d="M 0 0 M1839.82 1320.77 L1839.82 1322.85 L1820.24 1322.85 Q1820.52 1327.25 1822.88 1329.56 Q1825.26 1331.85 1829.5 1331.85 Q1831.95 1331.85 1834.24 1331.25 Q1836.56 1330.65 1838.83 1329.45 L1838.83 1333.47 Q1836.53 1334.45 1834.13 1334.96 Q1831.72 1335.47 1829.24 1335.47 Q1823.04 1335.47 1819.4 1331.85 Q1815.79 1328.24 1815.79 1322.09 Q1815.79 1315.72 1819.22 1311.99 Q1822.67 1308.24 1828.5 1308.24 Q1833.73 1308.24 1836.77 1311.62 Q1839.82 1314.98 1839.82 1320.77 M1835.56 1319.52 Q1835.52 1316.02 1833.59 1313.94 Q1831.7 1311.85 1828.55 1311.85 Q1824.98 1311.85 1822.83 1313.87 Q1820.7 1315.88 1820.38 1319.54 L1835.56 1319.52 Z" fill="#000000" fill-rule="evenodd" fill-opacity="1" /><path clip-path="url(#clip100)" d="M 0 0 M1856.07 1321.76 Q1850.91 1321.76 1848.92 1322.94 Q1846.93 1324.12 1846.93 1326.97 Q1846.93 1329.24 1848.41 1330.58 Q1849.91 1331.9 1852.48 1331.9 Q1856.02 1331.9 1858.15 1329.4 Q1860.31 1326.88 1860.31 1322.71 L1860.31 1321.76 L1856.07 1321.76 M1864.57 1320 L1864.57 1334.79 L1860.31 1334.79 L1860.31 1330.86 Q1858.85 1333.22 1856.67 1334.35 Q1854.5 1335.47 1851.35 1335.47 Q1847.37 1335.47 1845.01 1333.24 Q1842.67 1331 1842.67 1327.25 Q1842.67 1322.87 1845.58 1320.65 Q1848.52 1318.43 1854.33 1318.43 L1860.31 1318.43 L1860.31 1318.01 Q1860.31 1315.07 1858.36 1313.48 Q1856.44 1311.85 1852.95 1311.85 Q1850.72 1311.85 1848.62 1312.39 Q1846.51 1312.92 1844.57 1313.98 L1844.57 1310.05 Q1846.9 1309.15 1849.1 1308.71 Q1851.3 1308.24 1853.39 1308.24 Q1859.01 1308.24 1861.79 1311.16 Q1864.57 1314.08 1864.57 1320 Z" fill="#000000" fill-rule="evenodd" fill-opacity="1" /><path clip-path="url(#clip100)" d="M 0 0 M1884.06 1312.85 Q1883.34 1312.43 1882.48 1312.25 Q1881.65 1312.04 1880.63 1312.04 Q1877.02 1312.04 1875.08 1314.4 Q1873.15 1316.74 1873.15 1321.14 L1873.15 1334.79 L1868.87 1334.79 L1868.87 1308.87 L1873.15 1308.87 L1873.15 1312.9 Q1874.5 1310.54 1876.65 1309.4 Q1878.8 1308.24 1881.88 1308.24 Q1882.32 1308.24 1882.85 1308.31 Q1883.39 1308.36 1884.03 1308.48 L1884.06 1312.85 Z" fill="#000000" fill-rule="evenodd" fill-opacity="1" /><path clip-path="url(#clip100)" d="M 0 0 M1909.24 1319.15 L1909.24 1334.79 L1904.98 1334.79 L1904.98 1319.29 Q1904.98 1315.6 1903.55 1313.78 Q1902.11 1311.95 1899.24 1311.95 Q1895.79 1311.95 1893.8 1314.15 Q1891.81 1316.35 1891.81 1320.14 L1891.81 1334.79 L1887.53 1334.79 L1887.53 1308.87 L1891.81 1308.87 L1891.81 1312.9 Q1893.34 1310.56 1895.4 1309.4 Q1897.48 1308.24 1900.19 1308.24 Q1904.66 1308.24 1906.95 1311.02 Q1909.24 1313.78 1909.24 1319.15 Z" fill="#000000" fill-rule="evenodd" fill-opacity="1" /><path clip-path="url(#clip100)" d="M 0 0 M1935.89 1320.77 L1935.89 1322.85 L1916.3 1322.85 Q1916.58 1327.25 1918.94 1329.56 Q1921.32 1331.85 1925.56 1331.85 Q1928.01 1331.85 1930.31 1331.25 Q1932.62 1330.65 1934.89 1329.45 L1934.89 1333.47 Q1932.6 1334.45 1930.19 1334.96 Q1927.78 1335.47 1925.31 1335.47 Q1919.1 1335.47 1915.47 1331.85 Q1911.86 1328.24 1911.86 1322.09 Q1911.86 1315.72 1915.28 1311.99 Q1918.73 1308.24 1924.57 1308.24 Q1929.8 1308.24 1932.83 1311.62 Q1935.89 1314.98 1935.89 1320.77 M1931.63 1319.52 Q1931.58 1316.02 1929.66 1313.94 Q1927.76 1311.85 1924.61 1311.85 Q1921.05 1311.85 1918.89 1313.87 Q1916.76 1315.88 1916.44 1319.54 L1931.63 1319.52 Z" fill="#000000" fill-rule="evenodd" fill-opacity="1" /><path clip-path="url(#clip100)" d="M 0 0 M1957.41 1312.8 L1957.41 1298.78 L1961.67 1298.78 L1961.67 1334.79 L1957.41 1334.79 L1957.41 1330.91 Q1956.07 1333.22 1954.01 1334.35 Q1951.97 1335.47 1949.1 1335.47 Q1944.4 1335.47 1941.44 1331.72 Q1938.5 1327.97 1938.5 1321.85 Q1938.5 1315.74 1941.44 1311.99 Q1944.4 1308.24 1949.1 1308.24 Q1951.97 1308.24 1954.01 1309.38 Q1956.07 1310.49 1957.41 1312.8 M1942.9 1321.85 Q1942.9 1326.55 1944.82 1329.24 Q1946.76 1331.9 1950.14 1331.9 Q1953.52 1331.9 1955.47 1329.24 Q1957.41 1326.55 1957.41 1321.85 Q1957.41 1317.16 1955.47 1314.49 Q1953.52 1311.81 1950.14 1311.81 Q1946.76 1311.81 1944.82 1314.49 Q1942.9 1317.16 1942.9 1321.85 Z" fill="#000000" fill-rule="evenodd" fill-opacity="1" /><path clip-path="url(#clip100)" d="M 0 0 M1998.27 1312.8 L1998.27 1298.78 L2002.53 1298.78 L2002.53 1334.79 L1998.27 1334.79 L1998.27 1330.91 Q1996.93 1333.22 1994.87 1334.35 Q1992.83 1335.47 1989.96 1335.47 Q1985.26 1335.47 1982.3 1331.72 Q1979.36 1327.97 1979.36 1321.85 Q1979.36 1315.74 1982.3 1311.99 Q1985.26 1308.24 1989.96 1308.24 Q1992.83 1308.24 1994.87 1309.38 Q1996.93 1310.49 1998.27 1312.8 M1983.76 1321.85 Q1983.76 1326.55 1985.68 1329.24 Q1987.62 1331.9 1991 1331.9 Q1994.38 1331.9 1996.32 1329.24 Q1998.27 1326.55 1998.27 1321.85 Q1998.27 1317.16 1996.32 1314.49 Q1994.38 1311.81 1991 1311.81 Q1987.62 1311.81 1985.68 1314.49 Q1983.76 1317.16 1983.76 1321.85 Z" fill="#000000" fill-rule="evenodd" fill-opacity="1" /><path clip-path="url(#clip100)" d="M 0 0 M2029.17 1320.77 L2029.17 1322.85 L2009.59 1322.85 Q2009.87 1327.25 2012.23 1329.56 Q2014.61 1331.85 2018.85 1331.85 Q2021.3 1331.85 2023.59 1331.25 Q2025.91 1330.65 2028.18 1329.45 L2028.18 1333.47 Q2025.88 1334.45 2023.48 1334.96 Q2021.07 1335.47 2018.59 1335.47 Q2012.39 1335.47 2008.76 1331.85 Q2005.14 1328.24 2005.14 1322.09 Q2005.14 1315.72 2008.57 1311.99 Q2012.02 1308.24 2017.85 1308.24 Q2023.08 1308.24 2026.12 1311.62 Q2029.17 1314.98 2029.17 1320.77 M2024.91 1319.52 Q2024.87 1316.02 2022.94 1313.94 Q2021.05 1311.85 2017.9 1311.85 Q2014.33 1311.85 2012.18 1313.87 Q2010.05 1315.88 2009.73 1319.54 L2024.91 1319.52 Z" fill="#000000" fill-rule="evenodd" fill-opacity="1" /><path clip-path="url(#clip100)" d="M 0 0 M2048.66 1312.85 Q2047.94 1312.43 2047.09 1312.25 Q2046.25 1312.04 2045.24 1312.04 Q2041.63 1312.04 2039.68 1314.4 Q2037.76 1316.74 2037.76 1321.14 L2037.76 1334.79 L2033.48 1334.79 L2033.48 1308.87 L2037.76 1308.87 L2037.76 1312.9 Q2039.1 1310.54 2041.25 1309.4 Q2043.41 1308.24 2046.49 1308.24 Q2046.93 1308.24 2047.46 1308.31 Q2047.99 1308.36 2048.64 1308.48 L2048.66 1312.85 Z" fill="#000000" fill-rule="evenodd" fill-opacity="1" /><path clip-path="url(#clip100)" d="M 0 0 M2053.13 1308.87 L2057.39 1308.87 L2057.39 1334.79 L2053.13 1334.79 L2053.13 1308.87 M2053.13 1298.78 L2057.39 1298.78 L2057.39 1304.17 L2053.13 1304.17 L2053.13 1298.78 Z" fill="#000000" fill-rule="evenodd" fill-opacity="1" /><path clip-path="url(#clip100)" d="M 0 0 M2058.8 1308.87 L2063.31 1308.87 L2071.42 1330.63 L2079.52 1308.87 L2084.03 1308.87 L2074.31 1334.79 L2068.52 1334.79 L2058.8 1308.87 Z" fill="#000000" fill-rule="evenodd" fill-opacity="1" /><path clip-path="url(#clip100)" d="M 0 0 M2100.28 1321.76 Q2095.12 1321.76 2093.13 1322.94 Q2091.14 1324.12 2091.14 1326.97 Q2091.14 1329.24 2092.62 1330.58 Q2094.12 1331.9 2096.69 1331.9 Q2100.24 1331.9 2102.37 1329.4 Q2104.52 1326.88 2104.52 1322.71 L2104.52 1321.76 L2100.28 1321.76 M2108.78 1320 L2108.78 1334.79 L2104.52 1334.79 L2104.52 1330.86 Q2103.06 1333.22 2100.88 1334.35 Q2098.71 1335.47 2095.56 1335.47 Q2091.58 1335.47 2089.22 1333.24 Q2086.88 1331 2086.88 1327.25 Q2086.88 1322.87 2089.8 1320.65 Q2092.74 1318.43 2098.55 1318.43 L2104.52 1318.43 L2104.52 1318.01 Q2104.52 1315.07 2102.57 1313.48 Q2100.65 1311.85 2097.16 1311.85 Q2094.94 1311.85 2092.83 1312.39 Q2090.72 1312.92 2088.78 1313.98 L2088.78 1310.05 Q2091.12 1309.15 2093.31 1308.71 Q2095.51 1308.24 2097.6 1308.24 Q2103.22 1308.24 2106 1311.16 Q2108.78 1314.08 2108.78 1320 Z" fill="#000000" fill-rule="evenodd" fill-opacity="1" /><path clip-path="url(#clip100)" d="M 0 0 M2117.46 1301.51 L2117.46 1308.87 L2126.23 1308.87 L2126.23 1312.18 L2117.46 1312.18 L2117.46 1326.25 Q2117.46 1329.42 2118.31 1330.33 Q2119.19 1331.23 2121.86 1331.23 L2126.23 1331.23 L2126.23 1334.79 L2121.86 1334.79 Q2116.93 1334.79 2115.05 1332.97 Q2113.18 1331.11 2113.18 1326.25 L2113.18 1312.18 L2110.05 1312.18 L2110.05 1308.87 L2113.18 1308.87 L2113.18 1301.51 L2117.46 1301.51 Z" fill="#000000" fill-rule="evenodd" fill-opacity="1" /><path clip-path="url(#clip100)" d="M 0 0 M2130.7 1308.87 L2134.96 1308.87 L2134.96 1334.79 L2130.7 1334.79 L2130.7 1308.87 M2130.7 1298.78 L2134.96 1298.78 L2134.96 1304.17 L2130.7 1304.17 L2130.7 1298.78 Z" fill="#000000" fill-rule="evenodd" fill-opacity="1" /><path clip-path="url(#clip100)" d="M 0 0 M2136.37 1308.87 L2140.88 1308.87 L2148.99 1330.63 L2157.09 1308.87 L2161.6 1308.87 L2151.88 1334.79 L2146.09 1334.79 L2136.37 1308.87 Z" fill="#000000" fill-rule="evenodd" fill-opacity="1" /><path clip-path="url(#clip100)" d="M 0 0 M2188.24 1320.77 L2188.24 1322.85 L2168.66 1322.85 Q2168.94 1327.25 2171.3 1329.56 Q2173.68 1331.85 2177.92 1331.85 Q2180.37 1331.85 2182.67 1331.25 Q2184.98 1330.65 2187.25 1329.45 L2187.25 1333.47 Q2184.96 1334.45 2182.55 1334.96 Q2180.14 1335.47 2177.67 1335.47 Q2171.46 1335.47 2167.83 1331.85 Q2164.22 1328.24 2164.22 1322.09 Q2164.22 1315.72 2167.64 1311.99 Q2171.09 1308.24 2176.93 1308.24 Q2182.16 1308.24 2185.19 1311.62 Q2188.24 1314.98 2188.24 1320.77 M2183.99 1319.52 Q2183.94 1316.02 2182.02 1313.94 Q2180.12 1311.85 2176.97 1311.85 Q2173.41 1311.85 2171.25 1313.87 Q2169.12 1315.88 2168.8 1319.54 L2183.99 1319.52 Z" fill="#000000" fill-rule="evenodd" fill-opacity="1" /><path clip-path="url(#clip100)" d="M 0 0 M2209.19 1330.86 L2216.83 1330.86 L2216.83 1304.49 L2208.52 1306.16 L2208.52 1301.9 L2216.79 1300.23 L2221.46 1300.23 L2221.46 1330.86 L2229.1 1330.86 L2229.1 1334.79 L2209.19 1334.79 L2209.19 1330.86 Z" fill="#000000" fill-rule="evenodd" fill-opacity="1" /><polyline clip-path="url(#clip100)" style="stroke:#c271d2; stroke-width:4; stroke-opacity:1; fill:none" points="
  1619.39,1377.99 1767.78,1377.99 
  "/>
<path clip-path="url(#clip100)" d="M 0 0 M1792.51 1360.71 L1797.18 1360.71 L1797.18 1391.34 L1814.01 1391.34 L1814.01 1395.27 L1792.51 1395.27 L1792.51 1360.71 Z" fill="#000000" fill-rule="evenodd" fill-opacity="1" /><path clip-path="url(#clip100)" d="M 0 0 M1839.82 1381.25 L1839.82 1383.33 L1820.24 1383.33 Q1820.52 1387.73 1822.88 1390.04 Q1825.26 1392.33 1829.5 1392.33 Q1831.95 1392.33 1834.24 1391.73 Q1836.56 1391.13 1838.83 1389.93 L1838.83 1393.95 Q1836.53 1394.93 1834.13 1395.44 Q1831.72 1395.95 1829.24 1395.95 Q1823.04 1395.95 1819.4 1392.33 Q1815.79 1388.72 1815.79 1382.57 Q1815.79 1376.2 1819.22 1372.47 Q1822.67 1368.72 1828.5 1368.72 Q1833.73 1368.72 1836.77 1372.1 Q1839.82 1375.46 1839.82 1381.25 M1835.56 1380 Q1835.52 1376.5 1833.59 1374.42 Q1831.7 1372.33 1828.55 1372.33 Q1824.98 1372.33 1822.83 1374.35 Q1820.7 1376.36 1820.38 1380.02 L1835.56 1380 Z" fill="#000000" fill-rule="evenodd" fill-opacity="1" /><path clip-path="url(#clip100)" d="M 0 0 M1856.07 1382.24 Q1850.91 1382.24 1848.92 1383.42 Q1846.93 1384.6 1846.93 1387.45 Q1846.93 1389.72 1848.41 1391.06 Q1849.91 1392.38 1852.48 1392.38 Q1856.02 1392.38 1858.15 1389.88 Q1860.31 1387.36 1860.31 1383.19 L1860.31 1382.24 L1856.07 1382.24 M1864.57 1380.48 L1864.57 1395.27 L1860.31 1395.27 L1860.31 1391.34 Q1858.85 1393.7 1856.67 1394.83 Q1854.5 1395.95 1851.35 1395.95 Q1847.37 1395.95 1845.01 1393.72 Q1842.67 1391.48 1842.67 1387.73 Q1842.67 1383.35 1845.58 1381.13 Q1848.52 1378.91 1854.33 1378.91 L1860.31 1378.91 L1860.31 1378.49 Q1860.31 1375.55 1858.36 1373.96 Q1856.44 1372.33 1852.95 1372.33 Q1850.72 1372.33 1848.62 1372.87 Q1846.51 1373.4 1844.57 1374.46 L1844.57 1370.53 Q1846.9 1369.63 1849.1 1369.19 Q1851.3 1368.72 1853.39 1368.72 Q1859.01 1368.72 1861.79 1371.64 Q1864.57 1374.56 1864.57 1380.48 Z" fill="#000000" fill-rule="evenodd" fill-opacity="1" /><path clip-path="url(#clip100)" d="M 0 0 M1884.06 1373.33 Q1883.34 1372.91 1882.48 1372.73 Q1881.65 1372.52 1880.63 1372.52 Q1877.02 1372.52 1875.08 1374.88 Q1873.15 1377.22 1873.15 1381.62 L1873.15 1395.27 L1868.87 1395.27 L1868.87 1369.35 L1873.15 1369.35 L1873.15 1373.38 Q1874.5 1371.02 1876.65 1369.88 Q1878.8 1368.72 1881.88 1368.72 Q1882.32 1368.72 1882.85 1368.79 Q1883.39 1368.84 1884.03 1368.96 L1884.06 1373.33 Z" fill="#000000" fill-rule="evenodd" fill-opacity="1" /><path clip-path="url(#clip100)" d="M 0 0 M1909.24 1379.63 L1909.24 1395.27 L1904.98 1395.27 L1904.98 1379.77 Q1904.98 1376.08 1903.55 1374.26 Q1902.11 1372.43 1899.24 1372.43 Q1895.79 1372.43 1893.8 1374.63 Q1891.81 1376.83 1891.81 1380.62 L1891.81 1395.27 L1887.53 1395.27 L1887.53 1369.35 L1891.81 1369.35 L1891.81 1373.38 Q1893.34 1371.04 1895.4 1369.88 Q1897.48 1368.72 1900.19 1368.72 Q1904.66 1368.72 1906.95 1371.5 Q1909.24 1374.26 1909.24 1379.63 Z" fill="#000000" fill-rule="evenodd" fill-opacity="1" /><path clip-path="url(#clip100)" d="M 0 0 M1935.89 1381.25 L1935.89 1383.33 L1916.3 1383.33 Q1916.58 1387.73 1918.94 1390.04 Q1921.32 1392.33 1925.56 1392.33 Q1928.01 1392.33 1930.31 1391.73 Q1932.62 1391.13 1934.89 1389.93 L1934.89 1393.95 Q1932.6 1394.93 1930.19 1395.44 Q1927.78 1395.95 1925.31 1395.95 Q1919.1 1395.95 1915.47 1392.33 Q1911.86 1388.72 1911.86 1382.57 Q1911.86 1376.2 1915.28 1372.47 Q1918.73 1368.72 1924.57 1368.72 Q1929.8 1368.72 1932.83 1372.1 Q1935.89 1375.46 1935.89 1381.25 M1931.63 1380 Q1931.58 1376.5 1929.66 1374.42 Q1927.76 1372.33 1924.61 1372.33 Q1921.05 1372.33 1918.89 1374.35 Q1916.76 1376.36 1916.44 1380.02 L1931.63 1380 Z" fill="#000000" fill-rule="evenodd" fill-opacity="1" /><path clip-path="url(#clip100)" d="M 0 0 M1957.41 1373.28 L1957.41 1359.26 L1961.67 1359.26 L1961.67 1395.27 L1957.41 1395.27 L1957.41 1391.39 Q1956.07 1393.7 1954.01 1394.83 Q1951.97 1395.95 1949.1 1395.95 Q1944.4 1395.95 1941.44 1392.2 Q1938.5 1388.45 1938.5 1382.33 Q1938.5 1376.22 1941.44 1372.47 Q1944.4 1368.72 1949.1 1368.72 Q1951.97 1368.72 1954.01 1369.86 Q1956.07 1370.97 1957.41 1373.28 M1942.9 1382.33 Q1942.9 1387.03 1944.82 1389.72 Q1946.76 1392.38 1950.14 1392.38 Q1953.52 1392.38 1955.47 1389.72 Q1957.41 1387.03 1957.41 1382.33 Q1957.41 1377.64 1955.47 1374.97 Q1953.52 1372.29 1950.14 1372.29 Q1946.76 1372.29 1944.82 1374.97 Q1942.9 1377.64 1942.9 1382.33 Z" fill="#000000" fill-rule="evenodd" fill-opacity="1" /><path clip-path="url(#clip100)" d="M 0 0 M1998.27 1373.28 L1998.27 1359.26 L2002.53 1359.26 L2002.53 1395.27 L1998.27 1395.27 L1998.27 1391.39 Q1996.93 1393.7 1994.87 1394.83 Q1992.83 1395.95 1989.96 1395.95 Q1985.26 1395.95 1982.3 1392.2 Q1979.36 1388.45 1979.36 1382.33 Q1979.36 1376.22 1982.3 1372.47 Q1985.26 1368.72 1989.96 1368.72 Q1992.83 1368.72 1994.87 1369.86 Q1996.93 1370.97 1998.27 1373.28 M1983.76 1382.33 Q1983.76 1387.03 1985.68 1389.72 Q1987.62 1392.38 1991 1392.38 Q1994.38 1392.38 1996.32 1389.72 Q1998.27 1387.03 1998.27 1382.33 Q1998.27 1377.64 1996.32 1374.97 Q1994.38 1372.29 1991 1372.29 Q1987.62 1372.29 1985.68 1374.97 Q1983.76 1377.64 1983.76 1382.33 Z" fill="#000000" fill-rule="evenodd" fill-opacity="1" /><path clip-path="url(#clip100)" d="M 0 0 M2029.17 1381.25 L2029.17 1383.33 L2009.59 1383.33 Q2009.87 1387.73 2012.23 1390.04 Q2014.61 1392.33 2018.85 1392.33 Q2021.3 1392.33 2023.59 1391.73 Q2025.91 1391.13 2028.18 1389.93 L2028.18 1393.95 Q2025.88 1394.93 2023.48 1395.44 Q2021.07 1395.95 2018.59 1395.95 Q2012.39 1395.95 2008.76 1392.33 Q2005.14 1388.72 2005.14 1382.57 Q2005.14 1376.2 2008.57 1372.47 Q2012.02 1368.72 2017.85 1368.72 Q2023.08 1368.72 2026.12 1372.1 Q2029.17 1375.46 2029.17 1381.25 M2024.91 1380 Q2024.87 1376.5 2022.94 1374.42 Q2021.05 1372.33 2017.9 1372.33 Q2014.33 1372.33 2012.18 1374.35 Q2010.05 1376.36 2009.73 1380.02 L2024.91 1380 Z" fill="#000000" fill-rule="evenodd" fill-opacity="1" /><path clip-path="url(#clip100)" d="M 0 0 M2048.66 1373.33 Q2047.94 1372.91 2047.09 1372.73 Q2046.25 1372.52 2045.24 1372.52 Q2041.63 1372.52 2039.68 1374.88 Q2037.76 1377.22 2037.76 1381.62 L2037.76 1395.27 L2033.48 1395.27 L2033.48 1369.35 L2037.76 1369.35 L2037.76 1373.38 Q2039.1 1371.02 2041.25 1369.88 Q2043.41 1368.72 2046.49 1368.72 Q2046.93 1368.72 2047.46 1368.79 Q2047.99 1368.84 2048.64 1368.96 L2048.66 1373.33 Z" fill="#000000" fill-rule="evenodd" fill-opacity="1" /><path clip-path="url(#clip100)" d="M 0 0 M2053.13 1369.35 L2057.39 1369.35 L2057.39 1395.27 L2053.13 1395.27 L2053.13 1369.35 M2053.13 1359.26 L2057.39 1359.26 L2057.39 1364.65 L2053.13 1364.65 L2053.13 1359.26 Z" fill="#000000" fill-rule="evenodd" fill-opacity="1" /><path clip-path="url(#clip100)" d="M 0 0 M2058.8 1369.35 L2063.31 1369.35 L2071.42 1391.11 L2079.52 1369.35 L2084.03 1369.35 L2074.31 1395.27 L2068.52 1395.27 L2058.8 1369.35 Z" fill="#000000" fill-rule="evenodd" fill-opacity="1" /><path clip-path="url(#clip100)" d="M 0 0 M2100.28 1382.24 Q2095.12 1382.24 2093.13 1383.42 Q2091.14 1384.6 2091.14 1387.45 Q2091.14 1389.72 2092.62 1391.06 Q2094.12 1392.38 2096.69 1392.38 Q2100.24 1392.38 2102.37 1389.88 Q2104.52 1387.36 2104.52 1383.19 L2104.52 1382.24 L2100.28 1382.24 M2108.78 1380.48 L2108.78 1395.27 L2104.52 1395.27 L2104.52 1391.34 Q2103.06 1393.7 2100.88 1394.83 Q2098.71 1395.95 2095.56 1395.95 Q2091.58 1395.95 2089.22 1393.72 Q2086.88 1391.48 2086.88 1387.73 Q2086.88 1383.35 2089.8 1381.13 Q2092.74 1378.91 2098.55 1378.91 L2104.52 1378.91 L2104.52 1378.49 Q2104.52 1375.55 2102.57 1373.96 Q2100.65 1372.33 2097.16 1372.33 Q2094.94 1372.33 2092.83 1372.87 Q2090.72 1373.4 2088.78 1374.46 L2088.78 1370.53 Q2091.12 1369.63 2093.31 1369.19 Q2095.51 1368.72 2097.6 1368.72 Q2103.22 1368.72 2106 1371.64 Q2108.78 1374.56 2108.78 1380.48 Z" fill="#000000" fill-rule="evenodd" fill-opacity="1" /><path clip-path="url(#clip100)" d="M 0 0 M2117.46 1361.99 L2117.46 1369.35 L2126.23 1369.35 L2126.23 1372.66 L2117.46 1372.66 L2117.46 1386.73 Q2117.46 1389.9 2118.31 1390.81 Q2119.19 1391.71 2121.86 1391.71 L2126.23 1391.71 L2126.23 1395.27 L2121.86 1395.27 Q2116.93 1395.27 2115.05 1393.45 Q2113.18 1391.59 2113.18 1386.73 L2113.18 1372.66 L2110.05 1372.66 L2110.05 1369.35 L2113.18 1369.35 L2113.18 1361.99 L2117.46 1361.99 Z" fill="#000000" fill-rule="evenodd" fill-opacity="1" /><path clip-path="url(#clip100)" d="M 0 0 M2130.7 1369.35 L2134.96 1369.35 L2134.96 1395.27 L2130.7 1395.27 L2130.7 1369.35 M2130.7 1359.26 L2134.96 1359.26 L2134.96 1364.65 L2130.7 1364.65 L2130.7 1359.26 Z" fill="#000000" fill-rule="evenodd" fill-opacity="1" /><path clip-path="url(#clip100)" d="M 0 0 M2136.37 1369.35 L2140.88 1369.35 L2148.99 1391.11 L2157.09 1369.35 L2161.6 1369.35 L2151.88 1395.27 L2146.09 1395.27 L2136.37 1369.35 Z" fill="#000000" fill-rule="evenodd" fill-opacity="1" /><path clip-path="url(#clip100)" d="M 0 0 M2188.24 1381.25 L2188.24 1383.33 L2168.66 1383.33 Q2168.94 1387.73 2171.3 1390.04 Q2173.68 1392.33 2177.92 1392.33 Q2180.37 1392.33 2182.67 1391.73 Q2184.98 1391.13 2187.25 1389.93 L2187.25 1393.95 Q2184.96 1394.93 2182.55 1395.44 Q2180.14 1395.95 2177.67 1395.95 Q2171.46 1395.95 2167.83 1392.33 Q2164.22 1388.72 2164.22 1382.57 Q2164.22 1376.2 2167.64 1372.47 Q2171.09 1368.72 2176.93 1368.72 Q2182.16 1368.72 2185.19 1372.1 Q2188.24 1375.46 2188.24 1381.25 M2183.99 1380 Q2183.94 1376.5 2182.02 1374.42 Q2180.12 1372.33 2176.97 1372.33 Q2173.41 1372.33 2171.25 1374.35 Q2169.12 1376.36 2168.8 1380.02 L2183.99 1380 Z" fill="#000000" fill-rule="evenodd" fill-opacity="1" /><path clip-path="url(#clip100)" d="M 0 0 M2212.41 1391.34 L2228.73 1391.34 L2228.73 1395.27 L2206.79 1395.27 L2206.79 1391.34 Q2209.45 1388.58 2214.03 1383.96 Q2218.64 1379.3 2219.82 1377.96 Q2222.06 1375.44 2222.94 1373.7 Q2223.85 1371.94 2223.85 1370.25 Q2223.85 1367.5 2221.9 1365.76 Q2219.98 1364.02 2216.88 1364.02 Q2214.68 1364.02 2212.23 1364.79 Q2209.8 1365.55 2207.02 1367.1 L2207.02 1362.38 Q2209.84 1361.25 2212.3 1360.67 Q2214.75 1360.09 2216.79 1360.09 Q2222.16 1360.09 2225.35 1362.77 Q2228.55 1365.46 2228.55 1369.95 Q2228.55 1372.08 2227.74 1374 Q2226.95 1375.9 2224.84 1378.49 Q2224.26 1379.16 2221.16 1382.38 Q2218.06 1385.58 2212.41 1391.34 Z" fill="#000000" fill-rule="evenodd" fill-opacity="1" /></svg>
