<?xml version="1.0" encoding="utf-8"?>
<svg xmlns="http://www.w3.org/2000/svg" xmlns:xlink="http://www.w3.org/1999/xlink" width="600" height="400" viewBox="0 0 2400 1600">
<defs>
  <clipPath id="clip310">
    <rect x="0" y="0" width="2400" height="1600"/>
  </clipPath>
</defs>
<path clip-path="url(#clip310)" d="
M0 1600 L2400 1600 L2400 0 L0 0  Z
  " fill="#ffffff" fill-rule="evenodd" fill-opacity="1"/>
<defs>
  <clipPath id="clip311">
    <rect x="480" y="0" width="1681" height="1600"/>
  </clipPath>
</defs>
<path clip-path="url(#clip310)" d="
M247.408 1486.45 L2352.76 1486.45 L2352.76 47.2441 L247.408 47.2441  Z
  " fill="#ffffff" fill-rule="evenodd" fill-opacity="1"/>
<defs>
  <clipPath id="clip312">
    <rect x="247" y="47" width="2106" height="1440"/>
  </clipPath>
</defs>
<polyline clip-path="url(#clip312)" style="stroke:#000000; stroke-width:2; stroke-opacity:0.1; fill:none" points="
  306.993,1486.45 306.993,47.2441 
  "/>
<polyline clip-path="url(#clip312)" style="stroke:#000000; stroke-width:2; stroke-opacity:0.1; fill:none" points="
  969.052,1486.45 969.052,47.2441 
  "/>
<polyline clip-path="url(#clip312)" style="stroke:#000000; stroke-width:2; stroke-opacity:0.1; fill:none" points="
  1631.11,1486.45 1631.11,47.2441 
  "/>
<polyline clip-path="url(#clip312)" style="stroke:#000000; stroke-width:2; stroke-opacity:0.1; fill:none" points="
  2293.17,1486.45 2293.17,47.2441 
  "/>
<polyline clip-path="url(#clip312)" style="stroke:#000000; stroke-width:2; stroke-opacity:0.1; fill:none" points="
  247.408,1399.81 2352.76,1399.81 
  "/>
<polyline clip-path="url(#clip312)" style="stroke:#000000; stroke-width:2; stroke-opacity:0.1; fill:none" points="
  247.408,1164.75 2352.76,1164.75 
  "/>
<polyline clip-path="url(#clip312)" style="stroke:#000000; stroke-width:2; stroke-opacity:0.1; fill:none" points="
  247.408,929.692 2352.76,929.692 
  "/>
<polyline clip-path="url(#clip312)" style="stroke:#000000; stroke-width:2; stroke-opacity:0.1; fill:none" points="
  247.408,694.631 2352.76,694.631 
  "/>
<polyline clip-path="url(#clip312)" style="stroke:#000000; stroke-width:2; stroke-opacity:0.1; fill:none" points="
  247.408,459.569 2352.76,459.569 
  "/>
<polyline clip-path="url(#clip312)" style="stroke:#000000; stroke-width:2; stroke-opacity:0.1; fill:none" points="
  247.408,224.508 2352.76,224.508 
  "/>
<polyline clip-path="url(#clip310)" style="stroke:#000000; stroke-width:4; stroke-opacity:1; fill:none" points="
  247.408,1486.45 2352.76,1486.45 
  "/>
<polyline clip-path="url(#clip310)" style="stroke:#000000; stroke-width:4; stroke-opacity:1; fill:none" points="
  247.408,1486.45 247.408,47.2441 
  "/>
<polyline clip-path="url(#clip310)" style="stroke:#000000; stroke-width:4; stroke-opacity:1; fill:none" points="
  306.993,1486.45 306.993,1469.18 
  "/>
<polyline clip-path="url(#clip310)" style="stroke:#000000; stroke-width:4; stroke-opacity:1; fill:none" points="
  969.052,1486.45 969.052,1469.18 
  "/>
<polyline clip-path="url(#clip310)" style="stroke:#000000; stroke-width:4; stroke-opacity:1; fill:none" points="
  1631.11,1486.45 1631.11,1469.18 
  "/>
<polyline clip-path="url(#clip310)" style="stroke:#000000; stroke-width:4; stroke-opacity:1; fill:none" points="
  2293.17,1486.45 2293.17,1469.18 
  "/>
<polyline clip-path="url(#clip310)" style="stroke:#000000; stroke-width:4; stroke-opacity:1; fill:none" points="
  247.408,1399.81 272.672,1399.81 
  "/>
<polyline clip-path="url(#clip310)" style="stroke:#000000; stroke-width:4; stroke-opacity:1; fill:none" points="
  247.408,1164.75 272.672,1164.75 
  "/>
<polyline clip-path="url(#clip310)" style="stroke:#000000; stroke-width:4; stroke-opacity:1; fill:none" points="
  247.408,929.692 272.672,929.692 
  "/>
<polyline clip-path="url(#clip310)" style="stroke:#000000; stroke-width:4; stroke-opacity:1; fill:none" points="
  247.408,694.631 272.672,694.631 
  "/>
<polyline clip-path="url(#clip310)" style="stroke:#000000; stroke-width:4; stroke-opacity:1; fill:none" points="
  247.408,459.569 272.672,459.569 
  "/>
<polyline clip-path="url(#clip310)" style="stroke:#000000; stroke-width:4; stroke-opacity:1; fill:none" points="
  247.408,224.508 272.672,224.508 
  "/>
<path clip-path="url(#clip310)" d="M 0 0 M306.993 1508.44 Q303.382 1508.44 301.553 1512 Q299.748 1515.55 299.748 1522.67 Q299.748 1529.78 301.553 1533.35 Q303.382 1536.89 306.993 1536.89 Q310.627 1536.89 312.433 1533.35 Q314.262 1529.78 314.262 1522.67 Q314.262 1515.55 312.433 1512 Q310.627 1508.44 306.993 1508.44 M306.993 1504.73 Q312.803 1504.73 315.859 1509.34 Q318.938 1513.92 318.938 1522.67 Q318.938 1531.4 315.859 1536.01 Q312.803 1540.59 306.993 1540.59 Q301.183 1540.59 298.104 1536.01 Q295.049 1531.4 295.049 1522.67 Q295.049 1513.92 298.104 1509.34 Q301.183 1504.73 306.993 1504.73 Z" fill="#000000" fill-rule="evenodd" fill-opacity="1" /><path clip-path="url(#clip310)" d="M 0 0 M959.434 1535.98 L967.073 1535.98 L967.073 1509.62 L958.763 1511.29 L958.763 1507.03 L967.027 1505.36 L971.703 1505.36 L971.703 1535.98 L979.342 1535.98 L979.342 1539.92 L959.434 1539.92 L959.434 1535.98 Z" fill="#000000" fill-rule="evenodd" fill-opacity="1" /><path clip-path="url(#clip310)" d="M 0 0 M1625.76 1535.98 L1642.08 1535.98 L1642.08 1539.92 L1620.14 1539.92 L1620.14 1535.98 Q1622.8 1533.23 1627.38 1528.6 Q1631.99 1523.95 1633.17 1522.61 Q1635.42 1520.08 1636.3 1518.35 Q1637.2 1516.59 1637.2 1514.9 Q1637.2 1512.14 1635.25 1510.41 Q1633.33 1508.67 1630.23 1508.67 Q1628.03 1508.67 1625.58 1509.43 Q1623.15 1510.2 1620.37 1511.75 L1620.37 1507.03 Q1623.19 1505.89 1625.65 1505.31 Q1628.1 1504.73 1630.14 1504.73 Q1635.51 1504.73 1638.7 1507.42 Q1641.9 1510.11 1641.9 1514.6 Q1641.9 1516.73 1641.09 1518.65 Q1640.3 1520.54 1638.19 1523.14 Q1637.62 1523.81 1634.51 1527.03 Q1631.41 1530.22 1625.76 1535.98 Z" fill="#000000" fill-rule="evenodd" fill-opacity="1" /><path clip-path="url(#clip310)" d="M 0 0 M2297.42 1521.29 Q2300.77 1522 2302.65 1524.27 Q2304.55 1526.54 2304.55 1529.87 Q2304.55 1534.99 2301.03 1537.79 Q2297.51 1540.59 2291.03 1540.59 Q2288.85 1540.59 2286.54 1540.15 Q2284.25 1539.73 2281.79 1538.88 L2281.79 1534.36 Q2283.74 1535.5 2286.05 1536.08 Q2288.37 1536.66 2290.89 1536.66 Q2295.29 1536.66 2297.58 1534.92 Q2299.9 1533.18 2299.9 1529.87 Q2299.9 1526.82 2297.74 1525.11 Q2295.61 1523.37 2291.79 1523.37 L2287.77 1523.37 L2287.77 1519.53 L2291.98 1519.53 Q2295.43 1519.53 2297.26 1518.16 Q2299.08 1516.77 2299.08 1514.18 Q2299.08 1511.52 2297.19 1510.11 Q2295.31 1508.67 2291.79 1508.67 Q2289.87 1508.67 2287.67 1509.09 Q2285.47 1509.5 2282.83 1510.38 L2282.83 1506.22 Q2285.5 1505.48 2287.81 1505.11 Q2290.15 1504.73 2292.21 1504.73 Q2297.53 1504.73 2300.64 1507.17 Q2303.74 1509.57 2303.74 1513.69 Q2303.74 1516.56 2302.09 1518.55 Q2300.45 1520.52 2297.42 1521.29 Z" fill="#000000" fill-rule="evenodd" fill-opacity="1" /><path clip-path="url(#clip310)" d="M 0 0 M104.66 1419.61 L112.299 1419.61 L112.299 1393.24 L103.989 1394.91 L103.989 1390.65 L112.253 1388.98 L116.928 1388.98 L116.928 1419.61 L124.567 1419.61 L124.567 1423.54 L104.66 1423.54 L104.66 1419.61 Z" fill="#000000" fill-rule="evenodd" fill-opacity="1" /><path clip-path="url(#clip310)" d="M 0 0 M139.637 1392.06 Q136.026 1392.06 134.197 1395.63 Q132.391 1399.17 132.391 1406.3 Q132.391 1413.4 134.197 1416.97 Q136.026 1420.51 139.637 1420.51 Q143.271 1420.51 145.076 1416.97 Q146.905 1413.4 146.905 1406.3 Q146.905 1399.17 145.076 1395.63 Q143.271 1392.06 139.637 1392.06 M139.637 1388.36 Q145.447 1388.36 148.502 1392.96 Q151.581 1397.55 151.581 1406.3 Q151.581 1415.02 148.502 1419.63 Q145.447 1424.21 139.637 1424.21 Q133.827 1424.21 130.748 1419.63 Q127.692 1415.02 127.692 1406.3 Q127.692 1397.55 130.748 1392.96 Q133.827 1388.36 139.637 1388.36 Z" fill="#000000" fill-rule="evenodd" fill-opacity="1" /><path clip-path="url(#clip310)" d="M 0 0 M151.581 1384.04 L161.718 1384.04 L161.718 1387.12 L151.581 1387.12 L151.581 1384.04 Z" fill="#000000" fill-rule="evenodd" fill-opacity="1" /><path clip-path="url(#clip310)" d="M 0 0 M188.388 1380.99 Q191.115 1381.57 192.638 1383.42 Q194.181 1385.26 194.181 1387.97 Q194.181 1392.13 191.322 1394.4 Q188.463 1396.68 183.197 1396.68 Q181.429 1396.68 179.548 1396.32 Q177.686 1395.98 175.693 1395.29 L175.693 1391.62 Q177.272 1392.54 179.153 1393.01 Q181.034 1393.48 183.084 1393.48 Q186.658 1393.48 188.52 1392.07 Q190.4 1390.66 190.4 1387.97 Q190.4 1385.49 188.651 1384.1 Q186.921 1382.68 183.818 1382.68 L180.545 1382.68 L180.545 1379.56 L183.968 1379.56 Q186.77 1379.56 188.256 1378.45 Q189.742 1377.32 189.742 1375.22 Q189.742 1373.05 188.2 1371.91 Q186.676 1370.74 183.818 1370.74 Q182.257 1370.74 180.47 1371.08 Q178.683 1371.42 176.539 1372.13 L176.539 1368.75 Q178.702 1368.15 180.583 1367.85 Q182.482 1367.54 184.156 1367.54 Q188.482 1367.54 191.002 1369.52 Q193.522 1371.48 193.522 1374.82 Q193.522 1377.16 192.187 1378.77 Q190.852 1380.37 188.388 1380.99 Z" fill="#000000" fill-rule="evenodd" fill-opacity="1" /><path clip-path="url(#clip310)" d="M 0 0 M198.3 1391.35 L202.268 1391.35 L202.268 1396.13 L198.3 1396.13 L198.3 1391.35 Z" fill="#000000" fill-rule="evenodd" fill-opacity="1" /><path clip-path="url(#clip310)" d="M 0 0 M206.425 1368.05 L221.339 1368.05 L221.339 1371.25 L209.904 1371.25 L209.904 1378.13 Q210.731 1377.85 211.559 1377.72 Q212.387 1377.57 213.214 1377.57 Q217.916 1377.57 220.662 1380.15 Q223.408 1382.72 223.408 1387.12 Q223.408 1391.66 220.587 1394.18 Q217.766 1396.68 212.631 1396.68 Q210.863 1396.68 209.02 1396.38 Q207.196 1396.08 205.24 1395.47 L205.24 1391.66 Q206.932 1392.58 208.738 1393.03 Q210.543 1393.48 212.556 1393.48 Q215.81 1393.48 217.709 1391.77 Q219.609 1390.06 219.609 1387.12 Q219.609 1384.19 217.709 1382.48 Q215.81 1380.77 212.556 1380.77 Q211.032 1380.77 209.509 1381.1 Q208.004 1381.44 206.425 1382.16 L206.425 1368.05 Z" fill="#000000" fill-rule="evenodd" fill-opacity="1" /><path clip-path="url(#clip310)" d="M 0 0 M103.851 1184.55 L111.49 1184.55 L111.49 1158.18 L103.18 1159.85 L103.18 1155.59 L111.444 1153.92 L116.12 1153.92 L116.12 1184.55 L123.759 1184.55 L123.759 1188.48 L103.851 1188.48 L103.851 1184.55 Z" fill="#000000" fill-rule="evenodd" fill-opacity="1" /><path clip-path="url(#clip310)" d="M 0 0 M138.828 1157 Q135.217 1157 133.388 1160.56 Q131.583 1164.11 131.583 1171.24 Q131.583 1178.34 133.388 1181.91 Q135.217 1185.45 138.828 1185.45 Q142.462 1185.45 144.268 1181.91 Q146.096 1178.34 146.096 1171.24 Q146.096 1164.11 144.268 1160.56 Q142.462 1157 138.828 1157 M138.828 1153.3 Q144.638 1153.3 147.694 1157.9 Q150.772 1162.49 150.772 1171.24 Q150.772 1179.96 147.694 1184.57 Q144.638 1189.15 138.828 1189.15 Q133.018 1189.15 129.939 1184.57 Q126.884 1179.96 126.884 1171.24 Q126.884 1162.49 129.939 1157.9 Q133.018 1153.3 138.828 1153.3 Z" fill="#000000" fill-rule="evenodd" fill-opacity="1" /><path clip-path="url(#clip310)" d="M 0 0 M150.772 1148.98 L160.91 1148.98 L160.91 1152.06 L150.772 1152.06 L150.772 1148.98 Z" fill="#000000" fill-rule="evenodd" fill-opacity="1" /><path clip-path="url(#clip310)" d="M 0 0 M187.579 1145.93 Q190.306 1146.51 191.83 1148.36 Q193.372 1150.2 193.372 1152.91 Q193.372 1157.06 190.513 1159.34 Q187.654 1161.62 182.388 1161.62 Q180.62 1161.62 178.739 1161.26 Q176.878 1160.92 174.884 1160.22 L174.884 1156.56 Q176.464 1157.48 178.345 1157.95 Q180.225 1158.42 182.275 1158.42 Q185.849 1158.42 187.711 1157.01 Q189.592 1155.6 189.592 1152.91 Q189.592 1150.43 187.842 1149.03 Q186.112 1147.62 183.009 1147.62 L179.736 1147.62 L179.736 1144.5 L183.159 1144.5 Q185.962 1144.5 187.447 1143.39 Q188.933 1142.26 188.933 1140.16 Q188.933 1137.99 187.391 1136.85 Q185.868 1135.68 183.009 1135.68 Q181.448 1135.68 179.661 1136.02 Q177.874 1136.36 175.73 1137.07 L175.73 1133.69 Q177.893 1133.08 179.774 1132.78 Q181.673 1132.48 183.347 1132.48 Q187.673 1132.48 190.193 1134.46 Q192.714 1136.41 192.714 1139.76 Q192.714 1142.09 191.378 1143.71 Q190.043 1145.31 187.579 1145.93 Z" fill="#000000" fill-rule="evenodd" fill-opacity="1" /><path clip-path="url(#clip310)" d="M 0 0 M197.491 1156.29 L201.459 1156.29 L201.459 1161.07 L197.491 1161.07 L197.491 1156.29 Z" fill="#000000" fill-rule="evenodd" fill-opacity="1" /><path clip-path="url(#clip310)" d="M 0 0 M213.703 1135.49 Q210.769 1135.49 209.283 1138.39 Q207.816 1141.27 207.816 1147.06 Q207.816 1152.83 209.283 1155.73 Q210.769 1158.61 213.703 1158.61 Q216.656 1158.61 218.123 1155.73 Q219.609 1152.83 219.609 1147.06 Q219.609 1141.27 218.123 1138.39 Q216.656 1135.49 213.703 1135.49 M213.703 1132.48 Q218.424 1132.48 220.906 1136.23 Q223.408 1139.95 223.408 1147.06 Q223.408 1154.15 220.906 1157.89 Q218.424 1161.62 213.703 1161.62 Q208.982 1161.62 206.481 1157.89 Q203.998 1154.15 203.998 1147.06 Q203.998 1139.95 206.481 1136.23 Q208.982 1132.48 213.703 1132.48 Z" fill="#000000" fill-rule="evenodd" fill-opacity="1" /><path clip-path="url(#clip310)" d="M 0 0 M105.318 949.485 L112.957 949.485 L112.957 923.119 L104.647 924.786 L104.647 920.526 L112.911 918.86 L117.587 918.86 L117.587 949.485 L125.226 949.485 L125.226 953.42 L105.318 953.42 L105.318 949.485 Z" fill="#000000" fill-rule="evenodd" fill-opacity="1" /><path clip-path="url(#clip310)" d="M 0 0 M140.295 921.938 Q136.684 921.938 134.855 925.503 Q133.05 929.045 133.05 936.174 Q133.05 943.281 134.855 946.846 Q136.684 950.387 140.295 950.387 Q143.929 950.387 145.735 946.846 Q147.563 943.281 147.563 936.174 Q147.563 929.045 145.735 925.503 Q143.929 921.938 140.295 921.938 M140.295 918.235 Q146.105 918.235 149.161 922.841 Q152.239 927.424 152.239 936.174 Q152.239 944.901 149.161 949.508 Q146.105 954.091 140.295 954.091 Q134.485 954.091 131.406 949.508 Q128.351 944.901 128.351 936.174 Q128.351 927.424 131.406 922.841 Q134.485 918.235 140.295 918.235 Z" fill="#000000" fill-rule="evenodd" fill-opacity="1" /><path clip-path="url(#clip310)" d="M 0 0 M152.239 913.916 L162.377 913.916 L162.377 917 L152.239 917 L152.239 913.916 Z" fill="#000000" fill-rule="evenodd" fill-opacity="1" /><path clip-path="url(#clip310)" d="M 0 0 M180.921 922.812 L194.181 922.812 L194.181 926.009 L176.351 926.009 L176.351 922.812 Q178.514 920.574 182.238 916.812 Q185.98 913.032 186.94 911.941 Q188.764 909.891 189.479 908.48 Q190.212 907.051 190.212 905.678 Q190.212 903.44 188.632 902.029 Q187.071 900.619 184.551 900.619 Q182.764 900.619 180.771 901.239 Q178.796 901.86 176.539 903.12 L176.539 899.283 Q178.834 898.362 180.827 897.892 Q182.821 897.421 184.476 897.421 Q188.839 897.421 191.435 899.603 Q194.03 901.785 194.03 905.434 Q194.03 907.164 193.372 908.725 Q192.732 910.267 191.021 912.374 Q190.551 912.919 188.031 915.533 Q185.51 918.129 180.921 922.812 Z" fill="#000000" fill-rule="evenodd" fill-opacity="1" /><path clip-path="url(#clip310)" d="M 0 0 M198.3 921.232 L202.268 921.232 L202.268 926.009 L198.3 926.009 L198.3 921.232 Z" fill="#000000" fill-rule="evenodd" fill-opacity="1" /><path clip-path="url(#clip310)" d="M 0 0 M206.425 897.929 L221.339 897.929 L221.339 901.127 L209.904 901.127 L209.904 908.01 Q210.731 907.728 211.559 907.596 Q212.387 907.446 213.214 907.446 Q217.916 907.446 220.662 910.023 Q223.408 912.599 223.408 917 Q223.408 921.533 220.587 924.053 Q217.766 926.555 212.631 926.555 Q210.863 926.555 209.02 926.254 Q207.196 925.953 205.24 925.351 L205.24 921.533 Q206.932 922.455 208.738 922.906 Q210.543 923.357 212.556 923.357 Q215.81 923.357 217.709 921.646 Q219.609 919.934 219.609 917 Q219.609 914.066 217.709 912.355 Q215.81 910.643 212.556 910.643 Q211.032 910.643 209.509 910.982 Q208.004 911.32 206.425 912.035 L206.425 897.929 Z" fill="#000000" fill-rule="evenodd" fill-opacity="1" /><path clip-path="url(#clip310)" d="M 0 0 M104.51 714.423 L112.148 714.423 L112.148 688.058 L103.838 689.724 L103.838 685.465 L112.102 683.798 L116.778 683.798 L116.778 714.423 L124.417 714.423 L124.417 718.358 L104.51 718.358 L104.51 714.423 Z" fill="#000000" fill-rule="evenodd" fill-opacity="1" /><path clip-path="url(#clip310)" d="M 0 0 M139.486 686.877 Q135.875 686.877 134.046 690.442 Q132.241 693.983 132.241 701.113 Q132.241 708.219 134.046 711.784 Q135.875 715.326 139.486 715.326 Q143.12 715.326 144.926 711.784 Q146.755 708.219 146.755 701.113 Q146.755 693.983 144.926 690.442 Q143.12 686.877 139.486 686.877 M139.486 683.173 Q145.296 683.173 148.352 687.78 Q151.431 692.363 151.431 701.113 Q151.431 709.84 148.352 714.446 Q145.296 719.03 139.486 719.03 Q133.676 719.03 130.597 714.446 Q127.542 709.84 127.542 701.113 Q127.542 692.363 130.597 687.78 Q133.676 683.173 139.486 683.173 Z" fill="#000000" fill-rule="evenodd" fill-opacity="1" /><path clip-path="url(#clip310)" d="M 0 0 M151.431 678.854 L161.568 678.854 L161.568 681.939 L151.431 681.939 L151.431 678.854 Z" fill="#000000" fill-rule="evenodd" fill-opacity="1" /><path clip-path="url(#clip310)" d="M 0 0 M180.112 687.751 L193.372 687.751 L193.372 690.948 L175.542 690.948 L175.542 687.751 Q177.705 685.512 181.429 681.751 Q185.172 677.971 186.131 676.88 Q187.955 674.83 188.67 673.419 Q189.403 671.99 189.403 670.617 Q189.403 668.379 187.824 666.968 Q186.263 665.557 183.742 665.557 Q181.956 665.557 179.962 666.178 Q177.987 666.799 175.73 668.059 L175.73 664.222 Q178.025 663.3 180.018 662.83 Q182.012 662.36 183.667 662.36 Q188.031 662.36 190.626 664.542 Q193.221 666.723 193.221 670.372 Q193.221 672.102 192.563 673.664 Q191.924 675.206 190.212 677.312 Q189.742 677.858 187.222 680.472 Q184.702 683.067 180.112 687.751 Z" fill="#000000" fill-rule="evenodd" fill-opacity="1" /><path clip-path="url(#clip310)" d="M 0 0 M197.491 686.171 L201.459 686.171 L201.459 690.948 L197.491 690.948 L197.491 686.171 Z" fill="#000000" fill-rule="evenodd" fill-opacity="1" /><path clip-path="url(#clip310)" d="M 0 0 M213.703 665.369 Q210.769 665.369 209.283 668.266 Q207.816 671.143 207.816 676.936 Q207.816 682.71 209.283 685.606 Q210.769 688.484 213.703 688.484 Q216.656 688.484 218.123 685.606 Q219.609 682.71 219.609 676.936 Q219.609 671.143 218.123 668.266 Q216.656 665.369 213.703 665.369 M213.703 662.36 Q218.424 662.36 220.906 666.103 Q223.408 669.827 223.408 676.936 Q223.408 684.027 220.906 687.769 Q218.424 691.493 213.703 691.493 Q208.982 691.493 206.481 687.769 Q203.998 684.027 203.998 676.936 Q203.998 669.827 206.481 666.103 Q208.982 662.36 213.703 662.36 Z" fill="#000000" fill-rule="evenodd" fill-opacity="1" /><path clip-path="url(#clip310)" d="M 0 0 M106.428 479.362 L114.067 479.362 L114.067 452.996 L105.757 454.663 L105.757 450.404 L114.02 448.737 L118.696 448.737 L118.696 479.362 L126.335 479.362 L126.335 483.297 L106.428 483.297 L106.428 479.362 Z" fill="#000000" fill-rule="evenodd" fill-opacity="1" /><path clip-path="url(#clip310)" d="M 0 0 M141.405 451.816 Q137.794 451.816 135.965 455.38 Q134.159 458.922 134.159 466.052 Q134.159 473.158 135.965 476.723 Q137.794 480.264 141.405 480.264 Q145.039 480.264 146.844 476.723 Q148.673 473.158 148.673 466.052 Q148.673 458.922 146.844 455.38 Q145.039 451.816 141.405 451.816 M141.405 448.112 Q147.215 448.112 150.27 452.718 Q153.349 457.302 153.349 466.052 Q153.349 474.778 150.27 479.385 Q147.215 483.968 141.405 483.968 Q135.594 483.968 132.516 479.385 Q129.46 474.778 129.46 466.052 Q129.46 457.302 132.516 452.718 Q135.594 448.112 141.405 448.112 Z" fill="#000000" fill-rule="evenodd" fill-opacity="1" /><path clip-path="url(#clip310)" d="M 0 0 M153.349 443.793 L163.486 443.793 L163.486 446.878 L153.349 446.878 L153.349 443.793 Z" fill="#000000" fill-rule="evenodd" fill-opacity="1" /><path clip-path="url(#clip310)" d="M 0 0 M178.006 452.689 L184.213 452.689 L184.213 431.267 L177.461 432.621 L177.461 429.161 L184.175 427.806 L187.974 427.806 L187.974 452.689 L194.181 452.689 L194.181 455.886 L178.006 455.886 L178.006 452.689 Z" fill="#000000" fill-rule="evenodd" fill-opacity="1" /><path clip-path="url(#clip310)" d="M 0 0 M198.3 451.109 L202.268 451.109 L202.268 455.886 L198.3 455.886 L198.3 451.109 Z" fill="#000000" fill-rule="evenodd" fill-opacity="1" /><path clip-path="url(#clip310)" d="M 0 0 M206.425 427.806 L221.339 427.806 L221.339 431.004 L209.904 431.004 L209.904 437.887 Q210.731 437.605 211.559 437.474 Q212.387 437.323 213.214 437.323 Q217.916 437.323 220.662 439.9 Q223.408 442.477 223.408 446.878 Q223.408 451.41 220.587 453.93 Q217.766 456.432 212.631 456.432 Q210.863 456.432 209.02 456.131 Q207.196 455.83 205.24 455.228 L205.24 451.41 Q206.932 452.332 208.738 452.783 Q210.543 453.235 212.556 453.235 Q215.81 453.235 217.709 451.523 Q219.609 449.812 219.609 446.878 Q219.609 443.944 217.709 442.232 Q215.81 440.521 212.556 440.521 Q211.032 440.521 209.509 440.859 Q208.004 441.198 206.425 441.912 L206.425 427.806 Z" fill="#000000" fill-rule="evenodd" fill-opacity="1" /><path clip-path="url(#clip310)" d="M 0 0 M105.619 244.3 L113.258 244.3 L113.258 217.935 L104.948 219.601 L104.948 215.342 L113.212 213.675 L117.888 213.675 L117.888 244.3 L125.527 244.3 L125.527 248.235 L105.619 248.235 L105.619 244.3 Z" fill="#000000" fill-rule="evenodd" fill-opacity="1" /><path clip-path="url(#clip310)" d="M 0 0 M140.596 216.754 Q136.985 216.754 135.156 220.319 Q133.351 223.861 133.351 230.99 Q133.351 238.097 135.156 241.661 Q136.985 245.203 140.596 245.203 Q144.23 245.203 146.036 241.661 Q147.864 238.097 147.864 230.99 Q147.864 223.861 146.036 220.319 Q144.23 216.754 140.596 216.754 M140.596 213.05 Q146.406 213.05 149.462 217.657 Q152.54 222.24 152.54 230.99 Q152.54 239.717 149.462 244.323 Q146.406 248.907 140.596 248.907 Q134.786 248.907 131.707 244.323 Q128.651 239.717 128.651 230.99 Q128.651 222.24 131.707 217.657 Q134.786 213.05 140.596 213.05 Z" fill="#000000" fill-rule="evenodd" fill-opacity="1" /><path clip-path="url(#clip310)" d="M 0 0 M152.54 208.732 L162.678 208.732 L162.678 211.816 L152.54 211.816 L152.54 208.732 Z" fill="#000000" fill-rule="evenodd" fill-opacity="1" /><path clip-path="url(#clip310)" d="M 0 0 M177.197 217.628 L183.404 217.628 L183.404 196.206 L176.652 197.56 L176.652 194.099 L183.366 192.745 L187.165 192.745 L187.165 217.628 L193.372 217.628 L193.372 220.825 L177.197 220.825 L177.197 217.628 Z" fill="#000000" fill-rule="evenodd" fill-opacity="1" /><path clip-path="url(#clip310)" d="M 0 0 M197.491 216.048 L201.459 216.048 L201.459 220.825 L197.491 220.825 L197.491 216.048 Z" fill="#000000" fill-rule="evenodd" fill-opacity="1" /><path clip-path="url(#clip310)" d="M 0 0 M213.703 195.247 Q210.769 195.247 209.283 198.143 Q207.816 201.02 207.816 206.813 Q207.816 212.587 209.283 215.484 Q210.769 218.361 213.703 218.361 Q216.656 218.361 218.123 215.484 Q219.609 212.587 219.609 206.813 Q219.609 201.02 218.123 198.143 Q216.656 195.247 213.703 195.247 M213.703 192.237 Q218.424 192.237 220.906 195.98 Q223.408 199.704 223.408 206.813 Q223.408 213.904 220.906 217.647 Q218.424 221.37 213.703 221.37 Q208.982 221.37 206.481 217.647 Q203.998 213.904 203.998 206.813 Q203.998 199.704 206.481 195.98 Q208.982 192.237 213.703 192.237 Z" fill="#000000" fill-rule="evenodd" fill-opacity="1" /><circle clip-path="url(#clip312)" cx="306.993" cy="100.723" r="14" fill="#009af9" fill-rule="evenodd" fill-opacity="1" stroke="#000000" stroke-opacity="1" stroke-width="3.2"/>
<circle clip-path="url(#clip312)" cx="373.199" cy="644.73" r="14" fill="#009af9" fill-rule="evenodd" fill-opacity="1" stroke="#000000" stroke-opacity="1" stroke-width="3.2"/>
<circle clip-path="url(#clip312)" cx="439.405" cy="365.447" r="14" fill="#009af9" fill-rule="evenodd" fill-opacity="1" stroke="#000000" stroke-opacity="1" stroke-width="3.2"/>
<circle clip-path="url(#clip312)" cx="505.611" cy="441.113" r="14" fill="#009af9" fill-rule="evenodd" fill-opacity="1" stroke="#000000" stroke-opacity="1" stroke-width="3.2"/>
<circle clip-path="url(#clip312)" cx="571.817" cy="739.492" r="14" fill="#009af9" fill-rule="evenodd" fill-opacity="1" stroke="#000000" stroke-opacity="1" stroke-width="3.2"/>
<circle clip-path="url(#clip312)" cx="638.023" cy="707.154" r="14" fill="#009af9" fill-rule="evenodd" fill-opacity="1" stroke="#000000" stroke-opacity="1" stroke-width="3.2"/>
<circle clip-path="url(#clip312)" cx="704.229" cy="602.308" r="14" fill="#009af9" fill-rule="evenodd" fill-opacity="1" stroke="#000000" stroke-opacity="1" stroke-width="3.2"/>
<circle clip-path="url(#clip312)" cx="770.435" cy="622.913" r="14" fill="#009af9" fill-rule="evenodd" fill-opacity="1" stroke="#000000" stroke-opacity="1" stroke-width="3.2"/>
<circle clip-path="url(#clip312)" cx="836.641" cy="700.456" r="14" fill="#009af9" fill-rule="evenodd" fill-opacity="1" stroke="#000000" stroke-opacity="1" stroke-width="3.2"/>
<circle clip-path="url(#clip312)" cx="902.846" cy="852.231" r="14" fill="#009af9" fill-rule="evenodd" fill-opacity="1" stroke="#000000" stroke-opacity="1" stroke-width="3.2"/>
<circle clip-path="url(#clip312)" cx="969.052" cy="1419.35" r="14" fill="#009af9" fill-rule="evenodd" fill-opacity="1" stroke="#000000" stroke-opacity="1" stroke-width="3.2"/>
<circle clip-path="url(#clip312)" cx="1035.26" cy="903.598" r="14" fill="#009af9" fill-rule="evenodd" fill-opacity="1" stroke="#000000" stroke-opacity="1" stroke-width="3.2"/>
<circle clip-path="url(#clip312)" cx="1101.46" cy="823.699" r="14" fill="#009af9" fill-rule="evenodd" fill-opacity="1" stroke="#000000" stroke-opacity="1" stroke-width="3.2"/>
<circle clip-path="url(#clip312)" cx="1167.67" cy="796.91" r="14" fill="#009af9" fill-rule="evenodd" fill-opacity="1" stroke="#000000" stroke-opacity="1" stroke-width="3.2"/>
<circle clip-path="url(#clip312)" cx="1233.88" cy="791.833" r="14" fill="#009af9" fill-rule="evenodd" fill-opacity="1" stroke="#000000" stroke-opacity="1" stroke-width="3.2"/>
<circle clip-path="url(#clip312)" cx="1300.08" cy="807.247" r="14" fill="#009af9" fill-rule="evenodd" fill-opacity="1" stroke="#000000" stroke-opacity="1" stroke-width="3.2"/>
<circle clip-path="url(#clip312)" cx="1366.29" cy="839.045" r="14" fill="#009af9" fill-rule="evenodd" fill-opacity="1" stroke="#000000" stroke-opacity="1" stroke-width="3.2"/>
<circle clip-path="url(#clip312)" cx="1432.49" cy="896.758" r="14" fill="#009af9" fill-rule="evenodd" fill-opacity="1" stroke="#000000" stroke-opacity="1" stroke-width="3.2"/>
<circle clip-path="url(#clip312)" cx="1498.7" cy="994.631" r="14" fill="#009af9" fill-rule="evenodd" fill-opacity="1" stroke="#000000" stroke-opacity="1" stroke-width="3.2"/>
<circle clip-path="url(#clip312)" cx="1564.91" cy="1182.86" r="14" fill="#009af9" fill-rule="evenodd" fill-opacity="1" stroke="#000000" stroke-opacity="1" stroke-width="3.2"/>
<circle clip-path="url(#clip312)" cx="1631.11" cy="1189.05" r="14" fill="#009af9" fill-rule="evenodd" fill-opacity="1" stroke="#000000" stroke-opacity="1" stroke-width="3.2"/>
<circle clip-path="url(#clip312)" cx="1697.32" cy="1002.29" r="14" fill="#009af9" fill-rule="evenodd" fill-opacity="1" stroke="#000000" stroke-opacity="1" stroke-width="3.2"/>
<circle clip-path="url(#clip312)" cx="1763.52" cy="885.384" r="14" fill="#009af9" fill-rule="evenodd" fill-opacity="1" stroke="#000000" stroke-opacity="1" stroke-width="3.2"/>
<circle clip-path="url(#clip312)" cx="1829.73" cy="829.966" r="14" fill="#009af9" fill-rule="evenodd" fill-opacity="1" stroke="#000000" stroke-opacity="1" stroke-width="3.2"/>
<circle clip-path="url(#clip312)" cx="1895.94" cy="806.407" r="14" fill="#009af9" fill-rule="evenodd" fill-opacity="1" stroke="#000000" stroke-opacity="1" stroke-width="3.2"/>
<circle clip-path="url(#clip312)" cx="1962.14" cy="817.955" r="14" fill="#009af9" fill-rule="evenodd" fill-opacity="1" stroke="#000000" stroke-opacity="1" stroke-width="3.2"/>
<circle clip-path="url(#clip312)" cx="2028.35" cy="972.406" r="14" fill="#009af9" fill-rule="evenodd" fill-opacity="1" stroke="#000000" stroke-opacity="1" stroke-width="3.2"/>
<circle clip-path="url(#clip312)" cx="2094.55" cy="956.594" r="14" fill="#009af9" fill-rule="evenodd" fill-opacity="1" stroke="#000000" stroke-opacity="1" stroke-width="3.2"/>
<circle clip-path="url(#clip312)" cx="2160.76" cy="641.38" r="14" fill="#009af9" fill-rule="evenodd" fill-opacity="1" stroke="#000000" stroke-opacity="1" stroke-width="3.2"/>
<circle clip-path="url(#clip312)" cx="2226.96" cy="471.66" r="14" fill="#009af9" fill-rule="evenodd" fill-opacity="1" stroke="#000000" stroke-opacity="1" stroke-width="3.2"/>
<circle clip-path="url(#clip312)" cx="2293.17" cy="347.303" r="14" fill="#009af9" fill-rule="evenodd" fill-opacity="1" stroke="#000000" stroke-opacity="1" stroke-width="3.2"/>
<circle clip-path="url(#clip312)" cx="306.993" cy="87.9763" r="14" fill="#e26f46" fill-rule="evenodd" fill-opacity="1" stroke="#000000" stroke-opacity="1" stroke-width="3.2"/>
<circle clip-path="url(#clip312)" cx="373.199" cy="835.646" r="14" fill="#e26f46" fill-rule="evenodd" fill-opacity="1" stroke="#000000" stroke-opacity="1" stroke-width="3.2"/>
<circle clip-path="url(#clip312)" cx="439.405" cy="413.434" r="14" fill="#e26f46" fill-rule="evenodd" fill-opacity="1" stroke="#000000" stroke-opacity="1" stroke-width="3.2"/>
<circle clip-path="url(#clip312)" cx="505.611" cy="452.157" r="14" fill="#e26f46" fill-rule="evenodd" fill-opacity="1" stroke="#000000" stroke-opacity="1" stroke-width="3.2"/>
<circle clip-path="url(#clip312)" cx="571.817" cy="655.485" r="14" fill="#e26f46" fill-rule="evenodd" fill-opacity="1" stroke="#000000" stroke-opacity="1" stroke-width="3.2"/>
<circle clip-path="url(#clip312)" cx="638.023" cy="925.264" r="14" fill="#e26f46" fill-rule="evenodd" fill-opacity="1" stroke="#000000" stroke-opacity="1" stroke-width="3.2"/>
<circle clip-path="url(#clip312)" cx="704.229" cy="691.491" r="14" fill="#e26f46" fill-rule="evenodd" fill-opacity="1" stroke="#000000" stroke-opacity="1" stroke-width="3.2"/>
<circle clip-path="url(#clip312)" cx="770.435" cy="687.937" r="14" fill="#e26f46" fill-rule="evenodd" fill-opacity="1" stroke="#000000" stroke-opacity="1" stroke-width="3.2"/>
<circle clip-path="url(#clip312)" cx="836.641" cy="750.557" r="14" fill="#e26f46" fill-rule="evenodd" fill-opacity="1" stroke="#000000" stroke-opacity="1" stroke-width="3.2"/>
<circle clip-path="url(#clip312)" cx="902.846" cy="889.88" r="14" fill="#e26f46" fill-rule="evenodd" fill-opacity="1" stroke="#000000" stroke-opacity="1" stroke-width="3.2"/>
<circle clip-path="url(#clip312)" cx="969.052" cy="1294.09" r="14" fill="#e26f46" fill-rule="evenodd" fill-opacity="1" stroke="#000000" stroke-opacity="1" stroke-width="3.2"/>
<circle clip-path="url(#clip312)" cx="1035.26" cy="908.482" r="14" fill="#e26f46" fill-rule="evenodd" fill-opacity="1" stroke="#000000" stroke-opacity="1" stroke-width="3.2"/>
<circle clip-path="url(#clip312)" cx="1101.46" cy="839.546" r="14" fill="#e26f46" fill-rule="evenodd" fill-opacity="1" stroke="#000000" stroke-opacity="1" stroke-width="3.2"/>
<circle clip-path="url(#clip312)" cx="1167.67" cy="823.904" r="14" fill="#e26f46" fill-rule="evenodd" fill-opacity="1" stroke="#000000" stroke-opacity="1" stroke-width="3.2"/>
<circle clip-path="url(#clip312)" cx="1233.88" cy="835.524" r="14" fill="#e26f46" fill-rule="evenodd" fill-opacity="1" stroke="#000000" stroke-opacity="1" stroke-width="3.2"/>
<circle clip-path="url(#clip312)" cx="1300.08" cy="863.976" r="14" fill="#e26f46" fill-rule="evenodd" fill-opacity="1" stroke="#000000" stroke-opacity="1" stroke-width="3.2"/>
<circle clip-path="url(#clip312)" cx="1366.29" cy="934.998" r="14" fill="#e26f46" fill-rule="evenodd" fill-opacity="1" stroke="#000000" stroke-opacity="1" stroke-width="3.2"/>
<circle clip-path="url(#clip312)" cx="1432.49" cy="1050.58" r="14" fill="#e26f46" fill-rule="evenodd" fill-opacity="1" stroke="#000000" stroke-opacity="1" stroke-width="3.2"/>
<circle clip-path="url(#clip312)" cx="1498.7" cy="1445.72" r="14" fill="#e26f46" fill-rule="evenodd" fill-opacity="1" stroke="#000000" stroke-opacity="1" stroke-width="3.2"/>
<circle clip-path="url(#clip312)" cx="1564.91" cy="1181.79" r="14" fill="#e26f46" fill-rule="evenodd" fill-opacity="1" stroke="#000000" stroke-opacity="1" stroke-width="3.2"/>
<circle clip-path="url(#clip312)" cx="1631.11" cy="986.479" r="14" fill="#e26f46" fill-rule="evenodd" fill-opacity="1" stroke="#000000" stroke-opacity="1" stroke-width="3.2"/>
<circle clip-path="url(#clip312)" cx="1697.32" cy="935.862" r="14" fill="#e26f46" fill-rule="evenodd" fill-opacity="1" stroke="#000000" stroke-opacity="1" stroke-width="3.2"/>
<circle clip-path="url(#clip312)" cx="1763.52" cy="868.207" r="14" fill="#e26f46" fill-rule="evenodd" fill-opacity="1" stroke="#000000" stroke-opacity="1" stroke-width="3.2"/>
<circle clip-path="url(#clip312)" cx="1829.73" cy="840.007" r="14" fill="#e26f46" fill-rule="evenodd" fill-opacity="1" stroke="#000000" stroke-opacity="1" stroke-width="3.2"/>
<circle clip-path="url(#clip312)" cx="1895.94" cy="828.482" r="14" fill="#e26f46" fill-rule="evenodd" fill-opacity="1" stroke="#000000" stroke-opacity="1" stroke-width="3.2"/>
<circle clip-path="url(#clip312)" cx="1962.14" cy="834.826" r="14" fill="#e26f46" fill-rule="evenodd" fill-opacity="1" stroke="#000000" stroke-opacity="1" stroke-width="3.2"/>
<circle clip-path="url(#clip312)" cx="2028.35" cy="948.439" r="14" fill="#e26f46" fill-rule="evenodd" fill-opacity="1" stroke="#000000" stroke-opacity="1" stroke-width="3.2"/>
<circle clip-path="url(#clip312)" cx="2094.55" cy="1333.52" r="14" fill="#e26f46" fill-rule="evenodd" fill-opacity="1" stroke="#000000" stroke-opacity="1" stroke-width="3.2"/>
<circle clip-path="url(#clip312)" cx="2160.76" cy="766.208" r="14" fill="#e26f46" fill-rule="evenodd" fill-opacity="1" stroke="#000000" stroke-opacity="1" stroke-width="3.2"/>
<circle clip-path="url(#clip312)" cx="2226.96" cy="574.255" r="14" fill="#e26f46" fill-rule="evenodd" fill-opacity="1" stroke="#000000" stroke-opacity="1" stroke-width="3.2"/>
<circle clip-path="url(#clip312)" cx="2293.17" cy="443.562" r="14" fill="#e26f46" fill-rule="evenodd" fill-opacity="1" stroke="#000000" stroke-opacity="1" stroke-width="3.2"/>
<path clip-path="url(#clip310)" d="
M1997.63 276.658 L2282.58 276.658 L2282.58 95.2176 L1997.63 95.2176  Z
  " fill="#ffffff" fill-rule="evenodd" fill-opacity="1"/>
<polyline clip-path="url(#clip310)" style="stroke:#000000; stroke-width:4; stroke-opacity:1; fill:none" points="
  1997.63,276.658 2282.58,276.658 2282.58,95.2176 1997.63,95.2176 1997.63,276.658 
  "/>
<circle clip-path="url(#clip310)" cx="2091.2" cy="155.698" r="23" fill="#009af9" fill-rule="evenodd" fill-opacity="1" stroke="#000000" stroke-opacity="1" stroke-width="5.12"/>
<circle clip-path="url(#clip310)" cx="2091.2" cy="155.698" r="23" fill="#009af9" fill-rule="evenodd" fill-opacity="1" stroke="#000000" stroke-opacity="1" stroke-width="5.12"/>
<circle clip-path="url(#clip310)" cx="2091.2" cy="155.698" r="23" fill="#009af9" fill-rule="evenodd" fill-opacity="1" stroke="#000000" stroke-opacity="1" stroke-width="5.12"/>
<circle clip-path="url(#clip310)" cx="2091.2" cy="155.698" r="23" fill="#009af9" fill-rule="evenodd" fill-opacity="1" stroke="#000000" stroke-opacity="1" stroke-width="5.12"/>
<circle clip-path="url(#clip310)" cx="2091.2" cy="155.698" r="23" fill="#009af9" fill-rule="evenodd" fill-opacity="1" stroke="#000000" stroke-opacity="1" stroke-width="5.12"/>
<circle clip-path="url(#clip310)" cx="2091.2" cy="155.698" r="23" fill="#009af9" fill-rule="evenodd" fill-opacity="1" stroke="#000000" stroke-opacity="1" stroke-width="5.12"/>
<circle clip-path="url(#clip310)" cx="2091.2" cy="155.698" r="23" fill="#009af9" fill-rule="evenodd" fill-opacity="1" stroke="#000000" stroke-opacity="1" stroke-width="5.12"/>
<circle clip-path="url(#clip310)" cx="2091.2" cy="155.698" r="23" fill="#009af9" fill-rule="evenodd" fill-opacity="1" stroke="#000000" stroke-opacity="1" stroke-width="5.12"/>
<circle clip-path="url(#clip310)" cx="2091.2" cy="155.698" r="23" fill="#009af9" fill-rule="evenodd" fill-opacity="1" stroke="#000000" stroke-opacity="1" stroke-width="5.12"/>
<circle clip-path="url(#clip310)" cx="2091.2" cy="155.698" r="23" fill="#009af9" fill-rule="evenodd" fill-opacity="1" stroke="#000000" stroke-opacity="1" stroke-width="5.12"/>
<circle clip-path="url(#clip310)" cx="2091.2" cy="155.698" r="23" fill="#009af9" fill-rule="evenodd" fill-opacity="1" stroke="#000000" stroke-opacity="1" stroke-width="5.12"/>
<circle clip-path="url(#clip310)" cx="2091.2" cy="155.698" r="23" fill="#009af9" fill-rule="evenodd" fill-opacity="1" stroke="#000000" stroke-opacity="1" stroke-width="5.12"/>
<circle clip-path="url(#clip310)" cx="2091.2" cy="155.698" r="23" fill="#009af9" fill-rule="evenodd" fill-opacity="1" stroke="#000000" stroke-opacity="1" stroke-width="5.12"/>
<circle clip-path="url(#clip310)" cx="2091.2" cy="155.698" r="23" fill="#009af9" fill-rule="evenodd" fill-opacity="1" stroke="#000000" stroke-opacity="1" stroke-width="5.12"/>
<circle clip-path="url(#clip310)" cx="2091.2" cy="155.698" r="23" fill="#009af9" fill-rule="evenodd" fill-opacity="1" stroke="#000000" stroke-opacity="1" stroke-width="5.12"/>
<circle clip-path="url(#clip310)" cx="2091.2" cy="155.698" r="23" fill="#009af9" fill-rule="evenodd" fill-opacity="1" stroke="#000000" stroke-opacity="1" stroke-width="5.12"/>
<circle clip-path="url(#clip310)" cx="2091.2" cy="155.698" r="23" fill="#009af9" fill-rule="evenodd" fill-opacity="1" stroke="#000000" stroke-opacity="1" stroke-width="5.12"/>
<circle clip-path="url(#clip310)" cx="2091.2" cy="155.698" r="23" fill="#009af9" fill-rule="evenodd" fill-opacity="1" stroke="#000000" stroke-opacity="1" stroke-width="5.12"/>
<circle clip-path="url(#clip310)" cx="2091.2" cy="155.698" r="23" fill="#009af9" fill-rule="evenodd" fill-opacity="1" stroke="#000000" stroke-opacity="1" stroke-width="5.12"/>
<circle clip-path="url(#clip310)" cx="2091.2" cy="155.698" r="23" fill="#009af9" fill-rule="evenodd" fill-opacity="1" stroke="#000000" stroke-opacity="1" stroke-width="5.12"/>
<circle clip-path="url(#clip310)" cx="2091.2" cy="155.698" r="23" fill="#009af9" fill-rule="evenodd" fill-opacity="1" stroke="#000000" stroke-opacity="1" stroke-width="5.12"/>
<circle clip-path="url(#clip310)" cx="2091.2" cy="155.698" r="23" fill="#009af9" fill-rule="evenodd" fill-opacity="1" stroke="#000000" stroke-opacity="1" stroke-width="5.12"/>
<circle clip-path="url(#clip310)" cx="2091.2" cy="155.698" r="23" fill="#009af9" fill-rule="evenodd" fill-opacity="1" stroke="#000000" stroke-opacity="1" stroke-width="5.12"/>
<circle clip-path="url(#clip310)" cx="2091.2" cy="155.698" r="23" fill="#009af9" fill-rule="evenodd" fill-opacity="1" stroke="#000000" stroke-opacity="1" stroke-width="5.12"/>
<circle clip-path="url(#clip310)" cx="2091.2" cy="155.698" r="23" fill="#009af9" fill-rule="evenodd" fill-opacity="1" stroke="#000000" stroke-opacity="1" stroke-width="5.12"/>
<circle clip-path="url(#clip310)" cx="2091.2" cy="155.698" r="23" fill="#009af9" fill-rule="evenodd" fill-opacity="1" stroke="#000000" stroke-opacity="1" stroke-width="5.12"/>
<circle clip-path="url(#clip310)" cx="2091.2" cy="155.698" r="23" fill="#009af9" fill-rule="evenodd" fill-opacity="1" stroke="#000000" stroke-opacity="1" stroke-width="5.12"/>
<circle clip-path="url(#clip310)" cx="2091.2" cy="155.698" r="23" fill="#009af9" fill-rule="evenodd" fill-opacity="1" stroke="#000000" stroke-opacity="1" stroke-width="5.12"/>
<circle clip-path="url(#clip310)" cx="2091.2" cy="155.698" r="23" fill="#009af9" fill-rule="evenodd" fill-opacity="1" stroke="#000000" stroke-opacity="1" stroke-width="5.12"/>
<circle clip-path="url(#clip310)" cx="2091.2" cy="155.698" r="23" fill="#009af9" fill-rule="evenodd" fill-opacity="1" stroke="#000000" stroke-opacity="1" stroke-width="5.12"/>
<circle clip-path="url(#clip310)" cx="2091.2" cy="155.698" r="23" fill="#009af9" fill-rule="evenodd" fill-opacity="1" stroke="#000000" stroke-opacity="1" stroke-width="5.12"/>
<path clip-path="url(#clip310)" d="M 0 0 M2198.62 175.385 Q2196.81 180.015 2195.1 181.427 Q2193.38 182.839 2190.51 182.839 L2187.11 182.839 L2187.11 179.274 L2189.61 179.274 Q2191.37 179.274 2192.34 178.44 Q2193.32 177.607 2194.5 174.505 L2195.26 172.561 L2184.77 147.052 L2189.29 147.052 L2197.39 167.329 L2205.49 147.052 L2210.01 147.052 L2198.62 175.385 Z" fill="#000000" fill-rule="evenodd" fill-opacity="1" /><path clip-path="url(#clip310)" d="M 0 0 M2215.88 169.042 L2223.52 169.042 L2223.52 142.677 L2215.21 144.343 L2215.21 140.084 L2223.48 138.418 L2228.15 138.418 L2228.15 169.042 L2235.79 169.042 L2235.79 172.978 L2215.88 172.978 L2215.88 169.042 Z" fill="#000000" fill-rule="evenodd" fill-opacity="1" /><circle clip-path="url(#clip310)" cx="2091.2" cy="216.178" r="23" fill="#e26f46" fill-rule="evenodd" fill-opacity="1" stroke="#000000" stroke-opacity="1" stroke-width="5.12"/>
<circle clip-path="url(#clip310)" cx="2091.2" cy="216.178" r="23" fill="#e26f46" fill-rule="evenodd" fill-opacity="1" stroke="#000000" stroke-opacity="1" stroke-width="5.12"/>
<circle clip-path="url(#clip310)" cx="2091.2" cy="216.178" r="23" fill="#e26f46" fill-rule="evenodd" fill-opacity="1" stroke="#000000" stroke-opacity="1" stroke-width="5.12"/>
<circle clip-path="url(#clip310)" cx="2091.2" cy="216.178" r="23" fill="#e26f46" fill-rule="evenodd" fill-opacity="1" stroke="#000000" stroke-opacity="1" stroke-width="5.12"/>
<circle clip-path="url(#clip310)" cx="2091.2" cy="216.178" r="23" fill="#e26f46" fill-rule="evenodd" fill-opacity="1" stroke="#000000" stroke-opacity="1" stroke-width="5.12"/>
<circle clip-path="url(#clip310)" cx="2091.2" cy="216.178" r="23" fill="#e26f46" fill-rule="evenodd" fill-opacity="1" stroke="#000000" stroke-opacity="1" stroke-width="5.12"/>
<circle clip-path="url(#clip310)" cx="2091.2" cy="216.178" r="23" fill="#e26f46" fill-rule="evenodd" fill-opacity="1" stroke="#000000" stroke-opacity="1" stroke-width="5.12"/>
<circle clip-path="url(#clip310)" cx="2091.2" cy="216.178" r="23" fill="#e26f46" fill-rule="evenodd" fill-opacity="1" stroke="#000000" stroke-opacity="1" stroke-width="5.12"/>
<circle clip-path="url(#clip310)" cx="2091.2" cy="216.178" r="23" fill="#e26f46" fill-rule="evenodd" fill-opacity="1" stroke="#000000" stroke-opacity="1" stroke-width="5.12"/>
<circle clip-path="url(#clip310)" cx="2091.2" cy="216.178" r="23" fill="#e26f46" fill-rule="evenodd" fill-opacity="1" stroke="#000000" stroke-opacity="1" stroke-width="5.12"/>
<circle clip-path="url(#clip310)" cx="2091.2" cy="216.178" r="23" fill="#e26f46" fill-rule="evenodd" fill-opacity="1" stroke="#000000" stroke-opacity="1" stroke-width="5.12"/>
<circle clip-path="url(#clip310)" cx="2091.2" cy="216.178" r="23" fill="#e26f46" fill-rule="evenodd" fill-opacity="1" stroke="#000000" stroke-opacity="1" stroke-width="5.12"/>
<circle clip-path="url(#clip310)" cx="2091.2" cy="216.178" r="23" fill="#e26f46" fill-rule="evenodd" fill-opacity="1" stroke="#000000" stroke-opacity="1" stroke-width="5.12"/>
<circle clip-path="url(#clip310)" cx="2091.2" cy="216.178" r="23" fill="#e26f46" fill-rule="evenodd" fill-opacity="1" stroke="#000000" stroke-opacity="1" stroke-width="5.12"/>
<circle clip-path="url(#clip310)" cx="2091.2" cy="216.178" r="23" fill="#e26f46" fill-rule="evenodd" fill-opacity="1" stroke="#000000" stroke-opacity="1" stroke-width="5.12"/>
<circle clip-path="url(#clip310)" cx="2091.2" cy="216.178" r="23" fill="#e26f46" fill-rule="evenodd" fill-opacity="1" stroke="#000000" stroke-opacity="1" stroke-width="5.12"/>
<circle clip-path="url(#clip310)" cx="2091.2" cy="216.178" r="23" fill="#e26f46" fill-rule="evenodd" fill-opacity="1" stroke="#000000" stroke-opacity="1" stroke-width="5.12"/>
<circle clip-path="url(#clip310)" cx="2091.2" cy="216.178" r="23" fill="#e26f46" fill-rule="evenodd" fill-opacity="1" stroke="#000000" stroke-opacity="1" stroke-width="5.12"/>
<circle clip-path="url(#clip310)" cx="2091.2" cy="216.178" r="23" fill="#e26f46" fill-rule="evenodd" fill-opacity="1" stroke="#000000" stroke-opacity="1" stroke-width="5.12"/>
<circle clip-path="url(#clip310)" cx="2091.2" cy="216.178" r="23" fill="#e26f46" fill-rule="evenodd" fill-opacity="1" stroke="#000000" stroke-opacity="1" stroke-width="5.12"/>
<circle clip-path="url(#clip310)" cx="2091.2" cy="216.178" r="23" fill="#e26f46" fill-rule="evenodd" fill-opacity="1" stroke="#000000" stroke-opacity="1" stroke-width="5.12"/>
<circle clip-path="url(#clip310)" cx="2091.2" cy="216.178" r="23" fill="#e26f46" fill-rule="evenodd" fill-opacity="1" stroke="#000000" stroke-opacity="1" stroke-width="5.12"/>
<circle clip-path="url(#clip310)" cx="2091.2" cy="216.178" r="23" fill="#e26f46" fill-rule="evenodd" fill-opacity="1" stroke="#000000" stroke-opacity="1" stroke-width="5.12"/>
<circle clip-path="url(#clip310)" cx="2091.2" cy="216.178" r="23" fill="#e26f46" fill-rule="evenodd" fill-opacity="1" stroke="#000000" stroke-opacity="1" stroke-width="5.12"/>
<circle clip-path="url(#clip310)" cx="2091.2" cy="216.178" r="23" fill="#e26f46" fill-rule="evenodd" fill-opacity="1" stroke="#000000" stroke-opacity="1" stroke-width="5.12"/>
<circle clip-path="url(#clip310)" cx="2091.2" cy="216.178" r="23" fill="#e26f46" fill-rule="evenodd" fill-opacity="1" stroke="#000000" stroke-opacity="1" stroke-width="5.12"/>
<circle clip-path="url(#clip310)" cx="2091.2" cy="216.178" r="23" fill="#e26f46" fill-rule="evenodd" fill-opacity="1" stroke="#000000" stroke-opacity="1" stroke-width="5.12"/>
<circle clip-path="url(#clip310)" cx="2091.2" cy="216.178" r="23" fill="#e26f46" fill-rule="evenodd" fill-opacity="1" stroke="#000000" stroke-opacity="1" stroke-width="5.12"/>
<circle clip-path="url(#clip310)" cx="2091.2" cy="216.178" r="23" fill="#e26f46" fill-rule="evenodd" fill-opacity="1" stroke="#000000" stroke-opacity="1" stroke-width="5.12"/>
<circle clip-path="url(#clip310)" cx="2091.2" cy="216.178" r="23" fill="#e26f46" fill-rule="evenodd" fill-opacity="1" stroke="#000000" stroke-opacity="1" stroke-width="5.12"/>
<circle clip-path="url(#clip310)" cx="2091.2" cy="216.178" r="23" fill="#e26f46" fill-rule="evenodd" fill-opacity="1" stroke="#000000" stroke-opacity="1" stroke-width="5.12"/>
<path clip-path="url(#clip310)" d="M 0 0 M2198.62 235.865 Q2196.81 240.495 2195.1 241.907 Q2193.38 243.319 2190.51 243.319 L2187.11 243.319 L2187.11 239.754 L2189.61 239.754 Q2191.37 239.754 2192.34 238.92 Q2193.32 238.087 2194.5 234.985 L2195.26 233.041 L2184.77 207.532 L2189.29 207.532 L2197.39 227.809 L2205.49 207.532 L2210.01 207.532 L2198.62 235.865 Z" fill="#000000" fill-rule="evenodd" fill-opacity="1" /><path clip-path="url(#clip310)" d="M 0 0 M2219.1 229.522 L2235.42 229.522 L2235.42 233.458 L2213.48 233.458 L2213.48 229.522 Q2216.14 226.768 2220.72 222.138 Q2225.33 217.485 2226.51 216.143 Q2228.76 213.62 2229.63 211.884 Q2230.54 210.124 2230.54 208.435 Q2230.54 205.68 2228.59 203.944 Q2226.67 202.208 2223.57 202.208 Q2221.37 202.208 2218.92 202.972 Q2216.49 203.735 2213.71 205.286 L2213.71 200.564 Q2216.53 199.43 2218.99 198.851 Q2221.44 198.273 2223.48 198.273 Q2228.85 198.273 2232.04 200.958 Q2235.24 203.643 2235.24 208.134 Q2235.24 210.263 2234.43 212.185 Q2233.64 214.083 2231.53 216.675 Q2230.95 217.347 2227.85 220.564 Q2224.75 223.759 2219.1 229.522 Z" fill="#000000" fill-rule="evenodd" fill-opacity="1" /></svg>
