<?xml version="1.0" encoding="utf-8"?>
<svg xmlns="http://www.w3.org/2000/svg" xmlns:xlink="http://www.w3.org/1999/xlink" width="600" height="400" viewBox="0 0 2400 1600">
<defs>
  <clipPath id="clip890">
    <rect x="0" y="0" width="2400" height="1600"/>
  </clipPath>
</defs>
<path clip-path="url(#clip890)" d="
M0 1600 L2400 1600 L2400 0 L0 0  Z
  " fill="#ffffff" fill-rule="evenodd" fill-opacity="1"/>
<defs>
  <clipPath id="clip891">
    <rect x="480" y="0" width="1681" height="1600"/>
  </clipPath>
</defs>
<path clip-path="url(#clip890)" d="
M112.177 1486.45 L2352.76 1486.45 L2352.76 47.2441 L112.177 47.2441  Z
  " fill="#ffffff" fill-rule="evenodd" fill-opacity="1"/>
<defs>
  <clipPath id="clip892">
    <rect x="112" y="47" width="2242" height="1440"/>
  </clipPath>
</defs>
<polyline clip-path="url(#clip892)" style="stroke:#000000; stroke-width:2; stroke-opacity:0.1; fill:none" points="
  175.59,1486.45 175.59,47.2441 
  "/>
<polyline clip-path="url(#clip892)" style="stroke:#000000; stroke-width:2; stroke-opacity:0.1; fill:none" points="
  880.174,1486.45 880.174,47.2441 
  "/>
<polyline clip-path="url(#clip892)" style="stroke:#000000; stroke-width:2; stroke-opacity:0.1; fill:none" points="
  1584.76,1486.45 1584.76,47.2441 
  "/>
<polyline clip-path="url(#clip892)" style="stroke:#000000; stroke-width:2; stroke-opacity:0.1; fill:none" points="
  2289.34,1486.45 2289.34,47.2441 
  "/>
<polyline clip-path="url(#clip892)" style="stroke:#000000; stroke-width:2; stroke-opacity:0.1; fill:none" points="
  112.177,1465.84 2352.76,1465.84 
  "/>
<polyline clip-path="url(#clip892)" style="stroke:#000000; stroke-width:2; stroke-opacity:0.1; fill:none" points="
  112.177,1168.12 2352.76,1168.12 
  "/>
<polyline clip-path="url(#clip892)" style="stroke:#000000; stroke-width:2; stroke-opacity:0.1; fill:none" points="
  112.177,870.403 2352.76,870.403 
  "/>
<polyline clip-path="url(#clip892)" style="stroke:#000000; stroke-width:2; stroke-opacity:0.1; fill:none" points="
  112.177,572.683 2352.76,572.683 
  "/>
<polyline clip-path="url(#clip892)" style="stroke:#000000; stroke-width:2; stroke-opacity:0.1; fill:none" points="
  112.177,274.962 2352.76,274.962 
  "/>
<polyline clip-path="url(#clip890)" style="stroke:#000000; stroke-width:4; stroke-opacity:1; fill:none" points="
  112.177,1486.45 2352.76,1486.45 
  "/>
<polyline clip-path="url(#clip890)" style="stroke:#000000; stroke-width:4; stroke-opacity:1; fill:none" points="
  112.177,1486.45 112.177,47.2441 
  "/>
<polyline clip-path="url(#clip890)" style="stroke:#000000; stroke-width:4; stroke-opacity:1; fill:none" points="
  175.59,1486.45 175.59,1469.18 
  "/>
<polyline clip-path="url(#clip890)" style="stroke:#000000; stroke-width:4; stroke-opacity:1; fill:none" points="
  880.174,1486.45 880.174,1469.18 
  "/>
<polyline clip-path="url(#clip890)" style="stroke:#000000; stroke-width:4; stroke-opacity:1; fill:none" points="
  1584.76,1486.45 1584.76,1469.18 
  "/>
<polyline clip-path="url(#clip890)" style="stroke:#000000; stroke-width:4; stroke-opacity:1; fill:none" points="
  2289.34,1486.45 2289.34,1469.18 
  "/>
<polyline clip-path="url(#clip890)" style="stroke:#000000; stroke-width:4; stroke-opacity:1; fill:none" points="
  112.177,1465.84 139.064,1465.84 
  "/>
<polyline clip-path="url(#clip890)" style="stroke:#000000; stroke-width:4; stroke-opacity:1; fill:none" points="
  112.177,1168.12 139.064,1168.12 
  "/>
<polyline clip-path="url(#clip890)" style="stroke:#000000; stroke-width:4; stroke-opacity:1; fill:none" points="
  112.177,870.403 139.064,870.403 
  "/>
<polyline clip-path="url(#clip890)" style="stroke:#000000; stroke-width:4; stroke-opacity:1; fill:none" points="
  112.177,572.683 139.064,572.683 
  "/>
<polyline clip-path="url(#clip890)" style="stroke:#000000; stroke-width:4; stroke-opacity:1; fill:none" points="
  112.177,274.962 139.064,274.962 
  "/>
<path clip-path="url(#clip890)" d="M 0 0 M175.59 1508.44 Q171.979 1508.44 170.15 1512 Q168.344 1515.55 168.344 1522.67 Q168.344 1529.78 170.15 1533.35 Q171.979 1536.89 175.59 1536.89 Q179.224 1536.89 181.03 1533.35 Q182.858 1529.78 182.858 1522.67 Q182.858 1515.55 181.03 1512 Q179.224 1508.44 175.59 1508.44 M175.59 1504.73 Q181.4 1504.73 184.455 1509.34 Q187.534 1513.92 187.534 1522.67 Q187.534 1531.4 184.455 1536.01 Q181.4 1540.59 175.59 1540.59 Q169.78 1540.59 166.701 1536.01 Q163.645 1531.4 163.645 1522.67 Q163.645 1513.92 166.701 1509.34 Q169.78 1504.73 175.59 1504.73 Z" fill="#000000" fill-rule="evenodd" fill-opacity="1" /><path clip-path="url(#clip890)" d="M 0 0 M870.556 1535.98 L878.195 1535.98 L878.195 1509.62 L869.885 1511.29 L869.885 1507.03 L878.149 1505.36 L882.825 1505.36 L882.825 1535.98 L890.464 1535.98 L890.464 1539.92 L870.556 1539.92 L870.556 1535.98 Z" fill="#000000" fill-rule="evenodd" fill-opacity="1" /><path clip-path="url(#clip890)" d="M 0 0 M1579.41 1535.98 L1595.73 1535.98 L1595.73 1539.92 L1573.79 1539.92 L1573.79 1535.98 Q1576.45 1533.23 1581.03 1528.6 Q1585.64 1523.95 1586.82 1522.61 Q1589.06 1520.08 1589.94 1518.35 Q1590.85 1516.59 1590.85 1514.9 Q1590.85 1512.14 1588.9 1510.41 Q1586.98 1508.67 1583.88 1508.67 Q1581.68 1508.67 1579.23 1509.43 Q1576.8 1510.2 1574.02 1511.75 L1574.02 1507.03 Q1576.84 1505.89 1579.3 1505.31 Q1581.75 1504.73 1583.79 1504.73 Q1589.16 1504.73 1592.35 1507.42 Q1595.55 1510.11 1595.55 1514.6 Q1595.55 1516.73 1594.74 1518.65 Q1593.95 1520.54 1591.84 1523.14 Q1591.26 1523.81 1588.16 1527.03 Q1585.06 1530.22 1579.41 1535.98 Z" fill="#000000" fill-rule="evenodd" fill-opacity="1" /><path clip-path="url(#clip890)" d="M 0 0 M2293.59 1521.29 Q2296.95 1522 2298.82 1524.27 Q2300.72 1526.54 2300.72 1529.87 Q2300.72 1534.99 2297.2 1537.79 Q2293.68 1540.59 2287.2 1540.59 Q2285.03 1540.59 2282.71 1540.15 Q2280.42 1539.73 2277.97 1538.88 L2277.97 1534.36 Q2279.91 1535.5 2282.23 1536.08 Q2284.54 1536.66 2287.06 1536.66 Q2291.46 1536.66 2293.75 1534.92 Q2296.07 1533.18 2296.07 1529.87 Q2296.07 1526.82 2293.92 1525.11 Q2291.79 1523.37 2287.97 1523.37 L2283.94 1523.37 L2283.94 1519.53 L2288.15 1519.53 Q2291.6 1519.53 2293.43 1518.16 Q2295.26 1516.77 2295.26 1514.18 Q2295.26 1511.52 2293.36 1510.11 Q2291.48 1508.67 2287.97 1508.67 Q2286.04 1508.67 2283.85 1509.09 Q2281.65 1509.5 2279.01 1510.38 L2279.01 1506.22 Q2281.67 1505.48 2283.98 1505.11 Q2286.32 1504.73 2288.38 1504.73 Q2293.71 1504.73 2296.81 1507.17 Q2299.91 1509.57 2299.91 1513.69 Q2299.91 1516.56 2298.27 1518.55 Q2296.62 1520.52 2293.59 1521.29 Z" fill="#000000" fill-rule="evenodd" fill-opacity="1" /><path clip-path="url(#clip890)" d="M 0 0 M76.2328 1451.64 Q72.6217 1451.64 70.793 1455.21 Q68.9875 1458.75 68.9875 1465.88 Q68.9875 1472.98 70.793 1476.55 Q72.6217 1480.09 76.2328 1480.09 Q79.867 1480.09 81.6726 1476.55 Q83.5013 1472.98 83.5013 1465.88 Q83.5013 1458.75 81.6726 1455.21 Q79.867 1451.64 76.2328 1451.64 M76.2328 1447.94 Q82.0429 1447.94 85.0985 1452.54 Q88.1772 1457.13 88.1772 1465.88 Q88.1772 1474.6 85.0985 1479.21 Q82.0429 1483.79 76.2328 1483.79 Q70.4226 1483.79 67.344 1479.21 Q64.2884 1474.6 64.2884 1465.88 Q64.2884 1457.13 67.344 1452.54 Q70.4226 1447.94 76.2328 1447.94 Z" fill="#000000" fill-rule="evenodd" fill-opacity="1" /><path clip-path="url(#clip890)" d="M 0 0 M68.2699 1181.47 L75.9087 1181.47 L75.9087 1155.1 L67.5986 1156.77 L67.5986 1152.51 L75.8624 1150.84 L80.5383 1150.84 L80.5383 1181.47 L88.1772 1181.47 L88.1772 1185.4 L68.2699 1185.4 L68.2699 1181.47 Z" fill="#000000" fill-rule="evenodd" fill-opacity="1" /><path clip-path="url(#clip890)" d="M 0 0 M71.8578 883.748 L88.1772 883.748 L88.1772 887.683 L66.2328 887.683 L66.2328 883.748 Q68.8949 880.993 73.4782 876.363 Q78.0846 871.711 79.2652 870.368 Q81.5105 867.845 82.3902 866.109 Q83.2929 864.35 83.2929 862.66 Q83.2929 859.905 81.3485 858.169 Q79.4272 856.433 76.3254 856.433 Q74.1263 856.433 71.6726 857.197 Q69.2421 857.961 66.4643 859.512 L66.4643 854.79 Q69.2884 853.655 71.7421 853.077 Q74.1958 852.498 76.2328 852.498 Q81.6031 852.498 84.7976 855.183 Q87.992 857.868 87.992 862.359 Q87.992 864.489 87.1818 866.41 Q86.3948 868.308 84.2883 870.901 Q83.7096 871.572 80.6078 874.789 Q77.5059 877.984 71.8578 883.748 Z" fill="#000000" fill-rule="evenodd" fill-opacity="1" /><path clip-path="url(#clip890)" d="M 0 0 M81.0476 571.328 Q84.404 572.046 86.279 574.315 Q88.1772 576.583 88.1772 579.916 Q88.1772 585.032 84.6587 587.833 Q81.1402 590.634 74.6587 590.634 Q72.4828 590.634 70.168 590.194 Q67.8764 589.777 65.4227 588.921 L65.4227 584.407 Q67.3671 585.541 69.6819 586.12 Q71.9967 586.699 74.5198 586.699 Q78.918 586.699 81.2096 584.963 Q83.5244 583.226 83.5244 579.916 Q83.5244 576.861 81.3717 575.148 Q79.242 573.412 75.4226 573.412 L71.3949 573.412 L71.3949 569.569 L75.6078 569.569 Q79.0569 569.569 80.8855 568.203 Q82.7142 566.815 82.7142 564.222 Q82.7142 561.56 80.8161 560.148 Q78.9411 558.713 75.4226 558.713 Q73.5013 558.713 71.3023 559.129 Q69.1032 559.546 66.4643 560.426 L66.4643 556.259 Q69.1264 555.518 71.4412 555.148 Q73.7791 554.778 75.8393 554.778 Q81.1633 554.778 84.2652 557.208 Q87.367 559.616 87.367 563.736 Q87.367 566.606 85.7235 568.597 Q84.08 570.565 81.0476 571.328 Z" fill="#000000" fill-rule="evenodd" fill-opacity="1" /><path clip-path="url(#clip890)" d="M 0 0 M78.5939 261.756 L66.7884 280.205 L78.5939 280.205 L78.5939 261.756 M77.367 257.682 L83.2466 257.682 L83.2466 280.205 L88.1772 280.205 L88.1772 284.094 L83.2466 284.094 L83.2466 292.242 L78.5939 292.242 L78.5939 284.094 L62.9921 284.094 L62.9921 279.58 L77.367 257.682 Z" fill="#000000" fill-rule="evenodd" fill-opacity="1" /><polyline clip-path="url(#clip892)" style="stroke:#009af9; stroke-width:28; stroke-opacity:1; fill:none" points="
  175.59,1334.1 246.048,1363.99 316.507,1382.66 386.965,1394.54 457.424,1402.09 527.882,1406.73 598.341,1409.3 668.799,1410.31 739.257,1410.06 809.716,1408.72 
  880.174,1406.41 950.633,1403.14 1021.09,1398.94 1091.55,1393.75 1162.01,1387.52 1232.47,1380.16 1302.93,1371.56 1373.38,1361.58 1443.84,1350.07 1514.3,1336.84 
  1584.76,1321.67 1655.22,1304.32 1725.68,1284.5 1796.13,1261.89 1866.59,1236.13 1937.05,1206.79 2007.51,1173.4 2077.97,1135.44 2148.43,1092.29 2218.88,1043.27 
  2289.34,987.603 
  "/>
<polyline clip-path="url(#clip892)" style="stroke:#e26f46; stroke-width:28; stroke-opacity:1; fill:none" points="
  175.59,87.9763 246.048,278.635 316.507,449.436 386.965,599.166 457.424,728.743 527.882,839.953 598.341,934.888 668.799,1015.64 739.257,1084.14 809.716,1142.15 
  880.174,1191.21 950.633,1232.66 1021.09,1267.66 1091.55,1297.19 1162.01,1322.1 1232.47,1343.1 1302.93,1360.82 1373.38,1375.75 1443.84,1388.34 1514.3,1398.94 
  1584.76,1407.88 1655.22,1415.4 1725.68,1421.72 1796.13,1427.04 1866.59,1431.49 1937.05,1435.2 2007.51,1438.28 2077.97,1440.82 2148.43,1442.87 2218.88,1444.49 
  2289.34,1445.72 
  "/>
<polyline clip-path="url(#clip892)" style="stroke:#ff0000; stroke-width:8; stroke-opacity:1; fill:none" points="
  175.59,1334.1 246.048,1361.88 316.507,1381.55 386.965,1394.71 457.424,1402.93 527.882,1407.62 598.341,1409.86 668.799,1410.43 739.257,1409.8 809.716,1408.21 
  880.174,1405.76 950.633,1402.48 1021.09,1398.33 1091.55,1393.25 1162.01,1387.15 1232.47,1379.93 1302.93,1371.48 1373.38,1361.63 1443.84,1350.23 1514.3,1337.08 
  1584.76,1321.95 1655.22,1304.59 1725.68,1284.71 1796.13,1261.98 1866.59,1236.05 1937.05,1206.52 2007.51,1172.95 2077.97,1134.92 2148.43,1091.93 2218.88,1043.51 
  2289.34,989.192 
  "/>
<polyline clip-path="url(#clip892)" style="stroke:#008000; stroke-width:8; stroke-opacity:1; fill:none" points="
  175.59,87.9763 246.048,280.757 316.507,450.461 386.965,598.971 457.424,727.998 527.882,839.258 598.341,934.535 668.799,1015.65 739.257,1084.41 809.716,1142.53 
  880.174,1191.55 950.633,1232.88 1021.09,1267.72 1091.55,1297.09 1162.01,1321.86 1232.47,1342.78 1302.93,1360.44 1373.38,1375.36 1443.84,1387.98 1514.3,1398.65 
  1584.76,1407.68 1655.22,1415.31 1725.68,1421.75 1796.13,1427.19 1866.59,1431.76 1937.05,1435.57 2007.51,1438.71 2077.97,1441.21 2148.43,1443.1 2218.88,1444.35 
  2289.34,1444.89 
  "/>
<path clip-path="url(#clip890)" d="
M1858.35 397.618 L2278.07 397.618 L2278.07 95.2176 L1858.35 95.2176  Z
  " fill="#ffffff" fill-rule="evenodd" fill-opacity="1"/>
<polyline clip-path="url(#clip890)" style="stroke:#000000; stroke-width:4; stroke-opacity:1; fill:none" points="
  1858.35,397.618 2278.07,397.618 2278.07,95.2176 1858.35,95.2176 1858.35,397.618 
  "/>
<polyline clip-path="url(#clip890)" style="stroke:#009af9; stroke-width:4; stroke-opacity:1; fill:none" points="
  1883.25,155.698 2032.62,155.698 
  "/>
<path clip-path="url(#clip890)" d="M 0 0 M2057.52 162.746 L2057.52 147.052 L2061.78 147.052 L2061.78 162.584 Q2061.78 166.265 2063.21 168.116 Q2064.65 169.945 2067.52 169.945 Q2070.97 169.945 2072.96 167.746 Q2074.97 165.547 2074.97 161.751 L2074.97 147.052 L2079.23 147.052 L2079.23 172.978 L2074.97 172.978 L2074.97 168.996 Q2073.42 171.357 2071.36 172.515 Q2069.32 173.649 2066.61 173.649 Q2062.15 173.649 2059.83 170.871 Q2057.52 168.093 2057.52 162.746 M2068.23 146.427 L2068.23 146.427 Z" fill="#000000" fill-rule="evenodd" fill-opacity="1" /><path clip-path="url(#clip890)" d="M 0 0 M2085.11 169.042 L2092.75 169.042 L2092.75 142.677 L2084.44 144.343 L2084.44 140.084 L2092.7 138.418 L2097.38 138.418 L2097.38 169.042 L2105.02 169.042 L2105.02 172.978 L2085.11 172.978 L2085.11 169.042 Z" fill="#000000" fill-rule="evenodd" fill-opacity="1" /><path clip-path="url(#clip890)" d="M 0 0 M2119.72 137.006 Q2116.61 142.33 2115.11 147.538 Q2113.6 152.746 2113.6 158.093 Q2113.6 163.441 2115.11 168.695 Q2116.64 173.927 2119.72 179.228 L2116.01 179.228 Q2112.54 173.788 2110.8 168.533 Q2109.09 163.279 2109.09 158.093 Q2109.09 152.931 2110.8 147.7 Q2112.52 142.468 2116.01 137.006 L2119.72 137.006 Z" fill="#000000" fill-rule="evenodd" fill-opacity="1" /><path clip-path="url(#clip890)" d="M 0 0 M2128.4 139.691 L2128.4 147.052 L2137.17 147.052 L2137.17 150.362 L2128.4 150.362 L2128.4 164.436 Q2128.4 167.607 2129.25 168.51 Q2130.13 169.413 2132.79 169.413 L2137.17 169.413 L2137.17 172.978 L2132.79 172.978 Q2127.86 172.978 2125.99 171.149 Q2124.11 169.297 2124.11 164.436 L2124.11 150.362 L2120.99 150.362 L2120.99 147.052 L2124.11 147.052 L2124.11 139.691 L2128.4 139.691 Z" fill="#000000" fill-rule="evenodd" fill-opacity="1" /><path clip-path="url(#clip890)" d="M 0 0 M2140.96 137.006 L2144.67 137.006 Q2148.14 142.468 2149.85 147.7 Q2151.59 152.931 2151.59 158.093 Q2151.59 163.279 2149.85 168.533 Q2148.14 173.788 2144.67 179.228 L2140.96 179.228 Q2144.04 173.927 2145.55 168.695 Q2147.08 163.441 2147.08 158.093 Q2147.08 152.746 2145.55 147.538 Q2144.04 142.33 2140.96 137.006 Z" fill="#000000" fill-rule="evenodd" fill-opacity="1" /><polyline clip-path="url(#clip890)" style="stroke:#e26f46; stroke-width:4; stroke-opacity:1; fill:none" points="
  1883.25,216.178 2032.62,216.178 
  "/>
<path clip-path="url(#clip890)" d="M 0 0 M2057.52 223.226 L2057.52 207.532 L2061.78 207.532 L2061.78 223.064 Q2061.78 226.745 2063.21 228.596 Q2064.65 230.425 2067.52 230.425 Q2070.97 230.425 2072.96 228.226 Q2074.97 226.027 2074.97 222.231 L2074.97 207.532 L2079.23 207.532 L2079.23 233.458 L2074.97 233.458 L2074.97 229.476 Q2073.42 231.837 2071.36 232.995 Q2069.32 234.129 2066.61 234.129 Q2062.15 234.129 2059.83 231.351 Q2057.52 228.573 2057.52 223.226 M2068.23 206.907 L2068.23 206.907 Z" fill="#000000" fill-rule="evenodd" fill-opacity="1" /><path clip-path="url(#clip890)" d="M 0 0 M2088.33 229.522 L2104.65 229.522 L2104.65 233.458 L2082.7 233.458 L2082.7 229.522 Q2085.36 226.768 2089.95 222.138 Q2094.55 217.485 2095.73 216.143 Q2097.98 213.62 2098.86 211.884 Q2099.76 210.124 2099.76 208.435 Q2099.76 205.68 2097.82 203.944 Q2095.9 202.208 2092.79 202.208 Q2090.59 202.208 2088.14 202.972 Q2085.71 203.735 2082.93 205.286 L2082.93 200.564 Q2085.76 199.43 2088.21 198.851 Q2090.66 198.273 2092.7 198.273 Q2098.07 198.273 2101.27 200.958 Q2104.46 203.643 2104.46 208.134 Q2104.46 210.263 2103.65 212.185 Q2102.86 214.083 2100.76 216.675 Q2100.18 217.347 2097.08 220.564 Q2093.97 223.759 2088.33 229.522 Z" fill="#000000" fill-rule="evenodd" fill-opacity="1" /><path clip-path="url(#clip890)" d="M 0 0 M2119.34 197.486 Q2116.24 202.81 2114.74 208.018 Q2113.23 213.226 2113.23 218.573 Q2113.23 223.921 2114.74 229.175 Q2116.27 234.407 2119.34 239.708 L2115.64 239.708 Q2112.17 234.268 2110.43 229.013 Q2108.72 223.759 2108.72 218.573 Q2108.72 213.411 2110.43 208.18 Q2112.15 202.948 2115.64 197.486 L2119.34 197.486 Z" fill="#000000" fill-rule="evenodd" fill-opacity="1" /><path clip-path="url(#clip890)" d="M 0 0 M2128.03 200.171 L2128.03 207.532 L2136.8 207.532 L2136.8 210.842 L2128.03 210.842 L2128.03 224.916 Q2128.03 228.087 2128.88 228.99 Q2129.76 229.893 2132.42 229.893 L2136.8 229.893 L2136.8 233.458 L2132.42 233.458 Q2127.49 233.458 2125.62 231.629 Q2123.74 229.777 2123.74 224.916 L2123.74 210.842 L2120.62 210.842 L2120.62 207.532 L2123.74 207.532 L2123.74 200.171 L2128.03 200.171 Z" fill="#000000" fill-rule="evenodd" fill-opacity="1" /><path clip-path="url(#clip890)" d="M 0 0 M2140.59 197.486 L2144.3 197.486 Q2147.77 202.948 2149.48 208.18 Q2151.22 213.411 2151.22 218.573 Q2151.22 223.759 2149.48 229.013 Q2147.77 234.268 2144.3 239.708 L2140.59 239.708 Q2143.67 234.407 2145.18 229.175 Q2146.71 223.921 2146.71 218.573 Q2146.71 213.226 2145.18 208.018 Q2143.67 202.81 2140.59 197.486 Z" fill="#000000" fill-rule="evenodd" fill-opacity="1" /><polyline clip-path="url(#clip890)" style="stroke:#ff0000; stroke-width:4; stroke-opacity:1; fill:none" points="
  1883.25,276.658 2032.62,276.658 
  "/>
<path clip-path="url(#clip890)" d="M 0 0 M2057.52 283.706 L2057.52 268.012 L2061.78 268.012 L2061.78 283.544 Q2061.78 287.225 2063.21 289.076 Q2064.65 290.905 2067.52 290.905 Q2070.97 290.905 2072.96 288.706 Q2074.97 286.507 2074.97 282.711 L2074.97 268.012 L2079.23 268.012 L2079.23 293.938 L2074.97 293.938 L2074.97 289.956 Q2073.42 292.317 2071.36 293.475 Q2069.32 294.609 2066.61 294.609 Q2062.15 294.609 2059.83 291.831 Q2057.52 289.053 2057.52 283.706 M2068.23 267.387 L2068.23 267.387 Z" fill="#000000" fill-rule="evenodd" fill-opacity="1" /><path clip-path="url(#clip890)" d="M 0 0 M2085.11 290.002 L2092.75 290.002 L2092.75 263.637 L2084.44 265.303 L2084.44 261.044 L2092.7 259.378 L2097.38 259.378 L2097.38 290.002 L2105.02 290.002 L2105.02 293.938 L2085.11 293.938 L2085.11 290.002 Z" fill="#000000" fill-rule="evenodd" fill-opacity="1" /><path clip-path="url(#clip890)" d="M 0 0 M2119.72 257.966 Q2116.61 263.29 2115.11 268.498 Q2113.6 273.706 2113.6 279.053 Q2113.6 284.401 2115.11 289.655 Q2116.64 294.887 2119.72 300.188 L2116.01 300.188 Q2112.54 294.748 2110.8 289.493 Q2109.09 284.239 2109.09 279.053 Q2109.09 273.891 2110.8 268.66 Q2112.52 263.428 2116.01 257.966 L2119.72 257.966 Z" fill="#000000" fill-rule="evenodd" fill-opacity="1" /><path clip-path="url(#clip890)" d="M 0 0 M2128.4 260.651 L2128.4 268.012 L2137.17 268.012 L2137.17 271.322 L2128.4 271.322 L2128.4 285.396 Q2128.4 288.567 2129.25 289.47 Q2130.13 290.373 2132.79 290.373 L2137.17 290.373 L2137.17 293.938 L2132.79 293.938 Q2127.86 293.938 2125.99 292.109 Q2124.11 290.257 2124.11 285.396 L2124.11 271.322 L2120.99 271.322 L2120.99 268.012 L2124.11 268.012 L2124.11 260.651 L2128.4 260.651 Z" fill="#000000" fill-rule="evenodd" fill-opacity="1" /><path clip-path="url(#clip890)" d="M 0 0 M2140.96 257.966 L2144.67 257.966 Q2148.14 263.428 2149.85 268.66 Q2151.59 273.891 2151.59 279.053 Q2151.59 284.239 2149.85 289.493 Q2148.14 294.748 2144.67 300.188 L2140.96 300.188 Q2144.04 294.887 2145.55 289.655 Q2147.08 284.401 2147.08 279.053 Q2147.08 273.706 2145.55 268.498 Q2144.04 263.29 2140.96 257.966 Z" fill="#000000" fill-rule="evenodd" fill-opacity="1" /><path clip-path="url(#clip890)" d="M 0 0 M2171.31 259.378 L2177.61 259.378 L2192.93 288.289 L2192.93 259.378 L2197.47 259.378 L2197.47 293.938 L2191.17 293.938 L2175.85 265.026 L2175.85 293.938 L2171.31 293.938 L2171.31 259.378 Z" fill="#000000" fill-rule="evenodd" fill-opacity="1" /><path clip-path="url(#clip890)" d="M 0 0 M2202.12 259.378 L2208.42 259.378 L2223.74 288.289 L2223.74 259.378 L2228.28 259.378 L2228.28 293.938 L2221.98 293.938 L2206.66 265.026 L2206.66 293.938 L2202.12 293.938 L2202.12 259.378 Z" fill="#000000" fill-rule="evenodd" fill-opacity="1" /><polyline clip-path="url(#clip890)" style="stroke:#008000; stroke-width:4; stroke-opacity:1; fill:none" points="
  1883.25,337.138 2032.62,337.138 
  "/>
<path clip-path="url(#clip890)" d="M 0 0 M2057.52 344.186 L2057.52 328.492 L2061.78 328.492 L2061.78 344.024 Q2061.78 347.705 2063.21 349.556 Q2064.65 351.385 2067.52 351.385 Q2070.97 351.385 2072.96 349.186 Q2074.97 346.987 2074.97 343.191 L2074.97 328.492 L2079.23 328.492 L2079.23 354.418 L2074.97 354.418 L2074.97 350.436 Q2073.42 352.797 2071.36 353.955 Q2069.32 355.089 2066.61 355.089 Q2062.15 355.089 2059.83 352.311 Q2057.52 349.533 2057.52 344.186 M2068.23 327.867 L2068.23 327.867 Z" fill="#000000" fill-rule="evenodd" fill-opacity="1" /><path clip-path="url(#clip890)" d="M 0 0 M2088.33 350.482 L2104.65 350.482 L2104.65 354.418 L2082.7 354.418 L2082.7 350.482 Q2085.36 347.728 2089.95 343.098 Q2094.55 338.445 2095.73 337.103 Q2097.98 334.58 2098.86 332.844 Q2099.76 331.084 2099.76 329.395 Q2099.76 326.64 2097.82 324.904 Q2095.9 323.168 2092.79 323.168 Q2090.59 323.168 2088.14 323.932 Q2085.71 324.695 2082.93 326.246 L2082.93 321.524 Q2085.76 320.39 2088.21 319.811 Q2090.66 319.233 2092.7 319.233 Q2098.07 319.233 2101.27 321.918 Q2104.46 324.603 2104.46 329.094 Q2104.46 331.223 2103.65 333.145 Q2102.86 335.043 2100.76 337.635 Q2100.18 338.307 2097.08 341.524 Q2093.97 344.719 2088.33 350.482 Z" fill="#000000" fill-rule="evenodd" fill-opacity="1" /><path clip-path="url(#clip890)" d="M 0 0 M2119.34 318.446 Q2116.24 323.77 2114.74 328.978 Q2113.23 334.186 2113.23 339.533 Q2113.23 344.881 2114.74 350.135 Q2116.27 355.367 2119.34 360.668 L2115.64 360.668 Q2112.17 355.228 2110.43 349.973 Q2108.72 344.719 2108.72 339.533 Q2108.72 334.371 2110.43 329.14 Q2112.15 323.908 2115.64 318.446 L2119.34 318.446 Z" fill="#000000" fill-rule="evenodd" fill-opacity="1" /><path clip-path="url(#clip890)" d="M 0 0 M2128.03 321.131 L2128.03 328.492 L2136.8 328.492 L2136.8 331.802 L2128.03 331.802 L2128.03 345.876 Q2128.03 349.047 2128.88 349.95 Q2129.76 350.853 2132.42 350.853 L2136.8 350.853 L2136.8 354.418 L2132.42 354.418 Q2127.49 354.418 2125.62 352.589 Q2123.74 350.737 2123.74 345.876 L2123.74 331.802 L2120.62 331.802 L2120.62 328.492 L2123.74 328.492 L2123.74 321.131 L2128.03 321.131 Z" fill="#000000" fill-rule="evenodd" fill-opacity="1" /><path clip-path="url(#clip890)" d="M 0 0 M2140.59 318.446 L2144.3 318.446 Q2147.77 323.908 2149.48 329.14 Q2151.22 334.371 2151.22 339.533 Q2151.22 344.719 2149.48 349.973 Q2147.77 355.228 2144.3 360.668 L2140.59 360.668 Q2143.67 355.367 2145.18 350.135 Q2146.71 344.881 2146.71 339.533 Q2146.71 334.186 2145.18 328.978 Q2143.67 323.77 2140.59 318.446 Z" fill="#000000" fill-rule="evenodd" fill-opacity="1" /><path clip-path="url(#clip890)" d="M 0 0 M2170.94 319.858 L2177.24 319.858 L2192.56 348.769 L2192.56 319.858 L2197.1 319.858 L2197.1 354.418 L2190.8 354.418 L2175.48 325.506 L2175.48 354.418 L2170.94 354.418 L2170.94 319.858 Z" fill="#000000" fill-rule="evenodd" fill-opacity="1" /><path clip-path="url(#clip890)" d="M 0 0 M2201.75 319.858 L2208.05 319.858 L2223.37 348.769 L2223.37 319.858 L2227.91 319.858 L2227.91 354.418 L2221.61 354.418 L2206.29 325.506 L2206.29 354.418 L2201.75 354.418 L2201.75 319.858 Z" fill="#000000" fill-rule="evenodd" fill-opacity="1" /></svg>
