<?xml version="1.0" encoding="utf-8"?>
<svg xmlns="http://www.w3.org/2000/svg" xmlns:xlink="http://www.w3.org/1999/xlink" width="600" height="400" viewBox="0 0 2400 1600">
<defs>
  <clipPath id="clip900">
    <rect x="0" y="0" width="2400" height="1600"/>
  </clipPath>
</defs>
<path clip-path="url(#clip900)" d="
M0 1600 L2400 1600 L2400 0 L0 0  Z
  " fill="#ffffff" fill-rule="evenodd" fill-opacity="1"/>
<defs>
  <clipPath id="clip901">
    <rect x="480" y="0" width="1681" height="1600"/>
  </clipPath>
</defs>
<path clip-path="url(#clip900)" d="
M272.76 1423.18 L2352.76 1423.18 L2352.76 47.2441 L272.76 47.2441  Z
  " fill="#ffffff" fill-rule="evenodd" fill-opacity="1"/>
<defs>
  <clipPath id="clip902">
    <rect x="272" y="47" width="2081" height="1377"/>
  </clipPath>
</defs>
<polyline clip-path="url(#clip902)" style="stroke:#000000; stroke-width:2; stroke-opacity:0.1; fill:none" points="
  331.627,1423.18 331.627,47.2441 
  "/>
<polyline clip-path="url(#clip902)" style="stroke:#000000; stroke-width:2; stroke-opacity:0.1; fill:none" points="
  697.305,1423.18 697.305,47.2441 
  "/>
<polyline clip-path="url(#clip902)" style="stroke:#000000; stroke-width:2; stroke-opacity:0.1; fill:none" points="
  1062.98,1423.18 1062.98,47.2441 
  "/>
<polyline clip-path="url(#clip902)" style="stroke:#000000; stroke-width:2; stroke-opacity:0.1; fill:none" points="
  1428.66,1423.18 1428.66,47.2441 
  "/>
<polyline clip-path="url(#clip902)" style="stroke:#000000; stroke-width:2; stroke-opacity:0.1; fill:none" points="
  1794.34,1423.18 1794.34,47.2441 
  "/>
<polyline clip-path="url(#clip902)" style="stroke:#000000; stroke-width:2; stroke-opacity:0.1; fill:none" points="
  2160.02,1423.18 2160.02,47.2441 
  "/>
<polyline clip-path="url(#clip902)" style="stroke:#000000; stroke-width:2; stroke-opacity:0.1; fill:none" points="
  272.76,1117.45 2352.76,1117.45 
  "/>
<polyline clip-path="url(#clip902)" style="stroke:#000000; stroke-width:2; stroke-opacity:0.1; fill:none" points="
  272.76,775.768 2352.76,775.768 
  "/>
<polyline clip-path="url(#clip902)" style="stroke:#000000; stroke-width:2; stroke-opacity:0.1; fill:none" points="
  272.76,434.082 2352.76,434.082 
  "/>
<polyline clip-path="url(#clip902)" style="stroke:#000000; stroke-width:2; stroke-opacity:0.1; fill:none" points="
  272.76,92.3962 2352.76,92.3962 
  "/>
<polyline clip-path="url(#clip900)" style="stroke:#000000; stroke-width:4; stroke-opacity:1; fill:none" points="
  272.76,1423.18 2352.76,1423.18 
  "/>
<polyline clip-path="url(#clip900)" style="stroke:#000000; stroke-width:4; stroke-opacity:1; fill:none" points="
  272.76,1423.18 272.76,47.2441 
  "/>
<polyline clip-path="url(#clip900)" style="stroke:#000000; stroke-width:4; stroke-opacity:1; fill:none" points="
  331.627,1423.18 331.627,1406.67 
  "/>
<polyline clip-path="url(#clip900)" style="stroke:#000000; stroke-width:4; stroke-opacity:1; fill:none" points="
  697.305,1423.18 697.305,1406.67 
  "/>
<polyline clip-path="url(#clip900)" style="stroke:#000000; stroke-width:4; stroke-opacity:1; fill:none" points="
  1062.98,1423.18 1062.98,1406.67 
  "/>
<polyline clip-path="url(#clip900)" style="stroke:#000000; stroke-width:4; stroke-opacity:1; fill:none" points="
  1428.66,1423.18 1428.66,1406.67 
  "/>
<polyline clip-path="url(#clip900)" style="stroke:#000000; stroke-width:4; stroke-opacity:1; fill:none" points="
  1794.34,1423.18 1794.34,1406.67 
  "/>
<polyline clip-path="url(#clip900)" style="stroke:#000000; stroke-width:4; stroke-opacity:1; fill:none" points="
  2160.02,1423.18 2160.02,1406.67 
  "/>
<polyline clip-path="url(#clip900)" style="stroke:#000000; stroke-width:4; stroke-opacity:1; fill:none" points="
  272.76,1117.45 297.719,1117.45 
  "/>
<polyline clip-path="url(#clip900)" style="stroke:#000000; stroke-width:4; stroke-opacity:1; fill:none" points="
  272.76,775.768 297.719,775.768 
  "/>
<polyline clip-path="url(#clip900)" style="stroke:#000000; stroke-width:4; stroke-opacity:1; fill:none" points="
  272.76,434.082 297.719,434.082 
  "/>
<polyline clip-path="url(#clip900)" style="stroke:#000000; stroke-width:4; stroke-opacity:1; fill:none" points="
  272.76,92.3962 297.719,92.3962 
  "/>
<path clip-path="url(#clip900)" d="M 0 0 M283.78 1494.25 L291.418 1494.25 L291.418 1467.89 L283.108 1469.55 L283.108 1465.29 L291.372 1463.63 L296.048 1463.63 L296.048 1494.25 L303.687 1494.25 L303.687 1498.19 L283.78 1498.19 L283.78 1494.25 Z" fill="#000000" fill-rule="evenodd" fill-opacity="1" /><path clip-path="url(#clip900)" d="M 0 0 M318.756 1466.71 Q315.145 1466.71 313.317 1470.27 Q311.511 1473.81 311.511 1480.94 Q311.511 1488.05 313.317 1491.61 Q315.145 1495.15 318.756 1495.15 Q322.391 1495.15 324.196 1491.61 Q326.025 1488.05 326.025 1480.94 Q326.025 1473.81 324.196 1470.27 Q322.391 1466.71 318.756 1466.71 M318.756 1463 Q324.566 1463 327.622 1467.61 Q330.701 1472.19 330.701 1480.94 Q330.701 1489.67 327.622 1494.28 Q324.566 1498.86 318.756 1498.86 Q312.946 1498.86 309.867 1494.28 Q306.812 1489.67 306.812 1480.94 Q306.812 1472.19 309.867 1467.61 Q312.946 1463 318.756 1463 Z" fill="#000000" fill-rule="evenodd" fill-opacity="1" /><path clip-path="url(#clip900)" d="M 0 0 M340.405 1445.2 Q337.471 1445.2 335.986 1448.09 Q334.519 1450.97 334.519 1456.76 Q334.519 1462.54 335.986 1465.44 Q337.471 1468.31 340.405 1468.31 Q343.358 1468.31 344.825 1465.44 Q346.311 1462.54 346.311 1456.76 Q346.311 1450.97 344.825 1448.09 Q343.358 1445.2 340.405 1445.2 M340.405 1442.19 Q345.126 1442.19 347.609 1445.93 Q350.11 1449.66 350.11 1456.76 Q350.11 1463.86 347.609 1467.6 Q345.126 1471.32 340.405 1471.32 Q335.685 1471.32 333.183 1467.6 Q330.701 1463.86 330.701 1456.76 Q330.701 1449.66 333.183 1445.93 Q335.685 1442.19 340.405 1442.19 Z" fill="#000000" fill-rule="evenodd" fill-opacity="1" /><path clip-path="url(#clip900)" d="M 0 0 M354.229 1466 L358.198 1466 L358.198 1470.78 L354.229 1470.78 L354.229 1466 Z" fill="#000000" fill-rule="evenodd" fill-opacity="1" /><path clip-path="url(#clip900)" d="M 0 0 M370.441 1445.2 Q367.507 1445.2 366.022 1448.09 Q364.555 1450.97 364.555 1456.76 Q364.555 1462.54 366.022 1465.44 Q367.507 1468.31 370.441 1468.31 Q373.394 1468.31 374.861 1465.44 Q376.347 1462.54 376.347 1456.76 Q376.347 1450.97 374.861 1448.09 Q373.394 1445.2 370.441 1445.2 M370.441 1442.19 Q375.162 1442.19 377.645 1445.93 Q380.146 1449.66 380.146 1456.76 Q380.146 1463.86 377.645 1467.6 Q375.162 1471.32 370.441 1471.32 Q365.721 1471.32 363.219 1467.6 Q360.737 1463.86 360.737 1456.76 Q360.737 1449.66 363.219 1445.93 Q365.721 1442.19 370.441 1442.19 Z" fill="#000000" fill-rule="evenodd" fill-opacity="1" /><path clip-path="url(#clip900)" d="M 0 0 M649.862 1494.25 L657.501 1494.25 L657.501 1467.89 L649.19 1469.55 L649.19 1465.29 L657.454 1463.63 L662.13 1463.63 L662.13 1494.25 L669.769 1494.25 L669.769 1498.19 L649.862 1498.19 L649.862 1494.25 Z" fill="#000000" fill-rule="evenodd" fill-opacity="1" /><path clip-path="url(#clip900)" d="M 0 0 M684.838 1466.71 Q681.227 1466.71 679.399 1470.27 Q677.593 1473.81 677.593 1480.94 Q677.593 1488.05 679.399 1491.61 Q681.227 1495.15 684.838 1495.15 Q688.473 1495.15 690.278 1491.61 Q692.107 1488.05 692.107 1480.94 Q692.107 1473.81 690.278 1470.27 Q688.473 1466.71 684.838 1466.71 M684.838 1463 Q690.648 1463 693.704 1467.61 Q696.783 1472.19 696.783 1480.94 Q696.783 1489.67 693.704 1494.28 Q690.648 1498.86 684.838 1498.86 Q679.028 1498.86 675.949 1494.28 Q672.894 1489.67 672.894 1480.94 Q672.894 1472.19 675.949 1467.61 Q679.028 1463 684.838 1463 Z" fill="#000000" fill-rule="evenodd" fill-opacity="1" /><path clip-path="url(#clip900)" d="M 0 0 M706.488 1445.2 Q703.554 1445.2 702.068 1448.09 Q700.601 1450.97 700.601 1456.76 Q700.601 1462.54 702.068 1465.44 Q703.554 1468.31 706.488 1468.31 Q709.44 1468.31 710.907 1465.44 Q712.393 1462.54 712.393 1456.76 Q712.393 1450.97 710.907 1448.09 Q709.44 1445.2 706.488 1445.2 M706.488 1442.19 Q711.208 1442.19 713.691 1445.93 Q716.192 1449.66 716.192 1456.76 Q716.192 1463.86 713.691 1467.6 Q711.208 1471.32 706.488 1471.32 Q701.767 1471.32 699.265 1467.6 Q696.783 1463.86 696.783 1456.76 Q696.783 1449.66 699.265 1445.93 Q701.767 1442.19 706.488 1442.19 Z" fill="#000000" fill-rule="evenodd" fill-opacity="1" /><path clip-path="url(#clip900)" d="M 0 0 M720.311 1466 L724.28 1466 L724.28 1470.78 L720.311 1470.78 L720.311 1466 Z" fill="#000000" fill-rule="evenodd" fill-opacity="1" /><path clip-path="url(#clip900)" d="M 0 0 M728.436 1442.7 L743.351 1442.7 L743.351 1445.89 L731.916 1445.89 L731.916 1452.78 Q732.743 1452.5 733.571 1452.36 Q734.398 1452.21 735.226 1452.21 Q739.928 1452.21 742.674 1454.79 Q745.42 1457.37 745.42 1461.77 Q745.42 1466.3 742.598 1468.82 Q739.777 1471.32 734.643 1471.32 Q732.875 1471.32 731.032 1471.02 Q729.207 1470.72 727.251 1470.12 L727.251 1466.3 Q728.944 1467.22 730.75 1467.67 Q732.555 1468.12 734.568 1468.12 Q737.821 1468.12 739.721 1466.41 Q741.62 1464.7 741.62 1461.77 Q741.62 1458.83 739.721 1457.12 Q737.821 1455.41 734.568 1455.41 Q733.044 1455.41 731.521 1455.75 Q730.016 1456.09 728.436 1456.8 L728.436 1442.7 Z" fill="#000000" fill-rule="evenodd" fill-opacity="1" /><path clip-path="url(#clip900)" d="M 0 0 M1016.48 1494.25 L1024.12 1494.25 L1024.12 1467.89 L1015.81 1469.55 L1015.81 1465.29 L1024.07 1463.63 L1028.75 1463.63 L1028.75 1494.25 L1036.39 1494.25 L1036.39 1498.19 L1016.48 1498.19 L1016.48 1494.25 Z" fill="#000000" fill-rule="evenodd" fill-opacity="1" /><path clip-path="url(#clip900)" d="M 0 0 M1051.46 1466.71 Q1047.85 1466.71 1046.02 1470.27 Q1044.21 1473.81 1044.21 1480.94 Q1044.21 1488.05 1046.02 1491.61 Q1047.85 1495.15 1051.46 1495.15 Q1055.09 1495.15 1056.9 1491.61 Q1058.72 1488.05 1058.72 1480.94 Q1058.72 1473.81 1056.9 1470.27 Q1055.09 1466.71 1051.46 1466.71 M1051.46 1463 Q1057.27 1463 1060.32 1467.61 Q1063.4 1472.19 1063.4 1480.94 Q1063.4 1489.67 1060.32 1494.28 Q1057.27 1498.86 1051.46 1498.86 Q1045.65 1498.86 1042.57 1494.28 Q1039.51 1489.67 1039.51 1480.94 Q1039.51 1472.19 1042.57 1467.61 Q1045.65 1463 1051.46 1463 Z" fill="#000000" fill-rule="evenodd" fill-opacity="1" /><path clip-path="url(#clip900)" d="M 0 0 M1063.95 1467.58 L1070.15 1467.58 L1070.15 1446.16 L1063.4 1447.51 L1063.4 1444.05 L1070.12 1442.7 L1073.91 1442.7 L1073.91 1467.58 L1080.12 1467.58 L1080.12 1470.78 L1063.95 1470.78 L1063.95 1467.58 Z" fill="#000000" fill-rule="evenodd" fill-opacity="1" /><path clip-path="url(#clip900)" d="M 0 0 M1084.24 1466 L1088.21 1466 L1088.21 1470.78 L1084.24 1470.78 L1084.24 1466 Z" fill="#000000" fill-rule="evenodd" fill-opacity="1" /><path clip-path="url(#clip900)" d="M 0 0 M1100.45 1445.2 Q1097.52 1445.2 1096.03 1448.09 Q1094.57 1450.97 1094.57 1456.76 Q1094.57 1462.54 1096.03 1465.44 Q1097.52 1468.31 1100.45 1468.31 Q1103.4 1468.31 1104.87 1465.44 Q1106.36 1462.54 1106.36 1456.76 Q1106.36 1450.97 1104.87 1448.09 Q1103.4 1445.2 1100.45 1445.2 M1100.45 1442.19 Q1105.17 1442.19 1107.66 1445.93 Q1110.16 1449.66 1110.16 1456.76 Q1110.16 1463.86 1107.66 1467.6 Q1105.17 1471.32 1100.45 1471.32 Q1095.73 1471.32 1093.23 1467.6 Q1090.75 1463.86 1090.75 1456.76 Q1090.75 1449.66 1093.23 1445.93 Q1095.73 1442.19 1100.45 1442.19 Z" fill="#000000" fill-rule="evenodd" fill-opacity="1" /><path clip-path="url(#clip900)" d="M 0 0 M1382.56 1494.25 L1390.2 1494.25 L1390.2 1467.89 L1381.89 1469.55 L1381.89 1465.29 L1390.15 1463.63 L1394.83 1463.63 L1394.83 1494.25 L1402.47 1494.25 L1402.47 1498.19 L1382.56 1498.19 L1382.56 1494.25 Z" fill="#000000" fill-rule="evenodd" fill-opacity="1" /><path clip-path="url(#clip900)" d="M 0 0 M1417.54 1466.71 Q1413.93 1466.71 1412.1 1470.27 Q1410.29 1473.81 1410.29 1480.94 Q1410.29 1488.05 1412.1 1491.61 Q1413.93 1495.15 1417.54 1495.15 Q1421.17 1495.15 1422.98 1491.61 Q1424.81 1488.05 1424.81 1480.94 Q1424.81 1473.81 1422.98 1470.27 Q1421.17 1466.71 1417.54 1466.71 M1417.54 1463 Q1423.35 1463 1426.4 1467.61 Q1429.48 1472.19 1429.48 1480.94 Q1429.48 1489.67 1426.4 1494.28 Q1423.35 1498.86 1417.54 1498.86 Q1411.73 1498.86 1408.65 1494.28 Q1405.59 1489.67 1405.59 1480.94 Q1405.59 1472.19 1408.65 1467.61 Q1411.73 1463 1417.54 1463 Z" fill="#000000" fill-rule="evenodd" fill-opacity="1" /><path clip-path="url(#clip900)" d="M 0 0 M1430.03 1467.58 L1436.23 1467.58 L1436.23 1446.16 L1429.48 1447.51 L1429.48 1444.05 L1436.2 1442.7 L1440 1442.7 L1440 1467.58 L1446.2 1467.58 L1446.2 1470.78 L1430.03 1470.78 L1430.03 1467.58 Z" fill="#000000" fill-rule="evenodd" fill-opacity="1" /><path clip-path="url(#clip900)" d="M 0 0 M1450.32 1466 L1454.29 1466 L1454.29 1470.78 L1450.32 1470.78 L1450.32 1466 Z" fill="#000000" fill-rule="evenodd" fill-opacity="1" /><path clip-path="url(#clip900)" d="M 0 0 M1458.45 1442.7 L1473.36 1442.7 L1473.36 1445.89 L1461.93 1445.89 L1461.93 1452.78 Q1462.75 1452.5 1463.58 1452.36 Q1464.41 1452.21 1465.24 1452.21 Q1469.94 1452.21 1472.68 1454.79 Q1475.43 1457.37 1475.43 1461.77 Q1475.43 1466.3 1472.61 1468.82 Q1469.79 1471.32 1464.65 1471.32 Q1462.89 1471.32 1461.04 1471.02 Q1459.22 1470.72 1457.26 1470.12 L1457.26 1466.3 Q1458.95 1467.22 1460.76 1467.67 Q1462.57 1468.12 1464.58 1468.12 Q1467.83 1468.12 1469.73 1466.41 Q1471.63 1464.7 1471.63 1461.77 Q1471.63 1458.83 1469.73 1457.12 Q1467.83 1455.41 1464.58 1455.41 Q1463.05 1455.41 1461.53 1455.75 Q1460.03 1456.09 1458.45 1456.8 L1458.45 1442.7 Z" fill="#000000" fill-rule="evenodd" fill-opacity="1" /><path clip-path="url(#clip900)" d="M 0 0 M1747.28 1494.25 L1754.92 1494.25 L1754.92 1467.89 L1746.61 1469.55 L1746.61 1465.29 L1754.87 1463.63 L1759.55 1463.63 L1759.55 1494.25 L1767.19 1494.25 L1767.19 1498.19 L1747.28 1498.19 L1747.28 1494.25 Z" fill="#000000" fill-rule="evenodd" fill-opacity="1" /><path clip-path="url(#clip900)" d="M 0 0 M1782.26 1466.71 Q1778.65 1466.71 1776.82 1470.27 Q1775.01 1473.81 1775.01 1480.94 Q1775.01 1488.05 1776.82 1491.61 Q1778.65 1495.15 1782.26 1495.15 Q1785.89 1495.15 1787.7 1491.61 Q1789.53 1488.05 1789.53 1480.94 Q1789.53 1473.81 1787.7 1470.27 Q1785.89 1466.71 1782.26 1466.71 M1782.26 1463 Q1788.07 1463 1791.12 1467.61 Q1794.2 1472.19 1794.2 1480.94 Q1794.2 1489.67 1791.12 1494.28 Q1788.07 1498.86 1782.26 1498.86 Q1776.45 1498.86 1773.37 1494.28 Q1770.31 1489.67 1770.31 1480.94 Q1770.31 1472.19 1773.37 1467.61 Q1776.45 1463 1782.26 1463 Z" fill="#000000" fill-rule="evenodd" fill-opacity="1" /><path clip-path="url(#clip900)" d="M 0 0 M1798.77 1467.58 L1812.03 1467.58 L1812.03 1470.78 L1794.2 1470.78 L1794.2 1467.58 Q1796.36 1465.34 1800.09 1461.58 Q1803.83 1457.8 1804.79 1456.71 Q1806.61 1454.66 1807.33 1453.25 Q1808.06 1451.82 1808.06 1450.45 Q1808.06 1448.21 1806.48 1446.8 Q1804.92 1445.39 1802.4 1445.39 Q1800.61 1445.39 1798.62 1446.01 Q1796.65 1446.63 1794.39 1447.89 L1794.39 1444.05 Q1796.68 1443.13 1798.68 1442.66 Q1800.67 1442.19 1802.33 1442.19 Q1806.69 1442.19 1809.29 1444.37 Q1811.88 1446.55 1811.88 1450.2 Q1811.88 1451.93 1811.22 1453.49 Q1810.58 1455.03 1808.87 1457.14 Q1808.4 1457.69 1805.88 1460.3 Q1803.36 1462.9 1798.77 1467.58 Z" fill="#000000" fill-rule="evenodd" fill-opacity="1" /><path clip-path="url(#clip900)" d="M 0 0 M1816.15 1466 L1820.12 1466 L1820.12 1470.78 L1816.15 1470.78 L1816.15 1466 Z" fill="#000000" fill-rule="evenodd" fill-opacity="1" /><path clip-path="url(#clip900)" d="M 0 0 M1832.36 1445.2 Q1829.43 1445.2 1827.94 1448.09 Q1826.48 1450.97 1826.48 1456.76 Q1826.48 1462.54 1827.94 1465.44 Q1829.43 1468.31 1832.36 1468.31 Q1835.32 1468.31 1836.78 1465.44 Q1838.27 1462.54 1838.27 1456.76 Q1838.27 1450.97 1836.78 1448.09 Q1835.32 1445.2 1832.36 1445.2 M1832.36 1442.19 Q1837.08 1442.19 1839.57 1445.93 Q1842.07 1449.66 1842.07 1456.76 Q1842.07 1463.86 1839.57 1467.6 Q1837.08 1471.32 1832.36 1471.32 Q1827.64 1471.32 1825.14 1467.6 Q1822.66 1463.86 1822.66 1456.76 Q1822.66 1449.66 1825.14 1445.93 Q1827.64 1442.19 1832.36 1442.19 Z" fill="#000000" fill-rule="evenodd" fill-opacity="1" /><path clip-path="url(#clip900)" d="M 0 0 M2113.36 1494.25 L2121 1494.25 L2121 1467.89 L2112.69 1469.55 L2112.69 1465.29 L2120.95 1463.63 L2125.63 1463.63 L2125.63 1494.25 L2133.27 1494.25 L2133.27 1498.19 L2113.36 1498.19 L2113.36 1494.25 Z" fill="#000000" fill-rule="evenodd" fill-opacity="1" /><path clip-path="url(#clip900)" d="M 0 0 M2148.34 1466.71 Q2144.73 1466.71 2142.9 1470.27 Q2141.09 1473.81 2141.09 1480.94 Q2141.09 1488.05 2142.9 1491.61 Q2144.73 1495.15 2148.34 1495.15 Q2151.97 1495.15 2153.78 1491.61 Q2155.61 1488.05 2155.61 1480.94 Q2155.61 1473.81 2153.78 1470.27 Q2151.97 1466.71 2148.34 1466.71 M2148.34 1463 Q2154.15 1463 2157.2 1467.61 Q2160.28 1472.19 2160.28 1480.94 Q2160.28 1489.67 2157.2 1494.28 Q2154.15 1498.86 2148.34 1498.86 Q2142.53 1498.86 2139.45 1494.28 Q2136.39 1489.67 2136.39 1480.94 Q2136.39 1472.19 2139.45 1467.61 Q2142.53 1463 2148.34 1463 Z" fill="#000000" fill-rule="evenodd" fill-opacity="1" /><path clip-path="url(#clip900)" d="M 0 0 M2164.85 1467.58 L2178.11 1467.58 L2178.11 1470.78 L2160.28 1470.78 L2160.28 1467.58 Q2162.45 1465.34 2166.17 1461.58 Q2169.91 1457.8 2170.87 1456.71 Q2172.7 1454.66 2173.41 1453.25 Q2174.14 1451.82 2174.14 1450.45 Q2174.14 1448.21 2172.56 1446.8 Q2171 1445.39 2168.48 1445.39 Q2166.7 1445.39 2164.7 1446.01 Q2162.73 1446.63 2160.47 1447.89 L2160.47 1444.05 Q2162.77 1443.13 2164.76 1442.66 Q2166.75 1442.19 2168.41 1442.19 Q2172.77 1442.19 2175.37 1444.37 Q2177.96 1446.55 2177.96 1450.2 Q2177.96 1451.93 2177.3 1453.49 Q2176.66 1455.03 2174.95 1457.14 Q2174.48 1457.69 2171.96 1460.3 Q2169.44 1462.9 2164.85 1467.58 Z" fill="#000000" fill-rule="evenodd" fill-opacity="1" /><path clip-path="url(#clip900)" d="M 0 0 M2182.23 1466 L2186.2 1466 L2186.2 1470.78 L2182.23 1470.78 L2182.23 1466 Z" fill="#000000" fill-rule="evenodd" fill-opacity="1" /><path clip-path="url(#clip900)" d="M 0 0 M2190.36 1442.7 L2205.27 1442.7 L2205.27 1445.89 L2193.84 1445.89 L2193.84 1452.78 Q2194.66 1452.5 2195.49 1452.36 Q2196.32 1452.21 2197.15 1452.21 Q2201.85 1452.21 2204.59 1454.79 Q2207.34 1457.37 2207.34 1461.77 Q2207.34 1466.3 2204.52 1468.82 Q2201.7 1471.32 2196.56 1471.32 Q2194.8 1471.32 2192.95 1471.02 Q2191.13 1470.72 2189.17 1470.12 L2189.17 1466.3 Q2190.86 1467.22 2192.67 1467.67 Q2194.48 1468.12 2196.49 1468.12 Q2199.74 1468.12 2201.64 1466.41 Q2203.54 1464.7 2203.54 1461.77 Q2203.54 1458.83 2201.64 1457.12 Q2199.74 1455.41 2196.49 1455.41 Q2194.96 1455.41 2193.44 1455.75 Q2191.94 1456.09 2190.36 1456.8 L2190.36 1442.7 Z" fill="#000000" fill-rule="evenodd" fill-opacity="1" /><path clip-path="url(#clip900)" d="M 0 0 M159.897 1137.25 L167.536 1137.25 L167.536 1110.88 L159.226 1112.55 L159.226 1108.29 L167.49 1106.62 L172.166 1106.62 L172.166 1137.25 L179.804 1137.25 L179.804 1141.18 L159.897 1141.18 L159.897 1137.25 Z" fill="#000000" fill-rule="evenodd" fill-opacity="1" /><path clip-path="url(#clip900)" d="M 0 0 M194.874 1109.7 Q191.263 1109.7 189.434 1113.27 Q187.628 1116.81 187.628 1123.94 Q187.628 1131.04 189.434 1134.61 Q191.263 1138.15 194.874 1138.15 Q198.508 1138.15 200.314 1134.61 Q202.142 1131.04 202.142 1123.94 Q202.142 1116.81 200.314 1113.27 Q198.508 1109.7 194.874 1109.7 M194.874 1106 Q200.684 1106 203.739 1110.6 Q206.818 1115.19 206.818 1123.94 Q206.818 1132.66 203.739 1137.27 Q200.684 1141.85 194.874 1141.85 Q189.064 1141.85 185.985 1137.27 Q182.929 1132.66 182.929 1123.94 Q182.929 1115.19 185.985 1110.6 Q189.064 1106 194.874 1106 Z" fill="#000000" fill-rule="evenodd" fill-opacity="1" /><path clip-path="url(#clip900)" d="M 0 0 M206.818 1101.68 L216.956 1101.68 L216.956 1104.76 L206.818 1104.76 L206.818 1101.68 Z" fill="#000000" fill-rule="evenodd" fill-opacity="1" /><path clip-path="url(#clip900)" d="M 0 0 M235.5 1110.57 L248.76 1110.57 L248.76 1113.77 L230.93 1113.77 L230.93 1110.57 Q233.093 1108.34 236.817 1104.57 Q240.559 1100.79 241.519 1099.7 Q243.343 1097.65 244.058 1096.24 Q244.791 1094.81 244.791 1093.44 Q244.791 1091.2 243.211 1089.79 Q241.65 1088.38 239.13 1088.38 Q237.343 1088.38 235.35 1089 Q233.375 1089.62 231.118 1090.88 L231.118 1087.05 Q233.412 1086.12 235.406 1085.65 Q237.4 1085.18 239.055 1085.18 Q243.418 1085.18 246.014 1087.37 Q248.609 1089.55 248.609 1093.2 Q248.609 1094.93 247.951 1096.49 Q247.311 1098.03 245.6 1100.14 Q245.13 1100.68 242.609 1103.3 Q240.089 1105.89 235.5 1110.57 Z" fill="#000000" fill-rule="evenodd" fill-opacity="1" /><path clip-path="url(#clip900)" d="M 0 0 M182.429 795.561 L190.068 795.561 L190.068 769.195 L181.758 770.862 L181.758 766.603 L190.021 764.936 L194.697 764.936 L194.697 795.561 L202.336 795.561 L202.336 799.496 L182.429 799.496 L182.429 795.561 Z" fill="#000000" fill-rule="evenodd" fill-opacity="1" /><path clip-path="url(#clip900)" d="M 0 0 M217.406 768.015 Q213.794 768.015 211.966 771.579 Q210.16 775.121 210.16 782.251 Q210.16 789.357 211.966 792.922 Q213.794 796.464 217.406 796.464 Q221.04 796.464 222.845 792.922 Q224.674 789.357 224.674 782.251 Q224.674 775.121 222.845 771.579 Q221.04 768.015 217.406 768.015 M217.406 764.311 Q223.216 764.311 226.271 768.917 Q229.35 773.501 229.35 782.251 Q229.35 790.977 226.271 795.584 Q223.216 800.167 217.406 800.167 Q211.595 800.167 208.517 795.584 Q205.461 790.977 205.461 782.251 Q205.461 773.501 208.517 768.917 Q211.595 764.311 217.406 764.311 Z" fill="#000000" fill-rule="evenodd" fill-opacity="1" /><path clip-path="url(#clip900)" d="M 0 0 M239.055 746.507 Q236.121 746.507 234.635 749.403 Q233.168 752.281 233.168 758.074 Q233.168 763.848 234.635 766.744 Q236.121 769.622 239.055 769.622 Q242.008 769.622 243.475 766.744 Q244.96 763.848 244.96 758.074 Q244.96 752.281 243.475 749.403 Q242.008 746.507 239.055 746.507 M239.055 743.498 Q243.775 743.498 246.258 747.24 Q248.76 750.964 248.76 758.074 Q248.76 765.164 246.258 768.907 Q243.775 772.631 239.055 772.631 Q234.334 772.631 231.833 768.907 Q229.35 765.164 229.35 758.074 Q229.35 750.964 231.833 747.24 Q234.334 743.498 239.055 743.498 Z" fill="#000000" fill-rule="evenodd" fill-opacity="1" /><path clip-path="url(#clip900)" d="M 0 0 M184.009 453.875 L191.648 453.875 L191.648 427.509 L183.337 429.176 L183.337 424.917 L191.601 423.25 L196.277 423.25 L196.277 453.875 L203.916 453.875 L203.916 457.81 L184.009 457.81 L184.009 453.875 Z" fill="#000000" fill-rule="evenodd" fill-opacity="1" /><path clip-path="url(#clip900)" d="M 0 0 M218.985 426.329 Q215.374 426.329 213.546 429.893 Q211.74 433.435 211.74 440.565 Q211.74 447.671 213.546 451.236 Q215.374 454.777 218.985 454.777 Q222.62 454.777 224.425 451.236 Q226.254 447.671 226.254 440.565 Q226.254 433.435 224.425 429.893 Q222.62 426.329 218.985 426.329 M218.985 422.625 Q224.796 422.625 227.851 427.231 Q230.93 431.815 230.93 440.565 Q230.93 449.291 227.851 453.898 Q224.796 458.481 218.985 458.481 Q213.175 458.481 210.097 453.898 Q207.041 449.291 207.041 440.565 Q207.041 431.815 210.097 427.231 Q213.175 422.625 218.985 422.625 Z" fill="#000000" fill-rule="evenodd" fill-opacity="1" /><path clip-path="url(#clip900)" d="M 0 0 M235.5 427.202 L248.76 427.202 L248.76 430.399 L230.93 430.399 L230.93 427.202 Q233.093 424.964 236.817 421.202 Q240.559 417.422 241.519 416.331 Q243.343 414.281 244.058 412.871 Q244.791 411.441 244.791 410.068 Q244.791 407.83 243.211 406.42 Q241.65 405.009 239.13 405.009 Q237.343 405.009 235.35 405.63 Q233.375 406.25 231.118 407.51 L231.118 403.674 Q233.412 402.752 235.406 402.282 Q237.4 401.812 239.055 401.812 Q243.418 401.812 246.014 403.993 Q248.609 406.175 248.609 409.824 Q248.609 411.554 247.951 413.115 Q247.311 414.657 245.6 416.764 Q245.13 417.309 242.609 419.924 Q240.089 422.519 235.5 427.202 Z" fill="#000000" fill-rule="evenodd" fill-opacity="1" /><path clip-path="url(#clip900)" d="M 0 0 M181.376 112.189 L189.014 112.189 L189.014 85.823 L180.704 87.4897 L180.704 83.2304 L188.968 81.5638 L193.644 81.5638 L193.644 112.189 L201.283 112.189 L201.283 116.124 L181.376 116.124 L181.376 112.189 Z" fill="#000000" fill-rule="evenodd" fill-opacity="1" /><path clip-path="url(#clip900)" d="M 0 0 M216.352 84.6425 Q212.741 84.6425 210.912 88.2073 Q209.107 91.7489 209.107 98.8785 Q209.107 105.985 210.912 109.55 Q212.741 113.091 216.352 113.091 Q219.987 113.091 221.792 109.55 Q223.621 105.985 223.621 98.8785 Q223.621 91.7489 221.792 88.2073 Q219.987 84.6425 216.352 84.6425 M216.352 80.9388 Q222.162 80.9388 225.218 85.5452 Q228.297 90.1286 228.297 98.8785 Q228.297 107.605 225.218 112.212 Q222.162 116.795 216.352 116.795 Q210.542 116.795 207.463 112.212 Q204.408 107.605 204.408 98.8785 Q204.408 90.1286 207.463 85.5452 Q210.542 80.9388 216.352 80.9388 Z" fill="#000000" fill-rule="evenodd" fill-opacity="1" /><path clip-path="url(#clip900)" d="M 0 0 M240.973 63.9436 L231.381 78.9333 L240.973 78.9333 L240.973 63.9436 M239.976 60.6334 L244.753 60.6334 L244.753 78.9333 L248.76 78.9333 L248.76 82.0931 L244.753 82.0931 L244.753 88.7134 L240.973 88.7134 L240.973 82.0931 L228.297 82.0931 L228.297 78.4255 L239.976 60.6334 Z" fill="#000000" fill-rule="evenodd" fill-opacity="1" /><path clip-path="url(#clip900)" d="M 0 0 M1179.38 1508.52 L1185.81 1508.52 L1185.81 1556.04 L1179.38 1556.04 L1179.38 1508.52 Z" fill="#000000" fill-rule="evenodd" fill-opacity="1" /><path clip-path="url(#clip900)" d="M 0 0 M1197.75 1510.27 L1197.75 1520.4 L1209.81 1520.4 L1209.81 1524.95 L1197.75 1524.95 L1197.75 1544.3 Q1197.75 1548.66 1198.92 1549.9 Q1200.13 1551.14 1203.79 1551.14 L1209.81 1551.14 L1209.81 1556.04 L1203.79 1556.04 Q1197.01 1556.04 1194.44 1553.53 Q1191.86 1550.98 1191.86 1544.3 L1191.86 1524.95 L1187.56 1524.95 L1187.56 1520.4 L1191.86 1520.4 L1191.86 1510.27 L1197.75 1510.27 Z" fill="#000000" fill-rule="evenodd" fill-opacity="1" /><path clip-path="url(#clip900)" d="M 0 0 M1246.44 1536.76 L1246.44 1539.62 L1219.52 1539.62 Q1219.9 1545.67 1223.14 1548.85 Q1226.42 1552 1232.25 1552 Q1235.62 1552 1238.77 1551.17 Q1241.96 1550.35 1245.07 1548.69 L1245.07 1554.23 Q1241.92 1555.57 1238.61 1556.27 Q1235.3 1556.97 1231.9 1556.97 Q1223.37 1556.97 1218.37 1552 Q1213.4 1547.04 1213.4 1538.57 Q1213.4 1529.82 1218.12 1524.69 Q1222.86 1519.54 1230.88 1519.54 Q1238.07 1519.54 1242.24 1524.18 Q1246.44 1528.8 1246.44 1536.76 M1240.59 1535.04 Q1240.52 1530.23 1237.88 1527.37 Q1235.27 1524.5 1230.94 1524.5 Q1226.04 1524.5 1223.08 1527.27 Q1220.15 1530.04 1219.71 1535.07 L1240.59 1535.04 Z" fill="#000000" fill-rule="evenodd" fill-opacity="1" /><path clip-path="url(#clip900)" d="M 0 0 M1273.24 1525.87 Q1272.26 1525.3 1271.08 1525.04 Q1269.93 1524.76 1268.53 1524.76 Q1263.57 1524.76 1260.89 1528 Q1258.25 1531.22 1258.25 1537.27 L1258.25 1556.04 L1252.36 1556.04 L1252.36 1520.4 L1258.25 1520.4 L1258.25 1525.93 Q1260.1 1522.69 1263.06 1521.13 Q1266.02 1519.54 1270.25 1519.54 Q1270.86 1519.54 1271.59 1519.63 Q1272.32 1519.7 1273.21 1519.85 L1273.24 1525.87 Z" fill="#000000" fill-rule="evenodd" fill-opacity="1" /><path clip-path="url(#clip900)" d="M 0 0 M1295.59 1538.12 Q1288.49 1538.12 1285.75 1539.75 Q1283.01 1541.37 1283.01 1545.29 Q1283.01 1548.4 1285.05 1550.25 Q1287.12 1552.07 1290.65 1552.07 Q1295.52 1552.07 1298.45 1548.63 Q1301.41 1545.16 1301.41 1539.43 L1301.41 1538.12 L1295.59 1538.12 M1307.27 1535.71 L1307.27 1556.04 L1301.41 1556.04 L1301.41 1550.63 Q1299.41 1553.88 1296.41 1555.44 Q1293.42 1556.97 1289.09 1556.97 Q1283.62 1556.97 1280.37 1553.91 Q1277.16 1550.82 1277.16 1545.67 Q1277.16 1539.65 1281.17 1536.6 Q1285.21 1533.54 1293.2 1533.54 L1301.41 1533.54 L1301.41 1532.97 Q1301.41 1528.93 1298.74 1526.73 Q1296.1 1524.5 1291.29 1524.5 Q1288.23 1524.5 1285.34 1525.23 Q1282.44 1525.97 1279.77 1527.43 L1279.77 1522.02 Q1282.98 1520.78 1286.01 1520.17 Q1289.03 1519.54 1291.89 1519.54 Q1299.63 1519.54 1303.45 1523.55 Q1307.27 1527.56 1307.27 1535.71 Z" fill="#000000" fill-rule="evenodd" fill-opacity="1" /><path clip-path="url(#clip900)" d="M 0 0 M1319.2 1510.27 L1319.2 1520.4 L1331.27 1520.4 L1331.27 1524.95 L1319.2 1524.95 L1319.2 1544.3 Q1319.2 1548.66 1320.38 1549.9 Q1321.59 1551.14 1325.25 1551.14 L1331.27 1551.14 L1331.27 1556.04 L1325.25 1556.04 Q1318.47 1556.04 1315.89 1553.53 Q1313.31 1550.98 1313.31 1544.3 L1313.31 1524.95 L1309.02 1524.95 L1309.02 1520.4 L1313.31 1520.4 L1313.31 1510.27 L1319.2 1510.27 Z" fill="#000000" fill-rule="evenodd" fill-opacity="1" /><path clip-path="url(#clip900)" d="M 0 0 M1337.41 1520.4 L1343.27 1520.4 L1343.27 1556.04 L1337.41 1556.04 L1337.41 1520.4 M1337.41 1506.52 L1343.27 1506.52 L1343.27 1513.93 L1337.41 1513.93 L1337.41 1506.52 Z" fill="#000000" fill-rule="evenodd" fill-opacity="1" /><path clip-path="url(#clip900)" d="M 0 0 M1363.22 1524.5 Q1358.51 1524.5 1355.77 1528.19 Q1353.04 1531.85 1353.04 1538.25 Q1353.04 1544.65 1355.74 1548.34 Q1358.48 1552 1363.22 1552 Q1367.9 1552 1370.64 1548.31 Q1373.38 1544.62 1373.38 1538.25 Q1373.38 1531.92 1370.64 1528.23 Q1367.9 1524.5 1363.22 1524.5 M1363.22 1519.54 Q1370.86 1519.54 1375.22 1524.5 Q1379.58 1529.47 1379.58 1538.25 Q1379.58 1547 1375.22 1552 Q1370.86 1556.97 1363.22 1556.97 Q1355.55 1556.97 1351.19 1552 Q1346.86 1547 1346.86 1538.25 Q1346.86 1529.47 1351.19 1524.5 Q1355.55 1519.54 1363.22 1519.54 Z" fill="#000000" fill-rule="evenodd" fill-opacity="1" /><path clip-path="url(#clip900)" d="M 0 0 M1415.36 1534.53 L1415.36 1556.04 L1409.5 1556.04 L1409.5 1534.72 Q1409.5 1529.66 1407.53 1527.14 Q1405.55 1524.63 1401.61 1524.63 Q1396.86 1524.63 1394.13 1527.65 Q1391.39 1530.68 1391.39 1535.9 L1391.39 1556.04 L1385.5 1556.04 L1385.5 1520.4 L1391.39 1520.4 L1391.39 1525.93 Q1393.49 1522.72 1396.32 1521.13 Q1399.19 1519.54 1402.91 1519.54 Q1409.05 1519.54 1412.21 1523.36 Q1415.36 1527.14 1415.36 1534.53 Z" fill="#000000" fill-rule="evenodd" fill-opacity="1" /><path clip-path="url(#clip900)" d="M 0 0 M1444.23 1521.45 L1444.23 1526.98 Q1441.74 1525.71 1439.07 1525.07 Q1436.4 1524.44 1433.53 1524.44 Q1429.17 1524.44 1426.97 1525.77 Q1424.81 1527.11 1424.81 1529.79 Q1424.81 1531.82 1426.37 1533 Q1427.93 1534.15 1432.64 1535.2 L1434.65 1535.64 Q1440.88 1536.98 1443.49 1539.43 Q1446.14 1541.85 1446.14 1546.21 Q1446.14 1551.17 1442.19 1554.07 Q1438.27 1556.97 1431.4 1556.97 Q1428.53 1556.97 1425.41 1556.39 Q1422.33 1555.85 1418.89 1554.74 L1418.89 1548.69 Q1422.14 1550.38 1425.29 1551.24 Q1428.44 1552.07 1431.53 1552.07 Q1435.66 1552.07 1437.89 1550.66 Q1440.12 1549.23 1440.12 1546.65 Q1440.12 1544.27 1438.5 1542.99 Q1436.9 1541.72 1431.46 1540.54 L1429.43 1540.07 Q1423.98 1538.92 1421.56 1536.56 Q1419.14 1534.18 1419.14 1530.04 Q1419.14 1525.01 1422.71 1522.27 Q1426.27 1519.54 1432.83 1519.54 Q1436.08 1519.54 1438.94 1520.01 Q1441.81 1520.49 1444.23 1521.45 Z" fill="#000000" fill-rule="evenodd" fill-opacity="1" /><path clip-path="url(#clip900)" d="M 0 0 M40.4842 798.36 L40.4842 791.93 L82.5933 791.93 L82.5933 768.791 L88.0042 768.791 L88.0042 798.36 L40.4842 798.36 Z" fill="#000000" fill-rule="evenodd" fill-opacity="1" /><path clip-path="url(#clip900)" d="M 0 0 M56.4621 749.98 Q56.4621 754.691 60.1542 757.428 Q63.8145 760.166 70.212 760.166 Q76.6095 760.166 80.3017 757.46 Q83.9619 754.723 83.9619 749.98 Q83.9619 745.302 80.2698 742.564 Q76.5777 739.827 70.212 739.827 Q63.8781 739.827 60.186 742.564 Q56.4621 745.302 56.4621 749.98 M51.4968 749.98 Q51.4968 742.342 56.4621 737.981 Q61.4273 733.621 70.212 733.621 Q78.9649 733.621 83.9619 737.981 Q88.9272 742.342 88.9272 749.98 Q88.9272 757.651 83.9619 762.012 Q78.9649 766.34 70.212 766.34 Q61.4273 766.34 56.4621 762.012 Q51.4968 757.651 51.4968 749.98 Z" fill="#000000" fill-rule="evenodd" fill-opacity="1" /><path clip-path="url(#clip900)" d="M 0 0 M53.4065 704.752 L58.9447 704.752 Q57.6716 707.235 57.035 709.908 Q56.3984 712.582 56.3984 715.446 Q56.3984 719.807 57.7352 722.003 Q59.072 724.167 61.7456 724.167 Q63.7826 724.167 64.9603 722.608 Q66.1061 721.048 67.1565 716.338 L67.6021 714.332 Q68.9389 708.094 71.3897 705.484 Q73.8086 702.842 78.1691 702.842 Q83.1344 702.842 86.0308 706.789 Q88.9272 710.704 88.9272 717.579 Q88.9272 720.444 88.3543 723.563 Q87.8132 726.65 86.6992 730.088 L80.6518 730.088 Q82.3387 726.841 83.198 723.69 Q84.0256 720.539 84.0256 717.452 Q84.0256 713.314 82.6251 711.086 Q81.1929 708.858 78.6147 708.858 Q76.2276 708.858 74.9545 710.481 Q73.6813 712.073 72.5037 717.515 L72.0262 719.552 Q70.8804 724.995 68.5251 727.414 Q66.138 729.833 62.0002 729.833 Q56.9713 729.833 54.2341 726.268 Q51.4968 722.703 51.4968 716.147 Q51.4968 712.9 51.9743 710.036 Q52.4517 707.171 53.4065 704.752 Z" fill="#000000" fill-rule="evenodd" fill-opacity="1" /><path clip-path="url(#clip900)" d="M 0 0 M53.4065 673.974 L58.9447 673.974 Q57.6716 676.456 57.035 679.13 Q56.3984 681.804 56.3984 684.668 Q56.3984 689.029 57.7352 691.225 Q59.072 693.389 61.7456 693.389 Q63.7826 693.389 64.9603 691.83 Q66.1061 690.27 67.1565 685.559 L67.6021 683.554 Q68.9389 677.316 71.3897 674.706 Q73.8086 672.064 78.1691 672.064 Q83.1344 672.064 86.0308 676.011 Q88.9272 679.926 88.9272 686.801 Q88.9272 689.665 88.3543 692.785 Q87.8132 695.872 86.6992 699.309 L80.6518 699.309 Q82.3387 696.063 83.198 692.912 Q84.0256 689.761 84.0256 686.673 Q84.0256 682.536 82.6251 680.308 Q81.1929 678.08 78.6147 678.08 Q76.2276 678.08 74.9545 679.703 Q73.6813 681.294 72.5037 686.737 L72.0262 688.774 Q70.8804 694.217 68.5251 696.636 Q66.138 699.055 62.0002 699.055 Q56.9713 699.055 54.2341 695.49 Q51.4968 691.925 51.4968 685.368 Q51.4968 682.122 51.9743 679.257 Q52.4517 676.393 53.4065 673.974 Z" fill="#000000" fill-rule="evenodd" fill-opacity="1" /><polyline clip-path="url(#clip902)" style="stroke:#009af9; stroke-width:12; stroke-opacity:1; fill:none" points="
  331.627,86.1857 551.787,330.577 680.572,272.036 771.947,247.593 842.823,284.17 900.732,345.578 949.694,409.586 992.107,458.951 1029.52,492.984 1062.98,516.498 
  1093.26,533.003 1120.89,544.727 1146.32,553.142 1169.85,559.25 1191.77,563.736 1212.27,567.076 1231.52,569.599 1249.68,571.535 1266.85,573.047 1283.14,574.25 
  1298.64,575.226 1313.42,576.037 1327.53,576.724 1341.05,577.321 1354.02,577.851 1366.48,578.333 1378.46,578.78 1390.01,579.202 1401.16,579.607 1411.93,580 
  1422.34,580.386 1432.43,580.769 1442.2,581.151 1451.68,581.534 1460.89,581.919 1469.84,582.308 1478.54,582.702 1487.01,583.1 1495.26,583.504 1503.3,583.913 
  1511.15,584.328 1518.8,584.75 1526.27,585.177 1533.58,585.61 1540.71,586.048 1547.69,586.493 1554.53,586.943 1561.21,587.398 1567.76,587.859 1574.18,588.325 
  1580.47,588.796 1586.64,589.272 1592.69,589.752 1598.62,590.237 1604.45,590.726 1610.17,591.22 1615.8,591.717 1621.32,592.218 1626.75,592.723 1632.09,593.232 
  1637.34,593.744 1642.5,594.259 1647.58,594.777 1652.59,595.298 1657.51,595.822 1662.36,596.349 1667.14,596.878 1671.84,597.41 1676.48,597.944 1681.05,598.48 
  1685.55,599.018 1690,599.558 1694.38,600.1 1698.7,600.644 1702.96,601.189 1707.17,601.736 1711.32,602.284 1715.42,602.833 1719.47,603.383 1723.46,603.934 
  1727.41,604.486 1731.31,605.039 1735.16,605.592 1738.96,606.146 1742.72,606.701 1746.43,607.255 1750.11,607.81 1753.74,608.365 1757.32,608.92 1760.87,609.475 
  1764.38,610.03 1767.85,610.584 1771.29,611.138 1774.68,611.692 1778.05,612.245 1781.37,612.797 1784.66,613.348 1787.92,613.898 1791.15,614.447 1794.34,614.996 
  1797.5,615.543 1800.63,616.088 1803.73,616.633 1806.8,617.175 1809.83,617.716 1812.85,618.256 1815.83,618.794 1818.78,619.33 1821.71,619.864 1824.61,620.397 
  1827.49,620.927 1830.33,621.455 1833.16,621.981 1835.96,622.504 1838.73,623.025 1841.48,623.544 1844.21,624.061 1846.91,624.575 1849.59,625.086 1852.25,625.595 
  1854.88,626.101 1857.5,626.604 1860.09,627.105 1862.66,627.603 1865.21,628.098 1867.74,628.59 1870.26,629.08 1872.75,629.566 1875.22,630.05 1877.67,630.53 
  1880.1,631.008 1882.52,631.482 1884.92,631.954 1887.3,632.422 1889.66,632.888 1892,633.35 1894.33,633.81 1896.64,634.267 1898.93,634.72 1901.21,635.171 
  1903.47,635.618 1905.71,636.063 1907.94,636.505 1910.16,636.944 1912.36,637.38 1914.54,637.813 1916.71,638.243 1918.86,638.671 1921,639.096 1923.12,639.518 
  1925.23,639.937 1927.33,640.354 1929.41,640.769 1931.48,641.181 1933.54,641.59 1935.58,641.997 1937.61,642.401 1939.63,642.804 1941.63,643.204 1943.62,643.602 
  1945.6,643.997 1947.57,644.391 1949.52,644.783 1951.47,645.172 1953.4,645.56 1955.32,645.946 1957.22,646.33 1959.12,646.713 1961,647.094 1962.88,647.473 
  1964.74,647.851 1966.59,648.227 1968.43,648.602 1970.26,648.976 1972.09,649.349 1973.89,649.72 1975.69,650.09 1977.48,650.459 1979.26,650.827 1981.03,651.194 
  1982.79,651.561 1984.54,651.926 1986.28,652.291 1988.01,652.655 1989.74,653.018 1991.45,653.381 1993.15,653.744 1994.84,654.105 1996.53,654.467 1998.21,654.828 
  1999.87,655.189 2001.53,655.549 2003.18,655.909 2004.82,656.269 2006.46,656.629 2008.08,656.989 2009.7,657.349 2011.31,657.709 2012.91,658.069 2014.5,658.429 
  2016.08,658.429 2017.66,658.789 2019.23,701.48 2020.79,729.473 2022.34,742.133 2023.89,750.154 2025.42,774.552 2026.96,778.251 2028.48,785.646 2029.99,791.769 
  2031.5,851.163 2033.01,867.004 2034.5,880.752 2035.99,917.474 2037.47,939.409 2038.94,942.652 2040.41,947.691 2041.87,948.203 2043.32,948.494 2044.77,948.975 
  2046.21,954.812 2047.65,966.369 2049.07,975.694 2050.49,976.328 2051.91,976.578 2053.32,977.071 2054.72,978.169 2056.12,980.036 2057.51,990.965 2058.89,1036.97 
  2060.27,1039.87 2061.64,1057.46 2063.01,1059.78 2064.37,1062.4 2065.72,1067.04 2067.07,1069.68 2068.41,1071.28 2069.75,1072.28 2071.08,1073.87 2072.41,1075.1 
  2073.73,1076.23 2075.04,1076.59 2076.35,1076.9 2077.66,1077 2078.96,1077.28 2080.25,1077.54 2081.54,1077.78 2082.82,1078.17 2084.1,1079.53 2085.37,1080.94 
  2086.64,1081.54 2087.9,1082.27 2089.16,1083.25 2090.42,1084.56 2091.66,1086.2 2092.91,1087.73 2094.14,1090.47 2095.38,1097.51 2096.61,1100.27 2097.83,1113.62 
  2099.05,1117.8 2100.26,1119.94 2101.47,1121.86 2102.68,1123.84 2103.88,1128.88 2105.08,1148.03 2106.27,1158.25 2107.46,1177.9 2108.64,1180.71 2109.82,1189.16 
  2110.99,1193.42 2112.16,1197.63 2113.33,1199.55 2114.49,1202.46 2115.65,1204.54 2116.8,1205.2 2117.95,1206.02 2119.09,1206.39 2120.23,1206.53 2121.37,1206.63 
  2122.5,1206.7 2123.63,1206.92 2124.75,1207.02 2125.87,1207.17 2126.99,1207.21 2128.1,1207.29 2129.21,1207.34 2130.32,1207.35 2131.42,1207.37 2132.52,1207.42 
  2133.61,1207.6 2134.7,1207.64 2135.78,1207.75 2136.87,1207.93 2137.94,1208.17 2139.02,1208.22 2140.09,1208.45 2141.16,1208.84 2142.22,1209.13 2143.28,1209.96 
  2144.34,1210.38 2145.39,1211.37 2146.44,1213.52 2147.49,1213.94 2148.53,1216.64 2149.57,1219.36 2150.61,1220.5 2151.64,1222.14 2152.67,1222.54 2153.7,1223.29 
  2154.72,1224.1 2155.74,1225.11 2156.76,1226.91 2157.77,1228.31 2158.78,1229.91 2159.79,1231.56 2160.79,1232.52 2161.79,1233.69 2162.79,1234.84 2163.78,1235.63 
  2164.77,1237.24 2165.76,1238.63 2166.75,1238.82 2167.73,1239.62 2168.71,1240.26 2169.68,1240.75 2170.66,1241.15 2171.63,1241.89 2172.59,1242.42 2173.56,1242.9 
  2174.52,1244.49 2175.48,1246.87 2176.43,1247.8 2177.38,1248.21 2178.33,1248.52 2179.28,1249.24 2180.22,1249.43 2181.16,1249.68 2182.1,1249.76 2183.04,1249.8 
  2183.97,1249.84 2184.9,1249.99 2185.83,1250.29 2186.75,1250.66 2187.67,1250.89 2188.59,1251.06 2189.51,1251.23 2190.42,1251.44 2191.34,1251.51 2192.25,1251.65 
  2193.15,1251.75 2194.05,1252.64 2194.96,1253.77 2195.85,1254.71 2196.75,1254.99 2197.64,1255.99 2198.53,1256.8 2199.42,1257.45 2200.31,1258.19 2201.19,1258.7 
  2202.07,1259.56 2202.95,1259.85 2203.83,1260.3 2204.7,1261.19 2205.57,1261.4 2206.44,1261.9 2207.31,1262.02 2208.17,1262.75 2209.04,1263.06 2209.9,1265.19 
  2210.75,1265.8 2211.61,1267.57 2212.46,1267.57 2213.31,1268.66 2214.16,1272.54 2215,1274.72 2215.85,1276.44 2216.69,1278.06 2217.53,1279.15 2218.37,1280.72 
  2219.2,1283.23 2220.03,1286.05 2220.86,1287.45 2221.69,1289.29 2222.52,1291.92 2223.34,1293.8 2224.16,1295.49 2224.98,1296.75 2225.8,1297.84 2226.62,1299.39 
  2227.43,1300.21 2228.24,1302 2229.05,1303.48 2229.86,1305.56 2230.66,1308.1 2231.47,1310.93 2232.27,1312.09 2233.07,1313.25 2233.86,1314.9 2234.66,1317.11 
  2235.45,1318.27 2236.24,1321.11 2237.03,1322.97 2237.82,1324.28 2238.6,1325.53 2239.39,1326.73 2240.17,1328.15 2240.95,1329.67 2241.73,1331.3 2242.5,1332.18 
  2243.27,1333.23 2244.05,1333.96 2244.82,1334.98 2245.58,1335.34 2246.35,1336.48 2247.12,1338.15 2247.88,1338.46 2248.64,1338.74 2249.4,1338.98 2250.15,1339.29 
  2250.91,1339.76 2251.66,1340.31 2252.42,1340.34 2253.17,1340.55 2253.91,1340.75 2254.66,1341.17 2255.4,1341.21 2256.15,1341.34 2256.89,1341.44 2257.63,1341.58 
  2258.37,1341.61 2259.1,1341.67 2259.84,1341.72 2260.57,1341.82 2261.3,1341.97 2262.03,1342.06 2262.76,1342.59 2263.48,1343.76 2264.21,1343.95 2264.93,1344.23 
  2265.65,1344.85 2266.37,1345.63 2267.09,1347.22 2267.8,1348.06 2268.52,1349.7 2269.23,1349.84 2269.94,1350.69 2270.65,1351.3 2271.36,1351.73 2272.07,1352.69 
  2272.77,1353.29 2273.48,1354.35 2274.18,1354.97 2274.88,1355.45 2275.58,1356.08 2276.28,1356.41 2276.97,1356.76 2277.67,1357.01 2278.36,1357.24 2279.05,1357.45 
  2279.74,1357.58 2280.43,1357.65 2281.11,1357.71 2281.8,1357.86 2282.48,1358.1 2283.17,1359.18 2283.85,1362.38 2284.53,1368.35 2285.2,1373.22 2285.88,1373.99 
  2286.56,1375.17 2287.23,1377.48 2287.9,1382.02 2288.57,1383.14 2289.24,1384.01 2289.91,1384.13 2290.58,1384.22 2291.24,1384.22 2291.9,1384.22 2292.57,1384.24 
  2293.23,1384.24 2293.89,1384.24 
  "/>
<path clip-path="url(#clip900)" d="
M2001.29 214.069 L2283.42 214.069 L2283.42 93.1086 L2001.29 93.1086  Z
  " fill="#ffffff" fill-rule="evenodd" fill-opacity="1"/>
<polyline clip-path="url(#clip900)" style="stroke:#000000; stroke-width:4; stroke-opacity:1; fill:none" points="
  2001.29,214.069 2283.42,214.069 2283.42,93.1086 2001.29,93.1086 2001.29,214.069 
  "/>
<polyline clip-path="url(#clip900)" style="stroke:#009af9; stroke-width:4; stroke-opacity:1; fill:none" points="
  2024.4,153.589 2163.07,153.589 
  "/>
<path clip-path="url(#clip900)" d="M 0 0 M2200.02 173.276 Q2198.22 177.906 2196.51 179.318 Q2194.79 180.73 2191.92 180.73 L2188.52 180.73 L2188.52 177.165 L2191.02 177.165 Q2192.78 177.165 2193.75 176.332 Q2194.72 175.498 2195.9 172.396 L2196.67 170.452 L2186.18 144.943 L2190.7 144.943 L2198.8 165.221 L2206.9 144.943 L2211.41 144.943 L2200.02 173.276 Z" fill="#000000" fill-rule="evenodd" fill-opacity="1" /><path clip-path="url(#clip900)" d="M 0 0 M2217.29 166.933 L2224.93 166.933 L2224.93 140.568 L2216.62 142.235 L2216.62 137.975 L2224.89 136.309 L2229.56 136.309 L2229.56 166.933 L2237.2 166.933 L2237.2 170.869 L2217.29 170.869 L2217.29 166.933 Z" fill="#000000" fill-rule="evenodd" fill-opacity="1" /></svg>
