<?xml version="1.0" encoding="utf-8"?>
<svg xmlns="http://www.w3.org/2000/svg" xmlns:xlink="http://www.w3.org/1999/xlink" width="600" height="400" viewBox="0 0 2400 1600">
<defs>
  <clipPath id="clip970">
    <rect x="0" y="0" width="2400" height="1600"/>
  </clipPath>
</defs>
<path clip-path="url(#clip970)" d="
M0 1600 L2400 1600 L2400 0 L0 0  Z
  " fill="#ffffff" fill-rule="evenodd" fill-opacity="1"/>
<defs>
  <clipPath id="clip971">
    <rect x="480" y="0" width="1681" height="1600"/>
  </clipPath>
</defs>
<path clip-path="url(#clip970)" d="
M174.677 1486.45 L2352.76 1486.45 L2352.76 47.2441 L174.677 47.2441  Z
  " fill="#ffffff" fill-rule="evenodd" fill-opacity="1"/>
<defs>
  <clipPath id="clip972">
    <rect x="174" y="47" width="2179" height="1440"/>
  </clipPath>
</defs>
<polyline clip-path="url(#clip972)" style="stroke:#000000; stroke-width:2; stroke-opacity:0.1; fill:none" points="
  236.321,1486.45 236.321,47.2441 
  "/>
<polyline clip-path="url(#clip972)" style="stroke:#000000; stroke-width:2; stroke-opacity:0.1; fill:none" points="
  750.018,1486.45 750.018,47.2441 
  "/>
<polyline clip-path="url(#clip972)" style="stroke:#000000; stroke-width:2; stroke-opacity:0.1; fill:none" points="
  1263.72,1486.45 1263.72,47.2441 
  "/>
<polyline clip-path="url(#clip972)" style="stroke:#000000; stroke-width:2; stroke-opacity:0.1; fill:none" points="
  1777.41,1486.45 1777.41,47.2441 
  "/>
<polyline clip-path="url(#clip972)" style="stroke:#000000; stroke-width:2; stroke-opacity:0.1; fill:none" points="
  2291.11,1486.45 2291.11,47.2441 
  "/>
<polyline clip-path="url(#clip972)" style="stroke:#000000; stroke-width:2; stroke-opacity:0.1; fill:none" points="
  174.677,1406.77 2352.76,1406.77 
  "/>
<polyline clip-path="url(#clip972)" style="stroke:#000000; stroke-width:2; stroke-opacity:0.1; fill:none" points="
  174.677,1194.04 2352.76,1194.04 
  "/>
<polyline clip-path="url(#clip972)" style="stroke:#000000; stroke-width:2; stroke-opacity:0.1; fill:none" points="
  174.677,981.323 2352.76,981.323 
  "/>
<polyline clip-path="url(#clip972)" style="stroke:#000000; stroke-width:2; stroke-opacity:0.1; fill:none" points="
  174.677,768.601 2352.76,768.601 
  "/>
<polyline clip-path="url(#clip972)" style="stroke:#000000; stroke-width:2; stroke-opacity:0.1; fill:none" points="
  174.677,555.879 2352.76,555.879 
  "/>
<polyline clip-path="url(#clip972)" style="stroke:#000000; stroke-width:2; stroke-opacity:0.1; fill:none" points="
  174.677,343.157 2352.76,343.157 
  "/>
<polyline clip-path="url(#clip972)" style="stroke:#000000; stroke-width:2; stroke-opacity:0.1; fill:none" points="
  174.677,130.435 2352.76,130.435 
  "/>
<polyline clip-path="url(#clip970)" style="stroke:#000000; stroke-width:4; stroke-opacity:1; fill:none" points="
  174.677,1486.45 2352.76,1486.45 
  "/>
<polyline clip-path="url(#clip970)" style="stroke:#000000; stroke-width:4; stroke-opacity:1; fill:none" points="
  174.677,1486.45 174.677,47.2441 
  "/>
<polyline clip-path="url(#clip970)" style="stroke:#000000; stroke-width:4; stroke-opacity:1; fill:none" points="
  236.321,1486.45 236.321,1469.18 
  "/>
<polyline clip-path="url(#clip970)" style="stroke:#000000; stroke-width:4; stroke-opacity:1; fill:none" points="
  750.018,1486.45 750.018,1469.18 
  "/>
<polyline clip-path="url(#clip970)" style="stroke:#000000; stroke-width:4; stroke-opacity:1; fill:none" points="
  1263.72,1486.45 1263.72,1469.18 
  "/>
<polyline clip-path="url(#clip970)" style="stroke:#000000; stroke-width:4; stroke-opacity:1; fill:none" points="
  1777.41,1486.45 1777.41,1469.18 
  "/>
<polyline clip-path="url(#clip970)" style="stroke:#000000; stroke-width:4; stroke-opacity:1; fill:none" points="
  2291.11,1486.45 2291.11,1469.18 
  "/>
<polyline clip-path="url(#clip970)" style="stroke:#000000; stroke-width:4; stroke-opacity:1; fill:none" points="
  174.677,1406.77 200.814,1406.77 
  "/>
<polyline clip-path="url(#clip970)" style="stroke:#000000; stroke-width:4; stroke-opacity:1; fill:none" points="
  174.677,1194.04 200.814,1194.04 
  "/>
<polyline clip-path="url(#clip970)" style="stroke:#000000; stroke-width:4; stroke-opacity:1; fill:none" points="
  174.677,981.323 200.814,981.323 
  "/>
<polyline clip-path="url(#clip970)" style="stroke:#000000; stroke-width:4; stroke-opacity:1; fill:none" points="
  174.677,768.601 200.814,768.601 
  "/>
<polyline clip-path="url(#clip970)" style="stroke:#000000; stroke-width:4; stroke-opacity:1; fill:none" points="
  174.677,555.879 200.814,555.879 
  "/>
<polyline clip-path="url(#clip970)" style="stroke:#000000; stroke-width:4; stroke-opacity:1; fill:none" points="
  174.677,343.157 200.814,343.157 
  "/>
<polyline clip-path="url(#clip970)" style="stroke:#000000; stroke-width:4; stroke-opacity:1; fill:none" points="
  174.677,130.435 200.814,130.435 
  "/>
<path clip-path="url(#clip970)" d="M 0 0 M204.33 1508.44 Q200.719 1508.44 198.89 1512 Q197.085 1515.55 197.085 1522.67 Q197.085 1529.78 198.89 1533.35 Q200.719 1536.89 204.33 1536.89 Q207.964 1536.89 209.77 1533.35 Q211.598 1529.78 211.598 1522.67 Q211.598 1515.55 209.77 1512 Q207.964 1508.44 204.33 1508.44 M204.33 1504.73 Q210.14 1504.73 213.196 1509.34 Q216.274 1513.92 216.274 1522.67 Q216.274 1531.4 213.196 1536.01 Q210.14 1540.59 204.33 1540.59 Q198.52 1540.59 195.441 1536.01 Q192.386 1531.4 192.386 1522.67 Q192.386 1513.92 195.441 1509.34 Q198.52 1504.73 204.33 1504.73 Z" fill="#000000" fill-rule="evenodd" fill-opacity="1" /><path clip-path="url(#clip970)" d="M 0 0 M221.344 1534.04 L226.228 1534.04 L226.228 1539.92 L221.344 1539.92 L221.344 1534.04 Z" fill="#000000" fill-rule="evenodd" fill-opacity="1" /><path clip-path="url(#clip970)" d="M 0 0 M241.297 1508.44 Q237.686 1508.44 235.858 1512 Q234.052 1515.55 234.052 1522.67 Q234.052 1529.78 235.858 1533.35 Q237.686 1536.89 241.297 1536.89 Q244.932 1536.89 246.737 1533.35 Q248.566 1529.78 248.566 1522.67 Q248.566 1515.55 246.737 1512 Q244.932 1508.44 241.297 1508.44 M241.297 1504.73 Q247.108 1504.73 250.163 1509.34 Q253.242 1513.92 253.242 1522.67 Q253.242 1531.4 250.163 1536.01 Q247.108 1540.59 241.297 1540.59 Q235.487 1540.59 232.409 1536.01 Q229.353 1531.4 229.353 1522.67 Q229.353 1513.92 232.409 1509.34 Q235.487 1504.73 241.297 1504.73 Z" fill="#000000" fill-rule="evenodd" fill-opacity="1" /><path clip-path="url(#clip970)" d="M 0 0 M268.311 1508.44 Q264.7 1508.44 262.871 1512 Q261.066 1515.55 261.066 1522.67 Q261.066 1529.78 262.871 1533.35 Q264.7 1536.89 268.311 1536.89 Q271.945 1536.89 273.751 1533.35 Q275.58 1529.78 275.58 1522.67 Q275.58 1515.55 273.751 1512 Q271.945 1508.44 268.311 1508.44 M268.311 1504.73 Q274.121 1504.73 277.177 1509.34 Q280.256 1513.92 280.256 1522.67 Q280.256 1531.4 277.177 1536.01 Q274.121 1540.59 268.311 1540.59 Q262.501 1540.59 259.422 1536.01 Q256.367 1531.4 256.367 1522.67 Q256.367 1513.92 259.422 1509.34 Q262.501 1504.73 268.311 1504.73 Z" fill="#000000" fill-rule="evenodd" fill-opacity="1" /><path clip-path="url(#clip970)" d="M 0 0 M719.324 1508.44 Q715.713 1508.44 713.884 1512 Q712.079 1515.55 712.079 1522.67 Q712.079 1529.78 713.884 1533.35 Q715.713 1536.89 719.324 1536.89 Q722.958 1536.89 724.764 1533.35 Q726.593 1529.78 726.593 1522.67 Q726.593 1515.55 724.764 1512 Q722.958 1508.44 719.324 1508.44 M719.324 1504.73 Q725.134 1504.73 728.19 1509.34 Q731.269 1513.92 731.269 1522.67 Q731.269 1531.4 728.19 1536.01 Q725.134 1540.59 719.324 1540.59 Q713.514 1540.59 710.435 1536.01 Q707.38 1531.4 707.38 1522.67 Q707.38 1513.92 710.435 1509.34 Q713.514 1504.73 719.324 1504.73 Z" fill="#000000" fill-rule="evenodd" fill-opacity="1" /><path clip-path="url(#clip970)" d="M 0 0 M736.338 1534.04 L741.222 1534.04 L741.222 1539.92 L736.338 1539.92 L736.338 1534.04 Z" fill="#000000" fill-rule="evenodd" fill-opacity="1" /><path clip-path="url(#clip970)" d="M 0 0 M750.319 1535.98 L766.639 1535.98 L766.639 1539.92 L744.694 1539.92 L744.694 1535.98 Q747.356 1533.23 751.94 1528.6 Q756.546 1523.95 757.727 1522.61 Q759.972 1520.08 760.852 1518.35 Q761.755 1516.59 761.755 1514.9 Q761.755 1512.14 759.81 1510.41 Q757.889 1508.67 754.787 1508.67 Q752.588 1508.67 750.134 1509.43 Q747.704 1510.2 744.926 1511.75 L744.926 1507.03 Q747.75 1505.89 750.204 1505.31 Q752.657 1504.73 754.694 1504.73 Q760.065 1504.73 763.259 1507.42 Q766.454 1510.11 766.454 1514.6 Q766.454 1516.73 765.643 1518.65 Q764.856 1520.54 762.75 1523.14 Q762.171 1523.81 759.069 1527.03 Q755.968 1530.22 750.319 1535.98 Z" fill="#000000" fill-rule="evenodd" fill-opacity="1" /><path clip-path="url(#clip970)" d="M 0 0 M771.754 1505.36 L790.111 1505.36 L790.111 1509.3 L776.037 1509.3 L776.037 1517.77 Q777.055 1517.42 778.074 1517.26 Q779.092 1517.07 780.111 1517.07 Q785.898 1517.07 789.278 1520.24 Q792.657 1523.42 792.657 1528.83 Q792.657 1534.41 789.185 1537.51 Q785.713 1540.59 779.393 1540.59 Q777.217 1540.59 774.949 1540.22 Q772.704 1539.85 770.296 1539.11 L770.296 1534.41 Q772.379 1535.54 774.602 1536.1 Q776.824 1536.66 779.301 1536.66 Q783.305 1536.66 785.643 1534.55 Q787.981 1532.44 787.981 1528.83 Q787.981 1525.22 785.643 1523.11 Q783.305 1521.01 779.301 1521.01 Q777.426 1521.01 775.551 1521.42 Q773.699 1521.84 771.754 1522.72 L771.754 1505.36 Z" fill="#000000" fill-rule="evenodd" fill-opacity="1" /><path clip-path="url(#clip970)" d="M 0 0 M1232.22 1508.44 Q1228.61 1508.44 1226.78 1512 Q1224.98 1515.55 1224.98 1522.67 Q1224.98 1529.78 1226.78 1533.35 Q1228.61 1536.89 1232.22 1536.89 Q1235.86 1536.89 1237.66 1533.35 Q1239.49 1529.78 1239.49 1522.67 Q1239.49 1515.55 1237.66 1512 Q1235.86 1508.44 1232.22 1508.44 M1232.22 1504.73 Q1238.03 1504.73 1241.09 1509.34 Q1244.17 1513.92 1244.17 1522.67 Q1244.17 1531.4 1241.09 1536.01 Q1238.03 1540.59 1232.22 1540.59 Q1226.41 1540.59 1223.33 1536.01 Q1220.28 1531.4 1220.28 1522.67 Q1220.28 1513.92 1223.33 1509.34 Q1226.41 1504.73 1232.22 1504.73 Z" fill="#000000" fill-rule="evenodd" fill-opacity="1" /><path clip-path="url(#clip970)" d="M 0 0 M1249.24 1534.04 L1254.12 1534.04 L1254.12 1539.92 L1249.24 1539.92 L1249.24 1534.04 Z" fill="#000000" fill-rule="evenodd" fill-opacity="1" /><path clip-path="url(#clip970)" d="M 0 0 M1259.24 1505.36 L1277.59 1505.36 L1277.59 1509.3 L1263.52 1509.3 L1263.52 1517.77 Q1264.54 1517.42 1265.56 1517.26 Q1266.58 1517.07 1267.59 1517.07 Q1273.38 1517.07 1276.76 1520.24 Q1280.14 1523.42 1280.14 1528.83 Q1280.14 1534.41 1276.67 1537.51 Q1273.2 1540.59 1266.88 1540.59 Q1264.7 1540.59 1262.43 1540.22 Q1260.19 1539.85 1257.78 1539.11 L1257.78 1534.41 Q1259.86 1535.54 1262.08 1536.1 Q1264.31 1536.66 1266.78 1536.66 Q1270.79 1536.66 1273.13 1534.55 Q1275.46 1532.44 1275.46 1528.83 Q1275.46 1525.22 1273.13 1523.11 Q1270.79 1521.01 1266.78 1521.01 Q1264.91 1521.01 1263.03 1521.42 Q1261.18 1521.84 1259.24 1522.72 L1259.24 1505.36 Z" fill="#000000" fill-rule="evenodd" fill-opacity="1" /><path clip-path="url(#clip970)" d="M 0 0 M1295.21 1508.44 Q1291.6 1508.44 1289.77 1512 Q1287.96 1515.55 1287.96 1522.67 Q1287.96 1529.78 1289.77 1533.35 Q1291.6 1536.89 1295.21 1536.89 Q1298.84 1536.89 1300.65 1533.35 Q1302.48 1529.78 1302.48 1522.67 Q1302.48 1515.55 1300.65 1512 Q1298.84 1508.44 1295.21 1508.44 M1295.21 1504.73 Q1301.02 1504.73 1304.07 1509.34 Q1307.15 1513.92 1307.15 1522.67 Q1307.15 1531.4 1304.07 1536.01 Q1301.02 1540.59 1295.21 1540.59 Q1289.4 1540.59 1286.32 1536.01 Q1283.26 1531.4 1283.26 1522.67 Q1283.26 1513.92 1286.32 1509.34 Q1289.4 1504.73 1295.21 1504.73 Z" fill="#000000" fill-rule="evenodd" fill-opacity="1" /><path clip-path="url(#clip970)" d="M 0 0 M1746.37 1508.44 Q1742.76 1508.44 1740.93 1512 Q1739.13 1515.55 1739.13 1522.67 Q1739.13 1529.78 1740.93 1533.35 Q1742.76 1536.89 1746.37 1536.89 Q1750.01 1536.89 1751.81 1533.35 Q1753.64 1529.78 1753.64 1522.67 Q1753.64 1515.55 1751.81 1512 Q1750.01 1508.44 1746.37 1508.44 M1746.37 1504.73 Q1752.18 1504.73 1755.24 1509.34 Q1758.32 1513.92 1758.32 1522.67 Q1758.32 1531.4 1755.24 1536.01 Q1752.18 1540.59 1746.37 1540.59 Q1740.56 1540.59 1737.48 1536.01 Q1734.43 1531.4 1734.43 1522.67 Q1734.43 1513.92 1737.48 1509.34 Q1740.56 1504.73 1746.37 1504.73 Z" fill="#000000" fill-rule="evenodd" fill-opacity="1" /><path clip-path="url(#clip970)" d="M 0 0 M1763.39 1534.04 L1768.27 1534.04 L1768.27 1539.92 L1763.39 1539.92 L1763.39 1534.04 Z" fill="#000000" fill-rule="evenodd" fill-opacity="1" /><path clip-path="url(#clip970)" d="M 0 0 M1772.16 1505.36 L1794.38 1505.36 L1794.38 1507.35 L1781.84 1539.92 L1776.95 1539.92 L1788.76 1509.3 L1772.16 1509.3 L1772.16 1505.36 Z" fill="#000000" fill-rule="evenodd" fill-opacity="1" /><path clip-path="url(#clip970)" d="M 0 0 M1799.5 1505.36 L1817.85 1505.36 L1817.85 1509.3 L1803.78 1509.3 L1803.78 1517.77 Q1804.8 1517.42 1805.82 1517.26 Q1806.84 1517.07 1807.85 1517.07 Q1813.64 1517.07 1817.02 1520.24 Q1820.4 1523.42 1820.4 1528.83 Q1820.4 1534.41 1816.93 1537.51 Q1813.46 1540.59 1807.14 1540.59 Q1804.96 1540.59 1802.69 1540.22 Q1800.45 1539.85 1798.04 1539.11 L1798.04 1534.41 Q1800.12 1535.54 1802.34 1536.1 Q1804.57 1536.66 1807.04 1536.66 Q1811.05 1536.66 1813.39 1534.55 Q1815.72 1532.44 1815.72 1528.83 Q1815.72 1525.22 1813.39 1523.11 Q1811.05 1521.01 1807.04 1521.01 Q1805.17 1521.01 1803.29 1521.42 Q1801.44 1521.84 1799.5 1522.72 L1799.5 1505.36 Z" fill="#000000" fill-rule="evenodd" fill-opacity="1" /><path clip-path="url(#clip970)" d="M 0 0 M2249.5 1535.98 L2257.14 1535.98 L2257.14 1509.62 L2248.83 1511.29 L2248.83 1507.03 L2257.1 1505.36 L2261.77 1505.36 L2261.77 1535.98 L2269.41 1535.98 L2269.41 1539.92 L2249.5 1539.92 L2249.5 1535.98 Z" fill="#000000" fill-rule="evenodd" fill-opacity="1" /><path clip-path="url(#clip970)" d="M 0 0 M2274.48 1534.04 L2279.36 1534.04 L2279.36 1539.92 L2274.48 1539.92 L2274.48 1534.04 Z" fill="#000000" fill-rule="evenodd" fill-opacity="1" /><path clip-path="url(#clip970)" d="M 0 0 M2294.43 1508.44 Q2290.82 1508.44 2288.99 1512 Q2287.19 1515.55 2287.19 1522.67 Q2287.19 1529.78 2288.99 1533.35 Q2290.82 1536.89 2294.43 1536.89 Q2298.07 1536.89 2299.87 1533.35 Q2301.7 1529.78 2301.7 1522.67 Q2301.7 1515.55 2299.87 1512 Q2298.07 1508.44 2294.43 1508.44 M2294.43 1504.73 Q2300.24 1504.73 2303.3 1509.34 Q2306.38 1513.92 2306.38 1522.67 Q2306.38 1531.4 2303.3 1536.01 Q2300.24 1540.59 2294.43 1540.59 Q2288.62 1540.59 2285.55 1536.01 Q2282.49 1531.4 2282.49 1522.67 Q2282.49 1513.92 2285.55 1509.34 Q2288.62 1504.73 2294.43 1504.73 Z" fill="#000000" fill-rule="evenodd" fill-opacity="1" /><path clip-path="url(#clip970)" d="M 0 0 M2321.45 1508.44 Q2317.84 1508.44 2316.01 1512 Q2314.2 1515.55 2314.2 1522.67 Q2314.2 1529.78 2316.01 1533.35 Q2317.84 1536.89 2321.45 1536.89 Q2325.08 1536.89 2326.89 1533.35 Q2328.72 1529.78 2328.72 1522.67 Q2328.72 1515.55 2326.89 1512 Q2325.08 1508.44 2321.45 1508.44 M2321.45 1504.73 Q2327.26 1504.73 2330.31 1509.34 Q2333.39 1513.92 2333.39 1522.67 Q2333.39 1531.4 2330.31 1536.01 Q2327.26 1540.59 2321.45 1540.59 Q2315.64 1540.59 2312.56 1536.01 Q2309.5 1531.4 2309.5 1522.67 Q2309.5 1513.92 2312.56 1509.34 Q2315.64 1504.73 2321.45 1504.73 Z" fill="#000000" fill-rule="evenodd" fill-opacity="1" /><path clip-path="url(#clip970)" d="M 0 0 M75.8393 1392.57 Q72.2282 1392.57 70.3995 1396.13 Q68.5939 1399.67 68.5939 1406.8 Q68.5939 1413.91 70.3995 1417.47 Q72.2282 1421.01 75.8393 1421.01 Q79.4735 1421.01 81.2791 1417.47 Q83.1078 1413.91 83.1078 1406.8 Q83.1078 1399.67 81.2791 1396.13 Q79.4735 1392.57 75.8393 1392.57 M75.8393 1388.86 Q81.6494 1388.86 84.705 1393.47 Q87.7837 1398.05 87.7837 1406.8 Q87.7837 1415.53 84.705 1420.13 Q81.6494 1424.72 75.8393 1424.72 Q70.0291 1424.72 66.9504 1420.13 Q63.8949 1415.53 63.8949 1406.8 Q63.8949 1398.05 66.9504 1393.47 Q70.0291 1388.86 75.8393 1388.86 Z" fill="#000000" fill-rule="evenodd" fill-opacity="1" /><path clip-path="url(#clip970)" d="M 0 0 M92.8531 1418.17 L97.7373 1418.17 L97.7373 1424.05 L92.8531 1424.05 L92.8531 1418.17 Z" fill="#000000" fill-rule="evenodd" fill-opacity="1" /><path clip-path="url(#clip970)" d="M 0 0 M112.807 1407.63 Q109.473 1407.63 107.552 1409.42 Q105.654 1411.2 105.654 1414.32 Q105.654 1417.45 107.552 1419.23 Q109.473 1421.01 112.807 1421.01 Q116.14 1421.01 118.061 1419.23 Q119.983 1417.43 119.983 1414.32 Q119.983 1411.2 118.061 1409.42 Q116.163 1407.63 112.807 1407.63 M108.131 1405.64 Q105.122 1404.9 103.432 1402.84 Q101.765 1400.78 101.765 1397.82 Q101.765 1393.68 104.705 1391.27 Q107.668 1388.86 112.807 1388.86 Q117.969 1388.86 120.908 1391.27 Q123.848 1393.68 123.848 1397.82 Q123.848 1400.78 122.158 1402.84 Q120.492 1404.9 117.506 1405.64 Q120.885 1406.43 122.76 1408.72 Q124.658 1411.01 124.658 1414.32 Q124.658 1419.35 121.58 1422.03 Q118.524 1424.72 112.807 1424.72 Q107.089 1424.72 104.01 1422.03 Q100.955 1419.35 100.955 1414.32 Q100.955 1411.01 102.853 1408.72 Q104.751 1406.43 108.131 1405.64 M106.418 1398.26 Q106.418 1400.94 108.084 1402.45 Q109.774 1403.95 112.807 1403.95 Q115.816 1403.95 117.506 1402.45 Q119.219 1400.94 119.219 1398.26 Q119.219 1395.57 117.506 1394.07 Q115.816 1392.57 112.807 1392.57 Q109.774 1392.57 108.084 1394.07 Q106.418 1395.57 106.418 1398.26 Z" fill="#000000" fill-rule="evenodd" fill-opacity="1" /><path clip-path="url(#clip970)" d="M 0 0 M129.774 1389.49 L148.131 1389.49 L148.131 1393.42 L134.057 1393.42 L134.057 1401.89 Q135.075 1401.55 136.094 1401.38 Q137.112 1401.2 138.131 1401.2 Q143.918 1401.2 147.297 1404.37 Q150.677 1407.54 150.677 1412.96 Q150.677 1418.54 147.205 1421.64 Q143.732 1424.72 137.413 1424.72 Q135.237 1424.72 132.969 1424.35 Q130.723 1423.98 128.316 1423.24 L128.316 1418.54 Q130.399 1419.67 132.621 1420.23 Q134.844 1420.78 137.32 1420.78 Q141.325 1420.78 143.663 1418.68 Q146.001 1416.57 146.001 1412.96 Q146.001 1409.35 143.663 1407.24 Q141.325 1405.13 137.32 1405.13 Q135.445 1405.13 133.57 1405.55 Q131.719 1405.97 129.774 1406.85 L129.774 1389.49 Z" fill="#000000" fill-rule="evenodd" fill-opacity="1" /><path clip-path="url(#clip970)" d="M 0 0 M74.9365 1179.84 Q71.3254 1179.84 69.4967 1183.41 Q67.6912 1186.95 67.6912 1194.08 Q67.6912 1201.19 69.4967 1204.75 Q71.3254 1208.29 74.9365 1208.29 Q78.5707 1208.29 80.3763 1204.75 Q82.205 1201.19 82.205 1194.08 Q82.205 1186.95 80.3763 1183.41 Q78.5707 1179.84 74.9365 1179.84 M74.9365 1176.14 Q80.7467 1176.14 83.8022 1180.75 Q86.8809 1185.33 86.8809 1194.08 Q86.8809 1202.81 83.8022 1207.41 Q80.7467 1212 74.9365 1212 Q69.1264 1212 66.0477 1207.41 Q62.9921 1202.81 62.9921 1194.08 Q62.9921 1185.33 66.0477 1180.75 Q69.1264 1176.14 74.9365 1176.14 Z" fill="#000000" fill-rule="evenodd" fill-opacity="1" /><path clip-path="url(#clip970)" d="M 0 0 M91.9503 1205.44 L96.8345 1205.44 L96.8345 1211.32 L91.9503 1211.32 L91.9503 1205.44 Z" fill="#000000" fill-rule="evenodd" fill-opacity="1" /><path clip-path="url(#clip970)" d="M 0 0 M102.043 1210.61 L102.043 1206.35 Q103.802 1207.18 105.608 1207.62 Q107.413 1208.06 109.149 1208.06 Q113.779 1208.06 116.209 1204.96 Q118.663 1201.83 119.01 1195.49 Q117.668 1197.48 115.608 1198.55 Q113.547 1199.61 111.047 1199.61 Q105.862 1199.61 102.83 1196.49 Q99.8206 1193.34 99.8206 1187.9 Q99.8206 1182.57 102.969 1179.36 Q106.117 1176.14 111.348 1176.14 Q117.344 1176.14 120.492 1180.75 Q123.663 1185.33 123.663 1194.08 Q123.663 1202.25 119.774 1207.13 Q115.909 1212 109.358 1212 Q107.598 1212 105.793 1211.65 Q103.987 1211.3 102.043 1210.61 M111.348 1195.95 Q114.496 1195.95 116.325 1193.8 Q118.177 1191.65 118.177 1187.9 Q118.177 1184.17 116.325 1182.02 Q114.496 1179.84 111.348 1179.84 Q108.2 1179.84 106.348 1182.02 Q104.52 1184.17 104.52 1187.9 Q104.52 1191.65 106.348 1193.8 Q108.2 1195.95 111.348 1195.95 Z" fill="#000000" fill-rule="evenodd" fill-opacity="1" /><path clip-path="url(#clip970)" d="M 0 0 M138.732 1179.84 Q135.121 1179.84 133.293 1183.41 Q131.487 1186.95 131.487 1194.08 Q131.487 1201.19 133.293 1204.75 Q135.121 1208.29 138.732 1208.29 Q142.367 1208.29 144.172 1204.75 Q146.001 1201.19 146.001 1194.08 Q146.001 1186.95 144.172 1183.41 Q142.367 1179.84 138.732 1179.84 M138.732 1176.14 Q144.543 1176.14 147.598 1180.75 Q150.677 1185.33 150.677 1194.08 Q150.677 1202.81 147.598 1207.41 Q144.543 1212 138.732 1212 Q132.922 1212 129.844 1207.41 Q126.788 1202.81 126.788 1194.08 Q126.788 1185.33 129.844 1180.75 Q132.922 1176.14 138.732 1176.14 Z" fill="#000000" fill-rule="evenodd" fill-opacity="1" /><path clip-path="url(#clip970)" d="M 0 0 M75.9319 967.121 Q72.3208 967.121 70.4921 970.686 Q68.6865 974.228 68.6865 981.357 Q68.6865 988.464 70.4921 992.029 Q72.3208 995.57 75.9319 995.57 Q79.5661 995.57 81.3717 992.029 Q83.2004 988.464 83.2004 981.357 Q83.2004 974.228 81.3717 970.686 Q79.5661 967.121 75.9319 967.121 M75.9319 963.418 Q81.742 963.418 84.7976 968.024 Q87.8763 972.607 87.8763 981.357 Q87.8763 990.084 84.7976 994.691 Q81.742 999.274 75.9319 999.274 Q70.1217 999.274 67.043 994.691 Q63.9875 990.084 63.9875 981.357 Q63.9875 972.607 67.043 968.024 Q70.1217 963.418 75.9319 963.418 Z" fill="#000000" fill-rule="evenodd" fill-opacity="1" /><path clip-path="url(#clip970)" d="M 0 0 M92.9457 992.723 L97.8299 992.723 L97.8299 998.603 L92.9457 998.603 L92.9457 992.723 Z" fill="#000000" fill-rule="evenodd" fill-opacity="1" /><path clip-path="url(#clip970)" d="M 0 0 M103.038 997.885 L103.038 993.626 Q104.797 994.459 106.603 994.899 Q108.409 995.339 110.145 995.339 Q114.774 995.339 117.205 992.237 Q119.658 989.112 120.006 982.769 Q118.663 984.76 116.603 985.825 Q114.543 986.89 112.043 986.89 Q106.858 986.89 103.825 983.765 Q100.816 980.617 100.816 975.177 Q100.816 969.853 103.964 966.635 Q107.112 963.418 112.344 963.418 Q118.339 963.418 121.487 968.024 Q124.658 972.607 124.658 981.357 Q124.658 989.529 120.77 994.413 Q116.904 999.274 110.353 999.274 Q108.594 999.274 106.788 998.927 Q104.983 998.579 103.038 997.885 M112.344 983.232 Q115.492 983.232 117.321 981.08 Q119.172 978.927 119.172 975.177 Q119.172 971.45 117.321 969.297 Q115.492 967.121 112.344 967.121 Q109.196 967.121 107.344 969.297 Q105.515 971.45 105.515 975.177 Q105.515 978.927 107.344 981.08 Q109.196 983.232 112.344 983.232 Z" fill="#000000" fill-rule="evenodd" fill-opacity="1" /><path clip-path="url(#clip970)" d="M 0 0 M129.774 964.043 L148.131 964.043 L148.131 967.978 L134.057 967.978 L134.057 976.45 Q135.075 976.103 136.094 975.941 Q137.112 975.756 138.131 975.756 Q143.918 975.756 147.297 978.927 Q150.677 982.098 150.677 987.515 Q150.677 993.093 147.205 996.195 Q143.732 999.274 137.413 999.274 Q135.237 999.274 132.969 998.904 Q130.723 998.533 128.316 997.792 L128.316 993.093 Q130.399 994.228 132.621 994.783 Q134.844 995.339 137.32 995.339 Q141.325 995.339 143.663 993.232 Q146.001 991.126 146.001 987.515 Q146.001 983.904 143.663 981.797 Q141.325 979.691 137.32 979.691 Q135.445 979.691 133.57 980.107 Q131.719 980.524 129.774 981.404 L129.774 964.043 Z" fill="#000000" fill-rule="evenodd" fill-opacity="1" /><path clip-path="url(#clip970)" d="M 0 0 M66.7884 781.945 L74.4272 781.945 L74.4272 755.58 L66.1171 757.247 L66.1171 752.987 L74.381 751.321 L79.0569 751.321 L79.0569 781.945 L86.6957 781.945 L86.6957 785.881 L66.7884 785.881 L66.7884 781.945 Z" fill="#000000" fill-rule="evenodd" fill-opacity="1" /><path clip-path="url(#clip970)" d="M 0 0 M91.7651 780.001 L96.6494 780.001 L96.6494 785.881 L91.7651 785.881 L91.7651 780.001 Z" fill="#000000" fill-rule="evenodd" fill-opacity="1" /><path clip-path="url(#clip970)" d="M 0 0 M111.719 754.399 Q108.108 754.399 106.279 757.964 Q104.473 761.506 104.473 768.635 Q104.473 775.742 106.279 779.307 Q108.108 782.848 111.719 782.848 Q115.353 782.848 117.159 779.307 Q118.987 775.742 118.987 768.635 Q118.987 761.506 117.159 757.964 Q115.353 754.399 111.719 754.399 M111.719 750.696 Q117.529 750.696 120.584 755.302 Q123.663 759.885 123.663 768.635 Q123.663 777.362 120.584 781.969 Q117.529 786.552 111.719 786.552 Q105.909 786.552 102.83 781.969 Q99.7743 777.362 99.7743 768.635 Q99.7743 759.885 102.83 755.302 Q105.909 750.696 111.719 750.696 Z" fill="#000000" fill-rule="evenodd" fill-opacity="1" /><path clip-path="url(#clip970)" d="M 0 0 M138.732 754.399 Q135.121 754.399 133.293 757.964 Q131.487 761.506 131.487 768.635 Q131.487 775.742 133.293 779.307 Q135.121 782.848 138.732 782.848 Q142.367 782.848 144.172 779.307 Q146.001 775.742 146.001 768.635 Q146.001 761.506 144.172 757.964 Q142.367 754.399 138.732 754.399 M138.732 750.696 Q144.543 750.696 147.598 755.302 Q150.677 759.885 150.677 768.635 Q150.677 777.362 147.598 781.969 Q144.543 786.552 138.732 786.552 Q132.922 786.552 129.844 781.969 Q126.788 777.362 126.788 768.635 Q126.788 759.885 129.844 755.302 Q132.922 750.696 138.732 750.696 Z" fill="#000000" fill-rule="evenodd" fill-opacity="1" /><path clip-path="url(#clip970)" d="M 0 0 M67.7838 569.224 L75.4226 569.224 L75.4226 542.858 L67.1125 544.525 L67.1125 540.265 L75.3763 538.599 L80.0522 538.599 L80.0522 569.224 L87.6911 569.224 L87.6911 573.159 L67.7838 573.159 L67.7838 569.224 Z" fill="#000000" fill-rule="evenodd" fill-opacity="1" /><path clip-path="url(#clip970)" d="M 0 0 M92.7605 567.279 L97.6447 567.279 L97.6447 573.159 L92.7605 573.159 L92.7605 567.279 Z" fill="#000000" fill-rule="evenodd" fill-opacity="1" /><path clip-path="url(#clip970)" d="M 0 0 M112.714 541.677 Q109.103 541.677 107.274 545.242 Q105.469 548.784 105.469 555.913 Q105.469 563.02 107.274 566.585 Q109.103 570.126 112.714 570.126 Q116.348 570.126 118.154 566.585 Q119.983 563.02 119.983 555.913 Q119.983 548.784 118.154 545.242 Q116.348 541.677 112.714 541.677 M112.714 537.974 Q118.524 537.974 121.58 542.58 Q124.658 547.163 124.658 555.913 Q124.658 564.64 121.58 569.247 Q118.524 573.83 112.714 573.83 Q106.904 573.83 103.825 569.247 Q100.77 564.64 100.77 555.913 Q100.77 547.163 103.825 542.58 Q106.904 537.974 112.714 537.974 Z" fill="#000000" fill-rule="evenodd" fill-opacity="1" /><path clip-path="url(#clip970)" d="M 0 0 M129.774 538.599 L148.131 538.599 L148.131 542.534 L134.057 542.534 L134.057 551.006 Q135.075 550.659 136.094 550.497 Q137.112 550.312 138.131 550.312 Q143.918 550.312 147.297 553.483 Q150.677 556.654 150.677 562.071 Q150.677 567.649 147.205 570.751 Q143.732 573.83 137.413 573.83 Q135.237 573.83 132.969 573.46 Q130.723 573.089 128.316 572.349 L128.316 567.649 Q130.399 568.784 132.621 569.339 Q134.844 569.895 137.32 569.895 Q141.325 569.895 143.663 567.788 Q146.001 565.682 146.001 562.071 Q146.001 558.46 143.663 556.353 Q141.325 554.247 137.32 554.247 Q135.445 554.247 133.57 554.663 Q131.719 555.08 129.774 555.96 L129.774 538.599 Z" fill="#000000" fill-rule="evenodd" fill-opacity="1" /><path clip-path="url(#clip970)" d="M 0 0 M68.0152 356.502 L75.6541 356.502 L75.6541 330.136 L67.344 331.803 L67.344 327.543 L75.6078 325.877 L80.2837 325.877 L80.2837 356.502 L87.9225 356.502 L87.9225 360.437 L68.0152 360.437 L68.0152 356.502 Z" fill="#000000" fill-rule="evenodd" fill-opacity="1" /><path clip-path="url(#clip970)" d="M 0 0 M92.992 354.557 L97.8762 354.557 L97.8762 360.437 L92.992 360.437 L92.992 354.557 Z" fill="#000000" fill-rule="evenodd" fill-opacity="1" /><path clip-path="url(#clip970)" d="M 0 0 M103.756 356.502 L111.395 356.502 L111.395 330.136 L103.085 331.803 L103.085 327.543 L111.348 325.877 L116.024 325.877 L116.024 356.502 L123.663 356.502 L123.663 360.437 L103.756 360.437 L103.756 356.502 Z" fill="#000000" fill-rule="evenodd" fill-opacity="1" /><path clip-path="url(#clip970)" d="M 0 0 M138.732 328.955 Q135.121 328.955 133.293 332.52 Q131.487 336.062 131.487 343.191 Q131.487 350.298 133.293 353.863 Q135.121 357.404 138.732 357.404 Q142.367 357.404 144.172 353.863 Q146.001 350.298 146.001 343.191 Q146.001 336.062 144.172 332.52 Q142.367 328.955 138.732 328.955 M138.732 325.252 Q144.543 325.252 147.598 329.858 Q150.677 334.441 150.677 343.191 Q150.677 351.918 147.598 356.525 Q144.543 361.108 138.732 361.108 Q132.922 361.108 129.844 356.525 Q126.788 351.918 126.788 343.191 Q126.788 334.441 129.844 329.858 Q132.922 325.252 138.732 325.252 Z" fill="#000000" fill-rule="evenodd" fill-opacity="1" /><path clip-path="url(#clip970)" d="M 0 0 M69.0106 143.78 L76.6495 143.78 L76.6495 117.414 L68.3393 119.081 L68.3393 114.821 L76.6032 113.155 L81.2791 113.155 L81.2791 143.78 L88.9179 143.78 L88.9179 147.715 L69.0106 147.715 L69.0106 143.78 Z" fill="#000000" fill-rule="evenodd" fill-opacity="1" /><path clip-path="url(#clip970)" d="M 0 0 M93.9873 141.835 L98.8716 141.835 L98.8716 147.715 L93.9873 147.715 L93.9873 141.835 Z" fill="#000000" fill-rule="evenodd" fill-opacity="1" /><path clip-path="url(#clip970)" d="M 0 0 M104.751 143.78 L112.39 143.78 L112.39 117.414 L104.08 119.081 L104.08 114.821 L112.344 113.155 L117.02 113.155 L117.02 143.78 L124.658 143.78 L124.658 147.715 L104.751 147.715 L104.751 143.78 Z" fill="#000000" fill-rule="evenodd" fill-opacity="1" /><path clip-path="url(#clip970)" d="M 0 0 M129.774 113.155 L148.131 113.155 L148.131 117.09 L134.057 117.09 L134.057 125.562 Q135.075 125.215 136.094 125.053 Q137.112 124.868 138.131 124.868 Q143.918 124.868 147.297 128.039 Q150.677 131.21 150.677 136.627 Q150.677 142.206 147.205 145.307 Q143.732 148.386 137.413 148.386 Q135.237 148.386 132.969 148.016 Q130.723 147.645 128.316 146.905 L128.316 142.206 Q130.399 143.34 132.621 143.895 Q134.844 144.451 137.32 144.451 Q141.325 144.451 143.663 142.344 Q146.001 140.238 146.001 136.627 Q146.001 133.016 143.663 130.909 Q141.325 128.803 137.32 128.803 Q135.445 128.803 133.57 129.219 Q131.719 129.636 129.774 130.516 L129.774 113.155 Z" fill="#000000" fill-rule="evenodd" fill-opacity="1" /><polyline clip-path="url(#clip972)" style="stroke:#009af9; stroke-width:20; stroke-opacity:1; fill:none" points="
  236.321,768.601 256.869,726.084 277.416,683.736 297.964,641.722 318.512,600.209 339.06,559.361 359.608,519.338 380.156,480.299 400.704,442.398 421.252,405.784 
  441.8,370.602 462.348,336.991 482.896,305.084 503.443,275.005 523.991,246.875 544.539,220.803 565.087,196.894 585.635,175.24 606.183,155.929 626.731,139.035 
  647.279,124.626 667.827,112.758 688.375,103.479 708.923,96.8249 729.471,92.8217 750.018,91.4856 770.566,92.8217 791.114,96.8249 811.662,103.479 832.21,112.758 
  852.758,124.626 873.306,139.035 893.854,155.929 914.402,175.24 934.95,196.894 955.498,220.803 976.046,246.875 996.593,275.005 1017.14,305.084 1037.69,336.991 
  1058.24,370.602 1078.79,405.784 1099.33,442.398 1119.88,480.299 1140.43,519.338 1160.98,559.361 1181.52,600.209 1202.07,641.722 1222.62,683.736 1243.17,726.084 
  1263.72,768.601 1284.26,811.117 1304.81,853.466 1325.36,895.479 1345.91,936.992 1366.46,977.841 1387,1017.86 1407.55,1056.9 1428.1,1094.8 1448.65,1131.42 
  1469.2,1166.6 1489.74,1200.21 1510.29,1232.12 1530.84,1262.2 1551.39,1290.33 1571.94,1316.4 1592.48,1340.31 1613.03,1361.96 1633.58,1381.27 1654.13,1398.17 
  1674.67,1412.58 1695.22,1424.44 1715.77,1433.72 1736.32,1440.38 1756.87,1444.38 1777.41,1445.72 1797.96,1444.38 1818.51,1440.38 1839.06,1433.72 1859.61,1424.44 
  1880.15,1412.58 1900.7,1398.17 1921.25,1381.27 1941.8,1361.96 1962.35,1340.31 1982.89,1316.4 2003.44,1290.33 2023.99,1262.2 2044.54,1232.12 2065.09,1200.21 
  2085.63,1166.6 2106.18,1131.42 2126.73,1094.8 2147.28,1056.9 2167.82,1017.86 2188.37,977.841 2208.92,936.992 2229.47,895.479 2250.02,853.466 2270.56,811.117 
  2291.11,768.601 
  "/>
<polyline clip-path="url(#clip972)" style="stroke:#e26f46; stroke-width:12; stroke-opacity:1; fill:none" points="
  236.321,768.601 256.869,724.703 277.416,681.429 297.964,638.869 318.512,597.118 339.06,556.271 359.608,516.43 380.156,477.695 400.704,440.173 421.252,403.969 
  441.8,369.191 462.348,335.946 482.896,304.345 503.443,274.494 523.991,246.5 544.539,220.468 565.087,196.501 585.635,174.696 606.183,155.148 626.731,137.944 
  647.279,123.166 667.827,110.89 688.375,101.181 708.923,94.0956 729.471,89.6822 750.018,87.9763 770.566,89.0026 791.114,92.7732 811.662,99.2878 832.21,108.533 
  852.758,120.48 873.306,135.089 893.854,152.305 914.402,172.058 934.95,194.267 955.498,218.837 976.046,245.659 996.593,274.614 1017.14,305.57 1037.69,338.387 
  1058.24,372.915 1078.79,408.994 1099.33,446.461 1119.88,485.143 1140.43,524.867 1160.98,565.451 1181.52,606.717 1202.07,648.483 1222.62,690.568 1243.17,732.793 
  1263.72,774.98 1284.26,816.958 1304.81,858.556 1325.36,899.613 1345.91,939.97 1366.46,979.477 1387,1017.99 1407.55,1055.37 1428.1,1091.5 1448.65,1126.24 
  1469.2,1159.5 1489.74,1191.16 1510.29,1221.13 1530.84,1249.33 1551.39,1275.66 1571.94,1300.07 1592.48,1322.48 1613.03,1342.84 1633.58,1361.1 1654.13,1377.21 
  1674.67,1391.14 1695.22,1402.86 1715.77,1412.34 1736.32,1419.56 1756.87,1424.51 1777.41,1427.16 1797.96,1427.53 1818.51,1425.59 1839.06,1421.36 1859.61,1414.83 
  1880.15,1406.02 1900.7,1394.93 1921.25,1381.57 1941.8,1365.95 1962.35,1348.09 1982.89,1328.01 2003.44,1305.72 2023.99,1281.24 2044.54,1254.6 2065.09,1225.81 
  2085.63,1194.89 2106.18,1161.87 2126.73,1126.76 2147.28,1089.6 2167.82,1050.41 2188.37,1009.2 2208.92,965.999 2229.47,920.835 2250.02,873.728 2270.56,824.703 
  2291.11,773.78 
  "/>
<path clip-path="url(#clip970)" d="
M1944 276.658 L2280.15 276.658 L2280.15 95.2176 L1944 95.2176  Z
  " fill="#ffffff" fill-rule="evenodd" fill-opacity="1"/>
<polyline clip-path="url(#clip970)" style="stroke:#000000; stroke-width:4; stroke-opacity:1; fill:none" points="
  1944,276.658 2280.15,276.658 2280.15,95.2176 1944,95.2176 1944,276.658 
  "/>
<polyline clip-path="url(#clip970)" style="stroke:#009af9; stroke-width:4; stroke-opacity:1; fill:none" points="
  1968.2,155.698 2113.41,155.698 
  "/>
<path clip-path="url(#clip970)" d="M 0 0 M2137.61 138.418 L2166.84 138.418 L2166.84 142.353 L2154.58 142.353 L2154.58 172.978 L2149.88 172.978 L2149.88 142.353 L2137.61 142.353 L2137.61 138.418 Z" fill="#000000" fill-rule="evenodd" fill-opacity="1" /><path clip-path="url(#clip970)" d="M 0 0 M2179.37 151.033 Q2178.65 150.617 2177.79 150.431 Q2176.96 150.223 2175.94 150.223 Q2172.33 150.223 2170.39 152.584 Q2168.46 154.922 2168.46 159.32 L2168.46 172.978 L2164.18 172.978 L2164.18 147.052 L2168.46 147.052 L2168.46 151.08 Q2169.81 148.718 2171.96 147.584 Q2174.11 146.427 2177.19 146.427 Q2177.63 146.427 2178.16 146.496 Q2178.7 146.543 2179.34 146.658 L2179.37 151.033 Z" fill="#000000" fill-rule="evenodd" fill-opacity="1" /><path clip-path="url(#clip970)" d="M 0 0 M2183.4 162.746 L2183.4 147.052 L2187.65 147.052 L2187.65 162.584 Q2187.65 166.265 2189.09 168.116 Q2190.52 169.945 2193.4 169.945 Q2196.84 169.945 2198.84 167.746 Q2200.85 165.547 2200.85 161.751 L2200.85 147.052 L2205.11 147.052 L2205.11 172.978 L2200.85 172.978 L2200.85 168.996 Q2199.3 171.357 2197.24 172.515 Q2195.2 173.649 2192.49 173.649 Q2188.02 173.649 2185.71 170.871 Q2183.4 168.093 2183.4 162.746 M2194.11 146.427 L2194.11 146.427 Z" fill="#000000" fill-rule="evenodd" fill-opacity="1" /><path clip-path="url(#clip970)" d="M 0 0 M2231.75 158.95 L2231.75 161.033 L2212.17 161.033 Q2212.45 165.431 2214.81 167.746 Q2217.19 170.038 2221.43 170.038 Q2223.88 170.038 2226.17 169.436 Q2228.49 168.834 2230.76 167.63 L2230.76 171.658 Q2228.46 172.63 2226.06 173.14 Q2223.65 173.649 2221.17 173.649 Q2214.97 173.649 2211.33 170.038 Q2207.72 166.427 2207.72 160.269 Q2207.72 153.904 2211.15 150.177 Q2214.6 146.427 2220.43 146.427 Q2225.66 146.427 2228.7 149.806 Q2231.75 153.163 2231.75 158.95 M2227.49 157.7 Q2227.45 154.205 2225.52 152.121 Q2223.63 150.038 2220.48 150.038 Q2216.91 150.038 2214.76 152.052 Q2212.63 154.066 2212.31 157.723 L2227.49 157.7 Z" fill="#000000" fill-rule="evenodd" fill-opacity="1" /><polyline clip-path="url(#clip970)" style="stroke:#e26f46; stroke-width:4; stroke-opacity:1; fill:none" points="
  1968.2,216.178 2113.41,216.178 
  "/>
<path clip-path="url(#clip970)" d="M 0 0 M2137.61 198.898 L2143.9 198.898 L2159.23 227.809 L2159.23 198.898 L2163.77 198.898 L2163.77 233.458 L2157.47 233.458 L2142.15 204.546 L2142.15 233.458 L2137.61 233.458 L2137.61 198.898 Z" fill="#000000" fill-rule="evenodd" fill-opacity="1" /><path clip-path="url(#clip970)" d="M 0 0 M2168.42 198.898 L2174.71 198.898 L2190.04 227.809 L2190.04 198.898 L2194.58 198.898 L2194.58 233.458 L2188.28 233.458 L2172.96 204.546 L2172.96 233.458 L2168.42 233.458 L2168.42 198.898 Z" fill="#000000" fill-rule="evenodd" fill-opacity="1" /></svg>
