<?xml version="1.0" encoding="utf-8"?>
<svg xmlns="http://www.w3.org/2000/svg" xmlns:xlink="http://www.w3.org/1999/xlink" width="600" height="400" viewBox="0 0 2400 1600">
<defs>
  <clipPath id="clip780">
    <rect x="0" y="0" width="2400" height="1600"/>
  </clipPath>
</defs>
<path clip-path="url(#clip780)" d="
M0 1600 L2400 1600 L2400 0 L0 0  Z
  " fill="#ffffff" fill-rule="evenodd" fill-opacity="1"/>
<defs>
  <clipPath id="clip781">
    <rect x="480" y="0" width="1681" height="1600"/>
  </clipPath>
</defs>
<path clip-path="url(#clip780)" d="
M146.853 1423.18 L2352.76 1423.18 L2352.76 47.2441 L146.853 47.2441  Z
  " fill="#ffffff" fill-rule="evenodd" fill-opacity="1"/>
<defs>
  <clipPath id="clip782">
    <rect x="146" y="47" width="2207" height="1377"/>
  </clipPath>
</defs>
<polyline clip-path="url(#clip782)" style="stroke:#000000; stroke-width:2; stroke-opacity:0.1; fill:none" points="
  146.853,1423.18 146.853,47.2441 
  "/>
<polyline clip-path="url(#clip782)" style="stroke:#000000; stroke-width:2; stroke-opacity:0.1; fill:none" points="
  588.034,1423.18 588.034,47.2441 
  "/>
<polyline clip-path="url(#clip782)" style="stroke:#000000; stroke-width:2; stroke-opacity:0.1; fill:none" points="
  1029.21,1423.18 1029.21,47.2441 
  "/>
<polyline clip-path="url(#clip782)" style="stroke:#000000; stroke-width:2; stroke-opacity:0.1; fill:none" points="
  1470.39,1423.18 1470.39,47.2441 
  "/>
<polyline clip-path="url(#clip782)" style="stroke:#000000; stroke-width:2; stroke-opacity:0.1; fill:none" points="
  1911.58,1423.18 1911.58,47.2441 
  "/>
<polyline clip-path="url(#clip782)" style="stroke:#000000; stroke-width:2; stroke-opacity:0.1; fill:none" points="
  2352.76,1423.18 2352.76,47.2441 
  "/>
<polyline clip-path="url(#clip782)" style="stroke:#000000; stroke-width:2; stroke-opacity:0.1; fill:none" points="
  146.853,1227.06 2352.76,1227.06 
  "/>
<polyline clip-path="url(#clip782)" style="stroke:#000000; stroke-width:2; stroke-opacity:0.1; fill:none" points="
  146.853,998.359 2352.76,998.359 
  "/>
<polyline clip-path="url(#clip782)" style="stroke:#000000; stroke-width:2; stroke-opacity:0.1; fill:none" points="
  146.853,769.655 2352.76,769.655 
  "/>
<polyline clip-path="url(#clip782)" style="stroke:#000000; stroke-width:2; stroke-opacity:0.1; fill:none" points="
  146.853,540.951 2352.76,540.951 
  "/>
<polyline clip-path="url(#clip782)" style="stroke:#000000; stroke-width:2; stroke-opacity:0.1; fill:none" points="
  146.853,312.247 2352.76,312.247 
  "/>
<polyline clip-path="url(#clip782)" style="stroke:#000000; stroke-width:2; stroke-opacity:0.1; fill:none" points="
  146.853,83.5435 2352.76,83.5435 
  "/>
<polyline clip-path="url(#clip780)" style="stroke:#000000; stroke-width:4; stroke-opacity:1; fill:none" points="
  146.853,1423.18 2352.76,1423.18 
  "/>
<polyline clip-path="url(#clip780)" style="stroke:#000000; stroke-width:4; stroke-opacity:1; fill:none" points="
  146.853,1423.18 146.853,47.2441 
  "/>
<polyline clip-path="url(#clip780)" style="stroke:#000000; stroke-width:4; stroke-opacity:1; fill:none" points="
  146.853,1423.18 146.853,1406.67 
  "/>
<polyline clip-path="url(#clip780)" style="stroke:#000000; stroke-width:4; stroke-opacity:1; fill:none" points="
  588.034,1423.18 588.034,1406.67 
  "/>
<polyline clip-path="url(#clip780)" style="stroke:#000000; stroke-width:4; stroke-opacity:1; fill:none" points="
  1029.21,1423.18 1029.21,1406.67 
  "/>
<polyline clip-path="url(#clip780)" style="stroke:#000000; stroke-width:4; stroke-opacity:1; fill:none" points="
  1470.39,1423.18 1470.39,1406.67 
  "/>
<polyline clip-path="url(#clip780)" style="stroke:#000000; stroke-width:4; stroke-opacity:1; fill:none" points="
  1911.58,1423.18 1911.58,1406.67 
  "/>
<polyline clip-path="url(#clip780)" style="stroke:#000000; stroke-width:4; stroke-opacity:1; fill:none" points="
  2352.76,1423.18 2352.76,1406.67 
  "/>
<polyline clip-path="url(#clip780)" style="stroke:#000000; stroke-width:4; stroke-opacity:1; fill:none" points="
  146.853,1227.06 173.324,1227.06 
  "/>
<polyline clip-path="url(#clip780)" style="stroke:#000000; stroke-width:4; stroke-opacity:1; fill:none" points="
  146.853,998.359 173.324,998.359 
  "/>
<polyline clip-path="url(#clip780)" style="stroke:#000000; stroke-width:4; stroke-opacity:1; fill:none" points="
  146.853,769.655 173.324,769.655 
  "/>
<polyline clip-path="url(#clip780)" style="stroke:#000000; stroke-width:4; stroke-opacity:1; fill:none" points="
  146.853,540.951 173.324,540.951 
  "/>
<polyline clip-path="url(#clip780)" style="stroke:#000000; stroke-width:4; stroke-opacity:1; fill:none" points="
  146.853,312.247 173.324,312.247 
  "/>
<polyline clip-path="url(#clip780)" style="stroke:#000000; stroke-width:4; stroke-opacity:1; fill:none" points="
  146.853,83.5435 173.324,83.5435 
  "/>
<path clip-path="url(#clip780)" d="M 0 0 M146.853 1445.17 Q143.242 1445.17 141.413 1448.74 Q139.608 1452.28 139.608 1459.41 Q139.608 1466.51 141.413 1470.08 Q143.242 1473.62 146.853 1473.62 Q150.487 1473.62 152.293 1470.08 Q154.121 1466.51 154.121 1459.41 Q154.121 1452.28 152.293 1448.74 Q150.487 1445.17 146.853 1445.17 M146.853 1441.47 Q152.663 1441.47 155.719 1446.07 Q158.797 1450.66 158.797 1459.41 Q158.797 1468.13 155.719 1472.74 Q152.663 1477.32 146.853 1477.32 Q141.043 1477.32 137.964 1472.74 Q134.909 1468.13 134.909 1459.41 Q134.909 1450.66 137.964 1446.07 Q141.043 1441.47 146.853 1441.47 Z" fill="#000000" fill-rule="evenodd" fill-opacity="1" /><path clip-path="url(#clip780)" d="M 0 0 M582.686 1472.72 L599.006 1472.72 L599.006 1476.65 L577.061 1476.65 L577.061 1472.72 Q579.723 1469.96 584.307 1465.33 Q588.913 1460.68 590.094 1459.34 Q592.339 1456.81 593.219 1455.08 Q594.121 1453.32 594.121 1451.63 Q594.121 1448.87 592.177 1447.14 Q590.256 1445.4 587.154 1445.4 Q584.955 1445.4 582.501 1446.17 Q580.071 1446.93 577.293 1448.48 L577.293 1443.76 Q580.117 1442.62 582.571 1442.05 Q585.024 1441.47 587.061 1441.47 Q592.432 1441.47 595.626 1444.15 Q598.82 1446.84 598.82 1451.33 Q598.82 1453.46 598.01 1455.38 Q597.223 1457.28 595.117 1459.87 Q594.538 1460.54 591.436 1463.76 Q588.334 1466.95 582.686 1472.72 Z" fill="#000000" fill-rule="evenodd" fill-opacity="1" /><path clip-path="url(#clip780)" d="M 0 0 M1032.22 1446.17 L1020.42 1464.61 L1032.22 1464.61 L1032.22 1446.17 M1031 1442.09 L1036.88 1442.09 L1036.88 1464.61 L1041.81 1464.61 L1041.81 1468.5 L1036.88 1468.5 L1036.88 1476.65 L1032.22 1476.65 L1032.22 1468.5 L1016.62 1468.5 L1016.62 1463.99 L1031 1442.09 Z" fill="#000000" fill-rule="evenodd" fill-opacity="1" /><path clip-path="url(#clip780)" d="M 0 0 M1470.8 1457.51 Q1467.65 1457.51 1465.8 1459.66 Q1463.97 1461.81 1463.97 1465.56 Q1463.97 1469.29 1465.8 1471.47 Q1467.65 1473.62 1470.8 1473.62 Q1473.95 1473.62 1475.78 1471.47 Q1477.63 1469.29 1477.63 1465.56 Q1477.63 1461.81 1475.78 1459.66 Q1473.95 1457.51 1470.8 1457.51 M1480.08 1442.86 L1480.08 1447.11 Q1478.32 1446.28 1476.52 1445.84 Q1474.73 1445.4 1472.98 1445.4 Q1468.35 1445.4 1465.89 1448.53 Q1463.46 1451.65 1463.11 1457.97 Q1464.48 1455.96 1466.54 1454.89 Q1468.6 1453.8 1471.08 1453.8 Q1476.29 1453.8 1479.3 1456.98 Q1482.33 1460.12 1482.33 1465.56 Q1482.33 1470.89 1479.18 1474.11 Q1476.03 1477.32 1470.8 1477.32 Q1464.8 1477.32 1461.63 1472.74 Q1458.46 1468.13 1458.46 1459.41 Q1458.46 1451.21 1462.35 1446.35 Q1466.24 1441.47 1472.79 1441.47 Q1474.55 1441.47 1476.33 1441.81 Q1478.14 1442.16 1480.08 1442.86 Z" fill="#000000" fill-rule="evenodd" fill-opacity="1" /><path clip-path="url(#clip780)" d="M 0 0 M1911.58 1460.24 Q1908.24 1460.24 1906.32 1462.02 Q1904.42 1463.8 1904.42 1466.93 Q1904.42 1470.05 1906.32 1471.84 Q1908.24 1473.62 1911.58 1473.62 Q1914.91 1473.62 1916.83 1471.84 Q1918.75 1470.03 1918.75 1466.93 Q1918.75 1463.8 1916.83 1462.02 Q1914.93 1460.24 1911.58 1460.24 M1906.9 1458.25 Q1903.89 1457.51 1902.2 1455.45 Q1900.53 1453.39 1900.53 1450.43 Q1900.53 1446.28 1903.47 1443.87 Q1906.44 1441.47 1911.58 1441.47 Q1916.74 1441.47 1919.68 1443.87 Q1922.62 1446.28 1922.62 1450.43 Q1922.62 1453.39 1920.93 1455.45 Q1919.26 1457.51 1916.27 1458.25 Q1919.65 1459.04 1921.53 1461.33 Q1923.43 1463.62 1923.43 1466.93 Q1923.43 1471.95 1920.35 1474.64 Q1917.29 1477.32 1911.58 1477.32 Q1905.86 1477.32 1902.78 1474.64 Q1899.72 1471.95 1899.72 1466.93 Q1899.72 1463.62 1901.62 1461.33 Q1903.52 1459.04 1906.9 1458.25 M1905.19 1450.86 Q1905.19 1453.55 1906.85 1455.05 Q1908.54 1456.56 1911.58 1456.56 Q1914.58 1456.56 1916.27 1455.05 Q1917.99 1453.55 1917.99 1450.86 Q1917.99 1448.18 1916.27 1446.68 Q1914.58 1445.17 1911.58 1445.17 Q1908.54 1445.17 1906.85 1446.68 Q1905.19 1448.18 1905.19 1450.86 Z" fill="#000000" fill-rule="evenodd" fill-opacity="1" /><path clip-path="url(#clip780)" d="M 0 0 M2329.63 1472.72 L2337.27 1472.72 L2337.27 1446.35 L2328.96 1448.02 L2328.96 1443.76 L2337.22 1442.09 L2341.9 1442.09 L2341.9 1472.72 L2349.54 1472.72 L2349.54 1476.65 L2329.63 1476.65 L2329.63 1472.72 Z" fill="#000000" fill-rule="evenodd" fill-opacity="1" /><path clip-path="url(#clip780)" d="M 0 0 M2364.61 1445.17 Q2361 1445.17 2359.17 1448.74 Q2357.36 1452.28 2357.36 1459.41 Q2357.36 1466.51 2359.17 1470.08 Q2361 1473.62 2364.61 1473.62 Q2368.24 1473.62 2370.05 1470.08 Q2371.88 1466.51 2371.88 1459.41 Q2371.88 1452.28 2370.05 1448.74 Q2368.24 1445.17 2364.61 1445.17 M2364.61 1441.47 Q2370.42 1441.47 2373.47 1446.07 Q2376.55 1450.66 2376.55 1459.41 Q2376.55 1468.13 2373.47 1472.74 Q2370.42 1477.32 2364.61 1477.32 Q2358.8 1477.32 2355.72 1472.74 Q2352.66 1468.13 2352.66 1459.41 Q2352.66 1450.66 2355.72 1446.07 Q2358.8 1441.47 2364.61 1441.47 Z" fill="#000000" fill-rule="evenodd" fill-opacity="1" /><path clip-path="url(#clip780)" d="M 0 0 M74.9365 1212.86 Q71.3254 1212.86 69.4967 1216.43 Q67.6912 1219.97 67.6912 1227.1 Q67.6912 1234.2 69.4967 1237.77 Q71.3254 1241.31 74.9365 1241.31 Q78.5707 1241.31 80.3763 1237.77 Q82.205 1234.2 82.205 1227.1 Q82.205 1219.97 80.3763 1216.43 Q78.5707 1212.86 74.9365 1212.86 M74.9365 1209.16 Q80.7467 1209.16 83.8022 1213.76 Q86.8809 1218.35 86.8809 1227.1 Q86.8809 1235.82 83.8022 1240.43 Q80.7467 1245.01 74.9365 1245.01 Q69.1264 1245.01 66.0477 1240.43 Q62.9921 1235.82 62.9921 1227.1 Q62.9921 1218.35 66.0477 1213.76 Q69.1264 1209.16 74.9365 1209.16 Z" fill="#000000" fill-rule="evenodd" fill-opacity="1" /><path clip-path="url(#clip780)" d="M 0 0 M91.9503 1238.46 L96.8345 1238.46 L96.8345 1244.34 L91.9503 1244.34 L91.9503 1238.46 Z" fill="#000000" fill-rule="evenodd" fill-opacity="1" /><path clip-path="url(#clip780)" d="M 0 0 M101.95 1209.78 L120.307 1209.78 L120.307 1213.72 L106.233 1213.72 L106.233 1222.19 Q107.251 1221.84 108.27 1221.68 Q109.288 1221.5 110.307 1221.5 Q116.094 1221.5 119.473 1224.67 Q122.853 1227.84 122.853 1233.26 Q122.853 1238.83 119.381 1241.94 Q115.909 1245.01 109.589 1245.01 Q107.413 1245.01 105.145 1244.64 Q102.899 1244.27 100.492 1243.53 L100.492 1238.83 Q102.575 1239.97 104.797 1240.52 Q107.02 1241.08 109.497 1241.08 Q113.501 1241.08 115.839 1238.97 Q118.177 1236.87 118.177 1233.26 Q118.177 1229.64 115.839 1227.54 Q113.501 1225.43 109.497 1225.43 Q107.622 1225.43 105.747 1225.85 Q103.895 1226.26 101.95 1227.14 L101.95 1209.78 Z" fill="#000000" fill-rule="evenodd" fill-opacity="1" /><path clip-path="url(#clip780)" d="M 0 0 M65.9782 1011.7 L73.6171 1011.7 L73.6171 985.339 L65.3069 987.005 L65.3069 982.746 L73.5708 981.079 L78.2467 981.079 L78.2467 1011.7 L85.8855 1011.7 L85.8855 1015.64 L65.9782 1015.64 L65.9782 1011.7 Z" fill="#000000" fill-rule="evenodd" fill-opacity="1" /><path clip-path="url(#clip780)" d="M 0 0 M90.9549 1009.76 L95.8392 1009.76 L95.8392 1015.64 L90.9549 1015.64 L90.9549 1009.76 Z" fill="#000000" fill-rule="evenodd" fill-opacity="1" /><path clip-path="url(#clip780)" d="M 0 0 M110.909 984.158 Q107.297 984.158 105.469 987.723 Q103.663 991.265 103.663 998.394 Q103.663 1005.5 105.469 1009.07 Q107.297 1012.61 110.909 1012.61 Q114.543 1012.61 116.348 1009.07 Q118.177 1005.5 118.177 998.394 Q118.177 991.265 116.348 987.723 Q114.543 984.158 110.909 984.158 M110.909 980.454 Q116.719 980.454 119.774 985.061 Q122.853 989.644 122.853 998.394 Q122.853 1007.12 119.774 1011.73 Q116.719 1016.31 110.909 1016.31 Q105.098 1016.31 102.02 1011.73 Q98.9642 1007.12 98.9642 998.394 Q98.9642 989.644 102.02 985.061 Q105.098 980.454 110.909 980.454 Z" fill="#000000" fill-rule="evenodd" fill-opacity="1" /><path clip-path="url(#clip780)" d="M 0 0 M66.9736 783 L74.6124 783 L74.6124 756.635 L66.3023 758.301 L66.3023 754.042 L74.5661 752.375 L79.242 752.375 L79.242 783 L86.8809 783 L86.8809 786.935 L66.9736 786.935 L66.9736 783 Z" fill="#000000" fill-rule="evenodd" fill-opacity="1" /><path clip-path="url(#clip780)" d="M 0 0 M91.9503 781.056 L96.8345 781.056 L96.8345 786.935 L91.9503 786.935 L91.9503 781.056 Z" fill="#000000" fill-rule="evenodd" fill-opacity="1" /><path clip-path="url(#clip780)" d="M 0 0 M101.95 752.375 L120.307 752.375 L120.307 756.311 L106.233 756.311 L106.233 764.783 Q107.251 764.436 108.27 764.274 Q109.288 764.088 110.307 764.088 Q116.094 764.088 119.473 767.26 Q122.853 770.431 122.853 775.848 Q122.853 781.426 119.381 784.528 Q115.909 787.607 109.589 787.607 Q107.413 787.607 105.145 787.236 Q102.899 786.866 100.492 786.125 L100.492 781.426 Q102.575 782.56 104.797 783.116 Q107.02 783.672 109.497 783.672 Q113.501 783.672 115.839 781.565 Q118.177 779.459 118.177 775.848 Q118.177 772.236 115.839 770.13 Q113.501 768.023 109.497 768.023 Q107.622 768.023 105.747 768.44 Q103.895 768.857 101.95 769.736 L101.95 752.375 Z" fill="#000000" fill-rule="evenodd" fill-opacity="1" /><path clip-path="url(#clip780)" d="M 0 0 M69.5662 554.296 L85.8855 554.296 L85.8855 558.231 L63.9412 558.231 L63.9412 554.296 Q66.6032 551.542 71.1865 546.912 Q75.793 542.259 76.9735 540.917 Q79.2189 538.394 80.0985 536.657 Q81.0013 534.898 81.0013 533.208 Q81.0013 530.454 79.0569 528.718 Q77.1356 526.982 74.0337 526.982 Q71.8347 526.982 69.381 527.745 Q66.9504 528.509 64.1727 530.06 L64.1727 525.338 Q66.9967 524.204 69.4504 523.625 Q71.9041 523.046 73.9411 523.046 Q79.3115 523.046 82.5059 525.732 Q85.7003 528.417 85.7003 532.908 Q85.7003 535.037 84.8902 536.958 Q84.1031 538.857 81.9967 541.449 Q81.418 542.12 78.3161 545.338 Q75.2143 548.532 69.5662 554.296 Z" fill="#000000" fill-rule="evenodd" fill-opacity="1" /><path clip-path="url(#clip780)" d="M 0 0 M90.9549 552.352 L95.8392 552.352 L95.8392 558.231 L90.9549 558.231 L90.9549 552.352 Z" fill="#000000" fill-rule="evenodd" fill-opacity="1" /><path clip-path="url(#clip780)" d="M 0 0 M110.909 526.75 Q107.297 526.75 105.469 530.315 Q103.663 533.857 103.663 540.986 Q103.663 548.093 105.469 551.657 Q107.297 555.199 110.909 555.199 Q114.543 555.199 116.348 551.657 Q118.177 548.093 118.177 540.986 Q118.177 533.857 116.348 530.315 Q114.543 526.75 110.909 526.75 M110.909 523.046 Q116.719 523.046 119.774 527.653 Q122.853 532.236 122.853 540.986 Q122.853 549.713 119.774 554.319 Q116.719 558.903 110.909 558.903 Q105.098 558.903 102.02 554.319 Q98.9642 549.713 98.9642 540.986 Q98.9642 532.236 102.02 527.653 Q105.098 523.046 110.909 523.046 Z" fill="#000000" fill-rule="evenodd" fill-opacity="1" /><path clip-path="url(#clip780)" d="M 0 0 M70.5615 325.592 L86.8809 325.592 L86.8809 329.527 L64.9366 329.527 L64.9366 325.592 Q67.5986 322.838 72.1819 318.208 Q76.7883 313.555 77.9689 312.213 Q80.2143 309.69 81.0939 307.954 Q81.9967 306.194 81.9967 304.504 Q81.9967 301.75 80.0522 300.014 Q78.1309 298.278 75.0291 298.278 Q72.83 298.278 70.3763 299.042 Q67.9458 299.805 65.168 301.356 L65.168 296.634 Q67.9921 295.5 70.4458 294.921 Q72.8995 294.342 74.9365 294.342 Q80.3068 294.342 83.5013 297.028 Q86.6957 299.713 86.6957 304.204 Q86.6957 306.333 85.8855 308.254 Q85.0985 310.153 82.992 312.745 Q82.4133 313.416 79.3115 316.634 Q76.2096 319.828 70.5615 325.592 Z" fill="#000000" fill-rule="evenodd" fill-opacity="1" /><path clip-path="url(#clip780)" d="M 0 0 M91.9503 323.648 L96.8345 323.648 L96.8345 329.527 L91.9503 329.527 L91.9503 323.648 Z" fill="#000000" fill-rule="evenodd" fill-opacity="1" /><path clip-path="url(#clip780)" d="M 0 0 M101.95 294.967 L120.307 294.967 L120.307 298.903 L106.233 298.903 L106.233 307.375 Q107.251 307.028 108.27 306.866 Q109.288 306.68 110.307 306.68 Q116.094 306.68 119.473 309.852 Q122.853 313.023 122.853 318.44 Q122.853 324.018 119.381 327.12 Q115.909 330.199 109.589 330.199 Q107.413 330.199 105.145 329.828 Q102.899 329.458 100.492 328.717 L100.492 324.018 Q102.575 325.152 104.797 325.708 Q107.02 326.264 109.497 326.264 Q113.501 326.264 115.839 324.157 Q118.177 322.051 118.177 318.44 Q118.177 314.828 115.839 312.722 Q113.501 310.616 109.497 310.616 Q107.622 310.616 105.747 311.032 Q103.895 311.449 101.95 312.328 L101.95 294.967 Z" fill="#000000" fill-rule="evenodd" fill-opacity="1" /><path clip-path="url(#clip780)" d="M 0 0 M78.7559 82.1893 Q82.1124 82.9069 83.9874 85.1754 Q85.8855 87.4439 85.8855 90.7772 Q85.8855 95.8929 82.367 98.6939 Q78.8485 101.495 72.3671 101.495 Q70.1912 101.495 67.8764 101.055 Q65.5847 100.638 63.131 99.7818 L63.131 95.268 Q65.0754 96.4022 67.3903 96.9809 Q69.7051 97.5596 72.2282 97.5596 Q76.6263 97.5596 78.918 95.8235 Q81.2328 94.0874 81.2328 90.7772 Q81.2328 87.7217 79.08 86.0087 Q76.9504 84.2726 73.131 84.2726 L69.1032 84.2726 L69.1032 80.4301 L73.3161 80.4301 Q76.7652 80.4301 78.5939 79.0643 Q80.4226 77.6755 80.4226 75.0829 Q80.4226 72.4209 78.5245 71.0088 Q76.6495 69.5736 73.131 69.5736 Q71.2097 69.5736 69.0106 69.9903 Q66.8115 70.407 64.1727 71.2866 L64.1727 67.12 Q66.8347 66.3792 69.1495 66.0088 Q71.4875 65.6385 73.5476 65.6385 Q78.8717 65.6385 81.9735 68.069 Q85.0753 70.4764 85.0753 74.5968 Q85.0753 77.4671 83.4318 79.4578 Q81.7883 81.4254 78.7559 82.1893 Z" fill="#000000" fill-rule="evenodd" fill-opacity="1" /><path clip-path="url(#clip780)" d="M 0 0 M90.9549 94.9439 L95.8392 94.9439 L95.8392 100.823 L90.9549 100.823 L90.9549 94.9439 Z" fill="#000000" fill-rule="evenodd" fill-opacity="1" /><path clip-path="url(#clip780)" d="M 0 0 M110.909 69.3422 Q107.297 69.3422 105.469 72.907 Q103.663 76.4486 103.663 83.5782 Q103.663 90.6846 105.469 94.2494 Q107.297 97.7911 110.909 97.7911 Q114.543 97.7911 116.348 94.2494 Q118.177 90.6846 118.177 83.5782 Q118.177 76.4486 116.348 72.907 Q114.543 69.3422 110.909 69.3422 M110.909 65.6385 Q116.719 65.6385 119.774 70.2449 Q122.853 74.8282 122.853 83.5782 Q122.853 92.305 119.774 96.9115 Q116.719 101.495 110.909 101.495 Q105.098 101.495 102.02 96.9115 Q98.9642 92.305 98.9642 83.5782 Q98.9642 74.8282 102.02 70.2449 Q105.098 65.6385 110.909 65.6385 Z" fill="#000000" fill-rule="evenodd" fill-opacity="1" /><path clip-path="url(#clip780)" d="M 0 0 M1248.87 1510.27 L1248.87 1520.4 L1260.93 1520.4 L1260.93 1524.95 L1248.87 1524.95 L1248.87 1544.3 Q1248.87 1548.66 1250.04 1549.9 Q1251.25 1551.14 1254.91 1551.14 L1260.93 1551.14 L1260.93 1556.04 L1254.91 1556.04 Q1248.13 1556.04 1245.56 1553.53 Q1242.98 1550.98 1242.98 1544.3 L1242.98 1524.95 L1238.68 1524.95 L1238.68 1520.4 L1242.98 1520.4 L1242.98 1510.27 L1248.87 1510.27 Z" fill="#000000" fill-rule="evenodd" fill-opacity="1" /><polyline clip-path="url(#clip782)" style="stroke:#009af9; stroke-width:4; stroke-opacity:1; fill:none" points="
  146.853,998.359 149.061,996.111 151.269,993.946 153.477,991.87 155.685,989.885 157.893,987.997 160.102,986.209 162.31,984.524 164.518,982.948 166.726,981.485 
  168.934,980.138 171.142,978.912 173.35,977.81 175.558,976.838 177.766,975.999 179.975,975.297 182.183,974.736 184.391,974.319 186.599,974.051 188.807,973.935 
  191.015,973.974 193.223,974.172 195.431,974.532 197.639,975.057 199.848,975.75 202.056,976.614 204.264,977.651 206.472,978.862 208.68,980.251 210.888,981.817 
  213.096,983.563 215.304,985.489 217.512,987.596 219.721,989.883 221.929,992.351 224.137,994.999 226.345,997.826 228.553,1000.83 230.761,1004.01 232.969,1007.37 
  235.177,1010.9 237.385,1014.59 239.594,1018.45 241.802,1022.47 244.01,1026.65 246.218,1030.98 248.426,1035.45 250.634,1040.07 252.842,1044.82 255.05,1049.7 
  257.258,1054.71 259.467,1059.83 261.675,1065.07 263.883,1070.4 266.091,1075.84 268.299,1081.36 270.507,1084.61 272.715,1086.58 274.923,1088.65 277.131,1090.82 
  279.34,1093.08 281.548,1095.43 283.756,1097.87 285.964,1100.4 288.172,1103.02 290.38,1105.73 292.588,1108.51 294.796,1111.38 297.004,1114.32 299.213,1117.33 
  301.421,1120.42 303.629,1123.58 305.837,1126.8 308.045,1130.09 310.253,1133.44 312.461,1136.84 314.669,1140.29 316.877,1143.8 319.086,1147.35 321.294,1150.94 
  323.502,1154.57 325.71,1158.24 327.918,1161.94 330.126,1165.67 332.334,1169.42 334.542,1173.2 336.75,1176.99 338.959,1180.79 341.167,1184.61 343.375,1188.44 
  345.583,1192.27 347.791,1196.1 349.999,1199.93 352.207,1201.94 354.415,1203.25 356.623,1204.58 358.832,1205.95 361.04,1207.33 363.248,1208.74 365.456,1210.18 
  367.664,1211.63 369.872,1213.11 372.08,1214.61 374.288,1216.13 376.496,1217.67 378.705,1219.23 380.913,1220.81 383.121,1222.4 385.329,1224.01 387.537,1225.64 
  389.745,1227.28 391.953,1228.93 394.161,1230.6 396.369,1232.27 398.578,1233.96 400.786,1235.66 402.994,1237.37 405.202,1239.08 407.41,1240.81 409.618,1242.54 
  411.826,1244.27 414.034,1246.01 416.242,1247.76 418.451,1249.5 420.659,1251.25 422.867,1253 425.075,1254.76 427.283,1256.51 429.491,1258.26 431.699,1260.01 
  433.907,1261.76 436.115,1263.5 438.324,1265.24 440.532,1266.98 442.74,1268.71 444.948,1270.44 447.156,1272.15 449.364,1273.87 451.572,1275.57 453.78,1277.27 
  455.988,1278.96 458.197,1280.64 460.405,1282.3 462.613,1283.96 464.821,1285.61 467.029,1287.25 469.237,1288.87 471.445,1290.49 473.653,1292.09 475.861,1293.68 
  478.07,1295.26 480.278,1296.82 482.486,1298.37 484.694,1299.9 486.902,1301.42 489.11,1302.93 491.318,1304.42 493.526,1305.9 495.734,1307.36 497.943,1308.81 
  500.151,1310.24 502.359,1311.66 504.567,1313.06 506.775,1314.44 508.983,1315.81 511.191,1317.16 513.399,1318.5 515.607,1319.82 517.816,1321.13 520.024,1322.41 
  522.232,1323.68 524.44,1324.94 526.648,1326.18 528.856,1327.4 531.064,1328.61 533.272,1329.79 535.48,1330.97 537.689,1332.12 539.897,1333.26 542.105,1334.39 
  544.313,1335.5 546.521,1336.59 548.729,1337.66 550.937,1338.72 553.145,1339.77 555.353,1340.79 557.562,1341.8 559.77,1342.8 561.978,1343.78 564.186,1344.74 
  566.394,1345.69 568.602,1346.63 570.81,1347.55 573.018,1348.45 575.226,1349.34 577.435,1350.21 579.643,1351.07 581.851,1351.92 584.059,1352.75 586.267,1353.56 
  588.475,1354.36 590.683,1355.15 592.891,1355.92 595.099,1356.69 597.308,1357.43 599.516,1358.16 601.724,1358.88 603.932,1359.59 606.14,1360.29 608.348,1360.97 
  610.556,1361.63 612.764,1362.29 614.972,1362.93 617.181,1363.56 619.389,1364.18 621.597,1364.79 623.805,1365.38 626.013,1365.97 628.221,1366.54 630.429,1367.1 
  632.637,1367.65 634.845,1368.18 637.054,1368.71 639.262,1369.23 641.47,1369.73 643.678,1370.23 645.886,1370.71 648.094,1371.18 650.302,1371.64 652.51,1372.1 
  654.718,1372.54 656.927,1372.97 659.135,1373.39 661.343,1373.81 663.551,1374.21 665.759,1374.6 667.967,1374.99 670.175,1375.36 672.383,1375.73 674.591,1376.08 
  676.8,1376.43 679.008,1376.77 681.216,1377.1 683.424,1377.42 685.632,1377.73 687.84,1378.04 690.048,1378.33 692.256,1378.62 694.464,1378.9 696.673,1379.17 
  698.881,1379.44 701.089,1379.69 703.297,1379.94 705.505,1380.18 707.713,1380.41 709.921,1380.64 712.129,1380.85 714.337,1381.06 716.546,1381.27 718.754,1381.46 
  720.962,1381.65 723.17,1381.83 725.378,1382 727.586,1382.17 729.794,1382.33 732.002,1382.48 734.21,1382.63 736.419,1382.77 738.627,1382.9 740.835,1383.03 
  743.043,1383.15 745.251,1383.26 747.459,1383.37 749.667,1383.47 751.875,1383.56 754.083,1383.65 756.292,1383.73 758.5,1383.81 760.708,1383.87 762.916,1383.94 
  765.124,1383.99 767.332,1384.04 769.54,1384.09 771.748,1384.13 773.956,1384.16 776.165,1384.19 778.373,1384.21 780.581,1384.22 782.789,1384.23 784.997,1384.24 
  787.205,1384.24 789.413,1384.23 791.621,1384.22 793.829,1384.2 796.038,1384.17 798.246,1384.14 800.454,1384.11 802.662,1384.07 804.87,1384.02 807.078,1383.97 
  809.286,1383.91 811.494,1383.85 813.702,1383.78 815.911,1383.71 818.119,1383.63 820.327,1383.54 822.535,1383.45 824.743,1383.36 826.951,1383.26 829.159,1383.15 
  831.367,1383.04 833.575,1382.92 835.784,1382.8 837.992,1382.67 840.2,1382.54 842.408,1382.4 844.616,1382.26 846.824,1382.11 849.032,1381.96 851.24,1381.8 
  853.448,1381.64 855.657,1381.47 857.865,1381.29 860.073,1381.11 862.281,1380.93 864.489,1380.74 866.697,1380.54 868.905,1380.34 871.113,1380.14 873.321,1379.92 
  875.53,1379.71 877.738,1379.49 879.946,1379.26 882.154,1379.03 884.362,1378.79 886.57,1378.55 888.778,1378.3 890.986,1378.04 893.194,1377.79 895.403,1377.52 
  897.611,1377.25 899.819,1376.98 902.027,1376.7 904.235,1376.41 906.443,1376.12 908.651,1375.83 910.859,1375.52 913.067,1375.22 915.276,1374.9 917.484,1374.59 
  919.692,1374.26 921.9,1373.93 924.108,1373.6 926.316,1373.26 928.524,1372.91 930.732,1372.56 932.94,1372.21 935.149,1371.84 937.357,1371.48 939.565,1371.1 
  941.773,1370.72 943.981,1370.34 946.189,1369.95 948.397,1369.55 950.605,1369.15 952.813,1368.74 955.022,1368.33 957.23,1367.91 959.438,1367.49 961.646,1367.06 
  963.854,1366.62 966.062,1366.18 968.27,1365.73 970.478,1365.27 972.686,1364.81 974.895,1364.35 977.103,1363.88 979.311,1363.4 981.519,1362.91 983.727,1362.42 
  985.935,1361.92 988.143,1361.42 990.351,1360.91 992.559,1360.4 994.768,1359.87 996.976,1359.35 999.184,1358.81 1001.39,1358.27 1003.6,1357.72 1005.81,1357.17 
  1008.02,1356.61 1010.22,1356.04 1012.43,1355.47 1014.64,1354.89 1016.85,1354.3 1019.06,1353.71 1021.26,1353.11 1023.47,1352.51 1025.68,1351.89 1027.89,1351.28 
  1030.1,1350.65 1032.31,1350.02 1034.51,1349.38 1036.72,1348.73 1038.93,1348.08 1041.14,1347.42 1043.35,1346.75 1045.55,1346.08 1047.76,1345.4 1049.97,1344.71 
  1052.18,1344.02 1054.39,1343.32 1056.59,1342.61 1058.8,1341.89 1061.01,1341.17 1063.22,1340.44 1065.43,1339.71 1067.64,1338.96 1069.84,1338.21 1072.05,1337.45 
  1074.26,1336.69 1076.47,1335.92 1078.68,1335.14 1080.88,1334.35 1083.09,1333.56 1085.3,1332.76 1087.51,1331.95 1089.72,1331.14 1091.92,1330.31 1094.13,1329.48 
  1096.34,1328.65 1098.55,1327.8 1100.76,1326.95 1102.97,1326.09 1105.17,1325.22 1107.38,1324.35 1109.59,1323.47 1111.8,1322.58 1114.01,1321.69 1116.21,1320.78 
  1118.42,1319.88 1120.63,1318.96 1122.84,1318.04 1125.05,1317.1 1127.25,1316.17 1129.46,1315.22 1131.67,1314.27 1133.88,1313.31 1136.09,1312.34 1138.29,1311.36 
  1140.5,1310.38 1142.71,1309.39 1144.92,1308.4 1147.13,1307.39 1149.34,1306.38 1151.54,1305.36 1153.75,1304.33 1155.96,1303.3 1158.17,1302.26 1160.38,1301.21 
  1162.58,1300.15 1164.79,1299.09 1167,1298.02 1169.21,1296.94 1171.42,1295.86 1173.62,1294.77 1175.83,1293.67 1178.04,1292.57 1180.25,1291.46 1182.46,1290.34 
  1184.67,1289.21 1186.87,1288.08 1189.08,1286.95 1191.29,1285.8 1193.5,1284.65 1195.71,1283.5 1197.91,1282.34 1200.12,1281.17 1202.33,1280 1204.54,1278.82 
  1206.75,1277.63 1208.95,1276.44 1211.16,1275.25 1213.37,1274.05 1215.58,1272.84 1217.79,1271.63 1219.99,1270.42 1222.2,1269.2 1224.41,1267.98 1226.62,1266.75 
  1228.83,1265.52 1231.04,1264.28 1233.24,1263.05 1235.45,1261.8 1237.66,1260.56 1239.87,1259.31 1242.08,1258.06 1244.28,1256.81 1246.49,1255.55 1248.7,1254.29 
  1250.91,1253.03 1253.12,1251.77 1255.32,1250.5 1257.53,1249.24 1259.74,1247.97 1261.95,1246.7 1264.16,1245.43 1266.37,1244.17 1268.57,1242.9 1270.78,1241.63 
  1272.99,1240.36 1275.2,1239.09 1277.41,1237.82 1279.61,1236.56 1281.82,1235.29 1284.03,1234.03 1286.24,1232.76 1288.45,1231.5 1290.65,1230.25 1292.86,1228.99 
  1295.07,1227.74 1297.28,1226.49 1299.49,1225.24 1301.7,1224 1303.9,1222.77 1306.11,1221.54 1308.32,1220.32 1310.53,1219.1 1312.74,1217.89 1314.94,1216.69 
  1317.15,1215.49 1319.36,1214.31 1321.57,1213.13 1323.78,1211.96 1325.98,1210.81 1328.19,1209.66 1330.4,1208.52 1332.61,1207.4 1334.82,1206.29 1337.02,1205.19 
  1339.23,1204.1 1341.44,1203.03 1343.65,1201.97 1345.86,1200.92 1348.07,1199.89 1350.27,1198.88 1352.48,1197.88 1354.69,1196.9 1356.9,1195.93 1359.11,1194.98 
  1361.31,1194.05 1363.52,1193.14 1365.73,1192.25 1367.94,1191.37 1370.15,1190.52 1372.35,1189.69 1374.56,1188.88 1376.77,1188.09 1378.98,1187.32 1381.19,1186.57 
  1383.4,1185.85 1385.6,1185.15 1387.81,1184.47 1390.02,1183.82 1392.23,1183.19 1394.44,1182.59 1396.64,1182.02 1398.85,1181.47 1401.06,1180.95 1403.27,1180.45 
  1405.48,1179.99 1407.68,1179.55 1409.89,1179.14 1412.1,1178.76 1414.31,1178.42 1416.52,1178.1 1418.72,1177.81 1420.93,1177.56 1423.14,1177.33 1425.35,1177.14 
  1427.56,1176.99 1429.77,1176.86 1431.97,1176.77 1434.18,1176.72 1436.39,1176.7 1438.6,1176.72 1440.81,1176.77 1443.01,1176.86 1445.22,1176.99 1447.43,1177.15 
  1449.64,1177.36 1451.85,1177.6 1454.05,1177.88 1456.26,1178.2 1458.47,1178.55 1460.68,1178.94 1462.89,1179.37 1465.1,1179.83 1467.3,1180.33 1469.51,1180.86 
  1471.72,1181.43 1473.93,1182.04 1476.14,1182.68 1478.34,1183.36 1480.55,1184.07 1482.76,1184.81 1484.97,1185.59 1487.18,1186.4 1489.38,1187.25 1491.59,1188.13 
  1493.8,1189.04 1496.01,1189.98 1498.22,1190.95 1500.43,1191.96 1502.63,1192.99 1504.84,1194.06 1507.05,1195.15 1509.26,1196.28 1511.47,1197.43 1513.67,1198.61 
  1515.88,1199.82 1518.09,1201.06 1520.3,1202.32 1522.51,1203.61 1524.71,1204.92 1526.92,1206.26 1529.13,1207.63 1531.34,1209.01 1533.55,1210.42 1535.75,1211.86 
  1537.96,1213.31 1540.17,1214.79 1542.38,1216.29 1544.59,1217.8 1546.8,1219.34 1549,1220.89 1551.21,1222.46 1553.42,1224.05 1555.63,1225.66 1557.84,1227.28 
  1560.04,1228.91 1562.25,1230.56 1564.46,1232.23 1566.67,1233.9 1568.88,1235.59 1571.08,1237.28 1573.29,1238.99 1575.5,1240.7 1577.71,1242.42 1579.92,1244.15 
  1582.13,1245.89 1584.33,1247.63 1586.54,1249.38 1588.75,1251.13 1590.96,1252.88 1593.17,1254.63 1595.37,1256.38 1597.58,1258.14 1599.79,1259.89 1602,1261.63 
  1604.21,1263.38 1606.41,1265.12 1608.62,1266.86 1610.83,1268.59 1613.04,1270.32 1615.25,1272.04 1617.45,1273.75 1619.66,1275.46 1621.87,1277.16 1624.08,1278.85 
  1626.29,1280.54 1628.5,1282.21 1630.7,1283.88 1632.91,1285.53 1635.12,1287.18 1637.33,1288.81 1639.54,1290.43 1641.74,1292.04 1643.95,1293.64 1646.16,1295.22 
  1648.37,1296.79 1650.58,1298.35 1652.78,1299.89 1654.99,1301.42 1657.2,1302.94 1659.41,1304.44 1661.62,1305.93 1663.83,1307.4 1666.03,1308.85 1668.24,1310.29 
  1670.45,1311.71 1672.66,1313.12 1674.87,1314.51 1677.07,1315.88 1679.28,1317.24 1681.49,1318.58 1683.7,1319.9 1685.91,1321.21 1688.11,1322.5 1690.32,1323.77 
  1692.53,1325.02 1694.74,1326.26 1696.95,1327.48 1699.16,1328.68 1701.36,1329.87 1703.57,1331.04 1705.78,1332.19 1707.99,1333.32 1710.2,1334.44 1712.4,1335.54 
  1714.61,1336.63 1716.82,1337.7 1719.03,1338.75 1721.24,1339.78 1723.44,1340.8 1725.65,1341.81 1727.86,1342.79 1730.07,1343.77 1732.28,1344.73 1734.48,1345.67 
  1736.69,1346.6 1738.9,1347.51 1741.11,1348.41 1743.32,1349.3 1745.53,1350.17 1747.73,1351.03 1749.94,1351.88 1752.15,1352.71 1754.36,1353.52 1756.57,1354.32 
  1758.77,1355.11 1760.98,1355.89 1763.19,1356.65 1765.4,1357.39 1767.61,1358.12 1769.81,1358.84 1772.02,1359.55 1774.23,1360.24 1776.44,1360.92 1778.65,1361.59 
  1780.86,1362.25 1783.06,1362.89 1785.27,1363.52 1787.48,1364.14 1789.69,1364.75 1791.9,1365.34 1794.1,1365.93 1796.31,1366.5 1798.52,1367.06 1800.73,1367.61 
  1802.94,1368.14 1805.14,1368.67 1807.35,1369.19 1809.56,1369.69 1811.77,1370.19 1813.98,1370.67 1816.18,1371.14 1818.39,1371.61 1820.6,1372.06 1822.81,1372.5 
  1825.02,1372.93 1827.23,1373.36 1829.43,1373.77 1831.64,1374.17 1833.85,1374.57 1836.06,1374.95 1838.27,1375.33 1840.47,1375.7 1842.68,1376.05 1844.89,1376.4 
  1847.1,1376.74 1849.31,1377.07 1851.51,1377.39 1853.72,1377.71 1855.93,1378.01 1858.14,1378.31 1860.35,1378.6 1862.56,1378.88 1864.76,1379.15 1866.97,1379.41 
  1869.18,1379.67 1871.39,1379.91 1873.6,1380.16 1875.8,1380.39 1878.01,1380.61 1880.22,1380.83 1882.43,1381.04 1884.64,1381.24 1886.84,1381.44 1889.05,1381.63 
  1891.26,1381.81 1893.47,1381.98 1895.68,1382.15 1897.89,1382.31 1900.09,1382.46 1902.3,1382.61 1904.51,1382.75 1906.72,1382.88 1908.93,1383.01 1911.13,1383.13 
  1913.34,1383.24 1915.55,1383.35 1917.76,1383.45 1919.97,1383.54 1922.17,1383.63 1924.38,1383.71 1926.59,1383.79 1928.8,1383.86 1931.01,1383.92 1933.21,1383.98 
  1935.42,1384.03 1937.63,1384.07 1939.84,1384.11 1942.05,1384.14 1944.26,1384.17 1946.46,1384.19 1948.67,1384.21 1950.88,1384.22 1953.09,1384.22 1955.3,1384.22 
  1957.5,1384.21 1959.71,1384.2 1961.92,1384.18 1964.13,1384.16 1966.34,1384.13 1968.54,1384.09 1970.75,1384.05 1972.96,1384.01 1975.17,1383.95 1977.38,1383.9 
  1979.59,1383.83 1981.79,1383.77 1984,1383.69 1986.21,1383.61 1988.42,1383.53 1990.63,1383.44 1992.83,1383.35 1995.04,1383.25 1997.25,1383.14 1999.46,1383.03 
  2001.67,1382.92 2003.87,1382.79 2006.08,1382.67 2008.29,1382.54 2010.5,1382.4 2012.71,1382.26 2014.91,1382.11 2017.12,1381.96 2019.33,1381.8 2021.54,1381.64 
  2023.75,1381.47 2025.96,1381.3 2028.16,1381.12 2030.37,1380.93 2032.58,1380.74 2034.79,1380.55 2037,1380.35 2039.2,1380.15 2041.41,1379.94 2043.62,1379.72 
  2045.83,1379.5 2048.04,1379.27 2050.24,1379.04 2052.45,1378.8 2054.66,1378.56 2056.87,1378.31 2059.08,1378.06 2061.29,1377.8 2063.49,1377.54 2065.7,1377.27 
  2067.91,1377 2070.12,1376.72 2072.33,1376.43 2074.53,1376.14 2076.74,1375.85 2078.95,1375.55 2081.16,1375.24 2083.37,1374.93 2085.57,1374.61 2087.78,1374.29 
  2089.99,1373.96 2092.2,1373.62 2094.41,1373.28 2096.62,1372.94 2098.82,1372.59 2101.03,1372.23 2103.24,1371.87 2105.45,1371.5 2107.66,1371.13 2109.86,1370.75 
  2112.07,1370.37 2114.28,1369.98 2116.49,1369.58 2118.7,1369.18 2120.9,1368.77 2123.11,1368.36 2125.32,1367.94 2127.53,1367.52 2129.74,1367.08 2131.94,1366.65 
  2134.15,1366.21 2136.36,1365.76 2138.57,1365.3 2140.78,1364.84 2142.99,1364.38 2145.19,1363.9 2147.4,1363.42 2149.61,1362.94 2151.82,1362.45 2154.03,1361.95 
  2156.23,1361.45 2158.44,1360.94 2160.65,1360.43 2162.86,1359.9 2165.07,1359.38 2167.27,1358.84 2169.48,1358.3 2171.69,1357.75 2173.9,1357.2 2176.11,1356.64 
  2178.32,1356.08 2180.52,1355.5 2182.73,1354.92 2184.94,1354.34 2187.15,1353.75 2189.36,1353.15 2191.56,1352.54 2193.77,1351.93 2195.98,1351.31 2198.19,1350.69 
  2200.4,1350.06 2202.6,1349.42 2204.81,1348.77 2207.02,1348.12 2209.23,1347.46 2211.44,1346.8 2213.64,1346.12 2215.85,1345.44 2218.06,1344.76 2220.27,1344.06 
  2222.48,1343.36 2224.69,1342.66 2226.89,1341.94 2229.1,1341.22 2231.31,1340.49 2233.52,1339.76 2235.73,1339.01 2237.93,1338.27 2240.14,1337.51 2242.35,1336.74 
  2244.56,1335.97 2246.77,1335.2 2248.97,1334.41 2251.18,1333.62 2253.39,1332.82 2255.6,1332.01 2257.81,1331.19 2260.02,1330.37 2262.22,1329.54 2264.43,1328.71 
  2266.64,1327.86 2268.85,1327.01 2271.06,1326.15 2273.26,1325.28 2275.47,1324.41 2277.68,1323.53 2279.89,1322.64 2282.1,1321.74 2284.3,1320.84 2286.51,1319.93 
  2288.72,1319.01 2290.93,1318.09 2293.14,1317.15 2295.35,1316.21 2297.55,1315.26 2299.76,1314.31 2301.97,1313.35 2304.18,1312.38 2306.39,1311.4 2308.59,1310.42 
  2310.8,1309.42 2313.01,1308.43 2315.22,1307.42 2317.43,1306.41 2319.63,1305.39 2321.84,1304.36 2324.05,1303.32 2326.26,1302.28 2328.47,1301.23 2330.67,1300.18 
  2332.88,1299.12 2335.09,1298.05 2337.3,1296.97 2339.51,1295.89 2341.72,1294.8 2343.92,1293.7 2346.13,1292.6 2348.34,1291.49 2350.55,1290.38 2352.76,1289.25 
  
  "/>
<polyline clip-path="url(#clip782)" style="stroke:#e26f46; stroke-width:4; stroke-opacity:1; fill:none" points="
  146.853,998.359 149.061,989.075 151.269,979.534 153.477,969.729 155.685,959.657 157.893,949.311 160.102,938.687 162.31,927.781 164.518,916.586 166.726,905.1 
  168.934,893.317 171.142,881.233 173.35,868.844 175.558,856.147 177.766,843.139 179.975,829.817 182.183,816.178 184.391,802.222 186.599,787.947 188.807,773.351 
  191.015,758.435 193.223,743.198 195.431,727.641 197.639,711.767 199.848,695.577 202.056,679.074 204.264,662.262 206.472,645.145 208.68,627.73 210.888,610.023 
  213.096,592.031 215.304,573.763 217.512,555.228 219.721,536.436 221.929,517.399 224.137,498.129 226.345,478.639 228.553,458.942 230.761,439.053 232.969,418.988 
  235.177,398.766 237.385,378.405 239.594,357.927 241.802,337.35 244.01,316.696 246.218,295.985 248.426,275.24 250.634,254.482 252.842,233.735 255.05,213.022 
  257.258,192.367 259.467,171.794 261.675,151.327 263.883,130.993 266.091,110.818 268.299,90.8267 270.507,532.575 272.715,519.284 274.923,505.927 277.131,492.514 
  279.34,479.054 281.548,465.556 283.756,452.031 285.964,438.487 288.172,424.935 290.38,411.385 292.588,397.848 294.796,384.334 297.004,370.853 299.213,357.418 
  301.421,344.038 303.629,330.725 305.837,317.491 308.045,304.348 310.253,291.306 312.461,278.378 314.669,265.574 316.877,252.906 319.086,240.384 321.294,228.021 
  323.502,215.826 325.71,203.811 327.918,191.985 330.126,180.359 332.334,168.941 334.542,157.743 336.75,146.772 338.959,136.036 341.167,125.546 343.375,115.308 
  345.583,105.33 347.791,95.6205 349.999,86.1857 352.207,536.573 354.415,530.475 356.623,524.417 358.832,518.403 361.04,512.435 363.248,506.516 365.456,500.649 
  367.664,494.838 369.872,489.084 372.08,483.392 374.288,477.763 376.496,472.201 378.705,466.707 380.913,461.286 383.121,455.938 385.329,450.668 387.537,445.477 
  389.745,440.367 391.953,435.342 394.161,430.404 396.369,425.555 398.578,420.796 400.786,416.132 402.994,411.562 405.202,407.091 407.41,402.72 409.618,398.45 
  411.826,394.284 414.034,390.223 416.242,386.269 418.451,382.422 420.659,378.685 422.867,375.059 425.075,371.545 427.283,368.144 429.491,364.858 431.699,361.687 
  433.907,358.633 436.115,355.696 438.324,352.877 440.532,350.177 442.74,347.597 444.948,345.136 447.156,342.796 449.364,340.577 451.572,338.478 453.78,336.501 
  455.988,334.645 458.197,332.911 460.405,331.298 462.613,329.806 464.821,328.435 467.029,327.185 469.237,326.055 471.445,325.045 473.653,324.154 475.861,323.381 
  478.07,322.727 480.278,322.189 482.486,321.768 484.694,321.462 486.902,321.27 489.11,321.191 491.318,321.223 493.526,321.366 495.734,321.618 497.943,321.978 
  500.151,322.443 502.359,323.013 504.567,323.687 506.775,324.465 508.983,325.344 511.191,326.324 513.399,327.402 515.607,328.578 517.816,329.849 520.024,331.214 
  522.232,332.672 524.44,334.22 526.648,335.858 528.856,337.584 531.064,339.395 533.272,341.291 535.48,343.27 537.689,345.331 539.897,347.471 542.105,349.689 
  544.313,351.983 546.521,354.352 548.729,356.795 550.937,359.309 553.145,361.893 555.353,364.545 557.562,367.264 559.77,370.048 561.978,372.896 564.186,375.805 
  566.394,378.774 568.602,381.801 570.81,384.886 573.018,388.025 575.226,391.218 577.435,394.462 579.643,397.756 581.851,401.099 584.059,404.489 586.267,407.924 
  588.475,411.404 590.683,414.927 592.891,418.491 595.099,422.095 597.308,425.738 599.516,429.418 601.724,433.133 603.932,436.883 606.14,440.665 608.348,444.479 
  610.556,448.324 612.764,452.197 614.972,456.098 617.181,460.025 619.389,463.978 621.597,467.955 623.805,471.954 626.013,475.976 628.221,480.017 630.429,484.078 
  632.637,488.157 634.845,492.254 637.054,496.366 639.262,500.494 641.47,504.635 643.678,508.79 645.886,512.956 648.094,517.134 650.302,521.321 652.51,525.518 
  654.718,529.723 656.927,533.936 659.135,538.154 661.343,542.379 663.551,546.608 665.759,550.842 667.967,555.078 670.175,559.317 672.383,563.558 674.591,567.8 
  676.8,572.042 679.008,576.284 681.216,580.524 683.424,584.763 685.632,589 687.84,593.234 690.048,597.464 692.256,601.69 694.464,605.911 696.673,610.126 
  698.881,614.335 701.089,618.537 703.297,622.732 705.505,626.92 707.713,631.099 709.921,635.269 712.129,639.431 714.337,643.582 716.546,647.724 718.754,651.855 
  720.962,655.976 723.17,660.084 725.378,664.181 727.586,668.266 729.794,672.339 732.002,676.398 734.21,680.444 736.419,684.476 738.627,688.494 740.835,692.498 
  743.043,696.487 745.251,700.461 747.459,704.42 749.667,708.363 751.875,712.289 754.083,716.2 756.292,720.094 758.5,723.971 760.708,727.831 762.916,731.674 
  765.124,735.499 767.332,739.306 769.54,743.095 771.748,746.866 773.956,750.618 776.165,754.352 778.373,758.067 780.581,761.763 782.789,765.439 784.997,769.097 
  787.205,772.735 789.413,776.353 791.621,779.951 793.829,783.53 796.038,787.088 798.246,790.627 800.454,794.145 802.662,797.643 804.87,801.121 807.078,804.579 
  809.286,808.016 811.494,811.432 813.702,814.828 815.911,818.204 818.119,821.559 820.327,824.893 822.535,828.205 824.743,831.497 826.951,834.768 829.159,838.017 
  831.367,841.244 833.575,844.45 835.784,847.635 837.992,850.799 840.2,853.94 842.408,857.06 844.616,860.159 846.824,863.236 849.032,866.291 851.24,869.325 
  853.448,872.336 855.657,875.326 857.865,878.294 860.073,881.241 862.281,884.165 864.489,887.068 866.697,889.949 868.905,892.807 871.113,895.644 873.321,898.459 
  875.53,901.253 877.738,904.024 879.946,906.773 882.154,909.5 884.362,912.205 886.57,914.889 888.778,917.55 890.986,920.19 893.194,922.807 895.403,925.403 
  897.611,927.976 899.819,930.528 902.027,933.058 904.235,935.566 906.443,938.052 908.651,940.516 910.859,942.958 913.067,945.378 915.276,947.777 917.484,950.154 
  919.692,952.509 921.9,954.842 924.108,957.154 926.316,959.444 928.524,961.712 930.732,963.959 932.94,966.184 935.149,968.388 937.357,970.57 939.565,972.731 
  941.773,974.87 943.981,976.988 946.189,979.085 948.397,981.16 950.605,983.213 952.813,985.246 955.022,987.256 957.23,989.246 959.438,991.214 961.646,993.16 
  963.854,995.086 966.062,996.99 968.27,998.873 970.478,1000.73 972.686,1002.58 974.895,1004.4 977.103,1006.19 979.311,1007.97 981.519,1009.73 983.727,1011.46 
  985.935,1013.18 988.143,1014.87 990.351,1016.54 992.559,1018.19 994.768,1019.82 996.976,1021.43 999.184,1023.02 1001.39,1024.59 1003.6,1026.13 1005.81,1027.66 
  1008.02,1029.16 1010.22,1030.65 1012.43,1032.11 1014.64,1033.55 1016.85,1034.97 1019.06,1036.37 1021.26,1037.75 1023.47,1039.1 1025.68,1040.44 1027.89,1041.75 
  1030.1,1043.05 1032.31,1044.32 1034.51,1045.57 1036.72,1046.8 1038.93,1048.01 1041.14,1049.2 1043.35,1050.37 1045.55,1051.52 1047.76,1052.64 1049.97,1053.75 
  1052.18,1054.83 1054.39,1055.89 1056.59,1056.93 1058.8,1057.95 1061.01,1058.95 1063.22,1059.92 1065.43,1060.88 1067.64,1061.81 1069.84,1062.72 1072.05,1063.61 
  1074.26,1064.48 1076.47,1065.32 1078.68,1066.15 1080.88,1066.95 1083.09,1067.73 1085.3,1068.49 1087.51,1069.23 1089.72,1069.95 1091.92,1070.64 1094.13,1071.31 
  1096.34,1071.96 1098.55,1072.59 1100.76,1073.19 1102.97,1073.78 1105.17,1074.34 1107.38,1074.87 1109.59,1075.39 1111.8,1075.88 1114.01,1076.35 1116.21,1076.79 
  1118.42,1077.21 1120.63,1077.61 1122.84,1077.99 1125.05,1078.34 1127.25,1078.67 1129.46,1078.97 1131.67,1079.25 1133.88,1079.51 1136.09,1079.74 1138.29,1079.95 
  1140.5,1080.14 1142.71,1080.3 1144.92,1080.43 1147.13,1080.55 1149.34,1080.63 1151.54,1080.69 1153.75,1080.73 1155.96,1080.74 1158.17,1080.73 1160.38,1080.69 
  1162.58,1080.62 1164.79,1080.53 1167,1080.41 1169.21,1080.27 1171.42,1080.1 1173.62,1079.9 1175.83,1079.67 1178.04,1079.42 1180.25,1079.14 1182.46,1078.84 
  1184.67,1078.5 1186.87,1078.14 1189.08,1077.75 1191.29,1077.33 1193.5,1076.88 1195.71,1076.4 1197.91,1075.9 1200.12,1075.36 1202.33,1074.79 1204.54,1074.2 
  1206.75,1073.57 1208.95,1072.91 1211.16,1072.22 1213.37,1071.5 1215.58,1070.75 1217.79,1069.97 1219.99,1069.15 1222.2,1068.3 1224.41,1067.42 1226.62,1066.51 
  1228.83,1065.56 1231.04,1064.57 1233.24,1063.56 1235.45,1062.51 1237.66,1061.42 1239.87,1060.3 1242.08,1059.14 1244.28,1057.95 1246.49,1056.72 1248.7,1055.45 
  1250.91,1054.14 1253.12,1052.8 1255.32,1051.42 1257.53,1050 1259.74,1048.54 1261.95,1047.05 1264.16,1045.51 1266.37,1043.93 1268.57,1042.31 1270.78,1040.65 
  1272.99,1038.95 1275.2,1037.21 1277.41,1035.43 1279.61,1033.6 1281.82,1031.73 1284.03,1029.81 1286.24,1027.85 1288.45,1025.85 1290.65,1023.81 1292.86,1021.72 
  1295.07,1019.58 1297.28,1017.4 1299.49,1015.18 1301.7,1012.9 1303.9,1010.58 1306.11,1008.21 1308.32,1005.79 1310.53,1003.31 1312.74,1000.79 1314.94,998.218 
  1317.15,995.593 1319.36,992.915 1321.57,990.184 1323.78,987.4 1325.98,984.562 1328.19,981.67 1330.4,978.723 1332.61,975.721 1334.82,972.664 1337.02,969.55 
  1339.23,966.381 1341.44,963.154 1343.65,959.871 1345.86,956.531 1348.07,953.133 1350.27,949.678 1352.48,946.165 1354.69,942.593 1356.9,938.964 1359.11,935.276 
  1361.31,931.529 1363.52,927.724 1365.73,923.86 1367.94,919.937 1370.15,915.955 1372.35,911.915 1374.56,907.815 1376.77,903.656 1378.98,899.439 1381.19,895.162 
  1383.4,890.827 1385.6,886.433 1387.81,881.98 1390.02,877.469 1392.23,872.9 1394.44,868.272 1396.64,863.586 1398.85,858.843 1401.06,854.042 1403.27,849.184 
  1405.48,844.268 1407.68,839.296 1409.89,834.268 1412.1,829.184 1414.31,824.044 1416.52,818.848 1418.72,813.598 1420.93,808.293 1423.14,802.934 1425.35,797.522 
  1427.56,792.056 1429.77,786.538 1431.97,780.968 1434.18,775.346 1436.39,769.673 1438.6,763.95 1440.81,758.175 1443.01,752.349 1445.22,746.472 1447.43,740.548 
  1449.64,734.58 1451.85,728.569 1454.05,722.519 1456.26,716.432 1458.47,710.311 1460.68,704.159 1462.89,697.977 1465.1,691.77 1467.3,685.538 1469.51,679.286 
  1471.72,673.014 1473.93,666.727 1476.14,660.426 1478.34,654.115 1480.55,647.795 1482.76,641.469 1484.97,635.14 1487.18,628.81 1489.38,622.482 1491.59,616.159 
  1493.8,609.842 1496.01,603.534 1498.22,597.238 1500.43,590.957 1502.63,584.692 1504.84,578.446 1507.05,572.222 1509.26,566.022 1511.47,559.849 1513.67,553.705 
  1515.88,547.592 1518.09,541.513 1520.3,535.47 1522.51,529.466 1524.71,523.503 1526.92,517.583 1529.13,511.71 1531.34,505.884 1533.55,500.109 1535.75,494.388 
  1537.96,488.721 1540.17,483.112 1542.38,477.563 1544.59,472.077 1546.8,466.655 1549,461.3 1551.21,456.015 1553.42,450.801 1555.63,445.661 1557.84,440.597 
  1560.04,435.612 1562.25,430.708 1564.46,425.886 1566.67,421.15 1568.88,416.502 1571.08,411.943 1573.29,407.477 1575.5,403.105 1577.71,398.829 1579.92,394.652 
  1582.13,390.576 1584.33,386.603 1586.54,382.735 1588.75,378.975 1590.96,375.325 1593.17,371.786 1595.37,368.362 1597.58,365.054 1599.79,361.864 1602,358.795 
  1604.21,355.848 1606.41,353.024 1608.62,350.317 1610.83,347.728 1613.04,345.256 1615.25,342.902 1617.45,340.666 1619.66,338.549 1621.87,336.551 1624.08,334.671 
  1626.29,332.91 1628.5,331.269 1630.7,329.746 1632.91,328.342 1635.12,327.056 1637.33,325.889 1639.54,324.84 1641.74,323.908 1643.95,323.095 1646.16,322.398 
  1648.37,321.817 1650.58,321.353 1652.78,321.004 1654.99,320.769 1657.2,320.649 1659.41,320.642 1661.62,320.748 1663.83,320.965 1666.03,321.292 1668.24,321.73 
  1670.45,322.276 1672.66,322.93 1674.87,323.69 1677.07,324.555 1679.28,325.525 1681.49,326.597 1683.7,327.771 1685.91,329.044 1688.11,330.416 1690.32,331.885 
  1692.53,333.449 1694.74,335.108 1696.95,336.858 1699.16,338.698 1701.36,340.627 1703.57,342.643 1705.78,344.744 1707.99,346.927 1710.2,349.192 1712.4,351.535 
  1714.61,353.955 1716.82,356.449 1719.03,359.016 1721.24,361.652 1723.44,364.357 1725.65,367.126 1727.86,369.958 1730.07,372.851 1732.28,375.801 1734.48,378.807 
  1736.69,381.865 1738.9,384.973 1741.11,388.128 1743.32,391.327 1745.53,394.568 1747.73,397.859 1749.94,401.2 1752.15,404.587 1754.36,408.021 1756.57,411.499 
  1758.77,415.019 1760.98,418.582 1763.19,422.184 1765.4,425.825 1767.61,429.503 1769.81,433.216 1772.02,436.964 1774.23,440.745 1776.44,444.557 1778.65,448.4 
  1780.86,452.271 1783.06,456.17 1785.27,460.096 1787.48,464.047 1789.69,468.022 1791.9,472.02 1794.1,476.039 1796.31,480.079 1798.52,484.138 1800.73,488.215 
  1802.94,492.309 1805.14,496.419 1807.35,500.545 1809.56,504.684 1811.77,508.836 1813.98,513 1816.18,517.175 1818.39,521.36 1820.6,525.554 1822.81,529.756 
  1825.02,533.966 1827.23,538.182 1829.43,542.403 1831.64,546.629 1833.85,550.859 1836.06,555.092 1838.27,559.328 1840.47,563.565 1842.68,567.803 1844.89,572.041 
  1847.1,576.279 1849.31,580.516 1851.51,584.75 1853.72,588.983 1855.93,593.212 1858.14,597.438 1860.35,601.659 1862.56,605.876 1864.76,610.087 1866.97,614.293 
  1869.18,618.493 1871.39,622.686 1873.6,626.872 1875.8,631.05 1878.01,635.219 1880.22,639.379 1882.43,643.529 1884.64,647.669 1886.84,651.799 1889.05,655.917 
  1891.26,660.025 1893.47,664.12 1895.68,668.204 1897.89,672.275 1900.09,676.333 1902.3,680.378 1904.51,684.409 1906.72,688.427 1908.93,692.43 1911.13,696.419 
  1913.34,700.393 1915.55,704.352 1917.76,708.296 1919.97,712.224 1922.17,716.136 1924.38,720.031 1926.59,723.91 1928.8,727.772 1931.01,731.617 1933.21,735.445 
  1935.42,739.255 1937.63,743.048 1939.84,746.822 1942.05,750.578 1944.26,754.315 1946.46,758.034 1948.67,761.734 1950.88,765.415 1953.09,769.076 1955.3,772.718 
  1957.5,776.34 1959.71,779.942 1961.92,783.524 1964.13,787.086 1966.34,790.628 1968.54,794.149 1970.75,797.65 1972.96,801.129 1975.17,804.588 1977.38,808.026 
  1979.59,811.443 1981.79,814.839 1984,818.213 1986.21,821.566 1988.42,824.897 1990.63,828.207 1992.83,831.496 1995.04,834.762 1997.25,838.007 1999.46,841.23 
  2001.67,844.431 2003.87,847.61 2006.08,850.768 2008.29,853.903 2010.5,857.017 2012.71,860.108 2014.91,863.178 2017.12,866.226 2019.33,869.251 2021.54,872.255 
  2023.75,875.237 2025.96,878.197 2028.16,881.135 2030.37,884.052 2032.58,886.947 2034.79,889.82 2037,892.671 2039.2,895.501 2041.41,898.31 2043.62,901.097 
  2045.83,903.863 2048.04,906.608 2050.24,909.332 2052.45,912.035 2054.66,914.717 2056.87,917.378 2059.08,920.019 2061.29,922.638 2063.49,925.234 2065.7,927.809 
  2067.91,930.362 2070.12,932.893 2072.33,935.402 2074.53,937.89 2076.74,940.355 2078.95,942.799 2081.16,945.221 2083.37,947.621 2085.57,950 2087.78,952.357 
  2089.99,954.692 2092.2,957.006 2094.41,959.298 2096.62,961.569 2098.82,963.817 2101.03,966.045 2103.24,968.251 2105.45,970.435 2107.66,972.598 2109.86,974.739 
  2112.07,976.859 2114.28,978.958 2116.49,981.035 2118.7,983.091 2120.9,985.125 2123.11,987.138 2125.32,989.13 2127.53,991.1 2129.74,993.049 2131.94,994.977 
  2134.15,996.883 2136.36,998.768 2138.57,1000.63 2140.78,1002.47 2142.99,1004.3 2145.19,1006.1 2147.4,1007.88 2149.61,1009.63 2151.82,1011.37 2154.03,1013.09 
  2156.23,1014.78 2158.44,1016.45 2160.65,1018.11 2162.86,1019.74 2165.07,1021.35 2167.27,1022.94 2169.48,1024.5 2171.69,1026.05 2173.9,1027.57 2176.11,1029.08 
  2178.32,1030.56 2180.52,1032.02 2182.73,1033.47 2184.94,1034.89 2187.15,1036.29 2189.36,1037.66 2191.56,1039.02 2193.77,1040.36 2195.98,1041.67 2198.19,1042.97 
  2200.4,1044.24 2202.6,1045.49 2204.81,1046.72 2207.02,1047.93 2209.23,1049.12 2211.44,1050.29 2213.64,1051.44 2215.85,1052.56 2218.06,1053.67 2220.27,1054.75 
  2222.48,1055.81 2224.69,1056.86 2226.89,1057.88 2229.1,1058.87 2231.31,1059.85 2233.52,1060.81 2235.73,1061.74 2237.93,1062.65 2240.14,1063.55 2242.35,1064.42 
  2244.56,1065.26 2246.77,1066.09 2248.97,1066.9 2251.18,1067.68 2253.39,1068.44 2255.6,1069.18 2257.81,1069.9 2260.02,1070.59 2262.22,1071.27 2264.43,1071.92 
  2266.64,1072.55 2268.85,1073.15 2271.06,1073.74 2273.26,1074.3 2275.47,1074.84 2277.68,1075.36 2279.89,1075.85 2282.1,1076.32 2284.3,1076.77 2286.51,1077.2 
  2288.72,1077.6 2290.93,1077.98 2293.14,1078.33 2295.35,1078.67 2297.55,1078.97 2299.76,1079.26 2301.97,1079.52 2304.18,1079.76 2306.39,1079.97 2308.59,1080.16 
  2310.8,1080.32 2313.01,1080.46 2315.22,1080.57 2317.43,1080.66 2319.63,1080.73 2321.84,1080.76 2324.05,1080.78 2326.26,1080.77 2328.47,1080.73 2330.67,1080.66 
  2332.88,1080.57 2335.09,1080.46 2337.3,1080.31 2339.51,1080.14 2341.72,1079.95 2343.92,1079.72 2346.13,1079.47 2348.34,1079.2 2350.55,1078.89 2352.76,1078.56 
  
  "/>
<path clip-path="url(#clip780)" d="
M1946.68 312.204 L2280.76 312.204 L2280.76 130.764 L1946.68 130.764  Z
  " fill="#ffffff" fill-rule="evenodd" fill-opacity="1"/>
<polyline clip-path="url(#clip780)" style="stroke:#000000; stroke-width:4; stroke-opacity:1; fill:none" points="
  1946.68,312.204 2280.76,312.204 2280.76,130.764 1946.68,130.764 1946.68,312.204 
  "/>
<polyline clip-path="url(#clip780)" style="stroke:#009af9; stroke-width:4; stroke-opacity:1; fill:none" points="
  1970.68,191.244 2114.68,191.244 
  "/>
<path clip-path="url(#clip780)" d="M 0 0 M2138.68 198.293 L2138.68 182.598 L2142.94 182.598 L2142.94 198.131 Q2142.94 201.811 2144.38 203.663 Q2145.81 205.492 2148.68 205.492 Q2152.13 205.492 2154.12 203.293 Q2156.14 201.094 2156.14 197.297 L2156.14 182.598 L2160.4 182.598 L2160.4 208.524 L2156.14 208.524 L2156.14 204.543 Q2154.59 206.904 2152.52 208.061 Q2150.49 209.195 2147.78 209.195 Q2143.31 209.195 2141 206.418 Q2138.68 203.64 2138.68 198.293 M2149.4 181.973 L2149.4 181.973 Z" fill="#000000" fill-rule="evenodd" fill-opacity="1" /><path clip-path="url(#clip780)" d="M 0 0 M2166.27 204.589 L2173.91 204.589 L2173.91 178.223 L2165.6 179.89 L2165.6 175.631 L2173.87 173.964 L2178.54 173.964 L2178.54 204.589 L2186.18 204.589 L2186.18 208.524 L2166.27 208.524 L2166.27 204.589 Z" fill="#000000" fill-rule="evenodd" fill-opacity="1" /><path clip-path="url(#clip780)" d="M 0 0 M2200.88 172.552 Q2197.78 177.876 2196.27 183.084 Q2194.77 188.293 2194.77 193.64 Q2194.77 198.987 2196.27 204.242 Q2197.8 209.473 2200.88 214.774 L2197.18 214.774 Q2193.71 209.334 2191.97 204.08 Q2190.26 198.825 2190.26 193.64 Q2190.26 188.478 2191.97 183.246 Q2193.68 178.015 2197.18 172.552 L2200.88 172.552 Z" fill="#000000" fill-rule="evenodd" fill-opacity="1" /><path clip-path="url(#clip780)" d="M 0 0 M2209.56 175.237 L2209.56 182.598 L2218.33 182.598 L2218.33 185.908 L2209.56 185.908 L2209.56 199.982 Q2209.56 203.154 2210.42 204.057 Q2211.3 204.959 2213.96 204.959 L2218.33 204.959 L2218.33 208.524 L2213.96 208.524 Q2209.03 208.524 2207.15 206.695 Q2205.28 204.844 2205.28 199.982 L2205.28 185.908 L2202.15 185.908 L2202.15 182.598 L2205.28 182.598 L2205.28 175.237 L2209.56 175.237 Z" fill="#000000" fill-rule="evenodd" fill-opacity="1" /><path clip-path="url(#clip780)" d="M 0 0 M2222.13 172.552 L2225.83 172.552 Q2229.31 178.015 2231.02 183.246 Q2232.76 188.478 2232.76 193.64 Q2232.76 198.825 2231.02 204.08 Q2229.31 209.334 2225.83 214.774 L2222.13 214.774 Q2225.21 209.473 2226.71 204.242 Q2228.24 198.987 2228.24 193.64 Q2228.24 188.293 2226.71 183.084 Q2225.21 177.876 2222.13 172.552 Z" fill="#000000" fill-rule="evenodd" fill-opacity="1" /><polyline clip-path="url(#clip780)" style="stroke:#e26f46; stroke-width:4; stroke-opacity:1; fill:none" points="
  1970.68,251.724 2114.68,251.724 
  "/>
<path clip-path="url(#clip780)" d="M 0 0 M2138.68 258.773 L2138.68 243.078 L2142.94 243.078 L2142.94 258.611 Q2142.94 262.291 2144.38 264.143 Q2145.81 265.972 2148.68 265.972 Q2152.13 265.972 2154.12 263.773 Q2156.14 261.574 2156.14 257.777 L2156.14 243.078 L2160.4 243.078 L2160.4 269.004 L2156.14 269.004 L2156.14 265.023 Q2154.59 267.384 2152.52 268.541 Q2150.49 269.675 2147.78 269.675 Q2143.31 269.675 2141 266.898 Q2138.68 264.12 2138.68 258.773 M2149.4 242.453 L2149.4 242.453 Z" fill="#000000" fill-rule="evenodd" fill-opacity="1" /><path clip-path="url(#clip780)" d="M 0 0 M2169.49 265.069 L2185.81 265.069 L2185.81 269.004 L2163.87 269.004 L2163.87 265.069 Q2166.53 262.314 2171.11 257.685 Q2175.72 253.032 2176.9 251.689 Q2179.15 249.166 2180.02 247.43 Q2180.93 245.671 2180.93 243.981 Q2180.93 241.226 2178.98 239.49 Q2177.06 237.754 2173.96 237.754 Q2171.76 237.754 2169.31 238.518 Q2166.88 239.282 2164.1 240.833 L2164.1 236.111 Q2166.92 234.976 2169.38 234.398 Q2171.83 233.819 2173.87 233.819 Q2179.24 233.819 2182.43 236.504 Q2185.63 239.189 2185.63 243.68 Q2185.63 245.81 2184.82 247.731 Q2184.03 249.629 2181.92 252.222 Q2181.34 252.893 2178.24 256.111 Q2175.14 259.305 2169.49 265.069 Z" fill="#000000" fill-rule="evenodd" fill-opacity="1" /><path clip-path="url(#clip780)" d="M 0 0 M2200.51 233.032 Q2197.41 238.356 2195.9 243.564 Q2194.4 248.773 2194.4 254.12 Q2194.4 259.467 2195.9 264.722 Q2197.43 269.953 2200.51 275.254 L2196.81 275.254 Q2193.33 269.814 2191.6 264.56 Q2189.89 259.305 2189.89 254.12 Q2189.89 248.958 2191.6 243.726 Q2193.31 238.495 2196.81 233.032 L2200.51 233.032 Z" fill="#000000" fill-rule="evenodd" fill-opacity="1" /><path clip-path="url(#clip780)" d="M 0 0 M2209.19 235.717 L2209.19 243.078 L2217.96 243.078 L2217.96 246.388 L2209.19 246.388 L2209.19 260.462 Q2209.19 263.634 2210.05 264.537 Q2210.93 265.439 2213.59 265.439 L2217.96 265.439 L2217.96 269.004 L2213.59 269.004 Q2208.66 269.004 2206.78 267.175 Q2204.91 265.324 2204.91 260.462 L2204.91 246.388 L2201.78 246.388 L2201.78 243.078 L2204.91 243.078 L2204.91 235.717 L2209.19 235.717 Z" fill="#000000" fill-rule="evenodd" fill-opacity="1" /><path clip-path="url(#clip780)" d="M 0 0 M2221.76 233.032 L2225.46 233.032 Q2228.94 238.495 2230.65 243.726 Q2232.39 248.958 2232.39 254.12 Q2232.39 259.305 2230.65 264.56 Q2228.94 269.814 2225.46 275.254 L2221.76 275.254 Q2224.84 269.953 2226.34 264.722 Q2227.87 259.467 2227.87 254.12 Q2227.87 248.773 2226.34 243.564 Q2224.84 238.356 2221.76 233.032 Z" fill="#000000" fill-rule="evenodd" fill-opacity="1" /></svg>
