<?xml version="1.0" encoding="utf-8"?>
<svg xmlns="http://www.w3.org/2000/svg" xmlns:xlink="http://www.w3.org/1999/xlink" width="600" height="400" viewBox="0 0 2400 1600">
<defs>
  <clipPath id="clip390">
    <rect x="0" y="0" width="2400" height="1600"/>
  </clipPath>
</defs>
<path clip-path="url(#clip390)" d="
M0 1600 L2400 1600 L2400 0 L0 0  Z
  " fill="#ffffff" fill-rule="evenodd" fill-opacity="1"/>
<defs>
  <clipPath id="clip391">
    <rect x="480" y="0" width="1681" height="1600"/>
  </clipPath>
</defs>
<path clip-path="url(#clip390)" d="
M112.177 1423.18 L2352.76 1423.18 L2352.76 47.2441 L112.177 47.2441  Z
  " fill="#ffffff" fill-rule="evenodd" fill-opacity="1"/>
<defs>
  <clipPath id="clip392">
    <rect x="112" y="47" width="2242" height="1377"/>
  </clipPath>
</defs>
<polyline clip-path="url(#clip392)" style="stroke:#000000; stroke-width:2; stroke-opacity:0.1; fill:none" points="
  112.177,1423.18 112.177,47.2441 
  "/>
<polyline clip-path="url(#clip392)" style="stroke:#000000; stroke-width:2; stroke-opacity:0.1; fill:none" points="
  859.037,1423.18 859.037,47.2441 
  "/>
<polyline clip-path="url(#clip392)" style="stroke:#000000; stroke-width:2; stroke-opacity:0.1; fill:none" points="
  1605.9,1423.18 1605.9,47.2441 
  "/>
<polyline clip-path="url(#clip392)" style="stroke:#000000; stroke-width:2; stroke-opacity:0.1; fill:none" points="
  2352.76,1423.18 2352.76,47.2441 
  "/>
<polyline clip-path="url(#clip392)" style="stroke:#000000; stroke-width:2; stroke-opacity:0.1; fill:none" points="
  112.177,1403.48 2352.76,1403.48 
  "/>
<polyline clip-path="url(#clip392)" style="stroke:#000000; stroke-width:2; stroke-opacity:0.1; fill:none" points="
  112.177,1118.85 2352.76,1118.85 
  "/>
<polyline clip-path="url(#clip392)" style="stroke:#000000; stroke-width:2; stroke-opacity:0.1; fill:none" points="
  112.177,834.216 2352.76,834.216 
  "/>
<polyline clip-path="url(#clip392)" style="stroke:#000000; stroke-width:2; stroke-opacity:0.1; fill:none" points="
  112.177,549.584 2352.76,549.584 
  "/>
<polyline clip-path="url(#clip392)" style="stroke:#000000; stroke-width:2; stroke-opacity:0.1; fill:none" points="
  112.177,264.952 2352.76,264.952 
  "/>
<polyline clip-path="url(#clip390)" style="stroke:#000000; stroke-width:4; stroke-opacity:1; fill:none" points="
  112.177,1423.18 2352.76,1423.18 
  "/>
<polyline clip-path="url(#clip390)" style="stroke:#000000; stroke-width:4; stroke-opacity:1; fill:none" points="
  112.177,1423.18 112.177,47.2441 
  "/>
<polyline clip-path="url(#clip390)" style="stroke:#000000; stroke-width:4; stroke-opacity:1; fill:none" points="
  112.177,1423.18 112.177,1406.67 
  "/>
<polyline clip-path="url(#clip390)" style="stroke:#000000; stroke-width:4; stroke-opacity:1; fill:none" points="
  859.037,1423.18 859.037,1406.67 
  "/>
<polyline clip-path="url(#clip390)" style="stroke:#000000; stroke-width:4; stroke-opacity:1; fill:none" points="
  1605.9,1423.18 1605.9,1406.67 
  "/>
<polyline clip-path="url(#clip390)" style="stroke:#000000; stroke-width:4; stroke-opacity:1; fill:none" points="
  2352.76,1423.18 2352.76,1406.67 
  "/>
<polyline clip-path="url(#clip390)" style="stroke:#000000; stroke-width:4; stroke-opacity:1; fill:none" points="
  112.177,1403.48 139.064,1403.48 
  "/>
<polyline clip-path="url(#clip390)" style="stroke:#000000; stroke-width:4; stroke-opacity:1; fill:none" points="
  112.177,1118.85 139.064,1118.85 
  "/>
<polyline clip-path="url(#clip390)" style="stroke:#000000; stroke-width:4; stroke-opacity:1; fill:none" points="
  112.177,834.216 139.064,834.216 
  "/>
<polyline clip-path="url(#clip390)" style="stroke:#000000; stroke-width:4; stroke-opacity:1; fill:none" points="
  112.177,549.584 139.064,549.584 
  "/>
<polyline clip-path="url(#clip390)" style="stroke:#000000; stroke-width:4; stroke-opacity:1; fill:none" points="
  112.177,264.952 139.064,264.952 
  "/>
<path clip-path="url(#clip390)" d="M 0 0 M112.177 1445.17 Q108.566 1445.17 106.737 1448.74 Q104.932 1452.28 104.932 1459.41 Q104.932 1466.51 106.737 1470.08 Q108.566 1473.62 112.177 1473.62 Q115.811 1473.62 117.617 1470.08 Q119.446 1466.51 119.446 1459.41 Q119.446 1452.28 117.617 1448.74 Q115.811 1445.17 112.177 1445.17 M112.177 1441.47 Q117.987 1441.47 121.043 1446.07 Q124.122 1450.66 124.122 1459.41 Q124.122 1468.13 121.043 1472.74 Q117.987 1477.32 112.177 1477.32 Q106.367 1477.32 103.288 1472.74 Q100.233 1468.13 100.233 1459.41 Q100.233 1450.66 103.288 1446.07 Q106.367 1441.47 112.177 1441.47 Z" fill="#000000" fill-rule="evenodd" fill-opacity="1" /><path clip-path="url(#clip390)" d="M 0 0 M849.419 1472.72 L857.058 1472.72 L857.058 1446.35 L848.747 1448.02 L848.747 1443.76 L857.011 1442.09 L861.687 1442.09 L861.687 1472.72 L869.326 1472.72 L869.326 1476.65 L849.419 1476.65 L849.419 1472.72 Z" fill="#000000" fill-rule="evenodd" fill-opacity="1" /><path clip-path="url(#clip390)" d="M 0 0 M1600.55 1472.72 L1616.87 1472.72 L1616.87 1476.65 L1594.92 1476.65 L1594.92 1472.72 Q1597.59 1469.96 1602.17 1465.33 Q1606.78 1460.68 1607.96 1459.34 Q1610.2 1456.81 1611.08 1455.08 Q1611.98 1453.32 1611.98 1451.63 Q1611.98 1448.87 1610.04 1447.14 Q1608.12 1445.4 1605.02 1445.4 Q1602.82 1445.4 1600.36 1446.17 Q1597.93 1446.93 1595.16 1448.48 L1595.16 1443.76 Q1597.98 1442.62 1600.43 1442.05 Q1602.89 1441.47 1604.92 1441.47 Q1610.29 1441.47 1613.49 1444.15 Q1616.68 1446.84 1616.68 1451.33 Q1616.68 1453.46 1615.87 1455.38 Q1615.09 1457.28 1612.98 1459.87 Q1612.4 1460.54 1609.3 1463.76 Q1606.2 1466.95 1600.55 1472.72 Z" fill="#000000" fill-rule="evenodd" fill-opacity="1" /><path clip-path="url(#clip390)" d="M 0 0 M2357 1458.02 Q2360.36 1458.74 2362.24 1461 Q2364.13 1463.27 2364.13 1466.61 Q2364.13 1471.72 2360.61 1474.52 Q2357.1 1477.32 2350.61 1477.32 Q2348.44 1477.32 2346.12 1476.88 Q2343.83 1476.47 2341.38 1475.61 L2341.38 1471.1 Q2343.32 1472.23 2345.64 1472.81 Q2347.95 1473.39 2350.48 1473.39 Q2354.87 1473.39 2357.17 1471.65 Q2359.48 1469.92 2359.48 1466.61 Q2359.48 1463.55 2357.33 1461.84 Q2355.2 1460.1 2351.38 1460.1 L2347.35 1460.1 L2347.35 1456.26 L2351.56 1456.26 Q2355.01 1456.26 2356.84 1454.89 Q2358.67 1453.5 2358.67 1450.91 Q2358.67 1448.25 2356.77 1446.84 Q2354.9 1445.4 2351.38 1445.4 Q2349.46 1445.4 2347.26 1445.82 Q2345.06 1446.24 2342.42 1447.11 L2342.42 1442.95 Q2345.08 1442.21 2347.4 1441.84 Q2349.74 1441.47 2351.8 1441.47 Q2357.12 1441.47 2360.22 1443.9 Q2363.32 1446.3 2363.32 1450.43 Q2363.32 1453.3 2361.68 1455.29 Q2360.04 1457.25 2357 1458.02 Z" fill="#000000" fill-rule="evenodd" fill-opacity="1" /><path clip-path="url(#clip390)" d="M 0 0 M76.2328 1389.28 Q72.6217 1389.28 70.793 1392.84 Q68.9875 1396.39 68.9875 1403.52 Q68.9875 1410.62 70.793 1414.19 Q72.6217 1417.73 76.2328 1417.73 Q79.867 1417.73 81.6726 1414.19 Q83.5013 1410.62 83.5013 1403.52 Q83.5013 1396.39 81.6726 1392.84 Q79.867 1389.28 76.2328 1389.28 M76.2328 1385.58 Q82.0429 1385.58 85.0985 1390.18 Q88.1772 1394.77 88.1772 1403.52 Q88.1772 1412.24 85.0985 1416.85 Q82.0429 1421.43 76.2328 1421.43 Q70.4226 1421.43 67.344 1416.85 Q64.2884 1412.24 64.2884 1403.52 Q64.2884 1394.77 67.344 1390.18 Q70.4226 1385.58 76.2328 1385.58 Z" fill="#000000" fill-rule="evenodd" fill-opacity="1" /><path clip-path="url(#clip390)" d="M 0 0 M68.2699 1132.19 L75.9087 1132.19 L75.9087 1105.83 L67.5986 1107.49 L67.5986 1103.24 L75.8624 1101.57 L80.5383 1101.57 L80.5383 1132.19 L88.1772 1132.19 L88.1772 1136.13 L68.2699 1136.13 L68.2699 1132.19 Z" fill="#000000" fill-rule="evenodd" fill-opacity="1" /><path clip-path="url(#clip390)" d="M 0 0 M71.8578 847.561 L88.1772 847.561 L88.1772 851.496 L66.2328 851.496 L66.2328 847.561 Q68.8949 844.807 73.4782 840.177 Q78.0846 835.524 79.2652 834.182 Q81.5105 831.659 82.3902 829.922 Q83.2929 828.163 83.2929 826.473 Q83.2929 823.719 81.3485 821.983 Q79.4272 820.247 76.3254 820.247 Q74.1263 820.247 71.6726 821.01 Q69.2421 821.774 66.4643 823.325 L66.4643 818.603 Q69.2884 817.469 71.7421 816.89 Q74.1958 816.311 76.2328 816.311 Q81.6031 816.311 84.7976 818.997 Q87.992 821.682 87.992 826.172 Q87.992 828.302 87.1818 830.223 Q86.3948 832.122 84.2883 834.714 Q83.7096 835.385 80.6078 838.603 Q77.5059 841.797 71.8578 847.561 Z" fill="#000000" fill-rule="evenodd" fill-opacity="1" /><path clip-path="url(#clip390)" d="M 0 0 M81.0476 548.23 Q84.404 548.947 86.279 551.216 Q88.1772 553.485 88.1772 556.818 Q88.1772 561.934 84.6587 564.734 Q81.1402 567.535 74.6587 567.535 Q72.4828 567.535 70.168 567.096 Q67.8764 566.679 65.4227 565.822 L65.4227 561.309 Q67.3671 562.443 69.6819 563.021 Q71.9967 563.6 74.5198 563.6 Q78.918 563.6 81.2096 561.864 Q83.5244 560.128 83.5244 556.818 Q83.5244 553.762 81.3717 552.049 Q79.242 550.313 75.4226 550.313 L71.3949 550.313 L71.3949 546.471 L75.6078 546.471 Q79.0569 546.471 80.8855 545.105 Q82.7142 543.716 82.7142 541.123 Q82.7142 538.461 80.8161 537.049 Q78.9411 535.614 75.4226 535.614 Q73.5013 535.614 71.3023 536.031 Q69.1032 536.448 66.4643 537.327 L66.4643 533.161 Q69.1264 532.42 71.4412 532.049 Q73.7791 531.679 75.8393 531.679 Q81.1633 531.679 84.2652 534.11 Q87.367 536.517 87.367 540.637 Q87.367 543.508 85.7235 545.498 Q84.08 547.466 81.0476 548.23 Z" fill="#000000" fill-rule="evenodd" fill-opacity="1" /><path clip-path="url(#clip390)" d="M 0 0 M78.5939 251.746 L66.7884 270.195 L78.5939 270.195 L78.5939 251.746 M77.367 247.672 L83.2466 247.672 L83.2466 270.195 L88.1772 270.195 L88.1772 274.084 L83.2466 274.084 L83.2466 282.232 L78.5939 282.232 L78.5939 274.084 L62.9921 274.084 L62.9921 269.57 L77.367 247.672 Z" fill="#000000" fill-rule="evenodd" fill-opacity="1" /><path clip-path="url(#clip390)" d="M 0 0 M1231.53 1510.27 L1231.53 1520.4 L1243.59 1520.4 L1243.59 1524.95 L1231.53 1524.95 L1231.53 1544.3 Q1231.53 1548.66 1232.71 1549.9 Q1233.91 1551.14 1237.58 1551.14 L1243.59 1551.14 L1243.59 1556.04 L1237.58 1556.04 Q1230.8 1556.04 1228.22 1553.53 Q1225.64 1550.98 1225.64 1544.3 L1225.64 1524.95 L1221.34 1524.95 L1221.34 1520.4 L1225.64 1520.4 L1225.64 1510.27 L1231.53 1510.27 Z" fill="#000000" fill-rule="evenodd" fill-opacity="1" /><circle clip-path="url(#clip392)" cx="112.177" cy="1277.53" r="14" fill="#009af9" fill-rule="evenodd" fill-opacity="0.25" stroke="#000000" stroke-opacity="0.25" stroke-width="3.2"/>
<circle clip-path="url(#clip392)" cx="186.863" cy="1306.1" r="14" fill="#009af9" fill-rule="evenodd" fill-opacity="0.25" stroke="#000000" stroke-opacity="0.25" stroke-width="3.2"/>
<circle clip-path="url(#clip392)" cx="261.549" cy="1323.96" r="14" fill="#009af9" fill-rule="evenodd" fill-opacity="0.25" stroke="#000000" stroke-opacity="0.25" stroke-width="3.2"/>
<circle clip-path="url(#clip392)" cx="336.235" cy="1335.31" r="14" fill="#009af9" fill-rule="evenodd" fill-opacity="0.25" stroke="#000000" stroke-opacity="0.25" stroke-width="3.2"/>
<circle clip-path="url(#clip392)" cx="410.921" cy="1342.53" r="14" fill="#009af9" fill-rule="evenodd" fill-opacity="0.25" stroke="#000000" stroke-opacity="0.25" stroke-width="3.2"/>
<circle clip-path="url(#clip392)" cx="485.607" cy="1346.97" r="14" fill="#009af9" fill-rule="evenodd" fill-opacity="0.25" stroke="#000000" stroke-opacity="0.25" stroke-width="3.2"/>
<circle clip-path="url(#clip392)" cx="560.293" cy="1349.43" r="14" fill="#009af9" fill-rule="evenodd" fill-opacity="0.25" stroke="#000000" stroke-opacity="0.25" stroke-width="3.2"/>
<circle clip-path="url(#clip392)" cx="634.979" cy="1350.39" r="14" fill="#009af9" fill-rule="evenodd" fill-opacity="0.25" stroke="#000000" stroke-opacity="0.25" stroke-width="3.2"/>
<circle clip-path="url(#clip392)" cx="709.665" cy="1350.15" r="14" fill="#009af9" fill-rule="evenodd" fill-opacity="0.25" stroke="#000000" stroke-opacity="0.25" stroke-width="3.2"/>
<circle clip-path="url(#clip392)" cx="784.351" cy="1348.87" r="14" fill="#009af9" fill-rule="evenodd" fill-opacity="0.25" stroke="#000000" stroke-opacity="0.25" stroke-width="3.2"/>
<circle clip-path="url(#clip392)" cx="859.037" cy="1346.66" r="14" fill="#009af9" fill-rule="evenodd" fill-opacity="0.25" stroke="#000000" stroke-opacity="0.25" stroke-width="3.2"/>
<circle clip-path="url(#clip392)" cx="933.723" cy="1343.54" r="14" fill="#009af9" fill-rule="evenodd" fill-opacity="0.25" stroke="#000000" stroke-opacity="0.25" stroke-width="3.2"/>
<circle clip-path="url(#clip392)" cx="1008.41" cy="1339.52" r="14" fill="#009af9" fill-rule="evenodd" fill-opacity="0.25" stroke="#000000" stroke-opacity="0.25" stroke-width="3.2"/>
<circle clip-path="url(#clip392)" cx="1083.09" cy="1334.56" r="14" fill="#009af9" fill-rule="evenodd" fill-opacity="0.25" stroke="#000000" stroke-opacity="0.25" stroke-width="3.2"/>
<circle clip-path="url(#clip392)" cx="1157.78" cy="1328.6" r="14" fill="#009af9" fill-rule="evenodd" fill-opacity="0.25" stroke="#000000" stroke-opacity="0.25" stroke-width="3.2"/>
<circle clip-path="url(#clip392)" cx="1232.47" cy="1321.56" r="14" fill="#009af9" fill-rule="evenodd" fill-opacity="0.25" stroke="#000000" stroke-opacity="0.25" stroke-width="3.2"/>
<circle clip-path="url(#clip392)" cx="1307.15" cy="1313.34" r="14" fill="#009af9" fill-rule="evenodd" fill-opacity="0.25" stroke="#000000" stroke-opacity="0.25" stroke-width="3.2"/>
<circle clip-path="url(#clip392)" cx="1381.84" cy="1303.8" r="14" fill="#009af9" fill-rule="evenodd" fill-opacity="0.25" stroke="#000000" stroke-opacity="0.25" stroke-width="3.2"/>
<circle clip-path="url(#clip392)" cx="1456.52" cy="1292.8" r="14" fill="#009af9" fill-rule="evenodd" fill-opacity="0.25" stroke="#000000" stroke-opacity="0.25" stroke-width="3.2"/>
<circle clip-path="url(#clip392)" cx="1531.21" cy="1280.15" r="14" fill="#009af9" fill-rule="evenodd" fill-opacity="0.25" stroke="#000000" stroke-opacity="0.25" stroke-width="3.2"/>
<circle clip-path="url(#clip392)" cx="1605.9" cy="1265.65" r="14" fill="#009af9" fill-rule="evenodd" fill-opacity="0.25" stroke="#000000" stroke-opacity="0.25" stroke-width="3.2"/>
<circle clip-path="url(#clip392)" cx="1680.58" cy="1249.06" r="14" fill="#009af9" fill-rule="evenodd" fill-opacity="0.25" stroke="#000000" stroke-opacity="0.25" stroke-width="3.2"/>
<circle clip-path="url(#clip392)" cx="1755.27" cy="1230.11" r="14" fill="#009af9" fill-rule="evenodd" fill-opacity="0.25" stroke="#000000" stroke-opacity="0.25" stroke-width="3.2"/>
<circle clip-path="url(#clip392)" cx="1829.95" cy="1208.5" r="14" fill="#009af9" fill-rule="evenodd" fill-opacity="0.25" stroke="#000000" stroke-opacity="0.25" stroke-width="3.2"/>
<circle clip-path="url(#clip392)" cx="1904.64" cy="1183.87" r="14" fill="#009af9" fill-rule="evenodd" fill-opacity="0.25" stroke="#000000" stroke-opacity="0.25" stroke-width="3.2"/>
<circle clip-path="url(#clip392)" cx="1979.33" cy="1155.81" r="14" fill="#009af9" fill-rule="evenodd" fill-opacity="0.25" stroke="#000000" stroke-opacity="0.25" stroke-width="3.2"/>
<circle clip-path="url(#clip392)" cx="2054.01" cy="1123.9" r="14" fill="#009af9" fill-rule="evenodd" fill-opacity="0.25" stroke="#000000" stroke-opacity="0.25" stroke-width="3.2"/>
<circle clip-path="url(#clip392)" cx="2128.7" cy="1087.6" r="14" fill="#009af9" fill-rule="evenodd" fill-opacity="0.25" stroke="#000000" stroke-opacity="0.25" stroke-width="3.2"/>
<circle clip-path="url(#clip392)" cx="2203.38" cy="1046.35" r="14" fill="#009af9" fill-rule="evenodd" fill-opacity="0.25" stroke="#000000" stroke-opacity="0.25" stroke-width="3.2"/>
<circle clip-path="url(#clip392)" cx="2278.07" cy="999.485" r="14" fill="#009af9" fill-rule="evenodd" fill-opacity="0.25" stroke="#000000" stroke-opacity="0.25" stroke-width="3.2"/>
<circle clip-path="url(#clip392)" cx="2352.76" cy="946.264" r="14" fill="#009af9" fill-rule="evenodd" fill-opacity="0.25" stroke="#000000" stroke-opacity="0.25" stroke-width="3.2"/>
<circle clip-path="url(#clip392)" cx="112.177" cy="86.1857" r="14" fill="#e26f46" fill-rule="evenodd" fill-opacity="0.25" stroke="#000000" stroke-opacity="0.25" stroke-width="3.2"/>
<circle clip-path="url(#clip392)" cx="186.863" cy="268.463" r="14" fill="#e26f46" fill-rule="evenodd" fill-opacity="0.25" stroke="#000000" stroke-opacity="0.25" stroke-width="3.2"/>
<circle clip-path="url(#clip392)" cx="261.549" cy="431.755" r="14" fill="#e26f46" fill-rule="evenodd" fill-opacity="0.25" stroke="#000000" stroke-opacity="0.25" stroke-width="3.2"/>
<circle clip-path="url(#clip392)" cx="336.235" cy="574.904" r="14" fill="#e26f46" fill-rule="evenodd" fill-opacity="0.25" stroke="#000000" stroke-opacity="0.25" stroke-width="3.2"/>
<circle clip-path="url(#clip392)" cx="410.921" cy="698.784" r="14" fill="#e26f46" fill-rule="evenodd" fill-opacity="0.25" stroke="#000000" stroke-opacity="0.25" stroke-width="3.2"/>
<circle clip-path="url(#clip392)" cx="485.607" cy="805.105" r="14" fill="#e26f46" fill-rule="evenodd" fill-opacity="0.25" stroke="#000000" stroke-opacity="0.25" stroke-width="3.2"/>
<circle clip-path="url(#clip392)" cx="560.293" cy="895.867" r="14" fill="#e26f46" fill-rule="evenodd" fill-opacity="0.25" stroke="#000000" stroke-opacity="0.25" stroke-width="3.2"/>
<circle clip-path="url(#clip392)" cx="634.979" cy="973.066" r="14" fill="#e26f46" fill-rule="evenodd" fill-opacity="0.25" stroke="#000000" stroke-opacity="0.25" stroke-width="3.2"/>
<circle clip-path="url(#clip392)" cx="709.665" cy="1038.56" r="14" fill="#e26f46" fill-rule="evenodd" fill-opacity="0.25" stroke="#000000" stroke-opacity="0.25" stroke-width="3.2"/>
<circle clip-path="url(#clip392)" cx="784.351" cy="1094.02" r="14" fill="#e26f46" fill-rule="evenodd" fill-opacity="0.25" stroke="#000000" stroke-opacity="0.25" stroke-width="3.2"/>
<circle clip-path="url(#clip392)" cx="859.037" cy="1140.92" r="14" fill="#e26f46" fill-rule="evenodd" fill-opacity="0.25" stroke="#000000" stroke-opacity="0.25" stroke-width="3.2"/>
<circle clip-path="url(#clip392)" cx="933.723" cy="1180.55" r="14" fill="#e26f46" fill-rule="evenodd" fill-opacity="0.25" stroke="#000000" stroke-opacity="0.25" stroke-width="3.2"/>
<circle clip-path="url(#clip392)" cx="1008.41" cy="1214.01" r="14" fill="#e26f46" fill-rule="evenodd" fill-opacity="0.25" stroke="#000000" stroke-opacity="0.25" stroke-width="3.2"/>
<circle clip-path="url(#clip392)" cx="1083.09" cy="1242.24" r="14" fill="#e26f46" fill-rule="evenodd" fill-opacity="0.25" stroke="#000000" stroke-opacity="0.25" stroke-width="3.2"/>
<circle clip-path="url(#clip392)" cx="1157.78" cy="1266.05" r="14" fill="#e26f46" fill-rule="evenodd" fill-opacity="0.25" stroke="#000000" stroke-opacity="0.25" stroke-width="3.2"/>
<circle clip-path="url(#clip392)" cx="1232.47" cy="1286.14" r="14" fill="#e26f46" fill-rule="evenodd" fill-opacity="0.25" stroke="#000000" stroke-opacity="0.25" stroke-width="3.2"/>
<circle clip-path="url(#clip392)" cx="1307.15" cy="1303.07" r="14" fill="#e26f46" fill-rule="evenodd" fill-opacity="0.25" stroke="#000000" stroke-opacity="0.25" stroke-width="3.2"/>
<circle clip-path="url(#clip392)" cx="1381.84" cy="1317.35" r="14" fill="#e26f46" fill-rule="evenodd" fill-opacity="0.25" stroke="#000000" stroke-opacity="0.25" stroke-width="3.2"/>
<circle clip-path="url(#clip392)" cx="1456.52" cy="1329.38" r="14" fill="#e26f46" fill-rule="evenodd" fill-opacity="0.25" stroke="#000000" stroke-opacity="0.25" stroke-width="3.2"/>
<circle clip-path="url(#clip392)" cx="1531.21" cy="1339.52" r="14" fill="#e26f46" fill-rule="evenodd" fill-opacity="0.25" stroke="#000000" stroke-opacity="0.25" stroke-width="3.2"/>
<circle clip-path="url(#clip392)" cx="1605.9" cy="1348.06" r="14" fill="#e26f46" fill-rule="evenodd" fill-opacity="0.25" stroke="#000000" stroke-opacity="0.25" stroke-width="3.2"/>
<circle clip-path="url(#clip392)" cx="1680.58" cy="1355.25" r="14" fill="#e26f46" fill-rule="evenodd" fill-opacity="0.25" stroke="#000000" stroke-opacity="0.25" stroke-width="3.2"/>
<circle clip-path="url(#clip392)" cx="1755.27" cy="1361.3" r="14" fill="#e26f46" fill-rule="evenodd" fill-opacity="0.25" stroke="#000000" stroke-opacity="0.25" stroke-width="3.2"/>
<circle clip-path="url(#clip392)" cx="1829.95" cy="1366.38" r="14" fill="#e26f46" fill-rule="evenodd" fill-opacity="0.25" stroke="#000000" stroke-opacity="0.25" stroke-width="3.2"/>
<circle clip-path="url(#clip392)" cx="1904.64" cy="1370.64" r="14" fill="#e26f46" fill-rule="evenodd" fill-opacity="0.25" stroke="#000000" stroke-opacity="0.25" stroke-width="3.2"/>
<circle clip-path="url(#clip392)" cx="1979.33" cy="1374.19" r="14" fill="#e26f46" fill-rule="evenodd" fill-opacity="0.25" stroke="#000000" stroke-opacity="0.25" stroke-width="3.2"/>
<circle clip-path="url(#clip392)" cx="2054.01" cy="1377.13" r="14" fill="#e26f46" fill-rule="evenodd" fill-opacity="0.25" stroke="#000000" stroke-opacity="0.25" stroke-width="3.2"/>
<circle clip-path="url(#clip392)" cx="2128.7" cy="1379.55" r="14" fill="#e26f46" fill-rule="evenodd" fill-opacity="0.25" stroke="#000000" stroke-opacity="0.25" stroke-width="3.2"/>
<circle clip-path="url(#clip392)" cx="2203.38" cy="1381.52" r="14" fill="#e26f46" fill-rule="evenodd" fill-opacity="0.25" stroke="#000000" stroke-opacity="0.25" stroke-width="3.2"/>
<circle clip-path="url(#clip392)" cx="2278.07" cy="1383.07" r="14" fill="#e26f46" fill-rule="evenodd" fill-opacity="0.25" stroke="#000000" stroke-opacity="0.25" stroke-width="3.2"/>
<circle clip-path="url(#clip392)" cx="2352.76" cy="1384.24" r="14" fill="#e26f46" fill-rule="evenodd" fill-opacity="0.25" stroke="#000000" stroke-opacity="0.25" stroke-width="3.2"/>
<polyline clip-path="url(#clip392)" style="stroke:#3da44d; stroke-width:4; stroke-opacity:0.5; fill:none" points="
  112.177,1277.53 186.863,1306.1 261.549,1323.96 336.235,1335.31 410.921,1342.53 485.607,1346.97 560.293,1349.43 634.979,1350.39 709.665,1350.15 784.351,1348.87 
  859.037,1346.66 933.723,1343.54 1008.41,1339.52 1083.09,1334.56 1157.78,1328.6 1232.47,1321.56 1307.15,1313.34 1381.84,1303.8 1456.52,1292.8 1531.21,1280.15 
  1605.9,1265.65 1680.58,1249.06 1755.27,1230.11 1829.95,1208.5 1904.64,1183.87 1979.33,1155.81 2054.01,1123.9 2128.7,1087.6 2203.38,1046.35 2278.07,999.485 
  2352.76,946.264 
  "/>
<polyline clip-path="url(#clip392)" style="stroke:#c271d2; stroke-width:4; stroke-opacity:0.5; fill:none" points="
  112.177,86.1857 186.863,268.463 261.549,431.755 336.235,574.904 410.921,698.784 485.607,805.105 560.293,895.867 634.979,973.066 709.665,1038.56 784.351,1094.02 
  859.037,1140.92 933.723,1180.55 1008.41,1214.01 1083.09,1242.24 1157.78,1266.05 1232.47,1286.14 1307.15,1303.07 1381.84,1317.35 1456.52,1329.38 1531.21,1339.52 
  1605.9,1348.06 1680.58,1355.25 1755.27,1361.3 1829.95,1366.38 1904.64,1370.64 1979.33,1374.19 2054.01,1377.13 2128.7,1379.55 2203.38,1381.52 2278.07,1383.07 
  2352.76,1384.24 
  "/>
<path clip-path="url(#clip390)" d="
M1935.04 395.509 L2278.07 395.509 L2278.07 93.1086 L1935.04 93.1086  Z
  " fill="#ffffff" fill-rule="evenodd" fill-opacity="1"/>
<polyline clip-path="url(#clip390)" style="stroke:#000000; stroke-width:4; stroke-opacity:1; fill:none" points="
  1935.04,395.509 2278.07,395.509 2278.07,93.1086 1935.04,93.1086 1935.04,395.509 
  "/>
<circle clip-path="url(#clip390)" cx="2034.62" cy="153.589" r="23" fill="#009af9" fill-rule="evenodd" fill-opacity="0.25" stroke="#000000" stroke-opacity="0.25" stroke-width="5.12"/>
<circle clip-path="url(#clip390)" cx="2034.62" cy="153.589" r="23" fill="#009af9" fill-rule="evenodd" fill-opacity="0.25" stroke="#000000" stroke-opacity="0.25" stroke-width="5.12"/>
<circle clip-path="url(#clip390)" cx="2034.62" cy="153.589" r="23" fill="#009af9" fill-rule="evenodd" fill-opacity="0.25" stroke="#000000" stroke-opacity="0.25" stroke-width="5.12"/>
<circle clip-path="url(#clip390)" cx="2034.62" cy="153.589" r="23" fill="#009af9" fill-rule="evenodd" fill-opacity="0.25" stroke="#000000" stroke-opacity="0.25" stroke-width="5.12"/>
<circle clip-path="url(#clip390)" cx="2034.62" cy="153.589" r="23" fill="#009af9" fill-rule="evenodd" fill-opacity="0.25" stroke="#000000" stroke-opacity="0.25" stroke-width="5.12"/>
<circle clip-path="url(#clip390)" cx="2034.62" cy="153.589" r="23" fill="#009af9" fill-rule="evenodd" fill-opacity="0.25" stroke="#000000" stroke-opacity="0.25" stroke-width="5.12"/>
<circle clip-path="url(#clip390)" cx="2034.62" cy="153.589" r="23" fill="#009af9" fill-rule="evenodd" fill-opacity="0.25" stroke="#000000" stroke-opacity="0.25" stroke-width="5.12"/>
<circle clip-path="url(#clip390)" cx="2034.62" cy="153.589" r="23" fill="#009af9" fill-rule="evenodd" fill-opacity="0.25" stroke="#000000" stroke-opacity="0.25" stroke-width="5.12"/>
<circle clip-path="url(#clip390)" cx="2034.62" cy="153.589" r="23" fill="#009af9" fill-rule="evenodd" fill-opacity="0.25" stroke="#000000" stroke-opacity="0.25" stroke-width="5.12"/>
<circle clip-path="url(#clip390)" cx="2034.62" cy="153.589" r="23" fill="#009af9" fill-rule="evenodd" fill-opacity="0.25" stroke="#000000" stroke-opacity="0.25" stroke-width="5.12"/>
<circle clip-path="url(#clip390)" cx="2034.62" cy="153.589" r="23" fill="#009af9" fill-rule="evenodd" fill-opacity="0.25" stroke="#000000" stroke-opacity="0.25" stroke-width="5.12"/>
<circle clip-path="url(#clip390)" cx="2034.62" cy="153.589" r="23" fill="#009af9" fill-rule="evenodd" fill-opacity="0.25" stroke="#000000" stroke-opacity="0.25" stroke-width="5.12"/>
<circle clip-path="url(#clip390)" cx="2034.62" cy="153.589" r="23" fill="#009af9" fill-rule="evenodd" fill-opacity="0.25" stroke="#000000" stroke-opacity="0.25" stroke-width="5.12"/>
<circle clip-path="url(#clip390)" cx="2034.62" cy="153.589" r="23" fill="#009af9" fill-rule="evenodd" fill-opacity="0.25" stroke="#000000" stroke-opacity="0.25" stroke-width="5.12"/>
<circle clip-path="url(#clip390)" cx="2034.62" cy="153.589" r="23" fill="#009af9" fill-rule="evenodd" fill-opacity="0.25" stroke="#000000" stroke-opacity="0.25" stroke-width="5.12"/>
<circle clip-path="url(#clip390)" cx="2034.62" cy="153.589" r="23" fill="#009af9" fill-rule="evenodd" fill-opacity="0.25" stroke="#000000" stroke-opacity="0.25" stroke-width="5.12"/>
<circle clip-path="url(#clip390)" cx="2034.62" cy="153.589" r="23" fill="#009af9" fill-rule="evenodd" fill-opacity="0.25" stroke="#000000" stroke-opacity="0.25" stroke-width="5.12"/>
<circle clip-path="url(#clip390)" cx="2034.62" cy="153.589" r="23" fill="#009af9" fill-rule="evenodd" fill-opacity="0.25" stroke="#000000" stroke-opacity="0.25" stroke-width="5.12"/>
<circle clip-path="url(#clip390)" cx="2034.62" cy="153.589" r="23" fill="#009af9" fill-rule="evenodd" fill-opacity="0.25" stroke="#000000" stroke-opacity="0.25" stroke-width="5.12"/>
<circle clip-path="url(#clip390)" cx="2034.62" cy="153.589" r="23" fill="#009af9" fill-rule="evenodd" fill-opacity="0.25" stroke="#000000" stroke-opacity="0.25" stroke-width="5.12"/>
<circle clip-path="url(#clip390)" cx="2034.62" cy="153.589" r="23" fill="#009af9" fill-rule="evenodd" fill-opacity="0.25" stroke="#000000" stroke-opacity="0.25" stroke-width="5.12"/>
<circle clip-path="url(#clip390)" cx="2034.62" cy="153.589" r="23" fill="#009af9" fill-rule="evenodd" fill-opacity="0.25" stroke="#000000" stroke-opacity="0.25" stroke-width="5.12"/>
<circle clip-path="url(#clip390)" cx="2034.62" cy="153.589" r="23" fill="#009af9" fill-rule="evenodd" fill-opacity="0.25" stroke="#000000" stroke-opacity="0.25" stroke-width="5.12"/>
<circle clip-path="url(#clip390)" cx="2034.62" cy="153.589" r="23" fill="#009af9" fill-rule="evenodd" fill-opacity="0.25" stroke="#000000" stroke-opacity="0.25" stroke-width="5.12"/>
<circle clip-path="url(#clip390)" cx="2034.62" cy="153.589" r="23" fill="#009af9" fill-rule="evenodd" fill-opacity="0.25" stroke="#000000" stroke-opacity="0.25" stroke-width="5.12"/>
<circle clip-path="url(#clip390)" cx="2034.62" cy="153.589" r="23" fill="#009af9" fill-rule="evenodd" fill-opacity="0.25" stroke="#000000" stroke-opacity="0.25" stroke-width="5.12"/>
<circle clip-path="url(#clip390)" cx="2034.62" cy="153.589" r="23" fill="#009af9" fill-rule="evenodd" fill-opacity="0.25" stroke="#000000" stroke-opacity="0.25" stroke-width="5.12"/>
<circle clip-path="url(#clip390)" cx="2034.62" cy="153.589" r="23" fill="#009af9" fill-rule="evenodd" fill-opacity="0.25" stroke="#000000" stroke-opacity="0.25" stroke-width="5.12"/>
<circle clip-path="url(#clip390)" cx="2034.62" cy="153.589" r="23" fill="#009af9" fill-rule="evenodd" fill-opacity="0.25" stroke="#000000" stroke-opacity="0.25" stroke-width="5.12"/>
<circle clip-path="url(#clip390)" cx="2034.62" cy="153.589" r="23" fill="#009af9" fill-rule="evenodd" fill-opacity="0.25" stroke="#000000" stroke-opacity="0.25" stroke-width="5.12"/>
<circle clip-path="url(#clip390)" cx="2034.62" cy="153.589" r="23" fill="#009af9" fill-rule="evenodd" fill-opacity="0.25" stroke="#000000" stroke-opacity="0.25" stroke-width="5.12"/>
<path clip-path="url(#clip390)" d="M 0 0 M2134.21 160.637 L2134.21 144.943 L2138.46 144.943 L2138.46 160.475 Q2138.46 164.156 2139.9 166.008 Q2141.34 167.836 2144.21 167.836 Q2147.65 167.836 2149.65 165.637 Q2151.66 163.438 2151.66 159.642 L2151.66 144.943 L2155.92 144.943 L2155.92 170.869 L2151.66 170.869 L2151.66 166.887 Q2150.11 169.248 2148.05 170.406 Q2146.01 171.54 2143.3 171.54 Q2138.84 171.54 2136.52 168.762 Q2134.21 165.984 2134.21 160.637 M2144.92 144.318 L2144.92 144.318 Z" fill="#000000" fill-rule="evenodd" fill-opacity="1" /><path clip-path="url(#clip390)" d="M 0 0 M2161.8 166.933 L2169.44 166.933 L2169.44 140.568 L2161.13 142.235 L2161.13 137.975 L2169.39 136.309 L2174.07 136.309 L2174.07 166.933 L2181.71 166.933 L2181.71 170.869 L2161.8 170.869 L2161.8 166.933 Z" fill="#000000" fill-rule="evenodd" fill-opacity="1" /><path clip-path="url(#clip390)" d="M 0 0 M2196.4 134.897 Q2193.3 140.221 2191.8 145.429 Q2190.29 150.637 2190.29 155.984 Q2190.29 161.332 2191.8 166.586 Q2193.33 171.818 2196.4 177.119 L2192.7 177.119 Q2189.23 171.679 2187.49 166.424 Q2185.78 161.17 2185.78 155.984 Q2185.78 150.822 2187.49 145.591 Q2189.21 140.36 2192.7 134.897 L2196.4 134.897 Z" fill="#000000" fill-rule="evenodd" fill-opacity="1" /><path clip-path="url(#clip390)" d="M 0 0 M2205.08 137.582 L2205.08 144.943 L2213.86 144.943 L2213.86 148.253 L2205.08 148.253 L2205.08 162.327 Q2205.08 165.498 2205.94 166.401 Q2206.82 167.304 2209.48 167.304 L2213.86 167.304 L2213.86 170.869 L2209.48 170.869 Q2204.55 170.869 2202.68 169.04 Q2200.8 167.188 2200.8 162.327 L2200.8 148.253 L2197.68 148.253 L2197.68 144.943 L2200.8 144.943 L2200.8 137.582 L2205.08 137.582 Z" fill="#000000" fill-rule="evenodd" fill-opacity="1" /><path clip-path="url(#clip390)" d="M 0 0 M2217.65 134.897 L2221.36 134.897 Q2224.83 140.36 2226.54 145.591 Q2228.28 150.822 2228.28 155.984 Q2228.28 161.17 2226.54 166.424 Q2224.83 171.679 2221.36 177.119 L2217.65 177.119 Q2220.73 171.818 2222.24 166.586 Q2223.77 161.332 2223.77 155.984 Q2223.77 150.637 2222.24 145.429 Q2220.73 140.221 2217.65 134.897 Z" fill="#000000" fill-rule="evenodd" fill-opacity="1" /><circle clip-path="url(#clip390)" cx="2034.62" cy="214.069" r="23" fill="#e26f46" fill-rule="evenodd" fill-opacity="0.25" stroke="#000000" stroke-opacity="0.25" stroke-width="5.12"/>
<circle clip-path="url(#clip390)" cx="2034.62" cy="214.069" r="23" fill="#e26f46" fill-rule="evenodd" fill-opacity="0.25" stroke="#000000" stroke-opacity="0.25" stroke-width="5.12"/>
<circle clip-path="url(#clip390)" cx="2034.62" cy="214.069" r="23" fill="#e26f46" fill-rule="evenodd" fill-opacity="0.25" stroke="#000000" stroke-opacity="0.25" stroke-width="5.12"/>
<circle clip-path="url(#clip390)" cx="2034.62" cy="214.069" r="23" fill="#e26f46" fill-rule="evenodd" fill-opacity="0.25" stroke="#000000" stroke-opacity="0.25" stroke-width="5.12"/>
<circle clip-path="url(#clip390)" cx="2034.62" cy="214.069" r="23" fill="#e26f46" fill-rule="evenodd" fill-opacity="0.25" stroke="#000000" stroke-opacity="0.25" stroke-width="5.12"/>
<circle clip-path="url(#clip390)" cx="2034.62" cy="214.069" r="23" fill="#e26f46" fill-rule="evenodd" fill-opacity="0.25" stroke="#000000" stroke-opacity="0.25" stroke-width="5.12"/>
<circle clip-path="url(#clip390)" cx="2034.62" cy="214.069" r="23" fill="#e26f46" fill-rule="evenodd" fill-opacity="0.25" stroke="#000000" stroke-opacity="0.25" stroke-width="5.12"/>
<circle clip-path="url(#clip390)" cx="2034.62" cy="214.069" r="23" fill="#e26f46" fill-rule="evenodd" fill-opacity="0.25" stroke="#000000" stroke-opacity="0.25" stroke-width="5.12"/>
<circle clip-path="url(#clip390)" cx="2034.62" cy="214.069" r="23" fill="#e26f46" fill-rule="evenodd" fill-opacity="0.25" stroke="#000000" stroke-opacity="0.25" stroke-width="5.12"/>
<circle clip-path="url(#clip390)" cx="2034.62" cy="214.069" r="23" fill="#e26f46" fill-rule="evenodd" fill-opacity="0.25" stroke="#000000" stroke-opacity="0.25" stroke-width="5.12"/>
<circle clip-path="url(#clip390)" cx="2034.62" cy="214.069" r="23" fill="#e26f46" fill-rule="evenodd" fill-opacity="0.25" stroke="#000000" stroke-opacity="0.25" stroke-width="5.12"/>
<circle clip-path="url(#clip390)" cx="2034.62" cy="214.069" r="23" fill="#e26f46" fill-rule="evenodd" fill-opacity="0.25" stroke="#000000" stroke-opacity="0.25" stroke-width="5.12"/>
<circle clip-path="url(#clip390)" cx="2034.62" cy="214.069" r="23" fill="#e26f46" fill-rule="evenodd" fill-opacity="0.25" stroke="#000000" stroke-opacity="0.25" stroke-width="5.12"/>
<circle clip-path="url(#clip390)" cx="2034.62" cy="214.069" r="23" fill="#e26f46" fill-rule="evenodd" fill-opacity="0.25" stroke="#000000" stroke-opacity="0.25" stroke-width="5.12"/>
<circle clip-path="url(#clip390)" cx="2034.62" cy="214.069" r="23" fill="#e26f46" fill-rule="evenodd" fill-opacity="0.25" stroke="#000000" stroke-opacity="0.25" stroke-width="5.12"/>
<circle clip-path="url(#clip390)" cx="2034.62" cy="214.069" r="23" fill="#e26f46" fill-rule="evenodd" fill-opacity="0.25" stroke="#000000" stroke-opacity="0.25" stroke-width="5.12"/>
<circle clip-path="url(#clip390)" cx="2034.62" cy="214.069" r="23" fill="#e26f46" fill-rule="evenodd" fill-opacity="0.25" stroke="#000000" stroke-opacity="0.25" stroke-width="5.12"/>
<circle clip-path="url(#clip390)" cx="2034.62" cy="214.069" r="23" fill="#e26f46" fill-rule="evenodd" fill-opacity="0.25" stroke="#000000" stroke-opacity="0.25" stroke-width="5.12"/>
<circle clip-path="url(#clip390)" cx="2034.62" cy="214.069" r="23" fill="#e26f46" fill-rule="evenodd" fill-opacity="0.25" stroke="#000000" stroke-opacity="0.25" stroke-width="5.12"/>
<circle clip-path="url(#clip390)" cx="2034.62" cy="214.069" r="23" fill="#e26f46" fill-rule="evenodd" fill-opacity="0.25" stroke="#000000" stroke-opacity="0.25" stroke-width="5.12"/>
<circle clip-path="url(#clip390)" cx="2034.62" cy="214.069" r="23" fill="#e26f46" fill-rule="evenodd" fill-opacity="0.25" stroke="#000000" stroke-opacity="0.25" stroke-width="5.12"/>
<circle clip-path="url(#clip390)" cx="2034.62" cy="214.069" r="23" fill="#e26f46" fill-rule="evenodd" fill-opacity="0.25" stroke="#000000" stroke-opacity="0.25" stroke-width="5.12"/>
<circle clip-path="url(#clip390)" cx="2034.62" cy="214.069" r="23" fill="#e26f46" fill-rule="evenodd" fill-opacity="0.25" stroke="#000000" stroke-opacity="0.25" stroke-width="5.12"/>
<circle clip-path="url(#clip390)" cx="2034.62" cy="214.069" r="23" fill="#e26f46" fill-rule="evenodd" fill-opacity="0.25" stroke="#000000" stroke-opacity="0.25" stroke-width="5.12"/>
<circle clip-path="url(#clip390)" cx="2034.62" cy="214.069" r="23" fill="#e26f46" fill-rule="evenodd" fill-opacity="0.25" stroke="#000000" stroke-opacity="0.25" stroke-width="5.12"/>
<circle clip-path="url(#clip390)" cx="2034.62" cy="214.069" r="23" fill="#e26f46" fill-rule="evenodd" fill-opacity="0.25" stroke="#000000" stroke-opacity="0.25" stroke-width="5.12"/>
<circle clip-path="url(#clip390)" cx="2034.62" cy="214.069" r="23" fill="#e26f46" fill-rule="evenodd" fill-opacity="0.25" stroke="#000000" stroke-opacity="0.25" stroke-width="5.12"/>
<circle clip-path="url(#clip390)" cx="2034.62" cy="214.069" r="23" fill="#e26f46" fill-rule="evenodd" fill-opacity="0.25" stroke="#000000" stroke-opacity="0.25" stroke-width="5.12"/>
<circle clip-path="url(#clip390)" cx="2034.62" cy="214.069" r="23" fill="#e26f46" fill-rule="evenodd" fill-opacity="0.25" stroke="#000000" stroke-opacity="0.25" stroke-width="5.12"/>
<circle clip-path="url(#clip390)" cx="2034.62" cy="214.069" r="23" fill="#e26f46" fill-rule="evenodd" fill-opacity="0.25" stroke="#000000" stroke-opacity="0.25" stroke-width="5.12"/>
<circle clip-path="url(#clip390)" cx="2034.62" cy="214.069" r="23" fill="#e26f46" fill-rule="evenodd" fill-opacity="0.25" stroke="#000000" stroke-opacity="0.25" stroke-width="5.12"/>
<path clip-path="url(#clip390)" d="M 0 0 M2134.21 221.117 L2134.21 205.423 L2138.46 205.423 L2138.46 220.955 Q2138.46 224.636 2139.9 226.488 Q2141.34 228.316 2144.21 228.316 Q2147.65 228.316 2149.65 226.117 Q2151.66 223.918 2151.66 220.122 L2151.66 205.423 L2155.92 205.423 L2155.92 231.349 L2151.66 231.349 L2151.66 227.367 Q2150.11 229.728 2148.05 230.886 Q2146.01 232.02 2143.3 232.02 Q2138.84 232.02 2136.52 229.242 Q2134.21 226.464 2134.21 221.117 M2144.92 204.798 L2144.92 204.798 Z" fill="#000000" fill-rule="evenodd" fill-opacity="1" /><path clip-path="url(#clip390)" d="M 0 0 M2165.02 227.413 L2181.34 227.413 L2181.34 231.349 L2159.39 231.349 L2159.39 227.413 Q2162.05 224.659 2166.64 220.029 Q2171.24 215.376 2172.42 214.034 Q2174.67 211.511 2175.55 209.775 Q2176.45 208.015 2176.45 206.326 Q2176.45 203.571 2174.51 201.835 Q2172.59 200.099 2169.48 200.099 Q2167.28 200.099 2164.83 200.863 Q2162.4 201.627 2159.62 203.177 L2159.62 198.455 Q2162.45 197.321 2164.9 196.742 Q2167.35 196.164 2169.39 196.164 Q2174.76 196.164 2177.96 198.849 Q2181.15 201.534 2181.15 206.025 Q2181.15 208.154 2180.34 210.076 Q2179.55 211.974 2177.45 214.566 Q2176.87 215.238 2173.77 218.455 Q2170.66 221.65 2165.02 227.413 Z" fill="#000000" fill-rule="evenodd" fill-opacity="1" /><path clip-path="url(#clip390)" d="M 0 0 M2196.03 195.377 Q2192.93 200.701 2191.43 205.909 Q2189.92 211.117 2189.92 216.464 Q2189.92 221.812 2191.43 227.066 Q2192.96 232.298 2196.03 237.599 L2192.33 237.599 Q2188.86 232.159 2187.12 226.904 Q2185.41 221.65 2185.41 216.464 Q2185.41 211.302 2187.12 206.071 Q2188.84 200.84 2192.33 195.377 L2196.03 195.377 Z" fill="#000000" fill-rule="evenodd" fill-opacity="1" /><path clip-path="url(#clip390)" d="M 0 0 M2204.71 198.062 L2204.71 205.423 L2213.49 205.423 L2213.49 208.733 L2204.71 208.733 L2204.71 222.807 Q2204.71 225.978 2205.57 226.881 Q2206.45 227.784 2209.11 227.784 L2213.49 227.784 L2213.49 231.349 L2209.11 231.349 Q2204.18 231.349 2202.31 229.52 Q2200.43 227.668 2200.43 222.807 L2200.43 208.733 L2197.31 208.733 L2197.31 205.423 L2200.43 205.423 L2200.43 198.062 L2204.71 198.062 Z" fill="#000000" fill-rule="evenodd" fill-opacity="1" /><path clip-path="url(#clip390)" d="M 0 0 M2217.28 195.377 L2220.99 195.377 Q2224.46 200.84 2226.17 206.071 Q2227.91 211.302 2227.91 216.464 Q2227.91 221.65 2226.17 226.904 Q2224.46 232.159 2220.99 237.599 L2217.28 237.599 Q2220.36 232.298 2221.87 227.066 Q2223.4 221.812 2223.4 216.464 Q2223.4 211.117 2221.87 205.909 Q2220.36 200.701 2217.28 195.377 Z" fill="#000000" fill-rule="evenodd" fill-opacity="1" /><polyline clip-path="url(#clip390)" style="stroke:#3da44d; stroke-width:4; stroke-opacity:0.5; fill:none" points="
  1959.94,274.549 2109.31,274.549 
  "/>
<path clip-path="url(#clip390)" d="M 0 0 M2134.21 281.597 L2134.21 265.903 L2138.46 265.903 L2138.46 281.435 Q2138.46 285.116 2139.9 286.968 Q2141.34 288.796 2144.21 288.796 Q2147.65 288.796 2149.65 286.597 Q2151.66 284.398 2151.66 280.602 L2151.66 265.903 L2155.92 265.903 L2155.92 291.829 L2151.66 291.829 L2151.66 287.847 Q2150.11 290.208 2148.05 291.366 Q2146.01 292.5 2143.3 292.5 Q2138.84 292.5 2136.52 289.722 Q2134.21 286.944 2134.21 281.597 M2144.92 265.278 L2144.92 265.278 Z" fill="#000000" fill-rule="evenodd" fill-opacity="1" /><path clip-path="url(#clip390)" d="M 0 0 M2161.8 287.893 L2169.44 287.893 L2169.44 261.528 L2161.13 263.195 L2161.13 258.935 L2169.39 257.269 L2174.07 257.269 L2174.07 287.893 L2181.71 287.893 L2181.71 291.829 L2161.8 291.829 L2161.8 287.893 Z" fill="#000000" fill-rule="evenodd" fill-opacity="1" /><path clip-path="url(#clip390)" d="M 0 0 M2196.4 255.857 Q2193.3 261.181 2191.8 266.389 Q2190.29 271.597 2190.29 276.944 Q2190.29 282.292 2191.8 287.546 Q2193.33 292.778 2196.4 298.079 L2192.7 298.079 Q2189.23 292.639 2187.49 287.384 Q2185.78 282.13 2185.78 276.944 Q2185.78 271.782 2187.49 266.551 Q2189.21 261.32 2192.7 255.857 L2196.4 255.857 Z" fill="#000000" fill-rule="evenodd" fill-opacity="1" /><path clip-path="url(#clip390)" d="M 0 0 M2205.08 258.542 L2205.08 265.903 L2213.86 265.903 L2213.86 269.213 L2205.08 269.213 L2205.08 283.287 Q2205.08 286.458 2205.94 287.361 Q2206.82 288.264 2209.48 288.264 L2213.86 288.264 L2213.86 291.829 L2209.48 291.829 Q2204.55 291.829 2202.68 290 Q2200.8 288.148 2200.8 283.287 L2200.8 269.213 L2197.68 269.213 L2197.68 265.903 L2200.8 265.903 L2200.8 258.542 L2205.08 258.542 Z" fill="#000000" fill-rule="evenodd" fill-opacity="1" /><path clip-path="url(#clip390)" d="M 0 0 M2217.65 255.857 L2221.36 255.857 Q2224.83 261.32 2226.54 266.551 Q2228.28 271.782 2228.28 276.944 Q2228.28 282.13 2226.54 287.384 Q2224.83 292.639 2221.36 298.079 L2217.65 298.079 Q2220.73 292.778 2222.24 287.546 Q2223.77 282.292 2223.77 276.944 Q2223.77 271.597 2222.24 266.389 Q2220.73 261.181 2217.65 255.857 Z" fill="#000000" fill-rule="evenodd" fill-opacity="1" /><polyline clip-path="url(#clip390)" style="stroke:#c271d2; stroke-width:4; stroke-opacity:0.5; fill:none" points="
  1959.94,335.029 2109.31,335.029 
  "/>
<path clip-path="url(#clip390)" d="M 0 0 M2134.21 342.077 L2134.21 326.383 L2138.46 326.383 L2138.46 341.915 Q2138.46 345.596 2139.9 347.448 Q2141.34 349.276 2144.21 349.276 Q2147.65 349.276 2149.65 347.077 Q2151.66 344.878 2151.66 341.082 L2151.66 326.383 L2155.92 326.383 L2155.92 352.309 L2151.66 352.309 L2151.66 348.327 Q2150.11 350.688 2148.05 351.846 Q2146.01 352.98 2143.3 352.98 Q2138.84 352.98 2136.52 350.202 Q2134.21 347.424 2134.21 342.077 M2144.92 325.758 L2144.92 325.758 Z" fill="#000000" fill-rule="evenodd" fill-opacity="1" /><path clip-path="url(#clip390)" d="M 0 0 M2165.02 348.373 L2181.34 348.373 L2181.34 352.309 L2159.39 352.309 L2159.39 348.373 Q2162.05 345.619 2166.64 340.989 Q2171.24 336.336 2172.42 334.994 Q2174.67 332.471 2175.55 330.735 Q2176.45 328.975 2176.45 327.286 Q2176.45 324.531 2174.51 322.795 Q2172.59 321.059 2169.48 321.059 Q2167.28 321.059 2164.83 321.823 Q2162.4 322.587 2159.62 324.137 L2159.62 319.415 Q2162.45 318.281 2164.9 317.702 Q2167.35 317.124 2169.39 317.124 Q2174.76 317.124 2177.96 319.809 Q2181.15 322.494 2181.15 326.985 Q2181.15 329.114 2180.34 331.036 Q2179.55 332.934 2177.45 335.526 Q2176.87 336.198 2173.77 339.415 Q2170.66 342.61 2165.02 348.373 Z" fill="#000000" fill-rule="evenodd" fill-opacity="1" /><path clip-path="url(#clip390)" d="M 0 0 M2196.03 316.337 Q2192.93 321.661 2191.43 326.869 Q2189.92 332.077 2189.92 337.424 Q2189.92 342.772 2191.43 348.026 Q2192.96 353.258 2196.03 358.559 L2192.33 358.559 Q2188.86 353.119 2187.12 347.864 Q2185.41 342.61 2185.41 337.424 Q2185.41 332.262 2187.12 327.031 Q2188.84 321.8 2192.33 316.337 L2196.03 316.337 Z" fill="#000000" fill-rule="evenodd" fill-opacity="1" /><path clip-path="url(#clip390)" d="M 0 0 M2204.71 319.022 L2204.71 326.383 L2213.49 326.383 L2213.49 329.693 L2204.71 329.693 L2204.71 343.767 Q2204.71 346.938 2205.57 347.841 Q2206.45 348.744 2209.11 348.744 L2213.49 348.744 L2213.49 352.309 L2209.11 352.309 Q2204.18 352.309 2202.31 350.48 Q2200.43 348.628 2200.43 343.767 L2200.43 329.693 L2197.31 329.693 L2197.31 326.383 L2200.43 326.383 L2200.43 319.022 L2204.71 319.022 Z" fill="#000000" fill-rule="evenodd" fill-opacity="1" /><path clip-path="url(#clip390)" d="M 0 0 M2217.28 316.337 L2220.99 316.337 Q2224.46 321.8 2226.17 327.031 Q2227.91 332.262 2227.91 337.424 Q2227.91 342.61 2226.17 347.864 Q2224.46 353.119 2220.99 358.559 L2217.28 358.559 Q2220.36 353.258 2221.87 348.026 Q2223.4 342.772 2223.4 337.424 Q2223.4 332.077 2221.87 326.869 Q2220.36 321.661 2217.28 316.337 Z" fill="#000000" fill-rule="evenodd" fill-opacity="1" /></svg>
